<?xml version="1.0" encoding="UTF-8"?>
<svg xmlns="http://www.w3.org/2000/svg" xmlns:xlink="http://www.w3.org/1999/xlink" width="468" height="252" viewBox="0 0 468 252">
<defs>
<g>
<g id="glyph-0-0">
<path d="M 0.464844 -3.347656 C 0.464844 -4.488281 0.769531 -5.378906 1.382812 -6.027344 C 1.996094 -6.671875 2.785156 -6.992188 3.753906 -6.992188 C 4.390625 -6.992188 4.960938 -6.84375 5.46875 -6.539062 C 5.980469 -6.234375 6.367188 -5.8125 6.636719 -5.269531 C 6.902344 -4.730469 7.035156 -4.113281 7.035156 -3.425781 C 7.035156 -2.730469 6.894531 -2.105469 6.613281 -1.554688 C 6.332031 -1.007812 5.933594 -0.589844 5.417969 -0.308594 C 4.902344 -0.0234375 4.347656 0.117188 3.75 0.117188 C 3.101562 0.117188 2.523438 -0.0390625 2.015625 -0.351562 C 1.507812 -0.664062 1.121094 -1.089844 0.859375 -1.632812 C 0.59375 -2.171875 0.464844 -2.742188 0.464844 -3.347656 M 1.402344 -3.332031 C 1.402344 -2.503906 1.625 -1.851562 2.070312 -1.375 C 2.515625 -0.898438 3.074219 -0.660156 3.746094 -0.660156 C 4.429688 -0.660156 4.992188 -0.902344 5.433594 -1.382812 C 5.878906 -1.863281 6.097656 -2.546875 6.097656 -3.429688 C 6.097656 -3.992188 6.003906 -4.480469 5.816406 -4.894531 C 5.625 -5.3125 5.347656 -5.636719 4.984375 -5.867188 C 4.621094 -6.097656 4.210938 -6.210938 3.757812 -6.210938 C 3.117188 -6.210938 2.5625 -5.988281 2.097656 -5.546875 C 1.632812 -5.105469 1.402344 -4.367188 1.402344 -3.332031 Z M 1.402344 -3.332031 "/>
</g>
<g id="glyph-0-1">
<path d="M 2.476562 -0.753906 L 2.597656 -0.0078125 C 2.359375 0.0390625 2.148438 0.0664062 1.960938 0.0664062 C 1.652344 0.0664062 1.414062 0.015625 1.246094 -0.078125 C 1.078125 -0.175781 0.960938 -0.304688 0.890625 -0.460938 C 0.820312 -0.621094 0.789062 -0.953125 0.789062 -1.457031 L 0.789062 -4.320312 L 0.167969 -4.320312 L 0.167969 -4.976562 L 0.789062 -4.976562 L 0.789062 -6.210938 L 1.625 -6.71875 L 1.625 -4.976562 L 2.476562 -4.976562 L 2.476562 -4.320312 L 1.625 -4.320312 L 1.625 -1.410156 C 1.625 -1.171875 1.640625 -1.015625 1.671875 -0.945312 C 1.699219 -0.878906 1.75 -0.824219 1.816406 -0.78125 C 1.882812 -0.742188 1.980469 -0.722656 2.105469 -0.722656 C 2.199219 -0.722656 2.320312 -0.734375 2.476562 -0.753906 Z M 2.476562 -0.753906 "/>
</g>
<g id="glyph-0-2">
<path d="M 0.632812 0 L 0.632812 -6.871094 L 1.476562 -6.871094 L 1.476562 -4.40625 C 1.871094 -4.863281 2.367188 -5.089844 2.96875 -5.089844 C 3.335938 -5.089844 3.65625 -5.019531 3.929688 -4.871094 C 4.199219 -4.726562 4.394531 -4.527344 4.511719 -4.269531 C 4.628906 -4.015625 4.6875 -3.640625 4.6875 -3.15625 L 4.6875 0 L 3.84375 0 L 3.84375 -3.15625 C 3.84375 -3.578125 3.753906 -3.882812 3.570312 -4.074219 C 3.386719 -4.269531 3.128906 -4.363281 2.792969 -4.363281 C 2.542969 -4.363281 2.308594 -4.300781 2.089844 -4.167969 C 1.867188 -4.039062 1.710938 -3.863281 1.617188 -3.640625 C 1.523438 -3.421875 1.476562 -3.113281 1.476562 -2.722656 L 1.476562 0 Z M 0.632812 0 "/>
</g>
<g id="glyph-0-3">
<path d="M 4.039062 -1.601562 L 4.914062 -1.496094 C 4.773438 -0.984375 4.519531 -0.589844 4.148438 -0.308594 C 3.777344 -0.0273438 3.300781 0.113281 2.722656 0.113281 C 1.996094 0.113281 1.417969 -0.113281 0.992188 -0.558594 C 0.566406 -1.007812 0.351562 -1.636719 0.351562 -2.445312 C 0.351562 -3.285156 0.566406 -3.933594 1 -4.398438 C 1.429688 -4.859375 1.988281 -5.089844 2.675781 -5.089844 C 3.34375 -5.089844 3.886719 -4.863281 4.308594 -4.410156 C 4.730469 -3.957031 4.941406 -3.320312 4.941406 -2.5 C 4.941406 -2.449219 4.9375 -2.375 4.9375 -2.273438 L 1.222656 -2.273438 C 1.253906 -1.726562 1.410156 -1.308594 1.6875 -1.015625 C 1.964844 -0.726562 2.3125 -0.582031 2.726562 -0.582031 C 3.039062 -0.582031 3.300781 -0.664062 3.519531 -0.824219 C 3.738281 -0.988281 3.914062 -1.246094 4.039062 -1.601562 M 1.269531 -2.96875 L 4.050781 -2.96875 C 4.011719 -3.386719 3.90625 -3.699219 3.730469 -3.910156 C 3.460938 -4.234375 3.113281 -4.398438 2.6875 -4.398438 C 2.296875 -4.398438 1.972656 -4.265625 1.707031 -4.007812 C 1.445312 -3.75 1.296875 -3.402344 1.269531 -2.96875 Z M 1.269531 -2.96875 "/>
</g>
<g id="glyph-0-4">
<path d="M 0.625 0 L 0.625 -4.976562 L 1.382812 -4.976562 L 1.382812 -4.222656 C 1.578125 -4.578125 1.753906 -4.808594 1.917969 -4.921875 C 2.082031 -5.035156 2.265625 -5.089844 2.460938 -5.089844 C 2.746094 -5.089844 3.035156 -5 3.328125 -4.820312 L 3.039062 -4.035156 C 2.832031 -4.15625 2.625 -4.21875 2.417969 -4.21875 C 2.234375 -4.21875 2.070312 -4.164062 1.921875 -4.050781 C 1.773438 -3.941406 1.671875 -3.789062 1.609375 -3.589844 C 1.515625 -3.289062 1.46875 -2.960938 1.46875 -2.605469 L 1.46875 0 Z M 0.625 0 "/>
</g>
<g id="glyph-0-5">
<path d="M 0.789062 0 L 0.789062 -6.871094 L 5.421875 -6.871094 L 5.421875 -6.0625 L 1.695312 -6.0625 L 1.695312 -3.933594 L 4.921875 -3.933594 L 4.921875 -3.121094 L 1.695312 -3.121094 L 1.695312 0 Z M 0.789062 0 "/>
</g>
<g id="glyph-0-6">
<path d="M 3.882812 -0.613281 C 3.570312 -0.347656 3.269531 -0.160156 2.980469 -0.0507812 C 2.691406 0.0585938 2.378906 0.113281 2.046875 0.113281 C 1.5 0.113281 1.082031 -0.0195312 0.789062 -0.289062 C 0.492188 -0.554688 0.347656 -0.898438 0.347656 -1.3125 C 0.347656 -1.554688 0.402344 -1.777344 0.511719 -1.980469 C 0.625 -2.183594 0.769531 -2.34375 0.949219 -2.464844 C 1.128906 -2.585938 1.332031 -2.679688 1.554688 -2.742188 C 1.722656 -2.785156 1.972656 -2.828125 2.304688 -2.867188 C 2.988281 -2.949219 3.488281 -3.046875 3.8125 -3.160156 C 3.8125 -3.273438 3.816406 -3.347656 3.816406 -3.378906 C 3.816406 -3.722656 3.734375 -3.964844 3.578125 -4.105469 C 3.359375 -4.296875 3.039062 -4.390625 2.617188 -4.390625 C 2.21875 -4.390625 1.925781 -4.324219 1.738281 -4.183594 C 1.546875 -4.042969 1.40625 -3.796875 1.316406 -3.445312 L 0.492188 -3.558594 C 0.566406 -3.910156 0.691406 -4.195312 0.863281 -4.414062 C 1.035156 -4.628906 1.28125 -4.796875 1.609375 -4.914062 C 1.933594 -5.03125 2.308594 -5.089844 2.738281 -5.089844 C 3.164062 -5.089844 3.507812 -5.039062 3.773438 -4.941406 C 4.039062 -4.839844 4.234375 -4.714844 4.359375 -4.5625 C 4.484375 -4.410156 4.570312 -4.21875 4.621094 -3.988281 C 4.648438 -3.84375 4.664062 -3.585938 4.664062 -3.210938 L 4.664062 -2.085938 C 4.664062 -1.300781 4.683594 -0.804688 4.71875 -0.597656 C 4.753906 -0.390625 4.824219 -0.191406 4.929688 0 L 4.050781 0 C 3.960938 -0.175781 3.90625 -0.378906 3.882812 -0.613281 M 3.8125 -2.5 C 3.503906 -2.375 3.046875 -2.265625 2.433594 -2.179688 C 2.085938 -2.128906 1.839844 -2.074219 1.695312 -2.011719 C 1.554688 -1.949219 1.441406 -1.855469 1.363281 -1.738281 C 1.285156 -1.617188 1.246094 -1.484375 1.246094 -1.335938 C 1.246094 -1.109375 1.332031 -0.921875 1.503906 -0.773438 C 1.671875 -0.625 1.921875 -0.546875 2.25 -0.546875 C 2.574219 -0.546875 2.863281 -0.621094 3.117188 -0.761719 C 3.371094 -0.902344 3.554688 -1.097656 3.675781 -1.34375 C 3.765625 -1.535156 3.8125 -1.816406 3.8125 -2.1875 Z M 3.8125 -2.5 "/>
</g>
<g id="glyph-0-7">
<path d="M 0.632812 0 L 0.632812 -4.976562 L 1.386719 -4.976562 L 1.386719 -4.28125 C 1.542969 -4.523438 1.75 -4.71875 2.011719 -4.867188 C 2.269531 -5.015625 2.566406 -5.089844 2.898438 -5.089844 C 3.265625 -5.089844 3.566406 -5.015625 3.804688 -4.859375 C 4.039062 -4.707031 4.207031 -4.492188 4.304688 -4.21875 C 4.695312 -4.800781 5.210938 -5.089844 5.839844 -5.089844 C 6.335938 -5.089844 6.714844 -4.953125 6.980469 -4.679688 C 7.246094 -4.40625 7.378906 -3.984375 7.378906 -3.417969 L 7.378906 0 L 6.539062 0 L 6.539062 -3.136719 C 6.539062 -3.472656 6.511719 -3.714844 6.457031 -3.863281 C 6.402344 -4.011719 6.304688 -4.132812 6.160156 -4.222656 C 6.015625 -4.3125 5.847656 -4.359375 5.652344 -4.359375 C 5.304688 -4.359375 5.011719 -4.242188 4.78125 -4.011719 C 4.550781 -3.777344 4.433594 -3.40625 4.433594 -2.890625 L 4.433594 0 L 3.589844 0 L 3.589844 -3.234375 C 3.589844 -3.609375 3.523438 -3.890625 3.382812 -4.078125 C 3.246094 -4.265625 3.023438 -4.359375 2.710938 -4.359375 C 2.472656 -4.359375 2.253906 -4.296875 2.050781 -4.171875 C 1.847656 -4.046875 1.703125 -3.863281 1.613281 -3.625 C 1.523438 -3.382812 1.476562 -3.035156 1.476562 -2.582031 L 1.476562 0 Z M 0.632812 0 "/>
</g>
<g id="glyph-0-8">
<path d="M 0.636719 -5.902344 L 0.636719 -6.871094 L 1.480469 -6.871094 L 1.480469 -5.902344 L 0.636719 -5.902344 M 0.636719 0 L 0.636719 -4.976562 L 1.480469 -4.976562 L 1.480469 0 Z M 0.636719 0 "/>
</g>
<g id="glyph-0-9">
<path d="M 0.613281 0 L 0.613281 -6.871094 L 1.457031 -6.871094 L 1.457031 0 Z M 0.613281 0 "/>
</g>
<g id="glyph-0-10">
<path d="M 0.59375 1.917969 L 0.5 1.125 C 0.6875 1.175781 0.847656 1.199219 0.984375 1.199219 C 1.171875 1.199219 1.320312 1.167969 1.433594 1.105469 C 1.546875 1.042969 1.640625 0.957031 1.710938 0.84375 C 1.765625 0.757812 1.851562 0.550781 1.96875 0.214844 C 1.984375 0.167969 2.007812 0.101562 2.042969 0.0078125 L 0.15625 -4.976562 L 1.0625 -4.976562 L 2.101562 -2.09375 C 2.234375 -1.730469 2.355469 -1.34375 2.460938 -0.941406 C 2.558594 -1.328125 2.671875 -1.707031 2.808594 -2.078125 L 3.871094 -4.976562 L 4.714844 -4.976562 L 2.820312 0.0859375 C 2.617188 0.632812 2.460938 1.007812 2.347656 1.214844 C 2.199219 1.492188 2.027344 1.695312 1.832031 1.824219 C 1.640625 1.957031 1.40625 2.019531 1.140625 2.019531 C 0.976562 2.019531 0.796875 1.984375 0.59375 1.917969 Z M 0.59375 1.917969 "/>
</g>
<g id="glyph-0-11">
<path d="M 0.632812 0 L 0.632812 -4.976562 L 1.390625 -4.976562 L 1.390625 -4.269531 C 1.757812 -4.816406 2.285156 -5.089844 2.976562 -5.089844 C 3.277344 -5.089844 3.550781 -5.035156 3.804688 -4.929688 C 4.054688 -4.820312 4.242188 -4.679688 4.367188 -4.503906 C 4.492188 -4.328125 4.582031 -4.121094 4.632812 -3.882812 C 4.664062 -3.726562 4.679688 -3.453125 4.679688 -3.0625 L 4.679688 0 L 3.835938 0 L 3.835938 -3.027344 C 3.835938 -3.371094 3.800781 -3.628906 3.734375 -3.800781 C 3.671875 -3.96875 3.554688 -4.105469 3.386719 -4.207031 C 3.21875 -4.308594 3.023438 -4.359375 2.796875 -4.359375 C 2.4375 -4.359375 2.128906 -4.246094 1.867188 -4.015625 C 1.605469 -3.789062 1.476562 -3.355469 1.476562 -2.71875 L 1.476562 0 Z M 0.632812 0 "/>
</g>
<g id="glyph-0-12">
<path d="M 3.882812 -1.824219 L 4.710938 -1.714844 C 4.621094 -1.144531 4.386719 -0.695312 4.015625 -0.371094 C 3.640625 -0.0507812 3.183594 0.113281 2.640625 0.113281 C 1.957031 0.113281 1.410156 -0.109375 0.996094 -0.554688 C 0.582031 -1 0.375 -1.640625 0.375 -2.46875 C 0.375 -3.007812 0.464844 -3.476562 0.640625 -3.882812 C 0.820312 -4.285156 1.089844 -4.585938 1.457031 -4.789062 C 1.820312 -4.988281 2.214844 -5.089844 2.644531 -5.089844 C 3.183594 -5.089844 3.625 -4.953125 3.96875 -4.679688 C 4.3125 -4.40625 4.535156 -4.019531 4.632812 -3.515625 L 3.8125 -3.390625 C 3.734375 -3.722656 3.59375 -3.976562 3.394531 -4.144531 C 3.199219 -4.3125 2.957031 -4.398438 2.675781 -4.398438 C 2.25 -4.398438 1.90625 -4.246094 1.640625 -3.941406 C 1.375 -3.636719 1.242188 -3.152344 1.242188 -2.492188 C 1.242188 -1.824219 1.371094 -1.339844 1.625 -1.035156 C 1.882812 -0.734375 2.21875 -0.582031 2.628906 -0.582031 C 2.960938 -0.582031 3.238281 -0.683594 3.460938 -0.886719 C 3.679688 -1.089844 3.820312 -1.402344 3.882812 -1.824219 Z M 3.882812 -1.824219 "/>
</g>
<g id="glyph-0-13">
<path d="M 0.296875 -1.484375 L 1.128906 -1.617188 C 1.175781 -1.28125 1.308594 -1.027344 1.519531 -0.847656 C 1.734375 -0.671875 2.035156 -0.582031 2.417969 -0.582031 C 2.804688 -0.582031 3.09375 -0.660156 3.28125 -0.816406 C 3.46875 -0.976562 3.5625 -1.160156 3.5625 -1.375 C 3.5625 -1.5625 3.480469 -1.714844 3.3125 -1.824219 C 3.199219 -1.898438 2.910156 -1.992188 2.453125 -2.109375 C 1.832031 -2.265625 1.402344 -2.402344 1.164062 -2.515625 C 0.925781 -2.628906 0.746094 -2.785156 0.621094 -2.988281 C 0.496094 -3.191406 0.4375 -3.414062 0.4375 -3.65625 C 0.4375 -3.878906 0.488281 -4.082031 0.589844 -4.273438 C 0.691406 -4.460938 0.828125 -4.617188 1.003906 -4.742188 C 1.132812 -4.839844 1.3125 -4.921875 1.539062 -4.988281 C 1.765625 -5.058594 2.007812 -5.089844 2.269531 -5.089844 C 2.660156 -5.089844 3.003906 -5.035156 3.296875 -4.921875 C 3.59375 -4.808594 3.8125 -4.65625 3.953125 -4.464844 C 4.09375 -4.273438 4.1875 -4.015625 4.242188 -3.695312 L 3.417969 -3.582031 C 3.378906 -3.835938 3.269531 -4.039062 3.089844 -4.179688 C 2.910156 -4.324219 2.65625 -4.398438 2.328125 -4.398438 C 1.941406 -4.398438 1.664062 -4.332031 1.5 -4.203125 C 1.335938 -4.078125 1.25 -3.925781 1.25 -3.753906 C 1.25 -3.644531 1.285156 -3.546875 1.355469 -3.460938 C 1.421875 -3.367188 1.53125 -3.292969 1.679688 -3.234375 C 1.761719 -3.203125 2.011719 -3.132812 2.421875 -3.019531 C 3.019531 -2.859375 3.4375 -2.730469 3.671875 -2.628906 C 3.910156 -2.527344 4.09375 -2.378906 4.226562 -2.183594 C 4.363281 -1.992188 4.429688 -1.75 4.429688 -1.460938 C 4.429688 -1.179688 4.347656 -0.917969 4.183594 -0.667969 C 4.019531 -0.417969 3.78125 -0.226562 3.472656 -0.0898438 C 3.164062 0.0429688 2.8125 0.113281 2.421875 0.113281 C 1.777344 0.113281 1.285156 -0.0234375 0.945312 -0.289062 C 0.605469 -0.558594 0.390625 -0.957031 0.296875 -1.484375 Z M 0.296875 -1.484375 "/>
</g>
<g id="glyph-0-14">
<path d="M 0.769531 0 L 0.769531 -6.871094 L 1.679688 -6.871094 L 1.679688 -4.050781 L 5.25 -4.050781 L 5.25 -6.871094 L 6.160156 -6.871094 L 6.160156 0 L 5.25 0 L 5.25 -3.238281 L 1.679688 -3.238281 L 1.679688 0 Z M 0.769531 0 "/>
</g>
<g id="glyph-0-15">
<path d="M 0.894531 0 L 0.894531 -6.871094 L 1.804688 -6.871094 L 1.804688 0 Z M 0.894531 0 "/>
</g>
<g id="glyph-0-16">
<path d="M 0.320312 -2.488281 C 0.320312 -3.410156 0.574219 -4.09375 1.085938 -4.539062 C 1.515625 -4.90625 2.039062 -5.089844 2.652344 -5.089844 C 3.335938 -5.089844 3.898438 -4.867188 4.332031 -4.417969 C 4.765625 -3.96875 4.984375 -3.351562 4.984375 -2.558594 C 4.984375 -1.917969 4.886719 -1.414062 4.695312 -1.046875 C 4.503906 -0.679688 4.222656 -0.394531 3.855469 -0.191406 C 3.488281 0.0117188 3.085938 0.113281 2.652344 0.113281 C 1.957031 0.113281 1.394531 -0.109375 0.964844 -0.558594 C 0.535156 -1.003906 0.320312 -1.648438 0.320312 -2.488281 M 1.1875 -2.488281 C 1.1875 -1.851562 1.324219 -1.375 1.601562 -1.058594 C 1.882812 -0.738281 2.230469 -0.582031 2.652344 -0.582031 C 3.070312 -0.582031 3.421875 -0.742188 3.699219 -1.058594 C 3.976562 -1.378906 4.117188 -1.863281 4.117188 -2.515625 C 4.117188 -3.132812 3.976562 -3.597656 3.695312 -3.917969 C 3.417969 -4.234375 3.070312 -4.390625 2.652344 -4.390625 C 2.230469 -4.390625 1.882812 -4.234375 1.601562 -3.917969 C 1.324219 -3.601562 1.1875 -3.125 1.1875 -2.488281 Z M 1.1875 -2.488281 "/>
</g>
<g id="glyph-0-17">
<path d="M 1.941406 0 L 0.117188 -6.871094 L 1.050781 -6.871094 L 2.09375 -2.367188 C 2.207031 -1.894531 2.304688 -1.425781 2.386719 -0.960938 C 2.5625 -1.695312 2.664062 -2.117188 2.695312 -2.230469 L 4.003906 -6.871094 L 5.101562 -6.871094 L 6.085938 -3.394531 C 6.332031 -2.53125 6.507812 -1.71875 6.617188 -0.960938 C 6.707031 -1.394531 6.820312 -1.894531 6.960938 -2.457031 L 8.039062 -6.871094 L 8.953125 -6.871094 L 7.070312 0 L 6.191406 0 L 4.742188 -5.234375 C 4.621094 -5.671875 4.550781 -5.941406 4.527344 -6.042969 C 4.457031 -5.726562 4.390625 -5.457031 4.328125 -5.234375 L 2.867188 0 Z M 1.941406 0 "/>
</g>
<g id="glyph-0-18">
<path d="M 0.636719 0 L 0.636719 -6.871094 L 1.480469 -6.871094 L 1.480469 -2.953125 L 3.476562 -4.976562 L 4.570312 -4.976562 L 2.667969 -3.132812 L 4.761719 0 L 3.722656 0 L 2.078125 -2.546875 L 1.480469 -1.972656 L 1.480469 0 Z M 0.636719 0 "/>
</g>
<g id="glyph-0-19">
<path d="M 3.863281 0 L 3.863281 -0.628906 C 3.546875 -0.132812 3.082031 0.113281 2.46875 0.113281 C 2.074219 0.113281 1.707031 0.00390625 1.375 -0.214844 C 1.042969 -0.433594 0.785156 -0.738281 0.601562 -1.132812 C 0.417969 -1.523438 0.328125 -1.976562 0.328125 -2.484375 C 0.328125 -2.980469 0.410156 -3.433594 0.578125 -3.835938 C 0.742188 -4.242188 0.992188 -4.550781 1.320312 -4.765625 C 1.652344 -4.984375 2.023438 -5.089844 2.433594 -5.089844 C 2.734375 -5.089844 3 -5.027344 3.234375 -4.902344 C 3.46875 -4.773438 3.660156 -4.609375 3.804688 -4.40625 L 3.804688 -6.871094 L 4.644531 -6.871094 L 4.644531 0 L 3.863281 0 M 1.195312 -2.484375 C 1.195312 -1.847656 1.328125 -1.371094 1.597656 -1.054688 C 1.867188 -0.738281 2.183594 -0.582031 2.550781 -0.582031 C 2.917969 -0.582031 3.230469 -0.730469 3.488281 -1.035156 C 3.746094 -1.335938 3.875 -1.796875 3.875 -2.414062 C 3.875 -3.09375 3.746094 -3.59375 3.484375 -3.914062 C 3.21875 -4.234375 2.898438 -4.390625 2.511719 -4.390625 C 2.136719 -4.390625 1.824219 -4.238281 1.574219 -3.933594 C 1.320312 -3.625 1.195312 -3.144531 1.195312 -2.484375 Z M 1.195312 -2.484375 "/>
</g>
<g id="glyph-0-20">
<path d="M 0.429688 -2.207031 L 1.289062 -2.28125 C 1.328125 -1.9375 1.425781 -1.65625 1.574219 -1.4375 C 1.722656 -1.214844 1.953125 -1.039062 2.265625 -0.902344 C 2.578125 -0.765625 2.929688 -0.699219 3.320312 -0.699219 C 3.664062 -0.699219 3.972656 -0.75 4.238281 -0.851562 C 4.503906 -0.957031 4.699219 -1.097656 4.832031 -1.277344 C 4.960938 -1.457031 5.023438 -1.652344 5.023438 -1.867188 C 5.023438 -2.082031 4.960938 -2.269531 4.835938 -2.429688 C 4.710938 -2.589844 4.507812 -2.726562 4.21875 -2.835938 C 4.035156 -2.90625 3.625 -3.019531 2.996094 -3.171875 C 2.363281 -3.324219 1.921875 -3.464844 1.667969 -3.601562 C 1.339844 -3.773438 1.097656 -3.984375 0.933594 -4.238281 C 0.773438 -4.496094 0.695312 -4.78125 0.695312 -5.09375 C 0.695312 -5.441406 0.792969 -5.765625 0.988281 -6.066406 C 1.1875 -6.371094 1.472656 -6.597656 1.851562 -6.753906 C 2.230469 -6.910156 2.648438 -6.988281 3.113281 -6.988281 C 3.621094 -6.988281 4.070312 -6.90625 4.460938 -6.742188 C 4.847656 -6.578125 5.148438 -6.335938 5.359375 -6.019531 C 5.566406 -5.699219 5.679688 -5.339844 5.695312 -4.9375 L 4.824219 -4.871094 C 4.777344 -5.304688 4.617188 -5.632812 4.347656 -5.855469 C 4.078125 -6.078125 3.679688 -6.1875 3.148438 -6.1875 C 2.601562 -6.1875 2.199219 -6.085938 1.949219 -5.886719 C 1.695312 -5.683594 1.570312 -5.441406 1.570312 -5.15625 C 1.570312 -4.910156 1.660156 -4.707031 1.835938 -4.546875 C 2.011719 -4.386719 2.46875 -4.222656 3.207031 -4.058594 C 3.949219 -3.890625 4.453125 -3.742188 4.730469 -3.617188 C 5.128906 -3.433594 5.425781 -3.199219 5.617188 -2.917969 C 5.804688 -2.636719 5.902344 -2.308594 5.902344 -1.941406 C 5.902344 -1.574219 5.796875 -1.230469 5.585938 -0.90625 C 5.378906 -0.582031 5.078125 -0.332031 4.683594 -0.152344 C 4.292969 0.0273438 3.851562 0.117188 3.359375 0.117188 C 2.738281 0.117188 2.21875 0.0273438 1.796875 -0.15625 C 1.378906 -0.335938 1.046875 -0.609375 0.808594 -0.972656 C 0.570312 -1.335938 0.445312 -1.75 0.429688 -2.207031 Z M 0.429688 -2.207031 "/>
</g>
<g id="glyph-0-21">
<path d="M 3.894531 0 L 3.894531 -0.730469 C 3.507812 -0.167969 2.980469 0.113281 2.316406 0.113281 C 2.023438 0.113281 1.746094 0.0546875 1.492188 -0.0546875 C 1.238281 -0.167969 1.050781 -0.308594 0.925781 -0.480469 C 0.800781 -0.652344 0.714844 -0.859375 0.664062 -1.105469 C 0.632812 -1.273438 0.613281 -1.535156 0.613281 -1.894531 L 0.613281 -4.976562 L 1.457031 -4.976562 L 1.457031 -2.21875 C 1.457031 -1.777344 1.476562 -1.480469 1.507812 -1.328125 C 1.5625 -1.105469 1.675781 -0.929688 1.847656 -0.804688 C 2.019531 -0.675781 2.230469 -0.613281 2.484375 -0.613281 C 2.738281 -0.613281 2.976562 -0.679688 3.195312 -0.808594 C 3.417969 -0.9375 3.574219 -1.113281 3.667969 -1.339844 C 3.761719 -1.5625 3.804688 -1.886719 3.804688 -2.3125 L 3.804688 -4.976562 L 4.648438 -4.976562 L 4.648438 0 Z M 3.894531 0 "/>
</g>
<g id="glyph-0-22">
<path d="M 0.632812 1.90625 L 0.632812 -4.976562 L 1.402344 -4.976562 L 1.402344 -4.332031 C 1.582031 -4.585938 1.789062 -4.773438 2.015625 -4.902344 C 2.242188 -5.027344 2.519531 -5.089844 2.84375 -5.089844 C 3.269531 -5.089844 3.644531 -4.980469 3.96875 -4.761719 C 4.296875 -4.542969 4.539062 -4.234375 4.707031 -3.835938 C 4.871094 -3.4375 4.953125 -3 4.953125 -2.527344 C 4.953125 -2.015625 4.863281 -1.558594 4.679688 -1.152344 C 4.496094 -0.742188 4.230469 -0.429688 3.882812 -0.214844 C 3.535156 0.00390625 3.167969 0.113281 2.785156 0.113281 C 2.503906 0.113281 2.25 0.0546875 2.027344 -0.0664062 C 1.804688 -0.183594 1.621094 -0.335938 1.476562 -0.515625 L 1.476562 1.90625 L 0.632812 1.90625 M 1.398438 -2.460938 C 1.398438 -1.820312 1.527344 -1.347656 1.785156 -1.039062 C 2.046875 -0.734375 2.359375 -0.582031 2.726562 -0.582031 C 3.101562 -0.582031 3.425781 -0.738281 3.691406 -1.058594 C 3.957031 -1.375 4.09375 -1.867188 4.09375 -2.53125 C 4.09375 -3.164062 3.960938 -3.640625 3.699219 -3.957031 C 3.441406 -4.273438 3.128906 -4.429688 2.765625 -4.429688 C 2.40625 -4.429688 2.089844 -4.261719 1.8125 -3.925781 C 1.535156 -3.589844 1.398438 -3.101562 1.398438 -2.460938 Z M 1.398438 -2.460938 "/>
</g>
<g id="glyph-0-23">
<path d="M 2.015625 0 L 0.121094 -4.976562 L 1.011719 -4.976562 L 2.082031 -1.996094 C 2.195312 -1.675781 2.304688 -1.339844 2.398438 -0.992188 C 2.476562 -1.257812 2.578125 -1.570312 2.714844 -1.941406 L 3.820312 -4.976562 L 4.6875 -4.976562 L 2.804688 0 Z M 2.015625 0 "/>
</g>
<g id="glyph-0-24">
<path d="M 0.398438 -3.390625 C 0.398438 -4.203125 0.480469 -4.855469 0.648438 -5.351562 C 0.816406 -5.847656 1.066406 -6.226562 1.394531 -6.496094 C 1.722656 -6.765625 2.140625 -6.898438 2.640625 -6.898438 C 3.007812 -6.898438 3.332031 -6.824219 3.609375 -6.675781 C 3.886719 -6.527344 4.117188 -6.316406 4.296875 -6.035156 C 4.480469 -5.753906 4.621094 -5.414062 4.726562 -5.011719 C 4.828125 -4.613281 4.878906 -4.070312 4.878906 -3.390625 C 4.878906 -2.582031 4.796875 -1.933594 4.632812 -1.4375 C 4.464844 -0.941406 4.21875 -0.558594 3.886719 -0.289062 C 3.558594 -0.0195312 3.140625 0.117188 2.640625 0.117188 C 1.976562 0.117188 1.457031 -0.121094 1.078125 -0.59375 C 0.625 -1.167969 0.398438 -2.097656 0.398438 -3.390625 M 1.265625 -3.390625 C 1.265625 -2.261719 1.398438 -1.511719 1.660156 -1.136719 C 1.925781 -0.761719 2.25 -0.578125 2.640625 -0.578125 C 3.027344 -0.578125 3.351562 -0.765625 3.617188 -1.140625 C 3.878906 -1.515625 4.011719 -2.265625 4.011719 -3.390625 C 4.011719 -4.519531 3.878906 -5.273438 3.617188 -5.644531 C 3.351562 -6.015625 3.023438 -6.203125 2.628906 -6.203125 C 2.242188 -6.203125 1.933594 -6.039062 1.703125 -5.710938 C 1.410156 -5.289062 1.265625 -4.515625 1.265625 -3.390625 Z M 1.265625 -3.390625 "/>
</g>
<g id="glyph-0-25">
<path d="M 0.558594 -5.222656 C 0.558594 -5.710938 0.679688 -6.128906 0.929688 -6.472656 C 1.175781 -6.816406 1.53125 -6.988281 2 -6.988281 C 2.433594 -6.988281 2.789062 -6.835938 3.074219 -6.527344 C 3.355469 -6.21875 3.496094 -5.765625 3.496094 -5.171875 C 3.496094 -4.589844 3.355469 -4.140625 3.066406 -3.828125 C 2.78125 -3.511719 2.429688 -3.355469 2.011719 -3.355469 C 1.59375 -3.355469 1.25 -3.511719 0.972656 -3.820312 C 0.695312 -4.128906 0.558594 -4.597656 0.558594 -5.222656 M 2.023438 -6.40625 C 1.816406 -6.40625 1.640625 -6.316406 1.503906 -6.136719 C 1.363281 -5.953125 1.292969 -5.621094 1.292969 -5.136719 C 1.292969 -4.695312 1.363281 -4.386719 1.503906 -4.207031 C 1.644531 -4.027344 1.820312 -3.9375 2.023438 -3.9375 C 2.238281 -3.9375 2.414062 -4.027344 2.550781 -4.210938 C 2.691406 -4.390625 2.761719 -4.722656 2.761719 -5.203125 C 2.761719 -5.648438 2.691406 -5.957031 2.550781 -6.136719 C 2.410156 -6.316406 2.234375 -6.40625 2.023438 -6.40625 M 2.03125 0.253906 L 5.789062 -6.988281 L 6.472656 -6.988281 L 2.726562 0.253906 L 2.03125 0.253906 M 5 -1.613281 C 5 -2.105469 5.125 -2.523438 5.371094 -2.867188 C 5.617188 -3.207031 5.976562 -3.378906 6.449219 -3.378906 C 6.882812 -3.378906 7.238281 -3.226562 7.519531 -2.917969 C 7.804688 -2.609375 7.945312 -2.15625 7.945312 -1.5625 C 7.945312 -0.980469 7.800781 -0.53125 7.515625 -0.21875 C 7.230469 0.0976562 6.875 0.253906 6.453125 0.253906 C 6.039062 0.253906 5.691406 0.0976562 5.417969 -0.214844 C 5.140625 -0.523438 5 -0.992188 5 -1.613281 M 6.472656 -2.796875 C 6.261719 -2.796875 6.085938 -2.707031 5.945312 -2.527344 C 5.808594 -2.34375 5.738281 -2.011719 5.738281 -1.527344 C 5.738281 -1.089844 5.808594 -0.78125 5.949219 -0.601562 C 6.089844 -0.417969 6.261719 -0.328125 6.46875 -0.328125 C 6.683594 -0.328125 6.863281 -0.417969 7 -0.601562 C 7.140625 -0.78125 7.210938 -1.113281 7.210938 -1.59375 C 7.210938 -2.039062 7.140625 -2.347656 7 -2.527344 C 6.859375 -2.707031 6.683594 -2.796875 6.472656 -2.796875 Z M 6.472656 -2.796875 "/>
</g>
<g id="glyph-0-26">
<path d="M 3.578125 0 L 2.734375 0 L 2.734375 -5.375 C 2.53125 -5.183594 2.261719 -4.988281 1.933594 -4.796875 C 1.605469 -4.601562 1.308594 -4.457031 1.046875 -4.359375 L 1.046875 -5.175781 C 1.515625 -5.398438 1.929688 -5.664062 2.28125 -5.980469 C 2.636719 -6.296875 2.886719 -6.601562 3.03125 -6.898438 L 3.578125 -6.898438 Z M 3.578125 0 "/>
</g>
<g id="glyph-0-27">
<path d="M 4.832031 -0.8125 L 4.832031 0 L 0.289062 0 C 0.285156 -0.203125 0.316406 -0.398438 0.390625 -0.585938 C 0.503906 -0.894531 0.691406 -1.199219 0.945312 -1.5 C 1.199219 -1.800781 1.566406 -2.148438 2.046875 -2.539062 C 2.796875 -3.152344 3.300781 -3.636719 3.5625 -3.996094 C 3.824219 -4.355469 3.957031 -4.691406 3.957031 -5.011719 C 3.957031 -5.34375 3.835938 -5.628906 3.597656 -5.855469 C 3.359375 -6.085938 3.046875 -6.203125 2.664062 -6.203125 C 2.257812 -6.203125 1.929688 -6.078125 1.6875 -5.835938 C 1.445312 -5.59375 1.320312 -5.253906 1.316406 -4.824219 L 0.449219 -4.914062 C 0.507812 -5.558594 0.734375 -6.050781 1.121094 -6.390625 C 1.507812 -6.730469 2.027344 -6.898438 2.679688 -6.898438 C 3.339844 -6.898438 3.863281 -6.71875 4.246094 -6.351562 C 4.632812 -5.984375 4.824219 -5.53125 4.824219 -4.992188 C 4.824219 -4.71875 4.765625 -4.445312 4.65625 -4.179688 C 4.542969 -3.914062 4.355469 -3.636719 4.09375 -3.34375 C 3.832031 -3.046875 3.398438 -2.644531 2.792969 -2.132812 C 2.289062 -1.707031 1.960938 -1.417969 1.820312 -1.269531 C 1.675781 -1.117188 1.554688 -0.964844 1.460938 -0.8125 Z M 4.832031 -0.8125 "/>
</g>
<g id="glyph-0-28">
<path d="M 0.402344 -1.8125 L 1.246094 -1.925781 C 1.34375 -1.449219 1.507812 -1.105469 1.742188 -0.894531 C 1.972656 -0.683594 2.257812 -0.578125 2.59375 -0.578125 C 2.988281 -0.578125 3.324219 -0.714844 3.597656 -0.988281 C 3.871094 -1.265625 4.007812 -1.605469 4.007812 -2.011719 C 4.007812 -2.398438 3.882812 -2.71875 3.628906 -2.96875 C 3.375 -3.222656 3.054688 -3.347656 2.664062 -3.347656 C 2.503906 -3.347656 2.304688 -3.316406 2.066406 -3.253906 L 2.160156 -3.992188 C 2.21875 -3.988281 2.261719 -3.984375 2.296875 -3.984375 C 2.65625 -3.984375 2.980469 -4.078125 3.265625 -4.265625 C 3.554688 -4.453125 3.699219 -4.742188 3.699219 -5.132812 C 3.699219 -5.441406 3.59375 -5.699219 3.382812 -5.902344 C 3.175781 -6.105469 2.90625 -6.207031 2.574219 -6.207031 C 2.246094 -6.207031 1.972656 -6.101562 1.753906 -5.898438 C 1.535156 -5.691406 1.394531 -5.382812 1.332031 -4.96875 L 0.488281 -5.117188 C 0.589844 -5.683594 0.824219 -6.121094 1.191406 -6.433594 C 1.554688 -6.746094 2.011719 -6.898438 2.554688 -6.898438 C 2.929688 -6.898438 3.273438 -6.820312 3.589844 -6.660156 C 3.90625 -6.496094 4.148438 -6.277344 4.316406 -6 C 4.480469 -5.722656 4.566406 -5.425781 4.566406 -5.113281 C 4.566406 -4.816406 4.484375 -4.546875 4.328125 -4.304688 C 4.167969 -4.058594 3.929688 -3.867188 3.617188 -3.722656 C 4.023438 -3.628906 4.339844 -3.433594 4.566406 -3.136719 C 4.789062 -2.84375 4.902344 -2.472656 4.902344 -2.03125 C 4.902344 -1.429688 4.683594 -0.921875 4.246094 -0.503906 C 3.808594 -0.0859375 3.257812 0.121094 2.585938 0.121094 C 1.984375 0.121094 1.484375 -0.0585938 1.085938 -0.417969 C 0.6875 -0.777344 0.460938 -1.242188 0.402344 -1.8125 Z M 0.402344 -1.8125 "/>
</g>
<g id="glyph-1-0">
<path d="M 0.539062 -2.757812 L 1.609375 -2.851562 C 1.660156 -2.421875 1.78125 -2.070312 1.964844 -1.796875 C 2.152344 -1.519531 2.4375 -1.296875 2.828125 -1.128906 C 3.21875 -0.957031 3.660156 -0.875 4.148438 -0.875 C 4.582031 -0.875 4.964844 -0.9375 5.296875 -1.066406 C 5.628906 -1.195312 5.875 -1.371094 6.039062 -1.597656 C 6.199219 -1.820312 6.28125 -2.066406 6.28125 -2.332031 C 6.28125 -2.601562 6.203125 -2.835938 6.046875 -3.039062 C 5.890625 -3.238281 5.632812 -3.40625 5.273438 -3.546875 C 5.042969 -3.632812 4.53125 -3.773438 3.742188 -3.964844 C 2.953125 -4.152344 2.402344 -4.332031 2.085938 -4.5 C 1.675781 -4.714844 1.371094 -4.980469 1.167969 -5.300781 C 0.96875 -5.617188 0.867188 -5.972656 0.867188 -6.367188 C 0.867188 -6.804688 0.992188 -7.207031 1.234375 -7.585938 C 1.484375 -7.960938 1.839844 -8.246094 2.3125 -8.445312 C 2.785156 -8.636719 3.3125 -8.734375 3.890625 -8.734375 C 4.527344 -8.734375 5.089844 -8.632812 5.574219 -8.429688 C 6.0625 -8.222656 6.433594 -7.921875 6.695312 -7.523438 C 6.957031 -7.125 7.097656 -6.671875 7.117188 -6.171875 L 6.03125 -6.085938 C 5.96875 -6.628906 5.773438 -7.039062 5.433594 -7.320312 C 5.097656 -7.59375 4.597656 -7.734375 3.9375 -7.734375 C 3.25 -7.734375 2.75 -7.609375 2.433594 -7.355469 C 2.121094 -7.105469 1.960938 -6.800781 1.960938 -6.445312 C 1.960938 -6.136719 2.074219 -5.882812 2.296875 -5.683594 C 2.515625 -5.484375 3.085938 -5.28125 4.011719 -5.070312 C 4.933594 -4.863281 5.566406 -4.679688 5.914062 -4.523438 C 6.410156 -4.292969 6.78125 -4 7.019531 -3.648438 C 7.257812 -3.292969 7.375 -2.886719 7.375 -2.425781 C 7.375 -1.96875 7.246094 -1.539062 6.984375 -1.132812 C 6.722656 -0.730469 6.347656 -0.414062 5.855469 -0.191406 C 5.367188 0.0351562 4.8125 0.148438 4.203125 0.148438 C 3.421875 0.148438 2.773438 0.03125 2.246094 -0.195312 C 1.722656 -0.417969 1.308594 -0.761719 1.011719 -1.214844 C 0.710938 -1.671875 0.554688 -2.1875 0.539062 -2.757812 Z M 0.539062 -2.757812 "/>
</g>
<g id="glyph-1-1">
<path d="M 0.789062 0 L 0.789062 -8.589844 L 1.84375 -8.589844 L 1.84375 -5.507812 C 2.335938 -6.078125 2.957031 -6.363281 3.710938 -6.363281 C 4.167969 -6.363281 4.570312 -6.273438 4.910156 -6.089844 C 5.25 -5.910156 5.492188 -5.65625 5.640625 -5.335938 C 5.785156 -5.015625 5.859375 -4.554688 5.859375 -3.945312 L 5.859375 0 L 4.804688 0 L 4.804688 -3.945312 C 4.804688 -4.46875 4.691406 -4.855469 4.460938 -5.09375 C 4.234375 -5.335938 3.910156 -5.453125 3.492188 -5.453125 C 3.179688 -5.453125 2.886719 -5.375 2.609375 -5.210938 C 2.335938 -5.050781 2.140625 -4.828125 2.023438 -4.554688 C 1.90625 -4.273438 1.84375 -3.890625 1.84375 -3.40625 L 1.84375 0 Z M 0.789062 0 "/>
</g>
<g id="glyph-1-2">
<path d="M 4.851562 -0.765625 C 4.460938 -0.433594 4.085938 -0.199219 3.722656 -0.0625 C 3.363281 0.0703125 2.972656 0.140625 2.5625 0.140625 C 1.875 0.140625 1.351562 -0.0273438 0.984375 -0.359375 C 0.617188 -0.695312 0.433594 -1.121094 0.433594 -1.640625 C 0.433594 -1.945312 0.503906 -2.222656 0.640625 -2.476562 C 0.78125 -2.726562 0.960938 -2.929688 1.1875 -3.082031 C 1.410156 -3.234375 1.664062 -3.347656 1.945312 -3.429688 C 2.152344 -3.480469 2.464844 -3.535156 2.882812 -3.585938 C 3.734375 -3.6875 4.359375 -3.808594 4.765625 -3.949219 C 4.765625 -4.09375 4.769531 -4.183594 4.769531 -4.226562 C 4.769531 -4.652344 4.671875 -4.957031 4.46875 -5.132812 C 4.203125 -5.371094 3.800781 -5.492188 3.269531 -5.492188 C 2.773438 -5.492188 2.40625 -5.402344 2.171875 -5.230469 C 1.933594 -5.054688 1.757812 -4.746094 1.648438 -4.304688 L 0.617188 -4.445312 C 0.707031 -4.886719 0.863281 -5.246094 1.078125 -5.515625 C 1.292969 -5.789062 1.601562 -5.996094 2.007812 -6.144531 C 2.414062 -6.289062 2.886719 -6.363281 3.421875 -6.363281 C 3.953125 -6.363281 4.382812 -6.300781 4.71875 -6.175781 C 5.046875 -6.050781 5.292969 -5.894531 5.449219 -5.703125 C 5.605469 -5.515625 5.714844 -5.273438 5.777344 -4.984375 C 5.8125 -4.804688 5.828125 -4.484375 5.828125 -4.015625 L 5.828125 -2.609375 C 5.828125 -1.628906 5.851562 -1.007812 5.898438 -0.746094 C 5.941406 -0.488281 6.03125 -0.238281 6.164062 0 L 5.0625 0 C 4.953125 -0.21875 4.882812 -0.476562 4.851562 -0.765625 M 4.765625 -3.125 C 4.378906 -2.964844 3.804688 -2.832031 3.039062 -2.726562 C 2.605469 -2.660156 2.300781 -2.589844 2.121094 -2.515625 C 1.941406 -2.433594 1.800781 -2.320312 1.703125 -2.171875 C 1.605469 -2.019531 1.558594 -1.851562 1.558594 -1.671875 C 1.558594 -1.386719 1.664062 -1.152344 1.878906 -0.96875 C 2.089844 -0.78125 2.402344 -0.683594 2.8125 -0.6875 C 3.21875 -0.683594 3.578125 -0.773438 3.898438 -0.953125 C 4.210938 -1.128906 4.445312 -1.371094 4.59375 -1.679688 C 4.707031 -1.917969 4.761719 -2.269531 4.765625 -2.734375 Z M 4.765625 -3.125 "/>
</g>
<g id="glyph-1-3">
<path d="M 0.78125 0 L 0.78125 -6.222656 L 1.726562 -6.222656 L 1.726562 -5.28125 C 1.96875 -5.71875 2.195312 -6.011719 2.398438 -6.152344 C 2.605469 -6.292969 2.828125 -6.363281 3.078125 -6.363281 C 3.429688 -6.363281 3.792969 -6.25 4.160156 -6.023438 L 3.796875 -5.046875 C 3.539062 -5.195312 3.28125 -5.273438 3.023438 -5.273438 C 2.792969 -5.273438 2.585938 -5.203125 2.402344 -5.066406 C 2.21875 -4.925781 2.085938 -4.734375 2.007812 -4.488281 C 1.890625 -4.113281 1.835938 -3.703125 1.835938 -3.257812 L 1.835938 0 Z M 0.78125 0 "/>
</g>
<g id="glyph-1-4">
<path d="M 5.050781 -2.003906 L 6.140625 -1.867188 C 5.96875 -1.230469 5.648438 -0.738281 5.1875 -0.386719 C 4.71875 -0.0351562 4.125 0.140625 3.40625 0.140625 C 2.492188 0.140625 1.773438 -0.140625 1.238281 -0.699219 C 0.707031 -1.261719 0.4375 -2.046875 0.4375 -3.058594 C 0.4375 -4.105469 0.710938 -4.917969 1.25 -5.496094 C 1.789062 -6.074219 2.484375 -6.363281 3.34375 -6.363281 C 4.179688 -6.363281 4.859375 -6.078125 5.382812 -5.515625 C 5.914062 -4.945312 6.175781 -4.148438 6.175781 -3.125 C 6.175781 -3.058594 6.171875 -2.964844 6.171875 -2.84375 L 1.53125 -2.84375 C 1.566406 -2.15625 1.761719 -1.632812 2.109375 -1.273438 C 2.457031 -0.90625 2.890625 -0.726562 3.410156 -0.726562 C 3.796875 -0.726562 4.125 -0.828125 4.398438 -1.03125 C 4.671875 -1.234375 4.890625 -1.558594 5.050781 -2.003906 M 1.585938 -3.710938 L 5.0625 -3.710938 C 5.015625 -4.230469 4.882812 -4.625 4.664062 -4.886719 C 4.328125 -5.292969 3.890625 -5.496094 3.359375 -5.496094 C 2.871094 -5.496094 2.464844 -5.332031 2.136719 -5.007812 C 1.804688 -4.683594 1.625 -4.25 1.585938 -3.710938 Z M 1.585938 -3.710938 "/>
</g>
<g id="glyph-1-5">
</g>
<g id="glyph-1-6">
<path d="M 0.398438 -3.109375 C 0.398438 -4.261719 0.71875 -5.117188 1.359375 -5.671875 C 1.894531 -6.132812 2.546875 -6.363281 3.316406 -6.363281 C 4.171875 -6.363281 4.871094 -6.082031 5.414062 -5.523438 C 5.957031 -4.960938 6.226562 -4.1875 6.226562 -3.199219 C 6.226562 -2.398438 6.109375 -1.769531 5.867188 -1.308594 C 5.628906 -0.851562 5.277344 -0.492188 4.820312 -0.242188 C 4.359375 0.0117188 3.859375 0.140625 3.316406 0.140625 C 2.445312 0.140625 1.742188 -0.140625 1.203125 -0.695312 C 0.667969 -1.253906 0.398438 -2.058594 0.398438 -3.109375 M 1.484375 -3.109375 C 1.484375 -2.3125 1.65625 -1.71875 2.003906 -1.320312 C 2.351562 -0.925781 2.789062 -0.726562 3.316406 -0.726562 C 3.839844 -0.726562 4.273438 -0.925781 4.625 -1.324219 C 4.96875 -1.722656 5.144531 -2.328125 5.144531 -3.148438 C 5.144531 -3.914062 4.96875 -4.5 4.621094 -4.894531 C 4.269531 -5.292969 3.835938 -5.492188 3.316406 -5.492188 C 2.789062 -5.492188 2.351562 -5.292969 2.003906 -4.898438 C 1.65625 -4.503906 1.484375 -3.90625 1.484375 -3.109375 Z M 1.484375 -3.109375 "/>
</g>
<g id="glyph-1-7">
<path d="M 1.042969 0 L 1.042969 -5.402344 L 0.109375 -5.402344 L 0.109375 -6.222656 L 1.042969 -6.222656 L 1.042969 -6.882812 C 1.042969 -7.300781 1.078125 -7.613281 1.15625 -7.816406 C 1.253906 -8.089844 1.433594 -8.3125 1.691406 -8.480469 C 1.945312 -8.652344 2.304688 -8.734375 2.765625 -8.734375 C 3.0625 -8.734375 3.390625 -8.703125 3.75 -8.632812 L 3.59375 -7.710938 C 3.371094 -7.75 3.164062 -7.769531 2.96875 -7.769531 C 2.648438 -7.769531 2.421875 -7.699219 2.289062 -7.5625 C 2.15625 -7.425781 2.09375 -7.171875 2.09375 -6.796875 L 2.09375 -6.222656 L 3.304688 -6.222656 L 3.304688 -5.402344 L 2.09375 -5.402344 L 2.09375 0 Z M 1.042969 0 "/>
</g>
<g id="glyph-1-8">
<path d="M 0.789062 0 L 0.789062 -6.222656 L 1.742188 -6.222656 L 1.742188 -5.335938 C 2.195312 -6.019531 2.855469 -6.363281 3.71875 -6.363281 C 4.09375 -6.363281 4.441406 -6.296875 4.753906 -6.160156 C 5.070312 -6.027344 5.304688 -5.847656 5.460938 -5.632812 C 5.617188 -5.410156 5.726562 -5.152344 5.789062 -4.851562 C 5.828125 -4.65625 5.847656 -4.3125 5.847656 -3.828125 L 5.847656 0 L 4.792969 0 L 4.792969 -3.785156 C 4.792969 -4.214844 4.75 -4.535156 4.671875 -4.75 C 4.585938 -4.960938 4.441406 -5.132812 4.234375 -5.257812 C 4.023438 -5.386719 3.78125 -5.449219 3.5 -5.449219 C 3.046875 -5.449219 2.660156 -5.304688 2.335938 -5.023438 C 2.007812 -4.734375 1.84375 -4.195312 1.84375 -3.398438 L 1.84375 0 Z M 0.789062 0 "/>
</g>
<g id="glyph-1-9">
<path d="M 0.367188 -1.859375 L 1.414062 -2.023438 C 1.46875 -1.601562 1.632812 -1.28125 1.902344 -1.0625 C 2.167969 -0.835938 2.542969 -0.726562 3.023438 -0.726562 C 3.507812 -0.726562 3.867188 -0.824219 4.101562 -1.023438 C 4.335938 -1.21875 4.453125 -1.449219 4.453125 -1.71875 C 4.453125 -1.953125 4.347656 -2.140625 4.140625 -2.28125 C 3.996094 -2.375 3.640625 -2.492188 3.0625 -2.636719 C 2.289062 -2.832031 1.753906 -3 1.457031 -3.144531 C 1.15625 -3.285156 0.929688 -3.484375 0.777344 -3.734375 C 0.621094 -3.988281 0.546875 -4.265625 0.546875 -4.570312 C 0.546875 -4.847656 0.609375 -5.105469 0.734375 -5.339844 C 0.863281 -5.578125 1.035156 -5.773438 1.253906 -5.929688 C 1.417969 -6.050781 1.640625 -6.152344 1.925781 -6.238281 C 2.207031 -6.320312 2.511719 -6.363281 2.835938 -6.363281 C 3.324219 -6.363281 3.753906 -6.292969 4.121094 -6.152344 C 4.492188 -6.011719 4.761719 -5.820312 4.9375 -5.582031 C 5.113281 -5.339844 5.234375 -5.019531 5.304688 -4.617188 L 4.273438 -4.476562 C 4.226562 -4.796875 4.089844 -5.046875 3.863281 -5.226562 C 3.640625 -5.40625 3.320312 -5.496094 2.914062 -5.496094 C 2.425781 -5.496094 2.082031 -5.414062 1.875 -5.257812 C 1.667969 -5.09375 1.5625 -4.90625 1.5625 -4.695312 C 1.5625 -4.554688 1.605469 -4.433594 1.695312 -4.324219 C 1.777344 -4.210938 1.914062 -4.117188 2.097656 -4.042969 C 2.203125 -4.003906 2.515625 -3.914062 3.03125 -3.773438 C 3.773438 -3.574219 4.296875 -3.410156 4.589844 -3.285156 C 4.886719 -3.15625 5.117188 -2.972656 5.285156 -2.730469 C 5.453125 -2.488281 5.535156 -2.1875 5.539062 -1.828125 C 5.535156 -1.476562 5.433594 -1.144531 5.230469 -0.835938 C 5.023438 -0.523438 4.726562 -0.285156 4.34375 -0.113281 C 3.953125 0.0546875 3.515625 0.140625 3.03125 0.140625 C 2.21875 0.140625 1.605469 -0.0273438 1.179688 -0.363281 C 0.757812 -0.699219 0.484375 -1.199219 0.367188 -1.859375 Z M 0.367188 -1.859375 "/>
</g>
<g id="glyph-1-10">
<path d="M 1.9375 0 L 0.0351562 -6.222656 L 1.125 -6.222656 L 2.117188 -2.632812 L 2.484375 -1.296875 C 2.5 -1.359375 2.609375 -1.789062 2.804688 -2.578125 L 3.796875 -6.222656 L 4.882812 -6.222656 L 5.8125 -2.613281 L 6.125 -1.421875 L 6.480469 -2.625 L 7.546875 -6.222656 L 8.570312 -6.222656 L 6.625 0 L 5.53125 0 L 4.539062 -3.726562 L 4.300781 -4.789062 L 3.039062 0 Z M 1.9375 0 "/>
</g>
</g>
<clipPath id="clip-0">
<path clip-rule="nonzero" d="M 134 5.976562 L 136 5.976562 L 136 213.644531 L 134 213.644531 Z M 134 5.976562 "/>
</clipPath>
<clipPath id="clip-1">
<path clip-rule="nonzero" d="M 244 5.976562 L 246 5.976562 L 246 213.644531 L 244 213.644531 Z M 244 5.976562 "/>
</clipPath>
<clipPath id="clip-2">
<path clip-rule="nonzero" d="M 354 5.976562 L 356 5.976562 L 356 213.644531 L 354 213.644531 Z M 354 5.976562 "/>
</clipPath>
<clipPath id="clip-3">
<path clip-rule="nonzero" d="M 61.519531 195 L 462.023438 195 L 462.023438 197 L 61.519531 197 Z M 61.519531 195 "/>
</clipPath>
<clipPath id="clip-4">
<path clip-rule="nonzero" d="M 61.519531 166 L 462.023438 166 L 462.023438 169 L 61.519531 169 Z M 61.519531 166 "/>
</clipPath>
<clipPath id="clip-5">
<path clip-rule="nonzero" d="M 61.519531 138 L 462.023438 138 L 462.023438 140 L 61.519531 140 Z M 61.519531 138 "/>
</clipPath>
<clipPath id="clip-6">
<path clip-rule="nonzero" d="M 61.519531 109 L 462.023438 109 L 462.023438 111 L 61.519531 111 Z M 61.519531 109 "/>
</clipPath>
<clipPath id="clip-7">
<path clip-rule="nonzero" d="M 61.519531 80 L 462.023438 80 L 462.023438 82 L 61.519531 82 Z M 61.519531 80 "/>
</clipPath>
<clipPath id="clip-8">
<path clip-rule="nonzero" d="M 61.519531 51 L 462.023438 51 L 462.023438 53 L 61.519531 53 Z M 61.519531 51 "/>
</clipPath>
<clipPath id="clip-9">
<path clip-rule="nonzero" d="M 61.519531 22 L 462.023438 22 L 462.023438 24 L 61.519531 24 Z M 61.519531 22 "/>
</clipPath>
<clipPath id="clip-10">
<path clip-rule="nonzero" d="M 79 5.976562 L 81 5.976562 L 81 213.644531 L 79 213.644531 Z M 79 5.976562 "/>
</clipPath>
<clipPath id="clip-11">
<path clip-rule="nonzero" d="M 189 5.976562 L 191 5.976562 L 191 213.644531 L 189 213.644531 Z M 189 5.976562 "/>
</clipPath>
<clipPath id="clip-12">
<path clip-rule="nonzero" d="M 299 5.976562 L 301 5.976562 L 301 213.644531 L 299 213.644531 Z M 299 5.976562 "/>
</clipPath>
<clipPath id="clip-13">
<path clip-rule="nonzero" d="M 409 5.976562 L 411 5.976562 L 411 213.644531 L 409 213.644531 Z M 409 5.976562 "/>
</clipPath>
</defs>
<rect x="-46.8" y="-25.2" width="561.6" height="302.4" fill="rgb(100%, 100%, 100%)" fill-opacity="1"/>
<rect x="-46.8" y="-25.2" width="561.6" height="302.4" fill="rgb(100%, 100%, 100%)" fill-opacity="1"/>
<g clip-path="url(#clip-0)">
<path fill="none" stroke-width="0.581988" stroke-linecap="butt" stroke-linejoin="round" stroke="rgb(92.156863%, 92.156863%, 92.156863%)" stroke-opacity="1" stroke-miterlimit="10" d="M 134.75 213.644531 L 134.75 5.976562 "/>
</g>
<g clip-path="url(#clip-1)">
<path fill="none" stroke-width="0.581988" stroke-linecap="butt" stroke-linejoin="round" stroke="rgb(92.156863%, 92.156863%, 92.156863%)" stroke-opacity="1" stroke-miterlimit="10" d="M 244.800781 213.644531 L 244.800781 5.976562 "/>
</g>
<g clip-path="url(#clip-2)">
<path fill="none" stroke-width="0.581988" stroke-linecap="butt" stroke-linejoin="round" stroke="rgb(92.156863%, 92.156863%, 92.156863%)" stroke-opacity="1" stroke-miterlimit="10" d="M 354.851562 213.644531 L 354.851562 5.976562 "/>
</g>
<g clip-path="url(#clip-3)">
<path fill="none" stroke-width="1.163976" stroke-linecap="butt" stroke-linejoin="round" stroke="rgb(92.156863%, 92.156863%, 92.156863%)" stroke-opacity="1" stroke-miterlimit="10" d="M 61.519531 196.339844 L 462.023438 196.339844 "/>
</g>
<g clip-path="url(#clip-4)">
<path fill="none" stroke-width="1.163976" stroke-linecap="butt" stroke-linejoin="round" stroke="rgb(92.156863%, 92.156863%, 92.156863%)" stroke-opacity="1" stroke-miterlimit="10" d="M 61.519531 167.496094 L 462.023438 167.496094 "/>
</g>
<g clip-path="url(#clip-5)">
<path fill="none" stroke-width="1.163976" stroke-linecap="butt" stroke-linejoin="round" stroke="rgb(92.156863%, 92.156863%, 92.156863%)" stroke-opacity="1" stroke-miterlimit="10" d="M 61.519531 138.65625 L 462.023438 138.65625 "/>
</g>
<g clip-path="url(#clip-6)">
<path fill="none" stroke-width="1.163976" stroke-linecap="butt" stroke-linejoin="round" stroke="rgb(92.156863%, 92.156863%, 92.156863%)" stroke-opacity="1" stroke-miterlimit="10" d="M 61.519531 109.8125 L 462.023438 109.8125 "/>
</g>
<g clip-path="url(#clip-7)">
<path fill="none" stroke-width="1.163976" stroke-linecap="butt" stroke-linejoin="round" stroke="rgb(92.156863%, 92.156863%, 92.156863%)" stroke-opacity="1" stroke-miterlimit="10" d="M 61.519531 80.96875 L 462.023438 80.96875 "/>
</g>
<g clip-path="url(#clip-8)">
<path fill="none" stroke-width="1.163976" stroke-linecap="butt" stroke-linejoin="round" stroke="rgb(92.156863%, 92.156863%, 92.156863%)" stroke-opacity="1" stroke-miterlimit="10" d="M 61.519531 52.125 L 462.023438 52.125 "/>
</g>
<g clip-path="url(#clip-9)">
<path fill="none" stroke-width="1.163976" stroke-linecap="butt" stroke-linejoin="round" stroke="rgb(92.156863%, 92.156863%, 92.156863%)" stroke-opacity="1" stroke-miterlimit="10" d="M 61.519531 23.285156 L 462.023438 23.285156 "/>
</g>
<g clip-path="url(#clip-10)">
<path fill="none" stroke-width="1.163976" stroke-linecap="butt" stroke-linejoin="round" stroke="rgb(92.156863%, 92.156863%, 92.156863%)" stroke-opacity="1" stroke-miterlimit="10" d="M 79.722656 213.644531 L 79.722656 5.976562 "/>
</g>
<g clip-path="url(#clip-11)">
<path fill="none" stroke-width="1.163976" stroke-linecap="butt" stroke-linejoin="round" stroke="rgb(92.156863%, 92.156863%, 92.156863%)" stroke-opacity="1" stroke-miterlimit="10" d="M 189.773438 213.644531 L 189.773438 5.976562 "/>
</g>
<g clip-path="url(#clip-12)">
<path fill="none" stroke-width="1.163976" stroke-linecap="butt" stroke-linejoin="round" stroke="rgb(92.156863%, 92.156863%, 92.156863%)" stroke-opacity="1" stroke-miterlimit="10" d="M 299.824219 213.644531 L 299.824219 5.976562 "/>
</g>
<g clip-path="url(#clip-13)">
<path fill="none" stroke-width="1.163976" stroke-linecap="butt" stroke-linejoin="round" stroke="rgb(92.156863%, 92.156863%, 92.156863%)" stroke-opacity="1" stroke-miterlimit="10" d="M 409.875 213.644531 L 409.875 5.976562 "/>
</g>
<path fill-rule="nonzero" fill="rgb(18.431373%, 40.392157%, 57.647059%)" fill-opacity="1" d="M 79.722656 180.476562 L 176.402344 180.476562 L 176.402344 154.519531 L 79.722656 154.519531 Z M 79.722656 180.476562 "/>
<path fill-rule="nonzero" fill="rgb(18.431373%, 40.392157%, 57.647059%)" fill-opacity="1" d="M 79.722656 151.632812 L 180.515625 151.632812 L 180.515625 125.675781 L 79.722656 125.675781 Z M 79.722656 151.632812 "/>
<path fill-rule="nonzero" fill="rgb(18.431373%, 40.392157%, 57.647059%)" fill-opacity="1" d="M 79.722656 122.792969 L 194.917969 122.792969 L 194.917969 96.835938 L 79.722656 96.835938 Z M 79.722656 122.792969 "/>
<path fill-rule="nonzero" fill="rgb(18.431373%, 40.392157%, 57.647059%)" fill-opacity="1" d="M 79.722656 93.949219 L 205.203125 93.949219 L 205.203125 67.992188 L 79.722656 67.992188 Z M 79.722656 93.949219 "/>
<path fill-rule="nonzero" fill="rgb(18.431373%, 40.392157%, 57.647059%)" fill-opacity="1" d="M 79.722656 209.320312 L 127.035156 209.320312 L 127.035156 183.363281 L 79.722656 183.363281 Z M 79.722656 209.320312 "/>
<path fill-rule="nonzero" fill="rgb(18.431373%, 40.392157%, 57.647059%)" fill-opacity="1" d="M 79.722656 36.261719 L 443.816406 36.261719 L 443.816406 10.304688 L 79.722656 10.304688 Z M 79.722656 36.261719 "/>
<path fill-rule="nonzero" fill="rgb(18.431373%, 40.392157%, 57.647059%)" fill-opacity="1" d="M 79.722656 65.105469 L 330.679688 65.105469 L 330.679688 39.148438 L 79.722656 39.148438 Z M 79.722656 65.105469 "/>
<g fill="rgb(30.196078%, 30.196078%, 30.196078%)" fill-opacity="1">
<use xlink:href="#glyph-0-0" x="32.128906" y="200.277344"/>
<use xlink:href="#glyph-0-1" x="39.596094" y="200.277344"/>
<use xlink:href="#glyph-0-2" x="42.263281" y="200.277344"/>
<use xlink:href="#glyph-0-3" x="47.602344" y="200.277344"/>
<use xlink:href="#glyph-0-4" x="52.941406" y="200.277344"/>
</g>
<g fill="rgb(30.196078%, 30.196078%, 30.196078%)" fill-opacity="1">
<use xlink:href="#glyph-0-5" x="27.871094" y="171.433594"/>
<use xlink:href="#glyph-0-6" x="33.735156" y="171.433594"/>
<use xlink:href="#glyph-0-7" x="39.074219" y="171.433594"/>
<use xlink:href="#glyph-0-8" x="47.071094" y="171.433594"/>
<use xlink:href="#glyph-0-9" x="49.203906" y="171.433594"/>
<use xlink:href="#glyph-0-10" x="51.336719" y="171.433594"/>
</g>
<g fill="rgb(30.196078%, 30.196078%, 30.196078%)" fill-opacity="1">
<use xlink:href="#glyph-0-5" x="17.183594" y="142.589844"/>
<use xlink:href="#glyph-0-8" x="23.047656" y="142.589844"/>
<use xlink:href="#glyph-0-11" x="25.180469" y="142.589844"/>
<use xlink:href="#glyph-0-6" x="30.519531" y="142.589844"/>
<use xlink:href="#glyph-0-11" x="35.858594" y="142.589844"/>
<use xlink:href="#glyph-0-12" x="41.197656" y="142.589844"/>
<use xlink:href="#glyph-0-3" x="45.997656" y="142.589844"/>
<use xlink:href="#glyph-0-13" x="51.336719" y="142.589844"/>
</g>
<g fill="rgb(30.196078%, 30.196078%, 30.196078%)" fill-opacity="1">
<use xlink:href="#glyph-0-14" x="28.386719" y="113.746094"/>
<use xlink:href="#glyph-0-3" x="35.319531" y="113.746094"/>
<use xlink:href="#glyph-0-6" x="40.658594" y="113.746094"/>
<use xlink:href="#glyph-0-9" x="45.997656" y="113.746094"/>
<use xlink:href="#glyph-0-1" x="48.130469" y="113.746094"/>
<use xlink:href="#glyph-0-2" x="50.797656" y="113.746094"/>
</g>
<g fill="rgb(30.196078%, 30.196078%, 30.196078%)" fill-opacity="1">
<use xlink:href="#glyph-0-15" x="20.378906" y="84.90625"/>
<use xlink:href="#glyph-0-13" x="23.046094" y="84.90625"/>
<use xlink:href="#glyph-0-16" x="27.846094" y="84.90625"/>
<use xlink:href="#glyph-0-9" x="33.185156" y="84.90625"/>
<use xlink:href="#glyph-0-6" x="35.317969" y="84.90625"/>
<use xlink:href="#glyph-0-1" x="40.657031" y="84.90625"/>
<use xlink:href="#glyph-0-8" x="43.324219" y="84.90625"/>
<use xlink:href="#glyph-0-16" x="45.457031" y="84.90625"/>
<use xlink:href="#glyph-0-11" x="50.796094" y="84.90625"/>
</g>
<g fill="rgb(30.196078%, 30.196078%, 30.196078%)" fill-opacity="1">
<use xlink:href="#glyph-0-17" x="15.589844" y="56.0625"/>
<use xlink:href="#glyph-0-16" x="24.650781" y="56.0625"/>
<use xlink:href="#glyph-0-4" x="29.989844" y="56.0625"/>
<use xlink:href="#glyph-0-18" x="33.186719" y="56.0625"/>
<use xlink:href="#glyph-0-9" x="37.986719" y="56.0625"/>
<use xlink:href="#glyph-0-16" x="40.119531" y="56.0625"/>
<use xlink:href="#glyph-0-6" x="45.458594" y="56.0625"/>
<use xlink:href="#glyph-0-19" x="50.797656" y="56.0625"/>
</g>
<g fill="rgb(30.196078%, 30.196078%, 30.196078%)" fill-opacity="1">
<use xlink:href="#glyph-0-20" x="5.976562" y="27.21875"/>
<use xlink:href="#glyph-0-21" x="12.379688" y="27.21875"/>
<use xlink:href="#glyph-0-22" x="17.71875" y="27.21875"/>
<use xlink:href="#glyph-0-3" x="23.057813" y="27.21875"/>
<use xlink:href="#glyph-0-4" x="28.396875" y="27.21875"/>
<use xlink:href="#glyph-0-23" x="31.59375" y="27.21875"/>
<use xlink:href="#glyph-0-8" x="36.39375" y="27.21875"/>
<use xlink:href="#glyph-0-13" x="38.526562" y="27.21875"/>
<use xlink:href="#glyph-0-8" x="43.326562" y="27.21875"/>
<use xlink:href="#glyph-0-16" x="45.459375" y="27.21875"/>
<use xlink:href="#glyph-0-11" x="50.798437" y="27.21875"/>
</g>
<g fill="rgb(30.196078%, 30.196078%, 30.196078%)" fill-opacity="1">
<use xlink:href="#glyph-0-24" x="72.785156" y="226.898438"/>
<use xlink:href="#glyph-0-25" x="78.124219" y="226.898438"/>
</g>
<g fill="rgb(30.196078%, 30.196078%, 30.196078%)" fill-opacity="1">
<use xlink:href="#glyph-0-26" x="180.167969" y="226.898438"/>
<use xlink:href="#glyph-0-24" x="185.507031" y="226.898438"/>
<use xlink:href="#glyph-0-25" x="190.846094" y="226.898438"/>
</g>
<g fill="rgb(30.196078%, 30.196078%, 30.196078%)" fill-opacity="1">
<use xlink:href="#glyph-0-27" x="290.21875" y="226.898438"/>
<use xlink:href="#glyph-0-24" x="295.557813" y="226.898438"/>
<use xlink:href="#glyph-0-25" x="300.896875" y="226.898438"/>
</g>
<g fill="rgb(30.196078%, 30.196078%, 30.196078%)" fill-opacity="1">
<use xlink:href="#glyph-0-28" x="400.269531" y="226.898438"/>
<use xlink:href="#glyph-0-24" x="405.608594" y="226.898438"/>
<use xlink:href="#glyph-0-25" x="410.947656" y="226.898438"/>
</g>
<g fill="rgb(0%, 0%, 0%)" fill-opacity="1">
<use xlink:href="#glyph-1-0" x="215.078125" y="242.496094"/>
<use xlink:href="#glyph-1-1" x="223.082031" y="242.496094"/>
<use xlink:href="#glyph-1-2" x="229.755859" y="242.496094"/>
<use xlink:href="#glyph-1-3" x="236.429688" y="242.496094"/>
<use xlink:href="#glyph-1-4" x="240.425781" y="242.496094"/>
<use xlink:href="#glyph-1-5" x="247.099609" y="242.496094"/>
<use xlink:href="#glyph-1-6" x="250.433594" y="242.496094"/>
<use xlink:href="#glyph-1-7" x="257.107422" y="242.496094"/>
<use xlink:href="#glyph-1-5" x="260.441406" y="242.496094"/>
<use xlink:href="#glyph-1-2" x="263.775391" y="242.496094"/>
<use xlink:href="#glyph-1-8" x="270.449219" y="242.496094"/>
<use xlink:href="#glyph-1-9" x="277.123047" y="242.496094"/>
<use xlink:href="#glyph-1-10" x="283.123047" y="242.496094"/>
<use xlink:href="#glyph-1-4" x="291.789062" y="242.496094"/>
<use xlink:href="#glyph-1-3" x="298.462891" y="242.496094"/>
<use xlink:href="#glyph-1-9" x="302.458984" y="242.496094"/>
</g>
</svg>
