<?xml version="1.0" encoding="UTF-8"?>
<svg xmlns="http://www.w3.org/2000/svg" xmlns:xlink="http://www.w3.org/1999/xlink" width="432" height="252" viewBox="0 0 432 252">
<defs>
<g>
<g id="glyph-0-0">
<path d="M 0.367188 -3.105469 C 0.367188 -3.851562 0.441406 -4.449219 0.59375 -4.90625 C 0.75 -5.359375 0.976562 -5.710938 1.277344 -5.957031 C 1.582031 -6.203125 1.960938 -6.324219 2.417969 -6.324219 C 2.757812 -6.324219 3.054688 -6.257812 3.308594 -6.121094 C 3.5625 -5.984375 3.773438 -5.789062 3.941406 -5.53125 C 4.105469 -5.277344 4.238281 -4.964844 4.332031 -4.59375 C 4.425781 -4.226562 4.472656 -3.730469 4.472656 -3.105469 C 4.472656 -2.367188 4.398438 -1.769531 4.246094 -1.316406 C 4.09375 -0.863281 3.867188 -0.511719 3.5625 -0.265625 C 3.261719 -0.015625 2.878906 0.109375 2.417969 0.109375 C 1.8125 0.109375 1.335938 -0.109375 0.988281 -0.546875 C 0.574219 -1.070312 0.367188 -1.921875 0.367188 -3.105469 M 1.160156 -3.105469 C 1.160156 -2.074219 1.28125 -1.382812 1.523438 -1.042969 C 1.765625 -0.699219 2.0625 -0.527344 2.417969 -0.527344 C 2.773438 -0.527344 3.074219 -0.699219 3.316406 -1.042969 C 3.558594 -1.386719 3.679688 -2.074219 3.679688 -3.105469 C 3.679688 -4.144531 3.558594 -4.832031 3.316406 -5.171875 C 3.074219 -5.515625 2.773438 -5.683594 2.410156 -5.683594 C 2.054688 -5.683594 1.773438 -5.535156 1.558594 -5.234375 C 1.292969 -4.851562 1.160156 -4.140625 1.160156 -3.105469 Z M 1.160156 -3.105469 "/>
</g>
<g id="glyph-0-1">
<path d="M 0.367188 -1.648438 L 1.175781 -1.71875 C 1.238281 -1.324219 1.378906 -1.027344 1.597656 -0.828125 C 1.816406 -0.628906 2.078125 -0.527344 2.390625 -0.527344 C 2.761719 -0.527344 3.078125 -0.667969 3.335938 -0.949219 C 3.59375 -1.230469 3.722656 -1.601562 3.722656 -2.066406 C 3.722656 -2.507812 3.597656 -2.855469 3.347656 -3.109375 C 3.101562 -3.367188 2.777344 -3.492188 2.375 -3.492188 C 2.125 -3.492188 1.902344 -3.4375 1.703125 -3.324219 C 1.5 -3.210938 1.34375 -3.0625 1.230469 -2.882812 L 0.503906 -2.976562 L 1.113281 -6.214844 L 4.246094 -6.214844 L 4.246094 -5.472656 L 1.730469 -5.472656 L 1.390625 -3.78125 C 1.769531 -4.042969 2.167969 -4.175781 2.582031 -4.175781 C 3.132812 -4.175781 3.597656 -3.984375 3.976562 -3.605469 C 4.351562 -3.222656 4.542969 -2.734375 4.542969 -2.136719 C 4.542969 -1.566406 4.375 -1.074219 4.042969 -0.65625 C 3.640625 -0.148438 3.089844 0.109375 2.390625 0.109375 C 1.816406 0.109375 1.347656 -0.0546875 0.984375 -0.375 C 0.625 -0.695312 0.417969 -1.121094 0.367188 -1.648438 Z M 0.367188 -1.648438 "/>
</g>
<g id="glyph-0-2">
<path d="M 3.277344 0 L 2.503906 0 L 2.503906 -4.929688 C 2.320312 -4.75 2.074219 -4.574219 1.773438 -4.394531 C 1.46875 -4.21875 1.199219 -4.085938 0.957031 -3.996094 L 0.957031 -4.742188 C 1.390625 -4.945312 1.769531 -5.195312 2.09375 -5.484375 C 2.417969 -5.773438 2.644531 -6.054688 2.78125 -6.324219 L 3.277344 -6.324219 Z M 3.277344 0 "/>
</g>
<g id="glyph-0-3">
<path d="M 0.695312 0 L 0.695312 -6.300781 L 5.25 -6.300781 L 5.25 -5.554688 L 1.53125 -5.554688 L 1.53125 -3.625 L 5.015625 -3.625 L 5.015625 -2.886719 L 1.53125 -2.886719 L 1.53125 -0.742188 L 5.398438 -0.742188 L 5.398438 0 Z M 0.695312 0 "/>
</g>
<g id="glyph-0-4">
<path d="M 3.539062 0 L 3.539062 -0.574219 C 3.25 -0.125 2.824219 0.101562 2.265625 0.101562 C 1.902344 0.101562 1.566406 0.00390625 1.261719 -0.199219 C 0.957031 -0.398438 0.71875 -0.679688 0.550781 -1.039062 C 0.382812 -1.398438 0.300781 -1.808594 0.300781 -2.277344 C 0.300781 -2.734375 0.375 -3.144531 0.527344 -3.515625 C 0.679688 -3.886719 0.90625 -4.171875 1.210938 -4.371094 C 1.515625 -4.566406 1.855469 -4.667969 2.230469 -4.667969 C 2.503906 -4.667969 2.75 -4.609375 2.964844 -4.492188 C 3.179688 -4.375 3.355469 -4.226562 3.488281 -4.039062 L 3.488281 -6.300781 L 4.257812 -6.300781 L 4.257812 0 L 3.539062 0 M 1.09375 -2.277344 C 1.09375 -1.691406 1.21875 -1.257812 1.464844 -0.96875 C 1.710938 -0.675781 2.003906 -0.53125 2.335938 -0.53125 C 2.675781 -0.53125 2.960938 -0.671875 3.199219 -0.949219 C 3.433594 -1.222656 3.554688 -1.644531 3.554688 -2.210938 C 3.554688 -2.835938 3.433594 -3.296875 3.191406 -3.589844 C 2.953125 -3.878906 2.65625 -4.027344 2.304688 -4.027344 C 1.960938 -4.027344 1.671875 -3.886719 1.441406 -3.605469 C 1.210938 -3.324219 1.09375 -2.882812 1.09375 -2.277344 Z M 1.09375 -2.277344 "/>
</g>
<g id="glyph-0-5">
<path d="M 3.570312 0 L 3.570312 -0.671875 C 3.214844 -0.15625 2.734375 0.101562 2.121094 0.101562 C 1.851562 0.101562 1.601562 0.0507812 1.367188 -0.0507812 C 1.136719 -0.15625 0.960938 -0.285156 0.847656 -0.441406 C 0.734375 -0.597656 0.65625 -0.789062 0.609375 -1.015625 C 0.578125 -1.164062 0.5625 -1.40625 0.5625 -1.734375 L 0.5625 -4.5625 L 1.335938 -4.5625 L 1.335938 -2.03125 C 1.335938 -1.628906 1.351562 -1.355469 1.382812 -1.214844 C 1.433594 -1.011719 1.535156 -0.851562 1.691406 -0.738281 C 1.851562 -0.621094 2.046875 -0.5625 2.277344 -0.5625 C 2.507812 -0.5625 2.726562 -0.621094 2.929688 -0.742188 C 3.132812 -0.859375 3.277344 -1.023438 3.363281 -1.226562 C 3.445312 -1.429688 3.488281 -1.730469 3.488281 -2.117188 L 3.488281 -4.5625 L 4.261719 -4.5625 L 4.261719 0 Z M 3.570312 0 "/>
</g>
<g id="glyph-0-6">
<path d="M 3.558594 -1.671875 L 4.320312 -1.574219 C 4.234375 -1.046875 4.023438 -0.636719 3.679688 -0.339844 C 3.339844 -0.046875 2.917969 0.101562 2.417969 0.101562 C 1.792969 0.101562 1.292969 -0.101562 0.914062 -0.507812 C 0.535156 -0.917969 0.34375 -1.503906 0.34375 -2.265625 C 0.34375 -2.757812 0.425781 -3.1875 0.589844 -3.558594 C 0.753906 -3.925781 1 -4.203125 1.335938 -4.390625 C 1.667969 -4.574219 2.03125 -4.667969 2.421875 -4.667969 C 2.917969 -4.667969 3.324219 -4.542969 3.640625 -4.289062 C 3.953125 -4.039062 4.15625 -3.683594 4.246094 -3.222656 L 3.492188 -3.105469 C 3.421875 -3.414062 3.296875 -3.644531 3.113281 -3.796875 C 2.929688 -3.953125 2.710938 -4.03125 2.453125 -4.03125 C 2.0625 -4.03125 1.746094 -3.890625 1.503906 -3.613281 C 1.261719 -3.332031 1.140625 -2.890625 1.140625 -2.285156 C 1.140625 -1.671875 1.257812 -1.226562 1.492188 -0.949219 C 1.726562 -0.671875 2.03125 -0.53125 2.410156 -0.53125 C 2.714844 -0.53125 2.96875 -0.625 3.171875 -0.8125 C 3.375 -1 3.503906 -1.285156 3.558594 -1.671875 Z M 3.558594 -1.671875 "/>
</g>
<g id="glyph-0-7">
<path d="M 3.558594 -0.5625 C 3.269531 -0.320312 2.996094 -0.148438 2.730469 -0.046875 C 2.464844 0.0546875 2.179688 0.101562 1.878906 0.101562 C 1.375 0.101562 0.992188 -0.0195312 0.722656 -0.265625 C 0.453125 -0.507812 0.316406 -0.820312 0.316406 -1.203125 C 0.316406 -1.425781 0.367188 -1.628906 0.46875 -1.816406 C 0.570312 -2 0.707031 -2.148438 0.871094 -2.261719 C 1.035156 -2.371094 1.21875 -2.457031 1.425781 -2.515625 C 1.578125 -2.554688 1.808594 -2.59375 2.113281 -2.628906 C 2.738281 -2.703125 3.199219 -2.792969 3.492188 -2.894531 C 3.496094 -3.003906 3.496094 -3.070312 3.496094 -3.097656 C 3.496094 -3.414062 3.425781 -3.636719 3.277344 -3.765625 C 3.082031 -3.9375 2.789062 -4.027344 2.398438 -4.027344 C 2.035156 -4.027344 1.765625 -3.960938 1.59375 -3.835938 C 1.417969 -3.707031 1.289062 -3.480469 1.207031 -3.160156 L 0.453125 -3.261719 C 0.519531 -3.585938 0.632812 -3.847656 0.789062 -4.046875 C 0.949219 -4.246094 1.175781 -4.398438 1.472656 -4.503906 C 1.773438 -4.613281 2.117188 -4.667969 2.507812 -4.667969 C 2.898438 -4.667969 3.214844 -4.621094 3.460938 -4.527344 C 3.703125 -4.4375 3.882812 -4.320312 3.996094 -4.183594 C 4.109375 -4.042969 4.191406 -3.867188 4.238281 -3.65625 C 4.261719 -3.523438 4.273438 -3.289062 4.273438 -2.945312 L 4.273438 -1.914062 C 4.273438 -1.191406 4.292969 -0.738281 4.324219 -0.546875 C 4.359375 -0.355469 4.421875 -0.175781 4.519531 0 L 3.710938 0 C 3.632812 -0.160156 3.582031 -0.347656 3.558594 -0.5625 M 3.492188 -2.289062 C 3.210938 -2.175781 2.792969 -2.078125 2.230469 -2 C 1.910156 -1.953125 1.6875 -1.902344 1.554688 -1.84375 C 1.421875 -1.785156 1.320312 -1.703125 1.25 -1.59375 C 1.179688 -1.480469 1.144531 -1.359375 1.144531 -1.226562 C 1.144531 -1.019531 1.222656 -0.847656 1.378906 -0.710938 C 1.535156 -0.570312 1.761719 -0.503906 2.0625 -0.503906 C 2.359375 -0.503906 2.625 -0.566406 2.859375 -0.699219 C 3.089844 -0.828125 3.261719 -1.007812 3.367188 -1.234375 C 3.453125 -1.40625 3.492188 -1.664062 3.492188 -2.007812 Z M 3.492188 -2.289062 "/>
</g>
<g id="glyph-0-8">
<path d="M 2.269531 -0.691406 L 2.378906 -0.0078125 C 2.164062 0.0390625 1.96875 0.0585938 1.796875 0.0585938 C 1.515625 0.0585938 1.296875 0.015625 1.144531 -0.0742188 C 0.988281 -0.160156 0.878906 -0.277344 0.816406 -0.421875 C 0.753906 -0.566406 0.722656 -0.871094 0.722656 -1.335938 L 0.722656 -3.960938 L 0.15625 -3.960938 L 0.15625 -4.5625 L 0.722656 -4.5625 L 0.722656 -5.695312 L 1.492188 -6.15625 L 1.492188 -4.5625 L 2.269531 -4.5625 L 2.269531 -3.960938 L 1.492188 -3.960938 L 1.492188 -1.292969 C 1.492188 -1.074219 1.503906 -0.929688 1.53125 -0.867188 C 1.558594 -0.804688 1.601562 -0.753906 1.664062 -0.71875 C 1.726562 -0.679688 1.816406 -0.660156 1.929688 -0.660156 C 2.015625 -0.660156 2.128906 -0.671875 2.269531 -0.691406 Z M 2.269531 -0.691406 "/>
</g>
<g id="glyph-0-9">
<path d="M 0.585938 -5.410156 L 0.585938 -6.300781 L 1.359375 -6.300781 L 1.359375 -5.410156 L 0.585938 -5.410156 M 0.585938 0 L 0.585938 -4.5625 L 1.359375 -4.5625 L 1.359375 0 Z M 0.585938 0 "/>
</g>
<g id="glyph-0-10">
<path d="M 0.292969 -2.28125 C 0.292969 -3.125 0.527344 -3.753906 0.996094 -4.160156 C 1.390625 -4.496094 1.867188 -4.667969 2.433594 -4.667969 C 3.058594 -4.667969 3.570312 -4.460938 3.96875 -4.050781 C 4.367188 -3.640625 4.566406 -3.070312 4.566406 -2.347656 C 4.566406 -1.757812 4.480469 -1.296875 4.304688 -0.960938 C 4.128906 -0.625 3.871094 -0.363281 3.535156 -0.175781 C 3.199219 0.0117188 2.832031 0.101562 2.433594 0.101562 C 1.792969 0.101562 1.277344 -0.101562 0.882812 -0.511719 C 0.488281 -0.921875 0.292969 -1.511719 0.292969 -2.28125 M 1.085938 -2.28125 C 1.085938 -1.699219 1.214844 -1.257812 1.46875 -0.96875 C 1.722656 -0.679688 2.046875 -0.53125 2.433594 -0.53125 C 2.816406 -0.53125 3.136719 -0.679688 3.390625 -0.972656 C 3.644531 -1.261719 3.773438 -1.707031 3.773438 -2.308594 C 3.773438 -2.871094 3.644531 -3.300781 3.386719 -3.589844 C 3.132812 -3.878906 2.8125 -4.027344 2.433594 -4.027344 C 2.046875 -4.027344 1.722656 -3.882812 1.46875 -3.59375 C 1.214844 -3.304688 1.085938 -2.867188 1.085938 -2.28125 Z M 1.085938 -2.28125 "/>
</g>
<g id="glyph-0-11">
<path d="M 0.578125 0 L 0.578125 -4.5625 L 1.277344 -4.5625 L 1.277344 -3.914062 C 1.609375 -4.414062 2.09375 -4.667969 2.726562 -4.667969 C 3.003906 -4.667969 3.257812 -4.617188 3.488281 -4.519531 C 3.71875 -4.417969 3.890625 -4.289062 4.003906 -4.128906 C 4.121094 -3.96875 4.199219 -3.777344 4.246094 -3.558594 C 4.273438 -3.414062 4.289062 -3.164062 4.289062 -2.804688 L 4.289062 0 L 3.515625 0 L 3.515625 -2.777344 C 3.515625 -3.089844 3.484375 -3.328125 3.425781 -3.484375 C 3.363281 -3.640625 3.257812 -3.761719 3.105469 -3.855469 C 2.953125 -3.949219 2.773438 -3.996094 2.566406 -3.996094 C 2.234375 -3.996094 1.953125 -3.890625 1.710938 -3.683594 C 1.472656 -3.472656 1.351562 -3.078125 1.351562 -2.492188 L 1.351562 0 Z M 0.578125 0 "/>
</g>
<g id="glyph-0-12">
<path d="M 0.703125 0 L 0.703125 -6.300781 L 1.539062 -6.300781 L 1.539062 -3.710938 L 4.8125 -3.710938 L 4.8125 -6.300781 L 5.644531 -6.300781 L 5.644531 0 L 4.8125 0 L 4.8125 -2.96875 L 1.539062 -2.96875 L 1.539062 0 Z M 0.703125 0 "/>
</g>
<g id="glyph-0-13">
<path d="M 3.703125 -1.46875 L 4.503906 -1.371094 C 4.378906 -0.902344 4.144531 -0.542969 3.804688 -0.285156 C 3.460938 -0.0273438 3.027344 0.101562 2.496094 0.101562 C 1.828125 0.101562 1.300781 -0.101562 0.910156 -0.511719 C 0.519531 -0.925781 0.320312 -1.5 0.320312 -2.242188 C 0.320312 -3.011719 0.519531 -3.605469 0.914062 -4.03125 C 1.3125 -4.453125 1.824219 -4.667969 2.453125 -4.667969 C 3.0625 -4.667969 3.5625 -4.457031 3.949219 -4.042969 C 4.335938 -3.628906 4.527344 -3.042969 4.527344 -2.289062 C 4.527344 -2.246094 4.527344 -2.175781 4.523438 -2.085938 L 1.121094 -2.085938 C 1.148438 -1.582031 1.292969 -1.199219 1.546875 -0.933594 C 1.800781 -0.664062 2.121094 -0.53125 2.5 -0.53125 C 2.785156 -0.53125 3.027344 -0.605469 3.226562 -0.757812 C 3.425781 -0.90625 3.585938 -1.144531 3.703125 -1.46875 M 1.164062 -2.71875 L 3.710938 -2.71875 C 3.679688 -3.105469 3.582031 -3.390625 3.421875 -3.582031 C 3.175781 -3.882812 2.855469 -4.03125 2.460938 -4.03125 C 2.105469 -4.03125 1.808594 -3.910156 1.566406 -3.675781 C 1.324219 -3.4375 1.191406 -3.117188 1.164062 -2.71875 Z M 1.164062 -2.71875 "/>
</g>
<g id="glyph-0-14">
<path d="M 0.5625 0 L 0.5625 -6.300781 L 1.335938 -6.300781 L 1.335938 0 Z M 0.5625 0 "/>
</g>
<g id="glyph-0-15">
<path d="M 0.578125 0 L 0.578125 -6.300781 L 1.351562 -6.300781 L 1.351562 -4.039062 C 1.714844 -4.457031 2.167969 -4.667969 2.71875 -4.667969 C 3.058594 -4.667969 3.351562 -4.601562 3.601562 -4.464844 C 3.851562 -4.332031 4.027344 -4.148438 4.136719 -3.914062 C 4.242188 -3.679688 4.296875 -3.339844 4.296875 -2.890625 L 4.296875 0 L 3.523438 0 L 3.523438 -2.890625 C 3.523438 -3.277344 3.441406 -3.558594 3.273438 -3.734375 C 3.105469 -3.914062 2.867188 -4 2.5625 -4 C 2.332031 -4 2.117188 -3.941406 1.914062 -3.820312 C 1.710938 -3.703125 1.570312 -3.542969 1.484375 -3.339844 C 1.398438 -3.136719 1.351562 -2.855469 1.351562 -2.496094 L 1.351562 0 Z M 0.578125 0 "/>
</g>
<g id="glyph-0-16">
</g>
<g id="glyph-0-17">
<path d="M 0.394531 -2.023438 L 1.179688 -2.09375 C 1.21875 -1.777344 1.304688 -1.519531 1.441406 -1.316406 C 1.578125 -1.113281 1.789062 -0.953125 2.074219 -0.828125 C 2.363281 -0.703125 2.683594 -0.640625 3.042969 -0.640625 C 3.359375 -0.640625 3.640625 -0.6875 3.882812 -0.78125 C 4.128906 -0.875 4.308594 -1.007812 4.429688 -1.171875 C 4.546875 -1.335938 4.605469 -1.515625 4.605469 -1.710938 C 4.605469 -1.90625 4.550781 -2.082031 4.433594 -2.226562 C 4.320312 -2.375 4.128906 -2.5 3.867188 -2.601562 C 3.699219 -2.664062 3.324219 -2.769531 2.746094 -2.90625 C 2.167969 -3.046875 1.761719 -3.175781 1.53125 -3.300781 C 1.230469 -3.457031 1.003906 -3.652344 0.855469 -3.886719 C 0.710938 -4.121094 0.636719 -4.382812 0.636719 -4.671875 C 0.636719 -4.988281 0.726562 -5.285156 0.90625 -5.5625 C 1.085938 -5.839844 1.351562 -6.046875 1.699219 -6.191406 C 2.042969 -6.335938 2.429688 -6.40625 2.851562 -6.40625 C 3.320312 -6.40625 3.730469 -6.332031 4.089844 -6.179688 C 4.445312 -6.03125 4.71875 -5.808594 4.910156 -5.515625 C 5.101562 -5.226562 5.207031 -4.894531 5.21875 -4.523438 L 4.421875 -4.464844 C 4.378906 -4.863281 4.234375 -5.164062 3.984375 -5.367188 C 3.738281 -5.570312 3.371094 -5.671875 2.886719 -5.671875 C 2.382812 -5.671875 2.015625 -5.578125 1.785156 -5.394531 C 1.554688 -5.210938 1.441406 -4.988281 1.441406 -4.726562 C 1.441406 -4.5 1.519531 -4.3125 1.683594 -4.167969 C 1.84375 -4.023438 2.265625 -3.871094 2.941406 -3.71875 C 3.617188 -3.566406 4.082031 -3.433594 4.335938 -3.316406 C 4.703125 -3.148438 4.972656 -2.933594 5.148438 -2.675781 C 5.324219 -2.414062 5.410156 -2.117188 5.410156 -1.777344 C 5.410156 -1.445312 5.3125 -1.128906 5.121094 -0.832031 C 4.929688 -0.535156 4.652344 -0.304688 4.292969 -0.140625 C 3.933594 0.0234375 3.53125 0.109375 3.082031 0.109375 C 2.511719 0.109375 2.03125 0.0234375 1.648438 -0.140625 C 1.261719 -0.308594 0.960938 -0.558594 0.742188 -0.890625 C 0.523438 -1.226562 0.40625 -1.601562 0.394531 -2.023438 Z M 0.394531 -2.023438 "/>
</g>
<g id="glyph-0-18">
<path d="M 0.269531 -1.363281 L 1.035156 -1.484375 C 1.078125 -1.175781 1.199219 -0.941406 1.394531 -0.777344 C 1.589844 -0.613281 1.863281 -0.53125 2.21875 -0.53125 C 2.574219 -0.53125 2.835938 -0.605469 3.007812 -0.75 C 3.179688 -0.894531 3.265625 -1.0625 3.265625 -1.257812 C 3.265625 -1.433594 3.191406 -1.570312 3.039062 -1.671875 C 2.933594 -1.742188 2.667969 -1.828125 2.246094 -1.933594 C 1.679688 -2.078125 1.285156 -2.199219 1.066406 -2.304688 C 0.847656 -2.410156 0.683594 -2.554688 0.570312 -2.738281 C 0.457031 -2.925781 0.398438 -3.128906 0.398438 -3.351562 C 0.398438 -3.554688 0.445312 -3.742188 0.539062 -3.917969 C 0.632812 -4.089844 0.757812 -4.234375 0.917969 -4.347656 C 1.039062 -4.4375 1.203125 -4.511719 1.410156 -4.574219 C 1.621094 -4.636719 1.84375 -4.667969 2.078125 -4.667969 C 2.4375 -4.667969 2.753906 -4.613281 3.023438 -4.511719 C 3.292969 -4.410156 3.492188 -4.269531 3.621094 -4.09375 C 3.75 -3.917969 3.839844 -3.679688 3.890625 -3.386719 L 3.132812 -3.28125 C 3.097656 -3.519531 3 -3.699219 2.832031 -3.832031 C 2.667969 -3.964844 2.4375 -4.03125 2.136719 -4.03125 C 1.78125 -4.03125 1.527344 -3.972656 1.375 -3.855469 C 1.222656 -3.738281 1.148438 -3.597656 1.148438 -3.441406 C 1.148438 -3.339844 1.179688 -3.25 1.242188 -3.171875 C 1.304688 -3.089844 1.402344 -3.019531 1.539062 -2.964844 C 1.617188 -2.9375 1.84375 -2.871094 2.222656 -2.765625 C 2.769531 -2.621094 3.148438 -2.5 3.367188 -2.410156 C 3.582031 -2.316406 3.753906 -2.179688 3.875 -2.003906 C 4 -1.824219 4.058594 -1.605469 4.0625 -1.339844 C 4.058594 -1.082031 3.984375 -0.839844 3.835938 -0.613281 C 3.683594 -0.382812 3.46875 -0.207031 3.183594 -0.0820312 C 2.902344 0.0390625 2.578125 0.101562 2.222656 0.101562 C 1.628906 0.101562 1.175781 -0.0195312 0.867188 -0.265625 C 0.554688 -0.511719 0.355469 -0.878906 0.269531 -1.363281 Z M 0.269531 -1.363281 "/>
</g>
<g id="glyph-0-19">
<path d="M 0.578125 0 L 0.578125 -4.5625 L 1.273438 -4.5625 L 1.273438 -3.921875 C 1.414062 -4.148438 1.605469 -4.328125 1.84375 -4.460938 C 2.082031 -4.597656 2.351562 -4.667969 2.65625 -4.667969 C 2.992188 -4.667969 3.269531 -4.597656 3.488281 -4.457031 C 3.703125 -4.316406 3.855469 -4.121094 3.945312 -3.867188 C 4.304688 -4.398438 4.773438 -4.667969 5.355469 -4.667969 C 5.804688 -4.667969 6.15625 -4.542969 6.398438 -4.289062 C 6.640625 -4.039062 6.761719 -3.652344 6.761719 -3.132812 L 6.761719 0 L 5.996094 0 L 5.996094 -2.875 C 5.996094 -3.183594 5.96875 -3.40625 5.917969 -3.542969 C 5.867188 -3.679688 5.777344 -3.789062 5.644531 -3.871094 C 5.515625 -3.953125 5.359375 -3.996094 5.183594 -3.996094 C 4.859375 -3.996094 4.59375 -3.890625 4.382812 -3.675781 C 4.171875 -3.460938 4.066406 -3.121094 4.066406 -2.652344 L 4.066406 0 L 3.292969 0 L 3.292969 -2.964844 C 3.292969 -3.308594 3.226562 -3.566406 3.101562 -3.738281 C 2.976562 -3.910156 2.769531 -3.996094 2.484375 -3.996094 C 2.265625 -3.996094 2.066406 -3.9375 1.878906 -3.824219 C 1.695312 -3.710938 1.5625 -3.542969 1.476562 -3.320312 C 1.394531 -3.101562 1.351562 -2.78125 1.351562 -2.367188 L 1.351562 0 Z M 0.578125 0 "/>
</g>
<g id="glyph-0-20">
<path d="M 0.671875 0 L 0.671875 -6.300781 L 1.527344 -6.300781 L 4.835938 -1.351562 L 4.835938 -6.300781 L 5.632812 -6.300781 L 5.632812 0 L 4.777344 0 L 1.46875 -4.949219 L 1.46875 0 Z M 0.671875 0 "/>
</g>
<g id="glyph-0-21">
<path d="M 0.570312 0 L 0.570312 -4.5625 L 1.265625 -4.5625 L 1.265625 -3.871094 C 1.445312 -4.195312 1.609375 -4.410156 1.757812 -4.511719 C 1.910156 -4.613281 2.074219 -4.667969 2.257812 -4.667969 C 2.515625 -4.667969 2.78125 -4.582031 3.050781 -4.417969 L 2.785156 -3.699219 C 2.59375 -3.8125 2.40625 -3.867188 2.21875 -3.867188 C 2.046875 -3.867188 1.894531 -3.816406 1.761719 -3.714844 C 1.628906 -3.613281 1.53125 -3.472656 1.472656 -3.292969 C 1.386719 -3.015625 1.34375 -2.714844 1.34375 -2.390625 L 1.34375 0 Z M 0.570312 0 "/>
</g>
<g id="glyph-1-0">
<path d="M 0.957031 0 L 0.957031 -4.953125 L 0.101562 -4.953125 L 0.101562 -5.703125 L 0.957031 -5.703125 L 0.957031 -6.3125 C 0.957031 -6.695312 0.988281 -6.980469 1.058594 -7.164062 C 1.152344 -7.414062 1.316406 -7.617188 1.550781 -7.773438 C 1.785156 -7.929688 2.113281 -8.007812 2.535156 -8.007812 C 2.808594 -8.007812 3.109375 -7.976562 3.4375 -7.910156 L 3.292969 -7.070312 C 3.09375 -7.105469 2.902344 -7.121094 2.722656 -7.121094 C 2.429688 -7.121094 2.222656 -7.058594 2.101562 -6.933594 C 1.976562 -6.808594 1.917969 -6.574219 1.917969 -6.230469 L 1.917969 -5.703125 L 3.03125 -5.703125 L 3.03125 -4.953125 L 1.917969 -4.953125 L 1.917969 0 Z M 0.957031 0 "/>
</g>
<g id="glyph-1-1">
<path d="M 4.445312 -0.703125 C 4.089844 -0.398438 3.746094 -0.183594 3.414062 -0.0585938 C 3.082031 0.0664062 2.726562 0.128906 2.347656 0.128906 C 1.71875 0.128906 1.238281 -0.0234375 0.902344 -0.332031 C 0.566406 -0.636719 0.398438 -1.027344 0.398438 -1.503906 C 0.398438 -1.78125 0.460938 -2.039062 0.589844 -2.269531 C 0.714844 -2.5 0.882812 -2.6875 1.085938 -2.824219 C 1.292969 -2.964844 1.523438 -3.070312 1.78125 -3.140625 C 1.972656 -3.191406 2.257812 -3.242188 2.640625 -3.289062 C 3.421875 -3.378906 3.996094 -3.492188 4.367188 -3.621094 C 4.371094 -3.753906 4.371094 -3.835938 4.371094 -3.871094 C 4.371094 -4.265625 4.28125 -4.542969 4.097656 -4.703125 C 3.851562 -4.921875 3.484375 -5.03125 2.996094 -5.03125 C 2.542969 -5.03125 2.207031 -4.953125 1.988281 -4.792969 C 1.773438 -4.632812 1.613281 -4.351562 1.507812 -3.949219 L 0.5625 -4.078125 C 0.648438 -4.480469 0.792969 -4.808594 0.988281 -5.058594 C 1.183594 -5.304688 1.46875 -5.496094 1.84375 -5.632812 C 2.214844 -5.765625 2.644531 -5.832031 3.136719 -5.832031 C 3.625 -5.832031 4.019531 -5.777344 4.324219 -5.660156 C 4.628906 -5.546875 4.851562 -5.402344 4.996094 -5.230469 C 5.136719 -5.054688 5.238281 -4.835938 5.296875 -4.570312 C 5.328125 -4.40625 5.34375 -4.109375 5.34375 -3.679688 L 5.34375 -2.390625 C 5.34375 -1.492188 5.363281 -0.921875 5.40625 -0.683594 C 5.445312 -0.445312 5.527344 -0.21875 5.648438 0 L 4.640625 0 C 4.539062 -0.199219 4.476562 -0.433594 4.445312 -0.703125 M 4.367188 -2.863281 C 4.015625 -2.71875 3.488281 -2.597656 2.789062 -2.496094 C 2.390625 -2.441406 2.109375 -2.375 1.945312 -2.304688 C 1.78125 -2.234375 1.652344 -2.128906 1.5625 -1.988281 C 1.472656 -1.851562 1.429688 -1.699219 1.429688 -1.53125 C 1.429688 -1.273438 1.527344 -1.058594 1.722656 -0.886719 C 1.917969 -0.714844 2.203125 -0.628906 2.578125 -0.628906 C 2.949219 -0.628906 3.28125 -0.710938 3.570312 -0.871094 C 3.863281 -1.035156 4.074219 -1.257812 4.210938 -1.542969 C 4.316406 -1.761719 4.367188 -2.082031 4.367188 -2.507812 Z M 4.367188 -2.863281 "/>
</g>
<g id="glyph-1-2">
<path d="M 4.445312 -2.089844 L 5.398438 -1.964844 C 5.292969 -1.3125 5.027344 -0.796875 4.601562 -0.425781 C 4.171875 -0.0546875 3.648438 0.128906 3.023438 0.128906 C 2.242188 0.128906 1.617188 -0.125 1.140625 -0.636719 C 0.667969 -1.148438 0.429688 -1.878906 0.429688 -2.832031 C 0.429688 -3.445312 0.53125 -3.984375 0.734375 -4.445312 C 0.941406 -4.910156 1.25 -5.253906 1.667969 -5.488281 C 2.085938 -5.71875 2.539062 -5.832031 3.03125 -5.832031 C 3.648438 -5.832031 4.15625 -5.675781 4.550781 -5.363281 C 4.941406 -5.050781 5.195312 -4.605469 5.304688 -4.027344 L 4.367188 -3.882812 C 4.277344 -4.265625 4.117188 -4.554688 3.890625 -4.75 C 3.664062 -4.941406 3.390625 -5.039062 3.066406 -5.039062 C 2.578125 -5.039062 2.183594 -4.863281 1.878906 -4.515625 C 1.574219 -4.164062 1.421875 -3.613281 1.421875 -2.859375 C 1.421875 -2.089844 1.570312 -1.535156 1.863281 -1.1875 C 2.15625 -0.839844 2.539062 -0.664062 3.011719 -0.664062 C 3.394531 -0.664062 3.710938 -0.78125 3.964844 -1.015625 C 4.21875 -1.246094 4.378906 -1.605469 4.445312 -2.089844 Z M 4.445312 -2.089844 "/>
</g>
<g id="glyph-1-3">
<path d="M 4.464844 0 L 4.464844 -0.835938 C 4.019531 -0.195312 3.414062 0.128906 2.652344 0.128906 C 2.316406 0.128906 2.003906 0.0625 1.710938 -0.0625 C 1.417969 -0.195312 1.203125 -0.355469 1.0625 -0.550781 C 0.917969 -0.746094 0.820312 -0.984375 0.761719 -1.265625 C 0.722656 -1.457031 0.703125 -1.757812 0.703125 -2.171875 L 0.703125 -5.703125 L 1.671875 -5.703125 L 1.671875 -2.539062 C 1.671875 -2.035156 1.691406 -1.695312 1.730469 -1.519531 C 1.789062 -1.265625 1.917969 -1.066406 2.117188 -0.921875 C 2.3125 -0.777344 2.554688 -0.703125 2.847656 -0.703125 C 3.136719 -0.703125 3.410156 -0.777344 3.664062 -0.925781 C 3.917969 -1.074219 4.097656 -1.277344 4.203125 -1.535156 C 4.308594 -1.789062 4.359375 -2.160156 4.359375 -2.648438 L 4.359375 -5.703125 L 5.328125 -5.703125 L 5.328125 0 Z M 4.464844 0 "/>
</g>
<g id="glyph-1-4">
<path d="M 0.703125 0 L 0.703125 -7.875 L 1.671875 -7.875 L 1.671875 0 Z M 0.703125 0 "/>
</g>
<g id="glyph-1-5">
<path d="M 2.835938 -0.863281 L 2.976562 -0.0117188 C 2.703125 0.046875 2.460938 0.0742188 2.246094 0.0742188 C 1.894531 0.0742188 1.621094 0.0195312 1.429688 -0.0898438 C 1.234375 -0.203125 1.097656 -0.347656 1.019531 -0.527344 C 0.941406 -0.710938 0.902344 -1.089844 0.902344 -1.671875 L 0.902344 -4.953125 L 0.195312 -4.953125 L 0.195312 -5.703125 L 0.902344 -5.703125 L 0.902344 -7.117188 L 1.863281 -7.695312 L 1.863281 -5.703125 L 2.835938 -5.703125 L 2.835938 -4.953125 L 1.863281 -4.953125 L 1.863281 -1.617188 C 1.863281 -1.339844 1.878906 -1.164062 1.914062 -1.085938 C 1.949219 -1.007812 2.003906 -0.945312 2.082031 -0.898438 C 2.160156 -0.851562 2.269531 -0.828125 2.410156 -0.828125 C 2.519531 -0.828125 2.660156 -0.839844 2.835938 -0.863281 Z M 2.835938 -0.863281 "/>
</g>
<g id="glyph-1-6">
<path d="M 0.683594 2.195312 L 0.574219 1.289062 C 0.785156 1.347656 0.96875 1.375 1.128906 1.375 C 1.34375 1.375 1.515625 1.339844 1.644531 1.265625 C 1.773438 1.195312 1.878906 1.09375 1.960938 0.96875 C 2.019531 0.871094 2.121094 0.628906 2.257812 0.246094 C 2.273438 0.195312 2.300781 0.113281 2.34375 0.0117188 L 0.175781 -5.703125 L 1.21875 -5.703125 L 2.40625 -2.402344 C 2.558594 -1.980469 2.699219 -1.542969 2.820312 -1.078125 C 2.929688 -1.523438 3.0625 -1.957031 3.21875 -2.378906 L 4.4375 -5.703125 L 5.402344 -5.703125 L 3.234375 0.0976562 C 3 0.722656 2.820312 1.15625 2.691406 1.390625 C 2.519531 1.710938 2.320312 1.945312 2.101562 2.09375 C 1.878906 2.242188 1.613281 2.316406 1.304688 2.316406 C 1.117188 2.316406 0.910156 2.277344 0.683594 2.195312 Z M 0.683594 2.195312 "/>
</g>
<g id="glyph-2-0">
<path d="M -2.089844 -4.445312 L -1.964844 -5.398438 C -1.308594 -5.292969 -0.796875 -5.027344 -0.425781 -4.601562 C -0.0546875 -4.171875 0.128906 -3.648438 0.128906 -3.023438 C 0.128906 -2.242188 -0.125 -1.617188 -0.636719 -1.140625 C -1.148438 -0.667969 -1.878906 -0.429688 -2.832031 -0.429688 C -3.445312 -0.429688 -3.984375 -0.53125 -4.445312 -0.734375 C -4.910156 -0.941406 -5.253906 -1.25 -5.488281 -1.667969 C -5.71875 -2.085938 -5.832031 -2.539062 -5.832031 -3.03125 C -5.832031 -3.648438 -5.675781 -4.15625 -5.363281 -4.550781 C -5.050781 -4.941406 -4.605469 -5.195312 -4.027344 -5.304688 L -3.882812 -4.367188 C -4.265625 -4.277344 -4.554688 -4.117188 -4.75 -3.890625 C -4.941406 -3.664062 -5.039062 -3.390625 -5.039062 -3.066406 C -5.039062 -2.578125 -4.863281 -2.183594 -4.515625 -1.878906 C -4.164062 -1.574219 -3.613281 -1.421875 -2.859375 -1.421875 C -2.089844 -1.421875 -1.535156 -1.570312 -1.1875 -1.863281 C -0.839844 -2.15625 -0.664062 -2.539062 -0.664062 -3.011719 C -0.664062 -3.394531 -0.78125 -3.710938 -1.015625 -3.964844 C -1.246094 -4.21875 -1.605469 -4.378906 -2.089844 -4.445312 Z M -2.089844 -4.445312 "/>
</g>
<g id="glyph-2-1">
<path d="M -2.851562 -0.367188 C -3.910156 -0.367188 -4.691406 -0.660156 -5.199219 -1.246094 C -5.621094 -1.738281 -5.832031 -2.335938 -5.832031 -3.039062 C -5.832031 -3.824219 -5.574219 -4.464844 -5.0625 -4.960938 C -4.546875 -5.460938 -3.839844 -5.710938 -2.933594 -5.710938 C -2.199219 -5.710938 -1.621094 -5.597656 -1.199219 -5.378906 C -0.78125 -5.160156 -0.453125 -4.839844 -0.21875 -4.417969 C 0.0117188 -3.996094 0.128906 -3.539062 0.128906 -3.039062 C 0.128906 -2.242188 -0.128906 -1.597656 -0.640625 -1.105469 C -1.152344 -0.613281 -1.890625 -0.367188 -2.851562 -0.367188 M -2.851562 -1.359375 C -2.121094 -1.359375 -1.574219 -1.519531 -1.210938 -1.835938 C -0.847656 -2.15625 -0.664062 -2.554688 -0.664062 -3.039062 C -0.664062 -3.519531 -0.847656 -3.917969 -1.214844 -4.238281 C -1.578125 -4.554688 -2.136719 -4.714844 -2.882812 -4.714844 C -3.589844 -4.714844 -4.125 -4.554688 -4.488281 -4.234375 C -4.851562 -3.914062 -5.03125 -3.515625 -5.03125 -3.039062 C -5.03125 -2.558594 -4.851562 -2.15625 -4.492188 -1.835938 C -4.128906 -1.519531 -3.582031 -1.359375 -2.851562 -1.359375 Z M -2.851562 -1.359375 "/>
</g>
<g id="glyph-2-2">
<path d="M 0 -4.464844 L -0.835938 -4.464844 C -0.191406 -4.019531 0.128906 -3.414062 0.128906 -2.652344 C 0.128906 -2.316406 0.0625 -2.003906 -0.0625 -1.710938 C -0.191406 -1.417969 -0.355469 -1.203125 -0.550781 -1.0625 C -0.746094 -0.917969 -0.984375 -0.820312 -1.265625 -0.761719 C -1.457031 -0.722656 -1.757812 -0.703125 -2.171875 -0.703125 L -5.703125 -0.703125 L -5.703125 -1.671875 L -2.539062 -1.671875 C -2.035156 -1.671875 -1.695312 -1.691406 -1.519531 -1.730469 C -1.265625 -1.789062 -1.066406 -1.917969 -0.921875 -2.117188 C -0.777344 -2.3125 -0.703125 -2.554688 -0.703125 -2.847656 C -0.703125 -3.136719 -0.777344 -3.410156 -0.925781 -3.664062 C -1.074219 -3.917969 -1.277344 -4.097656 -1.535156 -4.203125 C -1.789062 -4.308594 -2.160156 -4.359375 -2.648438 -4.359375 L -5.703125 -4.359375 L -5.703125 -5.328125 L 0 -5.328125 Z M 0 -4.464844 "/>
</g>
<g id="glyph-2-3">
<path d="M 0 -0.726562 L -5.703125 -0.726562 L -5.703125 -1.59375 L -4.894531 -1.59375 C -5.519531 -2.015625 -5.832031 -2.621094 -5.832031 -3.410156 C -5.832031 -3.753906 -5.769531 -4.070312 -5.648438 -4.359375 C -5.523438 -4.648438 -5.363281 -4.863281 -5.160156 -5.007812 C -4.960938 -5.148438 -4.722656 -5.25 -4.445312 -5.304688 C -4.269531 -5.34375 -3.953125 -5.359375 -3.507812 -5.359375 L 0 -5.359375 L 0 -4.394531 L -3.46875 -4.394531 C -3.863281 -4.394531 -4.15625 -4.355469 -4.351562 -4.28125 C -4.546875 -4.207031 -4.703125 -4.070312 -4.820312 -3.878906 C -4.9375 -3.6875 -4.996094 -3.464844 -4.996094 -3.207031 C -4.996094 -2.792969 -4.863281 -2.4375 -4.601562 -2.140625 C -4.339844 -1.839844 -3.84375 -1.691406 -3.117188 -1.691406 L 0 -1.691406 Z M 0 -0.726562 "/>
</g>
<g id="glyph-2-4">
<path d="M -0.863281 -2.835938 L -0.0117188 -2.976562 C 0.046875 -2.703125 0.0742188 -2.460938 0.0742188 -2.246094 C 0.0742188 -1.894531 0.0195312 -1.621094 -0.0898438 -1.429688 C -0.203125 -1.234375 -0.347656 -1.097656 -0.527344 -1.019531 C -0.710938 -0.941406 -1.089844 -0.902344 -1.671875 -0.902344 L -4.953125 -0.902344 L -4.953125 -0.195312 L -5.703125 -0.195312 L -5.703125 -0.902344 L -7.117188 -0.902344 L -7.695312 -1.863281 L -5.703125 -1.863281 L -5.703125 -2.835938 L -4.953125 -2.835938 L -4.953125 -1.863281 L -1.617188 -1.863281 C -1.339844 -1.863281 -1.164062 -1.878906 -1.085938 -1.914062 C -1.007812 -1.949219 -0.945312 -2.003906 -0.898438 -2.082031 C -0.851562 -2.160156 -0.828125 -2.269531 -0.828125 -2.410156 C -0.828125 -2.519531 -0.839844 -2.660156 -0.863281 -2.835938 Z M -0.863281 -2.835938 "/>
</g>
</g>
<clipPath id="clip-0">
<path clip-rule="nonzero" d="M 40.023438 5.480469 L 426.523438 5.480469 L 426.523438 216.511719 L 40.023438 216.511719 Z M 40.023438 5.480469 "/>
</clipPath>
<clipPath id="clip-1">
<path clip-rule="nonzero" d="M 40.023438 175 L 426.523438 175 L 426.523438 177 L 40.023438 177 Z M 40.023438 175 "/>
</clipPath>
<clipPath id="clip-2">
<path clip-rule="nonzero" d="M 40.023438 113 L 426.523438 113 L 426.523438 114 L 40.023438 114 Z M 40.023438 113 "/>
</clipPath>
<clipPath id="clip-3">
<path clip-rule="nonzero" d="M 40.023438 50 L 426.523438 50 L 426.523438 52 L 40.023438 52 Z M 40.023438 50 "/>
</clipPath>
<clipPath id="clip-4">
<path clip-rule="nonzero" d="M 40.023438 206 L 426.523438 206 L 426.523438 208 L 40.023438 208 Z M 40.023438 206 "/>
</clipPath>
<clipPath id="clip-5">
<path clip-rule="nonzero" d="M 40.023438 144 L 426.523438 144 L 426.523438 146 L 40.023438 146 Z M 40.023438 144 "/>
</clipPath>
<clipPath id="clip-6">
<path clip-rule="nonzero" d="M 40.023438 81 L 426.523438 81 L 426.523438 83 L 40.023438 83 Z M 40.023438 81 "/>
</clipPath>
<clipPath id="clip-7">
<path clip-rule="nonzero" d="M 40.023438 19 L 426.523438 19 L 426.523438 21 L 40.023438 21 Z M 40.023438 19 "/>
</clipPath>
<clipPath id="clip-8">
<path clip-rule="nonzero" d="M 84 5.480469 L 86 5.480469 L 86 216.511719 L 84 216.511719 Z M 84 5.480469 "/>
</clipPath>
<clipPath id="clip-9">
<path clip-rule="nonzero" d="M 158 5.480469 L 160 5.480469 L 160 216.511719 L 158 216.511719 Z M 158 5.480469 "/>
</clipPath>
<clipPath id="clip-10">
<path clip-rule="nonzero" d="M 232 5.480469 L 234 5.480469 L 234 216.511719 L 232 216.511719 Z M 232 5.480469 "/>
</clipPath>
<clipPath id="clip-11">
<path clip-rule="nonzero" d="M 307 5.480469 L 309 5.480469 L 309 216.511719 L 307 216.511719 Z M 307 5.480469 "/>
</clipPath>
<clipPath id="clip-12">
<path clip-rule="nonzero" d="M 381 5.480469 L 383 5.480469 L 383 216.511719 L 381 216.511719 Z M 381 5.480469 "/>
</clipPath>
</defs>
<rect x="-43.2" y="-25.2" width="518.4" height="302.4" fill="rgb(100%, 100%, 100%)" fill-opacity="1"/>
<rect x="-43.2" y="-25.2" width="518.4" height="302.4" fill="rgb(100%, 100%, 100%)" fill-opacity="1"/>
<path fill="none" stroke-width="1.066978" stroke-linecap="round" stroke-linejoin="round" stroke="rgb(100%, 100%, 100%)" stroke-opacity="1" stroke-miterlimit="10" d="M 0 252 L 432 252 L 432 0 L 0 0 Z M 0 252 "/>
<g clip-path="url(#clip-0)">
<path fill-rule="nonzero" fill="rgb(92.156863%, 92.156863%, 92.156863%)" fill-opacity="1" d="M 40.023438 216.507812 L 426.523438 216.507812 L 426.523438 5.476562 L 40.023438 5.476562 Z M 40.023438 216.507812 "/>
</g>
<g clip-path="url(#clip-1)">
<path fill="none" stroke-width="0.533489" stroke-linecap="butt" stroke-linejoin="round" stroke="rgb(100%, 100%, 100%)" stroke-opacity="1" stroke-miterlimit="10" d="M 40.023438 175.773438 L 426.519531 175.773438 "/>
</g>
<g clip-path="url(#clip-2)">
<path fill="none" stroke-width="0.533489" stroke-linecap="butt" stroke-linejoin="round" stroke="rgb(100%, 100%, 100%)" stroke-opacity="1" stroke-miterlimit="10" d="M 40.023438 113.484375 L 426.519531 113.484375 "/>
</g>
<g clip-path="url(#clip-3)">
<path fill="none" stroke-width="0.533489" stroke-linecap="butt" stroke-linejoin="round" stroke="rgb(100%, 100%, 100%)" stroke-opacity="1" stroke-miterlimit="10" d="M 40.023438 51.199219 L 426.519531 51.199219 "/>
</g>
<g clip-path="url(#clip-4)">
<path fill="none" stroke-width="1.066978" stroke-linecap="butt" stroke-linejoin="round" stroke="rgb(100%, 100%, 100%)" stroke-opacity="1" stroke-miterlimit="10" d="M 40.023438 206.917969 L 426.519531 206.917969 "/>
</g>
<g clip-path="url(#clip-5)">
<path fill="none" stroke-width="1.066978" stroke-linecap="butt" stroke-linejoin="round" stroke="rgb(100%, 100%, 100%)" stroke-opacity="1" stroke-miterlimit="10" d="M 40.023438 144.628906 L 426.519531 144.628906 "/>
</g>
<g clip-path="url(#clip-6)">
<path fill="none" stroke-width="1.066978" stroke-linecap="butt" stroke-linejoin="round" stroke="rgb(100%, 100%, 100%)" stroke-opacity="1" stroke-miterlimit="10" d="M 40.023438 82.34375 L 426.519531 82.34375 "/>
</g>
<g clip-path="url(#clip-7)">
<path fill="none" stroke-width="1.066978" stroke-linecap="butt" stroke-linejoin="round" stroke="rgb(100%, 100%, 100%)" stroke-opacity="1" stroke-miterlimit="10" d="M 40.023438 20.054688 L 426.519531 20.054688 "/>
</g>
<g clip-path="url(#clip-8)">
<path fill="none" stroke-width="1.066978" stroke-linecap="butt" stroke-linejoin="round" stroke="rgb(100%, 100%, 100%)" stroke-opacity="1" stroke-miterlimit="10" d="M 84.617188 216.507812 L 84.617188 5.480469 "/>
</g>
<g clip-path="url(#clip-9)">
<path fill="none" stroke-width="1.066978" stroke-linecap="butt" stroke-linejoin="round" stroke="rgb(100%, 100%, 100%)" stroke-opacity="1" stroke-miterlimit="10" d="M 158.945312 216.507812 L 158.945312 5.480469 "/>
</g>
<g clip-path="url(#clip-10)">
<path fill="none" stroke-width="1.066978" stroke-linecap="butt" stroke-linejoin="round" stroke="rgb(100%, 100%, 100%)" stroke-opacity="1" stroke-miterlimit="10" d="M 233.269531 216.507812 L 233.269531 5.480469 "/>
</g>
<g clip-path="url(#clip-11)">
<path fill="none" stroke-width="1.066978" stroke-linecap="butt" stroke-linejoin="round" stroke="rgb(100%, 100%, 100%)" stroke-opacity="1" stroke-miterlimit="10" d="M 307.597656 216.507812 L 307.597656 5.480469 "/>
</g>
<g clip-path="url(#clip-12)">
<path fill="none" stroke-width="1.066978" stroke-linecap="butt" stroke-linejoin="round" stroke="rgb(100%, 100%, 100%)" stroke-opacity="1" stroke-miterlimit="10" d="M 381.925781 216.507812 L 381.925781 5.480469 "/>
</g>
<path fill-rule="nonzero" fill="rgb(34.901961%, 34.901961%, 34.901961%)" fill-opacity="1" d="M 51.171875 206.917969 L 118.066406 206.917969 L 118.066406 22.546875 L 51.171875 22.546875 Z M 51.171875 206.917969 "/>
<path fill-rule="nonzero" fill="rgb(34.901961%, 34.901961%, 34.901961%)" fill-opacity="1" d="M 125.496094 206.917969 L 192.390625 206.917969 L 192.390625 15.074219 L 125.496094 15.074219 Z M 125.496094 206.917969 "/>
<path fill-rule="nonzero" fill="rgb(34.901961%, 34.901961%, 34.901961%)" fill-opacity="1" d="M 199.824219 206.917969 L 266.71875 206.917969 L 266.71875 88.570312 L 199.824219 88.570312 Z M 199.824219 206.917969 "/>
<path fill-rule="nonzero" fill="rgb(34.901961%, 34.901961%, 34.901961%)" fill-opacity="1" d="M 274.152344 206.917969 L 341.046875 206.917969 L 341.046875 98.539062 L 274.152344 98.539062 Z M 274.152344 206.917969 "/>
<path fill-rule="nonzero" fill="rgb(34.901961%, 34.901961%, 34.901961%)" fill-opacity="1" d="M 348.476562 206.917969 L 415.371094 206.917969 L 415.371094 62.410156 L 348.476562 62.410156 Z M 348.476562 206.917969 "/>
<g fill="rgb(30.196078%, 30.196078%, 30.196078%)" fill-opacity="1">
<use xlink:href="#glyph-0-0" x="30.195312" y="210.566406"/>
</g>
<g fill="rgb(30.196078%, 30.196078%, 30.196078%)" fill-opacity="1">
<use xlink:href="#glyph-0-1" x="25.300781" y="148.277344"/>
<use xlink:href="#glyph-0-0" x="30.194922" y="148.277344"/>
</g>
<g fill="rgb(30.196078%, 30.196078%, 30.196078%)" fill-opacity="1">
<use xlink:href="#glyph-0-2" x="20.40625" y="85.992188"/>
<use xlink:href="#glyph-0-0" x="25.300391" y="85.992188"/>
<use xlink:href="#glyph-0-0" x="30.194531" y="85.992188"/>
</g>
<g fill="rgb(30.196078%, 30.196078%, 30.196078%)" fill-opacity="1">
<use xlink:href="#glyph-0-2" x="20.40625" y="23.703125"/>
<use xlink:href="#glyph-0-1" x="25.300391" y="23.703125"/>
<use xlink:href="#glyph-0-0" x="30.194531" y="23.703125"/>
</g>
<path fill="none" stroke-width="1.066978" stroke-linecap="butt" stroke-linejoin="round" stroke="rgb(20%, 20%, 20%)" stroke-opacity="1" stroke-miterlimit="10" d="M 37.28125 206.917969 L 40.023438 206.917969 "/>
<path fill="none" stroke-width="1.066978" stroke-linecap="butt" stroke-linejoin="round" stroke="rgb(20%, 20%, 20%)" stroke-opacity="1" stroke-miterlimit="10" d="M 37.28125 144.628906 L 40.023438 144.628906 "/>
<path fill="none" stroke-width="1.066978" stroke-linecap="butt" stroke-linejoin="round" stroke="rgb(20%, 20%, 20%)" stroke-opacity="1" stroke-miterlimit="10" d="M 37.28125 82.34375 L 40.023438 82.34375 "/>
<path fill="none" stroke-width="1.066978" stroke-linecap="butt" stroke-linejoin="round" stroke="rgb(20%, 20%, 20%)" stroke-opacity="1" stroke-miterlimit="10" d="M 37.28125 20.054688 L 40.023438 20.054688 "/>
<path fill="none" stroke-width="1.066978" stroke-linecap="butt" stroke-linejoin="round" stroke="rgb(20%, 20%, 20%)" stroke-opacity="1" stroke-miterlimit="10" d="M 84.617188 219.25 L 84.617188 216.507812 "/>
<path fill="none" stroke-width="1.066978" stroke-linecap="butt" stroke-linejoin="round" stroke="rgb(20%, 20%, 20%)" stroke-opacity="1" stroke-miterlimit="10" d="M 158.945312 219.25 L 158.945312 216.507812 "/>
<path fill="none" stroke-width="1.066978" stroke-linecap="butt" stroke-linejoin="round" stroke="rgb(20%, 20%, 20%)" stroke-opacity="1" stroke-miterlimit="10" d="M 233.269531 219.25 L 233.269531 216.507812 "/>
<path fill="none" stroke-width="1.066978" stroke-linecap="butt" stroke-linejoin="round" stroke="rgb(20%, 20%, 20%)" stroke-opacity="1" stroke-miterlimit="10" d="M 307.597656 219.25 L 307.597656 216.507812 "/>
<path fill="none" stroke-width="1.066978" stroke-linecap="butt" stroke-linejoin="round" stroke="rgb(20%, 20%, 20%)" stroke-opacity="1" stroke-miterlimit="10" d="M 381.925781 219.25 L 381.925781 216.507812 "/>
<g fill="rgb(30.196078%, 30.196078%, 30.196078%)" fill-opacity="1">
<use xlink:href="#glyph-0-3" x="65.046875" y="228.738281"/>
<use xlink:href="#glyph-0-4" x="70.916406" y="228.738281"/>
<use xlink:href="#glyph-0-5" x="75.810547" y="228.738281"/>
<use xlink:href="#glyph-0-6" x="80.704688" y="228.738281"/>
<use xlink:href="#glyph-0-7" x="85.104688" y="228.738281"/>
<use xlink:href="#glyph-0-8" x="89.998828" y="228.738281"/>
<use xlink:href="#glyph-0-9" x="92.44375" y="228.738281"/>
<use xlink:href="#glyph-0-10" x="94.398828" y="228.738281"/>
<use xlink:href="#glyph-0-11" x="99.292969" y="228.738281"/>
</g>
<g fill="rgb(30.196078%, 30.196078%, 30.196078%)" fill-opacity="1">
<use xlink:href="#glyph-0-12" x="127.152344" y="228.738281"/>
<use xlink:href="#glyph-0-13" x="133.507422" y="228.738281"/>
<use xlink:href="#glyph-0-7" x="138.401563" y="228.738281"/>
<use xlink:href="#glyph-0-14" x="143.295703" y="228.738281"/>
<use xlink:href="#glyph-0-8" x="145.250781" y="228.738281"/>
<use xlink:href="#glyph-0-15" x="147.695703" y="228.738281"/>
<use xlink:href="#glyph-0-16" x="152.589844" y="228.738281"/>
<use xlink:href="#glyph-0-17" x="155.034766" y="228.738281"/>
<use xlink:href="#glyph-0-6" x="160.904297" y="228.738281"/>
<use xlink:href="#glyph-0-9" x="165.304297" y="228.738281"/>
<use xlink:href="#glyph-0-13" x="167.259375" y="228.738281"/>
<use xlink:href="#glyph-0-11" x="172.153516" y="228.738281"/>
<use xlink:href="#glyph-0-6" x="177.047656" y="228.738281"/>
<use xlink:href="#glyph-0-13" x="181.447656" y="228.738281"/>
<use xlink:href="#glyph-0-18" x="186.341797" y="228.738281"/>
</g>
<g fill="rgb(30.196078%, 30.196078%, 30.196078%)" fill-opacity="1">
<use xlink:href="#glyph-0-12" x="211.261719" y="228.738281"/>
<use xlink:href="#glyph-0-5" x="217.616797" y="228.738281"/>
<use xlink:href="#glyph-0-19" x="222.510938" y="228.738281"/>
<use xlink:href="#glyph-0-7" x="229.841406" y="228.738281"/>
<use xlink:href="#glyph-0-11" x="234.735547" y="228.738281"/>
<use xlink:href="#glyph-0-9" x="239.629688" y="228.738281"/>
<use xlink:href="#glyph-0-8" x="241.584766" y="228.738281"/>
<use xlink:href="#glyph-0-9" x="244.029688" y="228.738281"/>
<use xlink:href="#glyph-0-13" x="245.984766" y="228.738281"/>
<use xlink:href="#glyph-0-18" x="250.878906" y="228.738281"/>
</g>
<g fill="rgb(30.196078%, 30.196078%, 30.196078%)" fill-opacity="1">
<use xlink:href="#glyph-0-20" x="274.335938" y="228.738281"/>
<use xlink:href="#glyph-0-7" x="280.691016" y="228.738281"/>
<use xlink:href="#glyph-0-8" x="285.585156" y="228.738281"/>
<use xlink:href="#glyph-0-5" x="288.030078" y="228.738281"/>
<use xlink:href="#glyph-0-21" x="292.924219" y="228.738281"/>
<use xlink:href="#glyph-0-7" x="295.854687" y="228.738281"/>
<use xlink:href="#glyph-0-14" x="300.748828" y="228.738281"/>
<use xlink:href="#glyph-0-16" x="302.703906" y="228.738281"/>
<use xlink:href="#glyph-0-17" x="305.148828" y="228.738281"/>
<use xlink:href="#glyph-0-6" x="311.018359" y="228.738281"/>
<use xlink:href="#glyph-0-9" x="315.418359" y="228.738281"/>
<use xlink:href="#glyph-0-13" x="317.373437" y="228.738281"/>
<use xlink:href="#glyph-0-11" x="322.267578" y="228.738281"/>
<use xlink:href="#glyph-0-6" x="327.161719" y="228.738281"/>
<use xlink:href="#glyph-0-13" x="331.561719" y="228.738281"/>
<use xlink:href="#glyph-0-18" x="336.455859" y="228.738281"/>
</g>
<g fill="rgb(30.196078%, 30.196078%, 30.196078%)" fill-opacity="1">
<use xlink:href="#glyph-0-17" x="350.867188" y="228.738281"/>
<use xlink:href="#glyph-0-10" x="356.736719" y="228.738281"/>
<use xlink:href="#glyph-0-6" x="361.630859" y="228.738281"/>
<use xlink:href="#glyph-0-9" x="366.030859" y="228.738281"/>
<use xlink:href="#glyph-0-7" x="367.985937" y="228.738281"/>
<use xlink:href="#glyph-0-14" x="372.880078" y="228.738281"/>
<use xlink:href="#glyph-0-16" x="374.835156" y="228.738281"/>
<use xlink:href="#glyph-0-17" x="377.280078" y="228.738281"/>
<use xlink:href="#glyph-0-6" x="383.149609" y="228.738281"/>
<use xlink:href="#glyph-0-9" x="387.549609" y="228.738281"/>
<use xlink:href="#glyph-0-13" x="389.504687" y="228.738281"/>
<use xlink:href="#glyph-0-11" x="394.398828" y="228.738281"/>
<use xlink:href="#glyph-0-6" x="399.292969" y="228.738281"/>
<use xlink:href="#glyph-0-13" x="403.692969" y="228.738281"/>
<use xlink:href="#glyph-0-18" x="408.587109" y="228.738281"/>
</g>
<g fill="rgb(0%, 0%, 0%)" fill-opacity="1">
<use xlink:href="#glyph-1-0" x="217.375" y="243.207031"/>
<use xlink:href="#glyph-1-1" x="220.431152" y="243.207031"/>
<use xlink:href="#glyph-1-2" x="226.548828" y="243.207031"/>
<use xlink:href="#glyph-1-3" x="232.048828" y="243.207031"/>
<use xlink:href="#glyph-1-4" x="238.166504" y="243.207031"/>
<use xlink:href="#glyph-1-5" x="240.610352" y="243.207031"/>
<use xlink:href="#glyph-1-6" x="243.666504" y="243.207031"/>
</g>
<g fill="rgb(0%, 0%, 0%)" fill-opacity="1">
<use xlink:href="#glyph-2-0" x="14.351562" y="124.449219"/>
<use xlink:href="#glyph-2-1" x="14.351562" y="118.949219"/>
<use xlink:href="#glyph-2-2" x="14.351562" y="112.831543"/>
<use xlink:href="#glyph-2-3" x="14.351562" y="106.713867"/>
<use xlink:href="#glyph-2-4" x="14.351563" y="100.596191"/>
</g>
</svg>
