<?xml version="1.0" encoding="UTF-8"?>
<svg xmlns="http://www.w3.org/2000/svg" xmlns:xlink="http://www.w3.org/1999/xlink" width="540" height="288" viewBox="0 0 540 288">
<defs>
<g>
<g id="glyph-0-0">
<path d="M 0.398438 -3.390625 C 0.398438 -4.203125 0.480469 -4.855469 0.648438 -5.351562 C 0.816406 -5.847656 1.066406 -6.226562 1.394531 -6.496094 C 1.722656 -6.765625 2.140625 -6.898438 2.640625 -6.898438 C 3.007812 -6.898438 3.332031 -6.824219 3.609375 -6.675781 C 3.886719 -6.527344 4.117188 -6.316406 4.296875 -6.035156 C 4.480469 -5.753906 4.621094 -5.414062 4.726562 -5.011719 C 4.828125 -4.613281 4.878906 -4.070312 4.878906 -3.390625 C 4.878906 -2.582031 4.796875 -1.933594 4.632812 -1.4375 C 4.464844 -0.941406 4.21875 -0.558594 3.886719 -0.289062 C 3.558594 -0.0195312 3.140625 0.117188 2.640625 0.117188 C 1.976562 0.117188 1.457031 -0.121094 1.078125 -0.59375 C 0.625 -1.167969 0.398438 -2.097656 0.398438 -3.390625 M 1.265625 -3.390625 C 1.265625 -2.261719 1.398438 -1.511719 1.660156 -1.136719 C 1.925781 -0.761719 2.25 -0.578125 2.640625 -0.578125 C 3.027344 -0.578125 3.351562 -0.765625 3.617188 -1.140625 C 3.878906 -1.515625 4.011719 -2.265625 4.011719 -3.390625 C 4.011719 -4.519531 3.878906 -5.273438 3.617188 -5.644531 C 3.351562 -6.015625 3.023438 -6.203125 2.628906 -6.203125 C 2.242188 -6.203125 1.933594 -6.039062 1.703125 -5.710938 C 1.410156 -5.289062 1.265625 -4.515625 1.265625 -3.390625 Z M 1.265625 -3.390625 "/>
</g>
<g id="glyph-0-1">
<path d="M 4.832031 -0.8125 L 4.832031 0 L 0.289062 0 C 0.285156 -0.203125 0.316406 -0.398438 0.390625 -0.585938 C 0.503906 -0.894531 0.691406 -1.199219 0.945312 -1.5 C 1.199219 -1.800781 1.566406 -2.148438 2.046875 -2.539062 C 2.796875 -3.152344 3.300781 -3.636719 3.5625 -3.996094 C 3.824219 -4.355469 3.957031 -4.691406 3.957031 -5.011719 C 3.957031 -5.34375 3.835938 -5.628906 3.597656 -5.855469 C 3.359375 -6.085938 3.046875 -6.203125 2.664062 -6.203125 C 2.257812 -6.203125 1.929688 -6.078125 1.6875 -5.835938 C 1.445312 -5.59375 1.320312 -5.253906 1.316406 -4.824219 L 0.449219 -4.914062 C 0.507812 -5.558594 0.734375 -6.050781 1.121094 -6.390625 C 1.507812 -6.730469 2.027344 -6.898438 2.679688 -6.898438 C 3.339844 -6.898438 3.863281 -6.71875 4.246094 -6.351562 C 4.632812 -5.984375 4.824219 -5.53125 4.824219 -4.992188 C 4.824219 -4.71875 4.765625 -4.445312 4.65625 -4.179688 C 4.542969 -3.914062 4.355469 -3.636719 4.09375 -3.34375 C 3.832031 -3.046875 3.398438 -2.644531 2.792969 -2.132812 C 2.289062 -1.707031 1.960938 -1.417969 1.820312 -1.269531 C 1.675781 -1.117188 1.554688 -0.964844 1.460938 -0.8125 Z M 4.832031 -0.8125 "/>
</g>
<g id="glyph-0-2">
<path d="M 3.101562 0 L 3.101562 -1.644531 L 0.121094 -1.644531 L 0.121094 -2.417969 L 3.257812 -6.871094 L 3.945312 -6.871094 L 3.945312 -2.417969 L 4.875 -2.417969 L 4.875 -1.644531 L 3.945312 -1.644531 L 3.945312 0 L 3.101562 0 M 3.101562 -2.417969 L 3.101562 -5.515625 L 0.953125 -2.417969 Z M 3.101562 -2.417969 "/>
</g>
<g id="glyph-0-3">
<path d="M 4.777344 -5.1875 L 3.9375 -5.125 C 3.863281 -5.453125 3.757812 -5.695312 3.617188 -5.84375 C 3.390625 -6.085938 3.109375 -6.207031 2.773438 -6.207031 C 2.507812 -6.207031 2.269531 -6.132812 2.066406 -5.980469 C 1.800781 -5.789062 1.59375 -5.503906 1.4375 -5.132812 C 1.285156 -4.761719 1.207031 -4.230469 1.199219 -3.542969 C 1.402344 -3.851562 1.652344 -4.082031 1.945312 -4.234375 C 2.238281 -4.382812 2.546875 -4.457031 2.867188 -4.457031 C 3.429688 -4.457031 3.910156 -4.25 4.304688 -3.835938 C 4.699219 -3.421875 4.898438 -2.886719 4.898438 -2.230469 C 4.898438 -1.800781 4.804688 -1.398438 4.621094 -1.027344 C 4.433594 -0.660156 4.179688 -0.375 3.851562 -0.179688 C 3.527344 0.0195312 3.160156 0.117188 2.746094 0.117188 C 2.042969 0.117188 1.46875 -0.140625 1.027344 -0.660156 C 0.582031 -1.175781 0.359375 -2.027344 0.359375 -3.214844 C 0.359375 -4.542969 0.605469 -5.507812 1.097656 -6.113281 C 1.523438 -6.636719 2.101562 -6.898438 2.828125 -6.898438 C 3.367188 -6.898438 3.808594 -6.75 4.15625 -6.445312 C 4.5 -6.140625 4.707031 -5.722656 4.777344 -5.1875 M 1.332031 -2.226562 C 1.332031 -1.9375 1.394531 -1.65625 1.515625 -1.390625 C 1.640625 -1.125 1.8125 -0.925781 2.035156 -0.785156 C 2.257812 -0.644531 2.488281 -0.578125 2.734375 -0.578125 C 3.089844 -0.578125 3.394531 -0.71875 3.652344 -1.007812 C 3.90625 -1.296875 4.035156 -1.6875 4.035156 -2.179688 C 4.035156 -2.65625 3.910156 -3.027344 3.65625 -3.300781 C 3.402344 -3.574219 3.085938 -3.710938 2.699219 -3.710938 C 2.320312 -3.710938 1.996094 -3.574219 1.730469 -3.300781 C 1.464844 -3.027344 1.332031 -2.671875 1.332031 -2.226562 Z M 1.332031 -2.226562 "/>
</g>
<g id="glyph-0-4">
<path d="M 3.578125 0 L 2.734375 0 L 2.734375 -5.375 C 2.53125 -5.183594 2.261719 -4.988281 1.933594 -4.796875 C 1.605469 -4.601562 1.308594 -4.457031 1.046875 -4.359375 L 1.046875 -5.175781 C 1.515625 -5.398438 1.929688 -5.664062 2.28125 -5.980469 C 2.636719 -6.296875 2.886719 -6.601562 3.03125 -6.898438 L 3.578125 -6.898438 Z M 3.578125 0 "/>
</g>
<g id="glyph-0-5">
<path d="M 0.402344 -1.8125 L 1.246094 -1.925781 C 1.34375 -1.449219 1.507812 -1.105469 1.742188 -0.894531 C 1.972656 -0.683594 2.257812 -0.578125 2.59375 -0.578125 C 2.988281 -0.578125 3.324219 -0.714844 3.597656 -0.988281 C 3.871094 -1.265625 4.007812 -1.605469 4.007812 -2.011719 C 4.007812 -2.398438 3.882812 -2.71875 3.628906 -2.96875 C 3.375 -3.222656 3.054688 -3.347656 2.664062 -3.347656 C 2.503906 -3.347656 2.304688 -3.316406 2.066406 -3.253906 L 2.160156 -3.992188 C 2.21875 -3.988281 2.261719 -3.984375 2.296875 -3.984375 C 2.65625 -3.984375 2.980469 -4.078125 3.265625 -4.265625 C 3.554688 -4.453125 3.699219 -4.742188 3.699219 -5.132812 C 3.699219 -5.441406 3.59375 -5.699219 3.382812 -5.902344 C 3.175781 -6.105469 2.90625 -6.207031 2.574219 -6.207031 C 2.246094 -6.207031 1.972656 -6.101562 1.753906 -5.898438 C 1.535156 -5.691406 1.394531 -5.382812 1.332031 -4.96875 L 0.488281 -5.117188 C 0.589844 -5.683594 0.824219 -6.121094 1.191406 -6.433594 C 1.554688 -6.746094 2.011719 -6.898438 2.554688 -6.898438 C 2.929688 -6.898438 3.273438 -6.820312 3.589844 -6.660156 C 3.90625 -6.496094 4.148438 -6.277344 4.316406 -6 C 4.480469 -5.722656 4.566406 -5.425781 4.566406 -5.113281 C 4.566406 -4.816406 4.484375 -4.546875 4.328125 -4.304688 C 4.167969 -4.058594 3.929688 -3.867188 3.617188 -3.722656 C 4.023438 -3.628906 4.339844 -3.433594 4.566406 -3.136719 C 4.789062 -2.84375 4.902344 -2.472656 4.902344 -2.03125 C 4.902344 -1.429688 4.683594 -0.921875 4.246094 -0.503906 C 3.808594 -0.0859375 3.257812 0.121094 2.585938 0.121094 C 1.984375 0.121094 1.484375 -0.0585938 1.085938 -0.417969 C 0.6875 -0.777344 0.460938 -1.242188 0.402344 -1.8125 Z M 0.402344 -1.8125 "/>
</g>
<g id="glyph-0-6">
<path d="M 0.398438 -1.800781 L 1.285156 -1.875 C 1.351562 -1.445312 1.503906 -1.121094 1.742188 -0.902344 C 1.980469 -0.683594 2.269531 -0.578125 2.605469 -0.578125 C 3.011719 -0.578125 3.355469 -0.730469 3.636719 -1.035156 C 3.917969 -1.34375 4.058594 -1.75 4.058594 -2.253906 C 4.058594 -2.734375 3.925781 -3.117188 3.652344 -3.394531 C 3.382812 -3.671875 3.03125 -3.8125 2.59375 -3.8125 C 2.320312 -3.8125 2.074219 -3.75 1.855469 -3.625 C 1.636719 -3.503906 1.464844 -3.34375 1.339844 -3.144531 L 0.546875 -3.25 L 1.214844 -6.777344 L 4.632812 -6.777344 L 4.632812 -5.972656 L 1.890625 -5.972656 L 1.519531 -4.125 C 1.929688 -4.414062 2.363281 -4.554688 2.816406 -4.554688 C 3.417969 -4.554688 3.921875 -4.347656 4.335938 -3.933594 C 4.75 -3.515625 4.953125 -2.984375 4.953125 -2.328125 C 4.953125 -1.707031 4.773438 -1.171875 4.410156 -0.71875 C 3.96875 -0.160156 3.367188 0.117188 2.605469 0.117188 C 1.980469 0.117188 1.472656 -0.0585938 1.074219 -0.40625 C 0.679688 -0.757812 0.453125 -1.222656 0.398438 -1.800781 Z M 0.398438 -1.800781 "/>
</g>
<g id="glyph-0-7">
<path d="M 0 0.117188 L 1.992188 -6.988281 L 2.667969 -6.988281 L 0.679688 0.117188 Z M 0 0.117188 "/>
</g>
<g id="glyph-1-0">
<path d="M 2.425781 0 L 0.148438 -8.589844 L 1.3125 -8.589844 L 2.617188 -2.960938 C 2.757812 -2.367188 2.878906 -1.78125 2.984375 -1.203125 C 3.199219 -2.117188 3.328125 -2.648438 3.367188 -2.789062 L 5.003906 -8.589844 L 6.375 -8.589844 L 7.605469 -4.242188 C 7.914062 -3.164062 8.136719 -2.148438 8.273438 -1.203125 C 8.382812 -1.742188 8.523438 -2.367188 8.703125 -3.070312 L 10.046875 -8.589844 L 11.191406 -8.589844 L 8.835938 0 L 7.742188 0 L 5.929688 -6.546875 C 5.777344 -7.089844 5.6875 -7.425781 5.660156 -7.554688 C 5.570312 -7.15625 5.484375 -6.820312 5.40625 -6.546875 L 3.585938 0 Z M 2.425781 0 "/>
</g>
<g id="glyph-1-1">
<path d="M 5.050781 -2.003906 L 6.140625 -1.867188 C 5.96875 -1.230469 5.648438 -0.738281 5.1875 -0.386719 C 4.71875 -0.0351562 4.125 0.140625 3.40625 0.140625 C 2.492188 0.140625 1.773438 -0.140625 1.238281 -0.699219 C 0.707031 -1.261719 0.4375 -2.046875 0.4375 -3.058594 C 0.4375 -4.105469 0.710938 -4.917969 1.25 -5.496094 C 1.789062 -6.074219 2.484375 -6.363281 3.34375 -6.363281 C 4.179688 -6.363281 4.859375 -6.078125 5.382812 -5.515625 C 5.914062 -4.945312 6.175781 -4.148438 6.175781 -3.125 C 6.175781 -3.058594 6.171875 -2.964844 6.171875 -2.84375 L 1.53125 -2.84375 C 1.566406 -2.15625 1.761719 -1.632812 2.109375 -1.273438 C 2.457031 -0.90625 2.890625 -0.726562 3.410156 -0.726562 C 3.796875 -0.726562 4.125 -0.828125 4.398438 -1.03125 C 4.671875 -1.234375 4.890625 -1.558594 5.050781 -2.003906 M 1.585938 -3.710938 L 5.0625 -3.710938 C 5.015625 -4.230469 4.882812 -4.625 4.664062 -4.886719 C 4.328125 -5.292969 3.890625 -5.496094 3.359375 -5.496094 C 2.871094 -5.496094 2.464844 -5.332031 2.136719 -5.007812 C 1.804688 -4.683594 1.625 -4.25 1.585938 -3.710938 Z M 1.585938 -3.710938 "/>
</g>
<g id="glyph-1-2">
<path d="M 0.796875 0 L 0.796875 -8.589844 L 1.851562 -8.589844 L 1.851562 -3.691406 L 4.347656 -6.222656 L 5.710938 -6.222656 L 3.335938 -3.914062 L 5.953125 0 L 4.652344 0 L 2.59375 -3.179688 L 1.851562 -2.46875 L 1.851562 0 Z M 0.796875 0 "/>
</g>
<g id="glyph-1-3">
</g>
<g id="glyph-1-4">
<path d="M 0.398438 -3.109375 C 0.398438 -4.261719 0.71875 -5.117188 1.359375 -5.671875 C 1.894531 -6.132812 2.546875 -6.363281 3.316406 -6.363281 C 4.171875 -6.363281 4.871094 -6.082031 5.414062 -5.523438 C 5.957031 -4.960938 6.226562 -4.1875 6.226562 -3.199219 C 6.226562 -2.398438 6.109375 -1.769531 5.867188 -1.308594 C 5.628906 -0.851562 5.277344 -0.492188 4.820312 -0.242188 C 4.359375 0.0117188 3.859375 0.140625 3.316406 0.140625 C 2.445312 0.140625 1.742188 -0.140625 1.203125 -0.695312 C 0.667969 -1.253906 0.398438 -2.058594 0.398438 -3.109375 M 1.484375 -3.109375 C 1.484375 -2.3125 1.65625 -1.71875 2.003906 -1.320312 C 2.351562 -0.925781 2.789062 -0.726562 3.316406 -0.726562 C 3.839844 -0.726562 4.273438 -0.925781 4.625 -1.324219 C 4.96875 -1.722656 5.144531 -2.328125 5.144531 -3.148438 C 5.144531 -3.914062 4.96875 -4.5 4.621094 -4.894531 C 4.269531 -5.292969 3.835938 -5.492188 3.316406 -5.492188 C 2.789062 -5.492188 2.351562 -5.292969 2.003906 -4.898438 C 1.65625 -4.503906 1.484375 -3.90625 1.484375 -3.109375 Z M 1.484375 -3.109375 "/>
</g>
<g id="glyph-1-5">
<path d="M 1.042969 0 L 1.042969 -5.402344 L 0.109375 -5.402344 L 0.109375 -6.222656 L 1.042969 -6.222656 L 1.042969 -6.882812 C 1.042969 -7.300781 1.078125 -7.613281 1.15625 -7.816406 C 1.253906 -8.089844 1.433594 -8.3125 1.691406 -8.480469 C 1.945312 -8.652344 2.304688 -8.734375 2.765625 -8.734375 C 3.0625 -8.734375 3.390625 -8.703125 3.75 -8.632812 L 3.59375 -7.710938 C 3.371094 -7.75 3.164062 -7.769531 2.96875 -7.769531 C 2.648438 -7.769531 2.421875 -7.699219 2.289062 -7.5625 C 2.15625 -7.425781 2.09375 -7.171875 2.09375 -6.796875 L 2.09375 -6.222656 L 3.304688 -6.222656 L 3.304688 -5.402344 L 2.09375 -5.402344 L 2.09375 0 Z M 1.042969 0 "/>
</g>
<g id="glyph-1-6">
<path d="M 3.09375 -0.945312 L 3.246094 -0.0117188 C 2.949219 0.0507812 2.683594 0.0820312 2.449219 0.0820312 C 2.066406 0.0820312 1.769531 0.0195312 1.558594 -0.101562 C 1.347656 -0.21875 1.199219 -0.378906 1.113281 -0.578125 C 1.027344 -0.773438 0.984375 -1.1875 0.984375 -1.820312 L 0.984375 -5.402344 L 0.210938 -5.402344 L 0.210938 -6.222656 L 0.984375 -6.222656 L 0.984375 -7.765625 L 2.03125 -8.398438 L 2.03125 -6.222656 L 3.09375 -6.222656 L 3.09375 -5.402344 L 2.03125 -5.402344 L 2.03125 -1.765625 C 2.03125 -1.460938 2.050781 -1.269531 2.089844 -1.183594 C 2.125 -1.097656 2.1875 -1.027344 2.269531 -0.976562 C 2.355469 -0.925781 2.472656 -0.902344 2.632812 -0.902344 C 2.75 -0.902344 2.902344 -0.914062 3.09375 -0.945312 Z M 3.09375 -0.945312 "/>
</g>
<g id="glyph-1-7">
<path d="M 0.789062 0 L 0.789062 -8.589844 L 1.84375 -8.589844 L 1.84375 -5.507812 C 2.335938 -6.078125 2.957031 -6.363281 3.710938 -6.363281 C 4.167969 -6.363281 4.570312 -6.273438 4.910156 -6.089844 C 5.25 -5.910156 5.492188 -5.65625 5.640625 -5.335938 C 5.785156 -5.015625 5.859375 -4.554688 5.859375 -3.945312 L 5.859375 0 L 4.804688 0 L 4.804688 -3.945312 C 4.804688 -4.46875 4.691406 -4.855469 4.460938 -5.09375 C 4.234375 -5.335938 3.910156 -5.453125 3.492188 -5.453125 C 3.179688 -5.453125 2.886719 -5.375 2.609375 -5.210938 C 2.335938 -5.050781 2.140625 -4.828125 2.023438 -4.554688 C 1.90625 -4.273438 1.84375 -3.890625 1.84375 -3.40625 L 1.84375 0 Z M 0.789062 0 "/>
</g>
<g id="glyph-1-8">
<path d="M 4.851562 -0.765625 C 4.460938 -0.433594 4.085938 -0.199219 3.722656 -0.0625 C 3.363281 0.0703125 2.972656 0.140625 2.5625 0.140625 C 1.875 0.140625 1.351562 -0.0273438 0.984375 -0.359375 C 0.617188 -0.695312 0.433594 -1.121094 0.433594 -1.640625 C 0.433594 -1.945312 0.503906 -2.222656 0.640625 -2.476562 C 0.78125 -2.726562 0.960938 -2.929688 1.1875 -3.082031 C 1.410156 -3.234375 1.664062 -3.347656 1.945312 -3.429688 C 2.152344 -3.480469 2.464844 -3.535156 2.882812 -3.585938 C 3.734375 -3.6875 4.359375 -3.808594 4.765625 -3.949219 C 4.765625 -4.09375 4.769531 -4.183594 4.769531 -4.226562 C 4.769531 -4.652344 4.671875 -4.957031 4.46875 -5.132812 C 4.203125 -5.371094 3.800781 -5.492188 3.269531 -5.492188 C 2.773438 -5.492188 2.40625 -5.402344 2.171875 -5.230469 C 1.933594 -5.054688 1.757812 -4.746094 1.648438 -4.304688 L 0.617188 -4.445312 C 0.707031 -4.886719 0.863281 -5.246094 1.078125 -5.515625 C 1.292969 -5.789062 1.601562 -5.996094 2.007812 -6.144531 C 2.414062 -6.289062 2.886719 -6.363281 3.421875 -6.363281 C 3.953125 -6.363281 4.382812 -6.300781 4.71875 -6.175781 C 5.046875 -6.050781 5.292969 -5.894531 5.449219 -5.703125 C 5.605469 -5.515625 5.714844 -5.273438 5.777344 -4.984375 C 5.8125 -4.804688 5.828125 -4.484375 5.828125 -4.015625 L 5.828125 -2.609375 C 5.828125 -1.628906 5.851562 -1.007812 5.898438 -0.746094 C 5.941406 -0.488281 6.03125 -0.238281 6.164062 0 L 5.0625 0 C 4.953125 -0.21875 4.882812 -0.476562 4.851562 -0.765625 M 4.765625 -3.125 C 4.378906 -2.964844 3.804688 -2.832031 3.039062 -2.726562 C 2.605469 -2.660156 2.300781 -2.589844 2.121094 -2.515625 C 1.941406 -2.433594 1.800781 -2.320312 1.703125 -2.171875 C 1.605469 -2.019531 1.558594 -1.851562 1.558594 -1.671875 C 1.558594 -1.386719 1.664062 -1.152344 1.878906 -0.96875 C 2.089844 -0.78125 2.402344 -0.683594 2.8125 -0.6875 C 3.21875 -0.683594 3.578125 -0.773438 3.898438 -0.953125 C 4.210938 -1.128906 4.445312 -1.371094 4.59375 -1.679688 C 4.707031 -1.917969 4.761719 -2.269531 4.765625 -2.734375 Z M 4.765625 -3.125 "/>
</g>
<g id="glyph-1-9">
<path d="M 4.851562 -2.28125 L 5.890625 -2.144531 C 5.773438 -1.429688 5.484375 -0.871094 5.019531 -0.464844 C 4.550781 -0.0625 3.976562 0.140625 3.296875 0.140625 C 2.445312 0.140625 1.761719 -0.136719 1.246094 -0.695312 C 0.726562 -1.25 0.46875 -2.046875 0.46875 -3.085938 C 0.46875 -3.757812 0.578125 -4.347656 0.804688 -4.851562 C 1.023438 -5.355469 1.363281 -5.734375 1.820312 -5.984375 C 2.273438 -6.238281 2.769531 -6.363281 3.304688 -6.363281 C 3.980469 -6.363281 4.53125 -6.191406 4.960938 -5.851562 C 5.390625 -5.507812 5.667969 -5.023438 5.789062 -4.394531 L 4.765625 -4.234375 C 4.664062 -4.652344 4.492188 -4.96875 4.246094 -5.179688 C 3.996094 -5.390625 3.695312 -5.496094 3.34375 -5.496094 C 2.8125 -5.496094 2.382812 -5.304688 2.050781 -4.925781 C 1.71875 -4.542969 1.554688 -3.941406 1.554688 -3.117188 C 1.554688 -2.28125 1.710938 -1.671875 2.03125 -1.296875 C 2.351562 -0.917969 2.769531 -0.726562 3.289062 -0.726562 C 3.699219 -0.726562 4.046875 -0.851562 4.324219 -1.109375 C 4.601562 -1.359375 4.777344 -1.75 4.851562 -2.28125 Z M 4.851562 -2.28125 "/>
</g>
<g id="glyph-1-10">
<path d="M 4.828125 0 L 4.828125 -0.785156 C 4.433594 -0.167969 3.851562 0.140625 3.085938 0.140625 C 2.589844 0.140625 2.136719 0.00390625 1.71875 -0.269531 C 1.304688 -0.542969 0.980469 -0.925781 0.753906 -1.414062 C 0.523438 -1.90625 0.410156 -2.46875 0.410156 -3.105469 C 0.410156 -3.726562 0.511719 -4.289062 0.71875 -4.796875 C 0.925781 -5.300781 1.238281 -5.6875 1.652344 -5.960938 C 2.066406 -6.226562 2.527344 -6.363281 3.039062 -6.363281 C 3.414062 -6.363281 3.75 -6.285156 4.042969 -6.125 C 4.335938 -5.96875 4.574219 -5.761719 4.757812 -5.507812 L 4.757812 -8.589844 L 5.804688 -8.589844 L 5.804688 0 L 4.828125 0 M 1.492188 -3.105469 C 1.492188 -2.308594 1.660156 -1.710938 2 -1.320312 C 2.332031 -0.921875 2.730469 -0.726562 3.1875 -0.726562 C 3.648438 -0.726562 4.039062 -0.914062 4.363281 -1.292969 C 4.683594 -1.667969 4.84375 -2.242188 4.84375 -3.015625 C 4.84375 -3.867188 4.679688 -4.492188 4.351562 -4.890625 C 4.023438 -5.289062 3.621094 -5.492188 3.140625 -5.492188 C 2.671875 -5.492188 2.28125 -5.296875 1.964844 -4.914062 C 1.652344 -4.53125 1.492188 -3.929688 1.492188 -3.105469 Z M 1.492188 -3.105469 "/>
</g>
<g id="glyph-1-11">
<path d="M 0.789062 0 L 0.789062 -6.222656 L 1.734375 -6.222656 L 1.734375 -5.351562 C 1.929688 -5.65625 2.1875 -5.898438 2.515625 -6.085938 C 2.835938 -6.269531 3.207031 -6.363281 3.621094 -6.363281 C 4.082031 -6.363281 4.460938 -6.265625 4.753906 -6.078125 C 5.050781 -5.882812 5.257812 -5.617188 5.378906 -5.273438 C 5.871094 -6 6.511719 -6.363281 7.300781 -6.363281 C 7.917969 -6.363281 8.390625 -6.191406 8.726562 -5.851562 C 9.054688 -5.507812 9.222656 -4.980469 9.222656 -4.273438 L 9.222656 0 L 8.171875 0 L 8.171875 -3.921875 C 8.171875 -4.339844 8.140625 -4.644531 8.070312 -4.832031 C 8.003906 -5.015625 7.878906 -5.164062 7.699219 -5.28125 C 7.519531 -5.390625 7.308594 -5.449219 7.066406 -5.449219 C 6.628906 -5.449219 6.265625 -5.304688 5.976562 -5.011719 C 5.6875 -4.722656 5.542969 -4.253906 5.542969 -3.617188 L 5.542969 0 L 4.488281 0 L 4.488281 -4.042969 C 4.488281 -4.511719 4.402344 -4.863281 4.230469 -5.097656 C 4.058594 -5.332031 3.777344 -5.449219 3.386719 -5.449219 C 3.089844 -5.449219 2.816406 -5.371094 2.5625 -5.214844 C 2.3125 -5.058594 2.128906 -4.828125 2.015625 -4.53125 C 1.902344 -4.226562 1.84375 -3.792969 1.84375 -3.226562 L 1.84375 0 Z M 0.789062 0 "/>
</g>
<g id="glyph-1-12">
<path d="M 0.796875 -7.375 L 0.796875 -8.589844 L 1.851562 -8.589844 L 1.851562 -7.375 L 0.796875 -7.375 M 0.796875 0 L 0.796875 -6.222656 L 1.851562 -6.222656 L 1.851562 0 Z M 0.796875 0 "/>
</g>
<g id="glyph-1-13">
<path d="M 0.742188 2.398438 L 0.625 1.40625 C 0.855469 1.46875 1.058594 1.5 1.230469 1.5 C 1.464844 1.5 1.652344 1.460938 1.792969 1.382812 C 1.933594 1.304688 2.046875 1.195312 2.140625 1.054688 C 2.203125 0.949219 2.3125 0.6875 2.460938 0.269531 C 2.480469 0.210938 2.511719 0.125 2.554688 0.0117188 L 0.195312 -6.222656 L 1.328125 -6.222656 L 2.625 -2.617188 C 2.792969 -2.164062 2.941406 -1.679688 3.078125 -1.179688 C 3.195312 -1.660156 3.339844 -2.132812 3.507812 -2.59375 L 4.839844 -6.222656 L 5.894531 -6.222656 L 3.527344 0.105469 C 3.273438 0.789062 3.078125 1.257812 2.9375 1.515625 C 2.746094 1.863281 2.53125 2.121094 2.289062 2.28125 C 2.046875 2.445312 1.757812 2.523438 1.421875 2.523438 C 1.21875 2.523438 0.992188 2.480469 0.742188 2.398438 Z M 0.742188 2.398438 "/>
</g>
<g id="glyph-1-14">
<path d="M 0.78125 0 L 0.78125 -6.222656 L 1.726562 -6.222656 L 1.726562 -5.28125 C 1.96875 -5.71875 2.195312 -6.011719 2.398438 -6.152344 C 2.605469 -6.292969 2.828125 -6.363281 3.078125 -6.363281 C 3.429688 -6.363281 3.792969 -6.25 4.160156 -6.023438 L 3.796875 -5.046875 C 3.539062 -5.195312 3.28125 -5.273438 3.023438 -5.273438 C 2.792969 -5.273438 2.585938 -5.203125 2.402344 -5.066406 C 2.21875 -4.925781 2.085938 -4.734375 2.007812 -4.488281 C 1.890625 -4.113281 1.835938 -3.703125 1.835938 -3.257812 L 1.835938 0 Z M 0.78125 0 "/>
</g>
<g id="glyph-1-15">
<path d="M -0.015625 0 L 3.28125 -8.589844 L 4.507812 -8.589844 L 8.023438 0 L 6.726562 0 L 5.726562 -2.601562 L 2.132812 -2.601562 L 1.1875 0 L -0.015625 0 M 2.460938 -3.527344 L 5.375 -3.527344 L 4.476562 -5.90625 C 4.203125 -6.628906 4 -7.222656 3.867188 -7.6875 C 3.757812 -7.136719 3.601562 -6.589844 3.40625 -6.046875 Z M 2.460938 -3.527344 "/>
</g>
<g id="glyph-2-0">
<path d="M 0 -3.382812 L -8.589844 -0.0546875 L -8.589844 -1.285156 L -2.351562 -3.515625 C -1.847656 -3.695312 -1.378906 -3.84375 -0.941406 -3.96875 C -1.410156 -4.097656 -1.878906 -4.253906 -2.347656 -4.429688 L -8.589844 -6.75 L -8.589844 -7.910156 L 0 -4.546875 Z M 0 -3.382812 "/>
</g>
<g id="glyph-2-1">
<path d="M -7.375 -0.796875 L -8.589844 -0.796875 L -8.589844 -1.851562 L -7.375 -1.851562 L -7.375 -0.796875 M 0 -0.796875 L -6.222656 -0.796875 L -6.222656 -1.851562 L 0 -1.851562 Z M 0 -0.796875 "/>
</g>
<g id="glyph-2-2">
<path d="M -1.859375 -0.371094 L -2.023438 -1.414062 C -1.601562 -1.46875 -1.28125 -1.632812 -1.058594 -1.902344 C -0.835938 -2.167969 -0.726562 -2.542969 -0.726562 -3.023438 C -0.726562 -3.507812 -0.824219 -3.867188 -1.023438 -4.101562 C -1.21875 -4.335938 -1.449219 -4.453125 -1.714844 -4.453125 C -1.953125 -4.453125 -2.140625 -4.347656 -2.277344 -4.140625 C -2.371094 -3.996094 -2.492188 -3.640625 -2.636719 -3.0625 C -2.832031 -2.289062 -3 -1.753906 -3.144531 -1.457031 C -3.285156 -1.15625 -3.484375 -0.929688 -3.734375 -0.777344 C -3.988281 -0.621094 -4.265625 -0.546875 -4.570312 -0.546875 C -4.847656 -0.546875 -5.105469 -0.609375 -5.339844 -0.734375 C -5.578125 -0.863281 -5.773438 -1.035156 -5.929688 -1.253906 C -6.050781 -1.417969 -6.152344 -1.640625 -6.238281 -1.925781 C -6.320312 -2.207031 -6.363281 -2.511719 -6.363281 -2.835938 C -6.363281 -3.324219 -6.292969 -3.753906 -6.152344 -4.121094 C -6.011719 -4.492188 -5.820312 -4.761719 -5.582031 -4.9375 C -5.339844 -5.113281 -5.019531 -5.234375 -4.617188 -5.304688 L -4.476562 -4.273438 C -4.796875 -4.226562 -5.046875 -4.089844 -5.226562 -3.863281 C -5.40625 -3.640625 -5.496094 -3.324219 -5.496094 -2.914062 C -5.496094 -2.425781 -5.414062 -2.082031 -5.257812 -1.875 C -5.09375 -1.667969 -4.90625 -1.566406 -4.695312 -1.566406 C -4.554688 -1.566406 -4.433594 -1.605469 -4.324219 -1.695312 C -4.210938 -1.777344 -4.117188 -1.914062 -4.042969 -2.097656 C -4.003906 -2.203125 -3.914062 -2.515625 -3.773438 -3.03125 C -3.574219 -3.773438 -3.410156 -4.296875 -3.285156 -4.589844 C -3.15625 -4.886719 -2.972656 -5.117188 -2.730469 -5.285156 C -2.488281 -5.453125 -2.1875 -5.535156 -1.828125 -5.539062 C -1.476562 -5.535156 -1.144531 -5.433594 -0.835938 -5.230469 C -0.523438 -5.023438 -0.285156 -4.726562 -0.113281 -4.34375 C 0.0546875 -3.953125 0.140625 -3.515625 0.140625 -3.03125 C 0.140625 -2.21875 -0.0273438 -1.605469 -0.363281 -1.179688 C -0.699219 -0.757812 -1.199219 -0.488281 -1.859375 -0.371094 Z M -1.859375 -0.371094 "/>
</g>
<g id="glyph-2-3">
<path d="M -0.941406 -3.09375 L -0.0117188 -3.246094 C 0.0507812 -2.949219 0.0820312 -2.683594 0.0820312 -2.449219 C 0.0820312 -2.066406 0.0195312 -1.769531 -0.0976562 -1.558594 C -0.21875 -1.347656 -0.378906 -1.199219 -0.578125 -1.113281 C -0.773438 -1.027344 -1.1875 -0.984375 -1.820312 -0.984375 L -5.402344 -0.984375 L -5.402344 -0.210938 L -6.222656 -0.210938 L -6.222656 -0.984375 L -7.765625 -0.984375 L -8.398438 -2.035156 L -6.222656 -2.035156 L -6.222656 -3.09375 L -5.402344 -3.09375 L -5.402344 -2.035156 L -1.761719 -2.03125 C -1.460938 -2.03125 -1.269531 -2.050781 -1.183594 -2.089844 C -1.097656 -2.125 -1.027344 -2.1875 -0.976562 -2.269531 C -0.925781 -2.355469 -0.902344 -2.472656 -0.902344 -2.632812 C -0.902344 -2.75 -0.914062 -2.902344 -0.941406 -3.09375 Z M -0.941406 -3.09375 "/>
</g>
<g id="glyph-2-4">
</g>
<g id="glyph-2-5">
<path d="M 2.382812 -0.789062 L -6.222656 -0.792969 L -6.222656 -1.753906 L -5.414062 -1.753906 C -5.730469 -1.976562 -5.96875 -2.234375 -6.125 -2.519531 C -6.285156 -2.804688 -6.363281 -3.148438 -6.363281 -3.558594 C -6.363281 -4.085938 -6.226562 -4.554688 -5.953125 -4.960938 C -5.679688 -5.367188 -5.292969 -5.675781 -4.796875 -5.882812 C -4.296875 -6.089844 -3.75 -6.195312 -3.15625 -6.195312 C -2.519531 -6.195312 -1.949219 -6.078125 -1.4375 -5.851562 C -0.929688 -5.621094 -0.539062 -5.289062 -0.265625 -4.855469 C 0.00390625 -4.417969 0.140625 -3.960938 0.140625 -3.480469 C 0.140625 -3.128906 0.0664062 -2.8125 -0.0820312 -2.535156 C -0.230469 -2.253906 -0.417969 -2.023438 -0.644531 -1.84375 L 2.382812 -1.84375 L 2.382812 -0.789062 M -3.078125 -1.746094 C -2.273438 -1.746094 -1.683594 -1.90625 -1.300781 -2.234375 C -0.917969 -2.554688 -0.726562 -2.949219 -0.726562 -3.410156 C -0.726562 -3.878906 -0.925781 -4.28125 -1.320312 -4.613281 C -1.71875 -4.949219 -2.332031 -5.113281 -3.164062 -5.117188 C -3.957031 -5.113281 -4.550781 -4.953125 -4.945312 -4.625 C -5.339844 -4.300781 -5.535156 -3.910156 -5.539062 -3.457031 C -5.535156 -3.007812 -5.328125 -2.609375 -4.90625 -2.265625 C -4.488281 -1.917969 -3.875 -1.746094 -3.078125 -1.746094 Z M -3.078125 -1.746094 "/>
</g>
<g id="glyph-2-6">
<path d="M -2.003906 -5.050781 L -1.867188 -6.140625 C -1.230469 -5.96875 -0.738281 -5.648438 -0.386719 -5.1875 C -0.0351562 -4.71875 0.140625 -4.125 0.140625 -3.40625 C 0.140625 -2.492188 -0.140625 -1.773438 -0.699219 -1.238281 C -1.261719 -0.707031 -2.046875 -0.441406 -3.058594 -0.441406 C -4.105469 -0.441406 -4.917969 -0.710938 -5.496094 -1.25 C -6.074219 -1.789062 -6.363281 -2.484375 -6.363281 -3.347656 C -6.363281 -4.179688 -6.078125 -4.859375 -5.515625 -5.382812 C -4.945312 -5.914062 -4.148438 -6.175781 -3.121094 -6.175781 C -3.058594 -6.175781 -2.964844 -6.171875 -2.839844 -6.171875 L -2.84375 -1.53125 C -2.15625 -1.566406 -1.632812 -1.761719 -1.269531 -2.109375 C -0.90625 -2.457031 -0.726562 -2.890625 -0.726562 -3.410156 C -0.726562 -3.796875 -0.828125 -4.125 -1.03125 -4.398438 C -1.234375 -4.671875 -1.558594 -4.890625 -2.003906 -5.050781 M -3.710938 -1.589844 L -3.707031 -5.0625 C -4.230469 -5.015625 -4.625 -4.882812 -4.886719 -4.664062 C -5.292969 -4.328125 -5.496094 -3.890625 -5.496094 -3.359375 C -5.496094 -2.871094 -5.332031 -2.464844 -5.007812 -2.136719 C -4.683594 -1.804688 -4.25 -1.625 -3.710938 -1.589844 Z M -3.710938 -1.589844 "/>
</g>
<g id="glyph-2-7">
<path d="M 0 -0.78125 L -6.222656 -0.78125 L -6.222656 -1.730469 L -5.28125 -1.730469 C -5.71875 -1.96875 -6.011719 -2.195312 -6.152344 -2.398438 C -6.292969 -2.605469 -6.363281 -2.828125 -6.363281 -3.078125 C -6.363281 -3.429688 -6.25 -3.792969 -6.023438 -4.160156 L -5.046875 -3.796875 C -5.195312 -3.539062 -5.273438 -3.28125 -5.273438 -3.023438 C -5.273438 -2.792969 -5.203125 -2.585938 -5.066406 -2.402344 C -4.925781 -2.21875 -4.734375 -2.085938 -4.488281 -2.011719 C -4.113281 -1.894531 -3.703125 -1.835938 -3.257812 -1.835938 L 0 -1.835938 Z M 0 -0.78125 "/>
</g>
<g id="glyph-2-8">
<path d="M 0 -1.9375 L -6.222656 -0.0351562 L -6.222656 -1.125 L -2.632812 -2.117188 L -1.292969 -2.484375 C -1.359375 -2.5 -1.789062 -2.609375 -2.578125 -2.804688 L -6.222656 -3.796875 L -6.222656 -4.882812 L -2.613281 -5.8125 L -1.421875 -6.125 L -2.625 -6.480469 L -6.222656 -7.546875 L -6.222656 -8.570312 L 0 -6.625 L 0 -5.53125 L -3.726562 -4.539062 L -4.789062 -4.300781 L 0 -3.039062 Z M 0 -1.9375 "/>
</g>
<g id="glyph-2-9">
<path d="M 0 -0.796875 L -8.589844 -0.796875 L -8.589844 -1.851562 L -3.691406 -1.851562 L -6.222656 -4.347656 L -6.222656 -5.710938 L -3.914062 -3.335938 L 0 -5.953125 L 0 -4.652344 L -3.179688 -2.59375 L -2.46875 -1.851562 L 0 -1.851562 Z M 0 -0.796875 "/>
</g>
</g>
<clipPath id="clip-0">
<path clip-rule="nonzero" d="M 38.140625 216 L 430.746094 216 L 430.746094 218 L 38.140625 218 Z M 38.140625 216 "/>
</clipPath>
<clipPath id="clip-1">
<path clip-rule="nonzero" d="M 38.140625 155 L 430.746094 155 L 430.746094 156 L 38.140625 156 Z M 38.140625 155 "/>
</clipPath>
<clipPath id="clip-2">
<path clip-rule="nonzero" d="M 38.140625 93 L 430.746094 93 L 430.746094 95 L 38.140625 95 Z M 38.140625 93 "/>
</clipPath>
<clipPath id="clip-3">
<path clip-rule="nonzero" d="M 38.140625 32 L 430.746094 32 L 430.746094 33 L 38.140625 33 Z M 38.140625 32 "/>
</clipPath>
<clipPath id="clip-4">
<path clip-rule="nonzero" d="M 83 5.976562 L 85 5.976562 L 85 249.644531 L 83 249.644531 Z M 83 5.976562 "/>
</clipPath>
<clipPath id="clip-5">
<path clip-rule="nonzero" d="M 153 5.976562 L 155 5.976562 L 155 249.644531 L 153 249.644531 Z M 153 5.976562 "/>
</clipPath>
<clipPath id="clip-6">
<path clip-rule="nonzero" d="M 223 5.976562 L 225 5.976562 L 225 249.644531 L 223 249.644531 Z M 223 5.976562 "/>
</clipPath>
<clipPath id="clip-7">
<path clip-rule="nonzero" d="M 293 5.976562 L 295 5.976562 L 295 249.644531 L 293 249.644531 Z M 293 5.976562 "/>
</clipPath>
<clipPath id="clip-8">
<path clip-rule="nonzero" d="M 363 5.976562 L 365 5.976562 L 365 249.644531 L 363 249.644531 Z M 363 5.976562 "/>
</clipPath>
<clipPath id="clip-9">
<path clip-rule="nonzero" d="M 38.140625 247 L 430.746094 247 L 430.746094 249 L 38.140625 249 Z M 38.140625 247 "/>
</clipPath>
<clipPath id="clip-10">
<path clip-rule="nonzero" d="M 38.140625 185 L 430.746094 185 L 430.746094 187 L 38.140625 187 Z M 38.140625 185 "/>
</clipPath>
<clipPath id="clip-11">
<path clip-rule="nonzero" d="M 38.140625 124 L 430.746094 124 L 430.746094 126 L 38.140625 126 Z M 38.140625 124 "/>
</clipPath>
<clipPath id="clip-12">
<path clip-rule="nonzero" d="M 38.140625 62 L 430.746094 62 L 430.746094 64 L 38.140625 64 Z M 38.140625 62 "/>
</clipPath>
<clipPath id="clip-13">
<path clip-rule="nonzero" d="M 48 5.976562 L 50 5.976562 L 50 249.644531 L 48 249.644531 Z M 48 5.976562 "/>
</clipPath>
<clipPath id="clip-14">
<path clip-rule="nonzero" d="M 118 5.976562 L 120 5.976562 L 120 249.644531 L 118 249.644531 Z M 118 5.976562 "/>
</clipPath>
<clipPath id="clip-15">
<path clip-rule="nonzero" d="M 188 5.976562 L 190 5.976562 L 190 249.644531 L 188 249.644531 Z M 188 5.976562 "/>
</clipPath>
<clipPath id="clip-16">
<path clip-rule="nonzero" d="M 258 5.976562 L 260 5.976562 L 260 249.644531 L 258 249.644531 Z M 258 5.976562 "/>
</clipPath>
<clipPath id="clip-17">
<path clip-rule="nonzero" d="M 328 5.976562 L 330 5.976562 L 330 249.644531 L 328 249.644531 Z M 328 5.976562 "/>
</clipPath>
<clipPath id="clip-18">
<path clip-rule="nonzero" d="M 398 5.976562 L 400 5.976562 L 400 249.644531 L 398 249.644531 Z M 398 5.976562 "/>
</clipPath>
</defs>
<rect x="-54" y="-28.8" width="648" height="345.6" fill="rgb(100%, 100%, 100%)" fill-opacity="1"/>
<rect x="-54" y="-28.8" width="648" height="345.6" fill="rgb(100%, 100%, 100%)" fill-opacity="1"/>
<g clip-path="url(#clip-0)">
<path fill="none" stroke-width="0.581988" stroke-linecap="butt" stroke-linejoin="round" stroke="rgb(92.156863%, 92.156863%, 92.156863%)" stroke-opacity="1" stroke-miterlimit="10" d="M 38.140625 217.035156 L 430.746094 217.035156 "/>
</g>
<g clip-path="url(#clip-1)">
<path fill="none" stroke-width="0.581988" stroke-linecap="butt" stroke-linejoin="round" stroke="rgb(92.156863%, 92.156863%, 92.156863%)" stroke-opacity="1" stroke-miterlimit="10" d="M 38.140625 155.5 L 430.746094 155.5 "/>
</g>
<g clip-path="url(#clip-2)">
<path fill="none" stroke-width="0.581988" stroke-linecap="butt" stroke-linejoin="round" stroke="rgb(92.156863%, 92.156863%, 92.156863%)" stroke-opacity="1" stroke-miterlimit="10" d="M 38.140625 93.96875 L 430.746094 93.96875 "/>
</g>
<g clip-path="url(#clip-3)">
<path fill="none" stroke-width="0.581988" stroke-linecap="butt" stroke-linejoin="round" stroke="rgb(92.156863%, 92.156863%, 92.156863%)" stroke-opacity="1" stroke-miterlimit="10" d="M 38.140625 32.4375 L 430.746094 32.4375 "/>
</g>
<g clip-path="url(#clip-4)">
<path fill="none" stroke-width="0.581988" stroke-linecap="butt" stroke-linejoin="round" stroke="rgb(92.156863%, 92.156863%, 92.156863%)" stroke-opacity="1" stroke-miterlimit="10" d="M 83.980469 249.644531 L 83.980469 5.976562 "/>
</g>
<g clip-path="url(#clip-5)">
<path fill="none" stroke-width="0.581988" stroke-linecap="butt" stroke-linejoin="round" stroke="rgb(92.156863%, 92.156863%, 92.156863%)" stroke-opacity="1" stroke-miterlimit="10" d="M 153.960938 249.644531 L 153.960938 5.976562 "/>
</g>
<g clip-path="url(#clip-6)">
<path fill="none" stroke-width="0.581988" stroke-linecap="butt" stroke-linejoin="round" stroke="rgb(92.156863%, 92.156863%, 92.156863%)" stroke-opacity="1" stroke-miterlimit="10" d="M 223.945312 249.644531 L 223.945312 5.976562 "/>
</g>
<g clip-path="url(#clip-7)">
<path fill="none" stroke-width="0.581988" stroke-linecap="butt" stroke-linejoin="round" stroke="rgb(92.156863%, 92.156863%, 92.156863%)" stroke-opacity="1" stroke-miterlimit="10" d="M 293.929688 249.644531 L 293.929688 5.976562 "/>
</g>
<g clip-path="url(#clip-8)">
<path fill="none" stroke-width="0.581988" stroke-linecap="butt" stroke-linejoin="round" stroke="rgb(92.156863%, 92.156863%, 92.156863%)" stroke-opacity="1" stroke-miterlimit="10" d="M 363.914062 249.644531 L 363.914062 5.976562 "/>
</g>
<g clip-path="url(#clip-9)">
<path fill="none" stroke-width="1.163976" stroke-linecap="butt" stroke-linejoin="round" stroke="rgb(92.156863%, 92.156863%, 92.156863%)" stroke-opacity="1" stroke-miterlimit="10" d="M 38.140625 247.800781 L 430.746094 247.800781 "/>
</g>
<g clip-path="url(#clip-10)">
<path fill="none" stroke-width="1.163976" stroke-linecap="butt" stroke-linejoin="round" stroke="rgb(92.156863%, 92.156863%, 92.156863%)" stroke-opacity="1" stroke-miterlimit="10" d="M 38.140625 186.269531 L 430.746094 186.269531 "/>
</g>
<g clip-path="url(#clip-11)">
<path fill="none" stroke-width="1.163976" stroke-linecap="butt" stroke-linejoin="round" stroke="rgb(92.156863%, 92.156863%, 92.156863%)" stroke-opacity="1" stroke-miterlimit="10" d="M 38.140625 124.734375 L 430.746094 124.734375 "/>
</g>
<g clip-path="url(#clip-12)">
<path fill="none" stroke-width="1.163976" stroke-linecap="butt" stroke-linejoin="round" stroke="rgb(92.156863%, 92.156863%, 92.156863%)" stroke-opacity="1" stroke-miterlimit="10" d="M 38.140625 63.203125 L 430.746094 63.203125 "/>
</g>
<g clip-path="url(#clip-13)">
<path fill="none" stroke-width="1.163976" stroke-linecap="butt" stroke-linejoin="round" stroke="rgb(92.156863%, 92.156863%, 92.156863%)" stroke-opacity="1" stroke-miterlimit="10" d="M 48.988281 249.644531 L 48.988281 5.976562 "/>
</g>
<g clip-path="url(#clip-14)">
<path fill="none" stroke-width="1.163976" stroke-linecap="butt" stroke-linejoin="round" stroke="rgb(92.156863%, 92.156863%, 92.156863%)" stroke-opacity="1" stroke-miterlimit="10" d="M 118.96875 249.644531 L 118.96875 5.976562 "/>
</g>
<g clip-path="url(#clip-15)">
<path fill="none" stroke-width="1.163976" stroke-linecap="butt" stroke-linejoin="round" stroke="rgb(92.156863%, 92.156863%, 92.156863%)" stroke-opacity="1" stroke-miterlimit="10" d="M 188.953125 249.644531 L 188.953125 5.976562 "/>
</g>
<g clip-path="url(#clip-16)">
<path fill="none" stroke-width="1.163976" stroke-linecap="butt" stroke-linejoin="round" stroke="rgb(92.156863%, 92.156863%, 92.156863%)" stroke-opacity="1" stroke-miterlimit="10" d="M 258.9375 249.644531 L 258.9375 5.976562 "/>
</g>
<g clip-path="url(#clip-17)">
<path fill="none" stroke-width="1.163976" stroke-linecap="butt" stroke-linejoin="round" stroke="rgb(92.156863%, 92.156863%, 92.156863%)" stroke-opacity="1" stroke-miterlimit="10" d="M 328.921875 249.644531 L 328.921875 5.976562 "/>
</g>
<g clip-path="url(#clip-18)">
<path fill="none" stroke-width="1.163976" stroke-linecap="butt" stroke-linejoin="round" stroke="rgb(92.156863%, 92.156863%, 92.156863%)" stroke-opacity="1" stroke-miterlimit="10" d="M 398.90625 249.644531 L 398.90625 5.976562 "/>
</g>
<path fill="none" stroke-width="1.163976" stroke-linecap="butt" stroke-linejoin="round" stroke="rgb(26.666667%, 0.392157%, 32.941176%)" stroke-opacity="1" stroke-miterlimit="10" d="M 55.984375 149.347656 L 62.984375 161.65625 L 69.980469 173.960938 L 76.980469 133.964844 L 83.980469 149.347656 L 90.976562 127.8125 L 97.976562 152.425781 L 104.972656 137.042969 L 111.972656 133.964844 L 118.96875 143.195312 L 125.96875 146.273438 L 132.96875 167.808594 L 139.964844 121.660156 L 146.964844 152.425781 L 153.960938 124.734375 L 160.960938 66.28125 L 167.957031 53.972656 L 174.957031 84.738281 L 181.957031 133.964844 L 188.953125 180.113281 L 195.953125 143.195312 L 202.949219 164.730469 L 209.949219 133.964844 L 216.949219 130.886719 L 223.945312 155.5 L 230.945312 115.503906 L 237.941406 149.347656 L 244.941406 161.65625 L 251.9375 167.808594 L 258.9375 177.039062 L 265.9375 149.347656 L 272.933594 121.660156 L 279.933594 158.578125 L 286.929688 112.429688 L 293.929688 149.347656 L 300.925781 140.117188 L 307.925781 38.589844 L 314.925781 97.046875 L 321.921875 97.046875 L 328.921875 106.277344 L 335.917969 207.804688 L 342.917969 220.109375 L 349.914062 229.339844 L 356.914062 226.265625 L 363.914062 220.109375 L 370.910156 229.339844 L 377.910156 189.34375 L 384.90625 217.035156 L 391.90625 220.109375 L 398.90625 223.1875 L 405.902344 217.035156 L 412.902344 210.882812 "/>
<path fill="none" stroke-width="1.163976" stroke-linecap="butt" stroke-linejoin="round" stroke="rgb(24.313725%, 29.411765%, 53.72549%)" stroke-opacity="1" stroke-miterlimit="10" d="M 55.984375 152.425781 L 62.984375 152.425781 L 69.980469 106.277344 L 76.980469 155.5 L 83.980469 146.273438 L 90.976562 137.042969 L 97.976562 143.195312 L 104.972656 115.503906 L 111.972656 115.503906 L 118.96875 140.117188 L 125.96875 124.734375 L 132.96875 106.277344 L 139.964844 112.429688 L 146.964844 143.195312 L 153.960938 130.886719 L 160.960938 93.96875 L 167.957031 75.507812 L 174.957031 87.816406 L 181.957031 106.277344 L 188.953125 201.652344 L 195.953125 124.734375 L 202.949219 112.429688 L 209.949219 103.199219 L 216.949219 112.429688 L 223.945312 103.199219 L 230.945312 112.429688 L 237.941406 140.117188 L 244.941406 121.660156 L 251.9375 183.191406 L 258.9375 118.582031 L 265.9375 161.65625 L 272.933594 121.660156 L 279.933594 127.8125 L 286.929688 100.121094 L 293.929688 152.425781 L 300.925781 90.890625 L 307.925781 57.050781 L 314.925781 69.355469 L 321.921875 69.355469 L 328.921875 112.429688 L 335.917969 210.882812 L 342.917969 220.109375 L 349.914062 210.882812 L 356.914062 220.109375 L 363.914062 238.570312 L 370.910156 232.417969 L 377.910156 226.265625 L 384.90625 223.1875 L 391.90625 217.035156 L 398.90625 220.109375 L 405.902344 235.492188 L 412.902344 235.492188 "/>
<path fill="none" stroke-width="1.163976" stroke-linecap="butt" stroke-linejoin="round" stroke="rgb(14.509804%, 51.764706%, 55.686275%)" stroke-opacity="1" stroke-miterlimit="10" d="M 55.984375 186.269531 L 62.984375 164.730469 L 69.980469 118.582031 L 76.980469 100.121094 L 83.980469 127.8125 L 90.976562 127.8125 L 97.976562 90.890625 L 104.972656 106.277344 L 111.972656 121.660156 L 118.96875 130.886719 L 125.96875 84.738281 L 132.96875 112.429688 L 139.964844 103.199219 L 146.964844 124.734375 L 153.960938 164.730469 L 160.960938 84.738281 L 167.957031 100.121094 L 174.957031 60.125 L 181.957031 66.28125 L 188.953125 183.191406 L 195.953125 143.195312 L 202.949219 146.273438 L 209.949219 121.660156 L 216.949219 140.117188 L 223.945312 133.964844 L 230.945312 81.664062 L 237.941406 109.351562 L 244.941406 124.734375 L 251.9375 149.347656 L 258.9375 149.347656 L 265.9375 127.8125 L 272.933594 87.816406 L 279.933594 124.734375 L 286.929688 127.8125 L 293.929688 124.734375 L 300.925781 149.347656 L 307.925781 63.203125 L 314.925781 84.738281 L 321.921875 103.199219 L 328.921875 90.890625 L 335.917969 210.882812 L 342.917969 210.882812 L 349.914062 213.957031 L 356.914062 210.882812 L 363.914062 217.035156 L 370.910156 198.574219 L 377.910156 223.1875 L 384.90625 229.339844 L 391.90625 220.109375 L 398.90625 229.339844 L 405.902344 220.109375 L 412.902344 226.265625 "/>
<path fill="none" stroke-width="1.163976" stroke-linecap="butt" stroke-linejoin="round" stroke="rgb(21.960784%, 72.54902%, 46.666667%)" stroke-opacity="1" stroke-miterlimit="10" d="M 55.984375 143.195312 L 62.984375 149.347656 L 69.980469 124.734375 L 76.980469 97.046875 L 83.980469 130.886719 L 90.976562 130.886719 L 97.976562 124.734375 L 104.972656 29.359375 L 111.972656 140.117188 L 118.96875 130.886719 L 125.96875 140.117188 L 132.96875 115.503906 L 139.964844 100.121094 L 146.964844 124.734375 L 153.960938 158.578125 L 160.960938 35.511719 L 167.957031 93.96875 L 174.957031 78.585938 L 181.957031 84.738281 L 188.953125 164.730469 L 195.953125 103.199219 L 202.949219 133.964844 L 209.949219 109.351562 L 216.949219 66.28125 L 223.945312 146.273438 L 230.945312 103.199219 L 237.941406 140.117188 L 244.941406 118.582031 L 251.9375 183.191406 L 258.9375 115.503906 L 265.9375 100.121094 L 272.933594 100.121094 L 279.933594 130.886719 L 286.929688 72.433594 L 293.929688 121.660156 L 300.925781 115.503906 L 307.925781 90.890625 L 314.925781 66.28125 L 321.921875 100.121094 L 328.921875 50.894531 L 335.917969 217.035156 L 342.917969 220.109375 L 349.914062 192.421875 L 356.914062 201.652344 L 363.914062 213.957031 L 370.910156 210.882812 L 377.910156 226.265625 L 384.90625 195.496094 L 391.90625 201.652344 L 398.90625 213.957031 L 405.902344 217.035156 L 412.902344 195.496094 "/>
<path fill="none" stroke-width="1.163976" stroke-linecap="butt" stroke-linejoin="round" stroke="rgb(73.333333%, 87.45098%, 15.294118%)" stroke-opacity="1" stroke-miterlimit="10" d="M 55.984375 180.113281 L 62.984375 183.191406 L 69.980469 118.582031 L 76.980469 130.886719 L 83.980469 112.429688 L 90.976562 115.503906 L 97.976562 112.429688 L 104.972656 124.734375 L 111.972656 100.121094 L 118.96875 115.503906 L 125.96875 100.121094 L 132.96875 106.277344 L 139.964844 149.347656 L 146.964844 106.277344 L 153.960938 109.351562 L 160.960938 53.972656 L 167.957031 63.203125 L 174.957031 69.355469 L 181.957031 72.433594 L 188.953125 173.960938 L 195.953125 100.121094 L 202.949219 133.964844 L 209.949219 118.582031 L 216.949219 106.277344 L 223.945312 121.660156 L 230.945312 112.429688 L 237.941406 87.816406 L 244.941406 103.199219 L 251.9375 186.269531 L 258.9375 109.351562 L 265.9375 90.890625 L 272.933594 106.277344 L 279.933594 118.582031 L 286.929688 47.820312 L 293.929688 143.195312 L 300.925781 130.886719 L 307.925781 17.054688 L 314.925781 35.511719 L 321.921875 60.125 L 328.921875 66.28125 L 335.917969 223.1875 L 342.917969 217.035156 L 349.914062 198.574219 L 356.914062 220.109375 L 363.914062 232.417969 L 370.910156 198.574219 L 377.910156 210.882812 L 384.90625 217.035156 L 391.90625 220.109375 L 398.90625 207.804688 L 405.902344 229.339844 L 412.902344 204.726562 "/>
<g fill="rgb(30.196078%, 30.196078%, 30.196078%)" fill-opacity="1">
<use xlink:href="#glyph-0-0" x="27.417969" y="251.738281"/>
</g>
<g fill="rgb(30.196078%, 30.196078%, 30.196078%)" fill-opacity="1">
<use xlink:href="#glyph-0-1" x="22.078125" y="190.203125"/>
<use xlink:href="#glyph-0-0" x="27.417188" y="190.203125"/>
</g>
<g fill="rgb(30.196078%, 30.196078%, 30.196078%)" fill-opacity="1">
<use xlink:href="#glyph-0-2" x="22.078125" y="128.671875"/>
<use xlink:href="#glyph-0-0" x="27.417188" y="128.671875"/>
</g>
<g fill="rgb(30.196078%, 30.196078%, 30.196078%)" fill-opacity="1">
<use xlink:href="#glyph-0-3" x="22.078125" y="67.140625"/>
<use xlink:href="#glyph-0-0" x="27.417188" y="67.140625"/>
</g>
<g fill="rgb(30.196078%, 30.196078%, 30.196078%)" fill-opacity="1">
<use xlink:href="#glyph-0-0" x="46.320312" y="262.898438"/>
</g>
<g fill="rgb(30.196078%, 30.196078%, 30.196078%)" fill-opacity="1">
<use xlink:href="#glyph-0-4" x="113.628906" y="262.898438"/>
<use xlink:href="#glyph-0-0" x="118.967969" y="262.898438"/>
</g>
<g fill="rgb(30.196078%, 30.196078%, 30.196078%)" fill-opacity="1">
<use xlink:href="#glyph-0-1" x="183.613281" y="262.898438"/>
<use xlink:href="#glyph-0-0" x="188.952344" y="262.898438"/>
</g>
<g fill="rgb(30.196078%, 30.196078%, 30.196078%)" fill-opacity="1">
<use xlink:href="#glyph-0-5" x="253.597656" y="262.898438"/>
<use xlink:href="#glyph-0-0" x="258.936719" y="262.898438"/>
</g>
<g fill="rgb(30.196078%, 30.196078%, 30.196078%)" fill-opacity="1">
<use xlink:href="#glyph-0-2" x="323.582031" y="262.898438"/>
<use xlink:href="#glyph-0-0" x="328.921094" y="262.898438"/>
</g>
<g fill="rgb(30.196078%, 30.196078%, 30.196078%)" fill-opacity="1">
<use xlink:href="#glyph-0-6" x="393.566406" y="262.898438"/>
<use xlink:href="#glyph-0-0" x="398.905469" y="262.898438"/>
</g>
<g fill="rgb(0%, 0%, 0%)" fill-opacity="1">
<use xlink:href="#glyph-1-0" x="161.742188" y="278.496094"/>
<use xlink:href="#glyph-1-1" x="173.068359" y="278.496094"/>
<use xlink:href="#glyph-1-1" x="179.742188" y="278.496094"/>
<use xlink:href="#glyph-1-2" x="186.416016" y="278.496094"/>
<use xlink:href="#glyph-1-3" x="192.416016" y="278.496094"/>
<use xlink:href="#glyph-1-4" x="195.75" y="278.496094"/>
<use xlink:href="#glyph-1-5" x="202.423828" y="278.496094"/>
<use xlink:href="#glyph-1-3" x="205.757812" y="278.496094"/>
<use xlink:href="#glyph-1-6" x="209.091797" y="278.496094"/>
<use xlink:href="#glyph-1-7" x="212.425781" y="278.496094"/>
<use xlink:href="#glyph-1-1" x="219.099609" y="278.496094"/>
<use xlink:href="#glyph-1-3" x="225.773438" y="278.496094"/>
<use xlink:href="#glyph-1-8" x="229.107422" y="278.496094"/>
<use xlink:href="#glyph-1-9" x="235.78125" y="278.496094"/>
<use xlink:href="#glyph-1-8" x="241.78125" y="278.496094"/>
<use xlink:href="#glyph-1-10" x="248.455078" y="278.496094"/>
<use xlink:href="#glyph-1-1" x="255.128906" y="278.496094"/>
<use xlink:href="#glyph-1-11" x="261.802734" y="278.496094"/>
<use xlink:href="#glyph-1-12" x="271.798828" y="278.496094"/>
<use xlink:href="#glyph-1-9" x="274.464844" y="278.496094"/>
<use xlink:href="#glyph-1-3" x="280.464844" y="278.496094"/>
<use xlink:href="#glyph-1-13" x="283.798828" y="278.496094"/>
<use xlink:href="#glyph-1-1" x="289.798828" y="278.496094"/>
<use xlink:href="#glyph-1-8" x="296.472656" y="278.496094"/>
<use xlink:href="#glyph-1-14" x="303.146484" y="278.496094"/>
</g>
<g fill="rgb(0%, 0%, 0%)" fill-opacity="1">
<use xlink:href="#glyph-2-0" x="15.566406" y="168.160156"/>
<use xlink:href="#glyph-2-1" x="15.566406" y="160.15625"/>
<use xlink:href="#glyph-2-2" x="15.566406" y="157.490234"/>
<use xlink:href="#glyph-2-1" x="15.566406" y="151.490234"/>
<use xlink:href="#glyph-2-3" x="15.566406" y="148.824219"/>
<use xlink:href="#glyph-2-2" x="15.566406" y="145.490234"/>
<use xlink:href="#glyph-2-4" x="15.566406" y="139.490234"/>
<use xlink:href="#glyph-2-5" x="15.566406" y="136.15625"/>
<use xlink:href="#glyph-2-6" x="15.566406" y="129.482422"/>
<use xlink:href="#glyph-2-7" x="15.566406" y="122.808594"/>
<use xlink:href="#glyph-2-4" x="15.566406" y="118.8125"/>
<use xlink:href="#glyph-2-8" x="15.566406" y="115.478516"/>
<use xlink:href="#glyph-2-6" x="15.566406" y="106.8125"/>
<use xlink:href="#glyph-2-6" x="15.566406" y="100.138672"/>
<use xlink:href="#glyph-2-9" x="15.566406" y="93.464844"/>
</g>
<g fill="rgb(0%, 0%, 0%)" fill-opacity="1">
<use xlink:href="#glyph-1-15" x="448.679688" y="86.417969"/>
<use xlink:href="#glyph-1-9" x="456.683594" y="86.417969"/>
<use xlink:href="#glyph-1-8" x="462.683594" y="86.417969"/>
<use xlink:href="#glyph-1-10" x="469.357422" y="86.417969"/>
<use xlink:href="#glyph-1-1" x="476.03125" y="86.417969"/>
<use xlink:href="#glyph-1-11" x="482.705078" y="86.417969"/>
<use xlink:href="#glyph-1-12" x="492.701172" y="86.417969"/>
<use xlink:href="#glyph-1-9" x="495.367188" y="86.417969"/>
<use xlink:href="#glyph-1-3" x="501.367188" y="86.417969"/>
<use xlink:href="#glyph-1-13" x="504.701172" y="86.417969"/>
<use xlink:href="#glyph-1-1" x="510.701172" y="86.417969"/>
<use xlink:href="#glyph-1-8" x="517.375" y="86.417969"/>
<use xlink:href="#glyph-1-14" x="524.048828" y="86.417969"/>
</g>
<path fill="none" stroke-width="1.163976" stroke-linecap="butt" stroke-linejoin="round" stroke="rgb(26.666667%, 0.392157%, 32.941176%)" stroke-opacity="1" stroke-miterlimit="10" d="M 450.40625 102.796875 L 464.230469 102.796875 "/>
<path fill="none" stroke-width="1.163976" stroke-linecap="butt" stroke-linejoin="round" stroke="rgb(24.313725%, 29.411765%, 53.72549%)" stroke-opacity="1" stroke-miterlimit="10" d="M 450.40625 120.078125 L 464.230469 120.078125 "/>
<path fill="none" stroke-width="1.163976" stroke-linecap="butt" stroke-linejoin="round" stroke="rgb(14.509804%, 51.764706%, 55.686275%)" stroke-opacity="1" stroke-miterlimit="10" d="M 450.40625 137.359375 L 464.230469 137.359375 "/>
<path fill="none" stroke-width="1.163976" stroke-linecap="butt" stroke-linejoin="round" stroke="rgb(21.960784%, 72.54902%, 46.666667%)" stroke-opacity="1" stroke-miterlimit="10" d="M 450.40625 154.636719 L 464.230469 154.636719 "/>
<path fill="none" stroke-width="1.163976" stroke-linecap="butt" stroke-linejoin="round" stroke="rgb(73.333333%, 87.45098%, 15.294118%)" stroke-opacity="1" stroke-miterlimit="10" d="M 450.40625 171.917969 L 464.230469 171.917969 "/>
<g fill="rgb(0%, 0%, 0%)" fill-opacity="1">
<use xlink:href="#glyph-0-1" x="471.9375" y="106.734375"/>
<use xlink:href="#glyph-0-0" x="477.276563" y="106.734375"/>
<use xlink:href="#glyph-0-7" x="482.615625" y="106.734375"/>
<use xlink:href="#glyph-0-1" x="485.282813" y="106.734375"/>
<use xlink:href="#glyph-0-4" x="490.621875" y="106.734375"/>
</g>
<g fill="rgb(0%, 0%, 0%)" fill-opacity="1">
<use xlink:href="#glyph-0-1" x="471.9375" y="124.015625"/>
<use xlink:href="#glyph-0-4" x="477.276563" y="124.015625"/>
<use xlink:href="#glyph-0-7" x="482.615625" y="124.015625"/>
<use xlink:href="#glyph-0-1" x="485.282813" y="124.015625"/>
<use xlink:href="#glyph-0-1" x="490.621875" y="124.015625"/>
</g>
<g fill="rgb(0%, 0%, 0%)" fill-opacity="1">
<use xlink:href="#glyph-0-1" x="471.9375" y="141.292969"/>
<use xlink:href="#glyph-0-1" x="477.276563" y="141.292969"/>
<use xlink:href="#glyph-0-7" x="482.615625" y="141.292969"/>
<use xlink:href="#glyph-0-1" x="485.282813" y="141.292969"/>
<use xlink:href="#glyph-0-5" x="490.621875" y="141.292969"/>
</g>
<g fill="rgb(0%, 0%, 0%)" fill-opacity="1">
<use xlink:href="#glyph-0-1" x="471.9375" y="158.574219"/>
<use xlink:href="#glyph-0-5" x="477.276563" y="158.574219"/>
<use xlink:href="#glyph-0-7" x="482.615625" y="158.574219"/>
<use xlink:href="#glyph-0-1" x="485.282813" y="158.574219"/>
<use xlink:href="#glyph-0-2" x="490.621875" y="158.574219"/>
</g>
<g fill="rgb(0%, 0%, 0%)" fill-opacity="1">
<use xlink:href="#glyph-0-1" x="471.9375" y="175.855469"/>
<use xlink:href="#glyph-0-2" x="477.276563" y="175.855469"/>
<use xlink:href="#glyph-0-7" x="482.615625" y="175.855469"/>
<use xlink:href="#glyph-0-1" x="485.282813" y="175.855469"/>
<use xlink:href="#glyph-0-6" x="490.621875" y="175.855469"/>
</g>
</svg>
