<?xml version="1.0" encoding="UTF-8"?>
<svg xmlns="http://www.w3.org/2000/svg" xmlns:xlink="http://www.w3.org/1999/xlink" width="648" height="259" viewBox="0 0 648 259">
<defs>
<g>
<g id="glyph-0-0">
<path d="M 0.5 -4.234375 C 0.5 -5.25 0.601562 -6.070312 0.8125 -6.6875 C 1.019531 -7.308594 1.332031 -7.785156 1.742188 -8.121094 C 2.15625 -8.457031 2.671875 -8.625 3.296875 -8.625 C 3.757812 -8.625 4.164062 -8.53125 4.511719 -8.347656 C 4.859375 -8.160156 5.144531 -7.894531 5.375 -7.542969 C 5.597656 -7.195312 5.777344 -6.769531 5.90625 -6.265625 C 6.035156 -5.765625 6.101562 -5.085938 6.101562 -4.234375 C 6.101562 -3.226562 5.996094 -2.414062 5.789062 -1.796875 C 5.582031 -1.175781 5.273438 -0.699219 4.859375 -0.359375 C 4.449219 -0.0234375 3.925781 0.148438 3.296875 0.148438 C 2.46875 0.148438 1.820312 -0.152344 1.347656 -0.742188 C 0.78125 -1.460938 0.5 -2.621094 0.5 -4.234375 M 1.582031 -4.234375 C 1.582031 -2.824219 1.746094 -1.886719 2.078125 -1.421875 C 2.40625 -0.953125 2.8125 -0.71875 3.296875 -0.71875 C 3.78125 -0.71875 4.191406 -0.953125 4.519531 -1.421875 C 4.851562 -1.890625 5.015625 -2.828125 5.015625 -4.234375 C 5.015625 -5.648438 4.851562 -6.589844 4.519531 -7.054688 C 4.191406 -7.519531 3.78125 -7.75 3.289062 -7.75 C 2.800781 -7.75 2.414062 -7.546875 2.125 -7.136719 C 1.765625 -6.613281 1.582031 -5.644531 1.582031 -4.234375 Z M 1.582031 -4.234375 "/>
</g>
<g id="glyph-0-1">
<path d="M 1.089844 0 L 1.089844 -1.203125 L 2.289062 -1.203125 L 2.289062 0 Z M 1.089844 0 "/>
</g>
<g id="glyph-0-2">
<path d="M 0.570312 -7.464844 L 0.570312 -8.476562 L 6.128906 -8.476562 L 6.128906 -7.65625 C 5.582031 -7.074219 5.039062 -6.300781 4.503906 -5.335938 C 3.964844 -4.371094 3.550781 -3.382812 3.257812 -2.359375 C 3.046875 -1.640625 2.914062 -0.855469 2.851562 0 L 1.769531 0 C 1.78125 -0.675781 1.914062 -1.492188 2.167969 -2.449219 C 2.421875 -3.40625 2.785156 -4.328125 3.261719 -5.21875 C 3.734375 -6.105469 4.238281 -6.855469 4.773438 -7.464844 Z M 0.570312 -7.464844 "/>
</g>
<g id="glyph-0-3">
<path d="M 6.039062 -1.015625 L 6.039062 0 L 0.363281 0 C 0.355469 -0.253906 0.394531 -0.5 0.484375 -0.734375 C 0.628906 -1.117188 0.863281 -1.5 1.179688 -1.875 C 1.5 -2.25 1.957031 -2.683594 2.5625 -3.175781 C 3.492188 -3.941406 4.125 -4.546875 4.453125 -4.996094 C 4.78125 -5.441406 4.945312 -5.867188 4.945312 -6.265625 C 4.945312 -6.679688 4.796875 -7.035156 4.496094 -7.320312 C 4.199219 -7.609375 3.808594 -7.75 3.328125 -7.75 C 2.820312 -7.75 2.414062 -7.601562 2.109375 -7.296875 C 1.804688 -6.992188 1.648438 -6.570312 1.648438 -6.03125 L 0.5625 -6.140625 C 0.636719 -6.949219 0.917969 -7.566406 1.398438 -7.988281 C 1.882812 -8.414062 2.535156 -8.625 3.351562 -8.625 C 4.175781 -8.625 4.828125 -8.398438 5.308594 -7.9375 C 5.789062 -7.484375 6.03125 -6.914062 6.03125 -6.242188 C 6.03125 -5.894531 5.957031 -5.558594 5.820312 -5.226562 C 5.675781 -4.894531 5.445312 -4.542969 5.117188 -4.179688 C 4.792969 -3.808594 4.25 -3.304688 3.492188 -2.664062 C 2.859375 -2.132812 2.453125 -1.773438 2.273438 -1.585938 C 2.09375 -1.394531 1.945312 -1.203125 1.828125 -1.015625 Z M 6.039062 -1.015625 "/>
</g>
<g id="glyph-0-4">
<path d="M 0.5 -2.25 L 1.605469 -2.34375 C 1.6875 -1.804688 1.878906 -1.398438 2.175781 -1.128906 C 2.476562 -0.855469 2.835938 -0.71875 3.257812 -0.71875 C 3.765625 -0.71875 4.195312 -0.910156 4.546875 -1.296875 C 4.898438 -1.675781 5.074219 -2.1875 5.074219 -2.820312 C 5.074219 -3.417969 4.90625 -3.894531 4.566406 -4.242188 C 4.230469 -4.589844 3.785156 -4.761719 3.242188 -4.765625 C 2.898438 -4.761719 2.59375 -4.6875 2.320312 -4.53125 C 2.046875 -4.378906 1.832031 -4.179688 1.675781 -3.929688 L 0.6875 -4.0625 L 1.515625 -8.472656 L 5.789062 -8.472656 L 5.789062 -7.464844 L 2.359375 -7.464844 L 1.898438 -5.15625 C 2.414062 -5.515625 2.953125 -5.695312 3.523438 -5.695312 C 4.273438 -5.695312 4.90625 -5.433594 5.421875 -4.914062 C 5.9375 -4.394531 6.195312 -3.726562 6.195312 -2.914062 C 6.195312 -2.132812 5.964844 -1.460938 5.515625 -0.898438 C 4.960938 -0.203125 4.210938 0.148438 3.257812 0.148438 C 2.476562 0.148438 1.839844 -0.0742188 1.34375 -0.507812 C 0.851562 -0.945312 0.570312 -1.527344 0.5 -2.25 Z M 0.5 -2.25 "/>
</g>
<g id="glyph-0-5">
<path d="M 2.121094 -4.65625 C 1.683594 -4.816406 1.359375 -5.046875 1.148438 -5.34375 C 0.9375 -5.640625 0.832031 -5.996094 0.832031 -6.410156 C 0.832031 -7.035156 1.058594 -7.558594 1.507812 -7.984375 C 1.953125 -8.410156 2.550781 -8.625 3.296875 -8.625 C 4.046875 -8.625 4.652344 -8.40625 5.109375 -7.972656 C 5.566406 -7.535156 5.796875 -7.003906 5.796875 -6.382812 C 5.796875 -5.980469 5.691406 -5.636719 5.480469 -5.339844 C 5.273438 -5.046875 4.953125 -4.816406 4.53125 -4.65625 C 5.054688 -4.484375 5.457031 -4.207031 5.734375 -3.828125 C 6.007812 -3.441406 6.148438 -2.984375 6.148438 -2.453125 C 6.148438 -1.71875 5.886719 -1.101562 5.367188 -0.601562 C 4.847656 -0.105469 4.164062 0.148438 3.316406 0.148438 C 2.46875 0.148438 1.785156 -0.105469 1.265625 -0.605469 C 0.746094 -1.109375 0.484375 -1.734375 0.484375 -2.484375 C 0.484375 -3.042969 0.628906 -3.511719 0.910156 -3.886719 C 1.195312 -4.265625 1.597656 -4.519531 2.121094 -4.65625 M 1.910156 -6.445312 C 1.910156 -6.039062 2.039062 -5.707031 2.304688 -5.449219 C 2.5625 -5.191406 2.902344 -5.0625 3.320312 -5.0625 C 3.726562 -5.0625 4.0625 -5.191406 4.320312 -5.445312 C 4.582031 -5.703125 4.710938 -6.015625 4.710938 -6.386719 C 4.710938 -6.773438 4.578125 -7.097656 4.308594 -7.363281 C 4.042969 -7.625 3.710938 -7.757812 3.3125 -7.757812 C 2.90625 -7.757812 2.574219 -7.628906 2.308594 -7.371094 C 2.042969 -7.113281 1.910156 -6.804688 1.910156 -6.445312 M 1.570312 -2.476562 C 1.570312 -2.175781 1.640625 -1.886719 1.785156 -1.605469 C 1.925781 -1.324219 2.140625 -1.105469 2.421875 -0.953125 C 2.703125 -0.796875 3.003906 -0.71875 3.328125 -0.71875 C 3.832031 -0.71875 4.25 -0.882812 4.578125 -1.207031 C 4.90625 -1.53125 5.070312 -1.941406 5.070312 -2.445312 C 5.070312 -2.949219 4.898438 -3.371094 4.5625 -3.703125 C 4.222656 -4.035156 3.800781 -4.203125 3.292969 -4.203125 C 2.796875 -4.203125 2.386719 -4.039062 2.058594 -3.710938 C 1.734375 -3.382812 1.570312 -2.96875 1.570312 -2.476562 Z M 1.570312 -2.476562 "/>
</g>
<g id="glyph-0-6">
<path d="M 4.46875 0 L 3.414062 0 L 3.414062 -6.71875 C 3.160156 -6.476562 2.828125 -6.234375 2.417969 -5.992188 C 2.003906 -5.75 1.632812 -5.570312 1.304688 -5.449219 L 1.304688 -6.46875 C 1.894531 -6.746094 2.410156 -7.082031 2.851562 -7.476562 C 3.292969 -7.871094 3.605469 -8.253906 3.789062 -8.625 L 4.46875 -8.625 Z M 4.46875 0 "/>
</g>
<g id="glyph-0-7">
<path d="M 0.503906 -2.265625 L 1.558594 -2.40625 C 1.679688 -1.8125 1.886719 -1.378906 2.175781 -1.117188 C 2.46875 -0.851562 2.820312 -0.71875 3.242188 -0.71875 C 3.734375 -0.71875 4.15625 -0.890625 4.496094 -1.234375 C 4.839844 -1.578125 5.007812 -2.003906 5.007812 -2.515625 C 5.007812 -2.996094 4.851562 -3.398438 4.535156 -3.710938 C 4.21875 -4.027344 3.816406 -4.183594 3.328125 -4.183594 C 3.128906 -4.183594 2.878906 -4.144531 2.585938 -4.066406 L 2.703125 -4.992188 C 2.773438 -4.984375 2.828125 -4.980469 2.871094 -4.980469 C 3.320312 -4.980469 3.722656 -5.097656 4.085938 -5.332031 C 4.441406 -5.566406 4.621094 -5.925781 4.625 -6.414062 C 4.621094 -6.804688 4.492188 -7.121094 4.230469 -7.375 C 3.96875 -7.628906 3.628906 -7.757812 3.21875 -7.757812 C 2.804688 -7.757812 2.464844 -7.628906 2.191406 -7.371094 C 1.917969 -7.113281 1.742188 -6.726562 1.664062 -6.210938 L 0.609375 -6.398438 C 0.738281 -7.105469 1.03125 -7.652344 1.488281 -8.042969 C 1.945312 -8.429688 2.515625 -8.625 3.195312 -8.625 C 3.664062 -8.625 4.09375 -8.523438 4.488281 -8.324219 C 4.882812 -8.121094 5.183594 -7.847656 5.394531 -7.5 C 5.601562 -7.152344 5.707031 -6.78125 5.707031 -6.390625 C 5.707031 -6.019531 5.609375 -5.683594 5.40625 -5.378906 C 5.210938 -5.074219 4.914062 -4.832031 4.523438 -4.652344 C 5.03125 -4.535156 5.425781 -4.292969 5.707031 -3.921875 C 5.988281 -3.554688 6.128906 -3.089844 6.128906 -2.539062 C 6.128906 -1.789062 5.855469 -1.152344 5.308594 -0.628906 C 4.761719 -0.109375 4.070312 0.152344 3.234375 0.152344 C 2.480469 0.152344 1.855469 -0.0742188 1.355469 -0.523438 C 0.859375 -0.96875 0.574219 -1.554688 0.503906 -2.265625 Z M 0.503906 -2.265625 "/>
</g>
<g id="glyph-1-0">
<path d="M 3.03125 0 L 0.183594 -10.738281 L 1.640625 -10.738281 L 3.273438 -3.699219 C 3.449219 -2.960938 3.601562 -2.230469 3.726562 -1.5 C 4 -2.648438 4.164062 -3.3125 4.210938 -3.484375 L 6.253906 -10.738281 L 7.96875 -10.738281 L 9.507812 -5.304688 C 9.890625 -3.953125 10.171875 -2.6875 10.34375 -1.5 C 10.476562 -2.179688 10.65625 -2.960938 10.875 -3.835938 L 12.5625 -10.738281 L 13.988281 -10.738281 L 11.046875 0 L 9.675781 0 L 7.414062 -8.179688 C 7.222656 -8.863281 7.109375 -9.285156 7.074219 -9.441406 C 6.960938 -8.949219 6.859375 -8.527344 6.761719 -8.179688 L 4.484375 0 Z M 3.03125 0 "/>
</g>
<g id="glyph-1-1">
<path d="M 6.3125 -2.503906 L 7.675781 -2.335938 C 7.460938 -1.539062 7.0625 -0.921875 6.480469 -0.484375 C 5.902344 -0.0429688 5.160156 0.175781 4.253906 0.175781 C 3.117188 0.175781 2.214844 -0.175781 1.550781 -0.875 C 0.882812 -1.574219 0.550781 -2.558594 0.550781 -3.824219 C 0.550781 -5.132812 0.886719 -6.148438 1.558594 -6.871094 C 2.234375 -7.59375 3.109375 -7.953125 4.183594 -7.953125 C 5.222656 -7.953125 6.070312 -7.601562 6.730469 -6.890625 C 7.390625 -6.183594 7.71875 -5.1875 7.71875 -3.902344 C 7.71875 -3.824219 7.71875 -3.707031 7.710938 -3.550781 L 1.910156 -3.550781 C 1.960938 -2.699219 2.203125 -2.042969 2.636719 -1.589844 C 3.070312 -1.136719 3.613281 -0.90625 4.261719 -0.90625 C 4.746094 -0.90625 5.160156 -1.035156 5.5 -1.289062 C 5.84375 -1.542969 6.113281 -1.949219 6.3125 -2.503906 M 1.984375 -4.636719 L 6.328125 -4.636719 C 6.269531 -5.289062 6.101562 -5.78125 5.828125 -6.109375 C 5.410156 -6.617188 4.867188 -6.871094 4.195312 -6.871094 C 3.589844 -6.871094 3.082031 -6.667969 2.667969 -6.261719 C 2.257812 -5.855469 2.027344 -5.316406 1.984375 -4.636719 Z M 1.984375 -4.636719 "/>
</g>
<g id="glyph-1-2">
<path d="M 0.996094 -9.222656 L 0.996094 -10.738281 L 2.3125 -10.738281 L 2.3125 -9.222656 L 0.996094 -9.222656 M 0.996094 0 L 0.996094 -7.777344 L 2.3125 -7.777344 L 2.3125 0 Z M 0.996094 0 "/>
</g>
<g id="glyph-1-3">
<path d="M 0.746094 0.644531 L 2.027344 0.835938 C 2.082031 1.230469 2.230469 1.519531 2.476562 1.699219 C 2.800781 1.941406 3.25 2.066406 3.816406 2.066406 C 4.425781 2.066406 4.898438 1.941406 5.230469 1.699219 C 5.5625 1.453125 5.785156 1.113281 5.902344 0.671875 C 5.972656 0.40625 6.003906 -0.160156 6 -1.019531 C 5.421875 -0.339844 4.703125 0 3.84375 0 C 2.777344 0 1.949219 -0.386719 1.363281 -1.15625 C 0.777344 -1.929688 0.484375 -2.855469 0.484375 -3.933594 C 0.484375 -4.675781 0.617188 -5.359375 0.886719 -5.988281 C 1.15625 -6.613281 1.542969 -7.097656 2.054688 -7.441406 C 2.566406 -7.78125 3.164062 -7.953125 3.851562 -7.953125 C 4.769531 -7.953125 5.527344 -7.582031 6.125 -6.839844 L 6.125 -7.777344 L 7.339844 -7.777344 L 7.339844 -1.054688 C 7.339844 0.15625 7.214844 1.015625 6.96875 1.519531 C 6.722656 2.023438 6.332031 2.425781 5.796875 2.71875 C 5.261719 3.011719 4.605469 3.15625 3.824219 3.15625 C 2.894531 3.15625 2.144531 2.949219 1.574219 2.53125 C 1.003906 2.113281 0.726562 1.484375 0.746094 0.644531 M 1.839844 -4.027344 C 1.839844 -3.007812 2.039062 -2.261719 2.445312 -1.792969 C 2.851562 -1.324219 3.359375 -1.089844 3.96875 -1.089844 C 4.574219 -1.089844 5.082031 -1.324219 5.492188 -1.789062 C 5.902344 -2.257812 6.109375 -2.988281 6.109375 -3.984375 C 6.109375 -4.9375 5.898438 -5.65625 5.476562 -6.136719 C 5.050781 -6.621094 4.542969 -6.863281 3.949219 -6.863281 C 3.363281 -6.863281 2.863281 -6.625 2.453125 -6.148438 C 2.042969 -5.671875 1.839844 -4.964844 1.839844 -4.027344 Z M 1.839844 -4.027344 "/>
</g>
<g id="glyph-1-4">
<path d="M 0.988281 0 L 0.988281 -10.738281 L 2.308594 -10.738281 L 2.308594 -6.882812 C 2.921875 -7.597656 3.699219 -7.953125 4.636719 -7.953125 C 5.210938 -7.953125 5.710938 -7.839844 6.136719 -7.613281 C 6.5625 -7.386719 6.867188 -7.074219 7.050781 -6.671875 C 7.234375 -6.273438 7.324219 -5.691406 7.324219 -4.929688 L 7.324219 0 L 6.007812 0 L 6.007812 -4.929688 C 6.007812 -5.589844 5.863281 -6.066406 5.578125 -6.367188 C 5.292969 -6.667969 4.886719 -6.820312 4.367188 -6.820312 C 3.972656 -6.820312 3.605469 -6.71875 3.261719 -6.515625 C 2.917969 -6.3125 2.671875 -6.039062 2.527344 -5.691406 C 2.378906 -5.34375 2.308594 -4.867188 2.308594 -4.253906 L 2.308594 0 Z M 0.988281 0 "/>
</g>
<g id="glyph-1-5">
<path d="M 3.867188 -1.179688 L 4.058594 -0.015625 C 3.6875 0.0625 3.355469 0.101562 3.0625 0.101562 C 2.582031 0.101562 2.210938 0.0273438 1.949219 -0.125 C 1.683594 -0.277344 1.5 -0.476562 1.390625 -0.722656 C 1.285156 -0.96875 1.230469 -1.488281 1.230469 -2.277344 L 1.230469 -6.753906 L 0.265625 -6.753906 L 0.265625 -7.777344 L 1.230469 -7.777344 L 1.230469 -9.703125 L 2.542969 -10.496094 L 2.542969 -7.777344 L 3.867188 -7.777344 L 3.867188 -6.753906 L 2.542969 -6.753906 L 2.542969 -2.203125 C 2.542969 -1.828125 2.566406 -1.585938 2.609375 -1.480469 C 2.65625 -1.371094 2.734375 -1.285156 2.839844 -1.222656 C 2.941406 -1.160156 3.09375 -1.128906 3.289062 -1.128906 C 3.433594 -1.128906 3.628906 -1.144531 3.867188 -1.179688 Z M 3.867188 -1.179688 "/>
</g>
<g id="glyph-1-6">
</g>
<g id="glyph-1-7">
<path d="M 6.035156 0 L 6.035156 -0.980469 C 5.542969 -0.210938 4.816406 0.175781 3.859375 0.175781 C 3.238281 0.175781 2.667969 0.00390625 2.148438 -0.335938 C 1.628906 -0.679688 1.226562 -1.15625 0.941406 -1.769531 C 0.65625 -2.382812 0.511719 -3.085938 0.511719 -3.882812 C 0.511719 -4.65625 0.640625 -5.363281 0.902344 -5.996094 C 1.160156 -6.628906 1.546875 -7.113281 2.066406 -7.449219 C 2.582031 -7.785156 3.160156 -7.953125 3.800781 -7.953125 C 4.269531 -7.953125 4.6875 -7.855469 5.054688 -7.65625 C 5.421875 -7.460938 5.71875 -7.203125 5.945312 -6.882812 L 5.945312 -10.738281 L 7.257812 -10.738281 L 7.257812 0 L 6.035156 0 M 1.867188 -3.882812 C 1.867188 -2.886719 2.078125 -2.140625 2.496094 -1.648438 C 2.917969 -1.15625 3.414062 -0.90625 3.984375 -0.90625 C 4.558594 -0.90625 5.050781 -1.144531 5.453125 -1.613281 C 5.855469 -2.085938 6.058594 -2.804688 6.058594 -3.773438 C 6.058594 -4.835938 5.851562 -5.617188 5.441406 -6.117188 C 5.03125 -6.613281 4.527344 -6.863281 3.925781 -6.863281 C 3.339844 -6.863281 2.851562 -6.625 2.457031 -6.144531 C 2.0625 -5.667969 1.867188 -4.910156 1.867188 -3.882812 Z M 1.867188 -3.882812 "/>
</g>
<g id="glyph-1-8">
<path d="M 6.0625 -2.847656 L 7.359375 -2.679688 C 7.21875 -1.789062 6.855469 -1.085938 6.273438 -0.582031 C 5.691406 -0.078125 4.972656 0.175781 4.125 0.175781 C 3.058594 0.175781 2.203125 -0.171875 1.554688 -0.867188 C 0.910156 -1.5625 0.585938 -2.5625 0.585938 -3.859375 C 0.585938 -4.699219 0.726562 -5.433594 1.003906 -6.0625 C 1.28125 -6.695312 1.707031 -7.167969 2.273438 -7.480469 C 2.84375 -7.796875 3.460938 -7.953125 4.132812 -7.953125 C 4.976562 -7.953125 5.667969 -7.742188 6.203125 -7.3125 C 6.742188 -6.886719 7.085938 -6.277344 7.234375 -5.492188 L 5.953125 -5.296875 C 5.832031 -5.816406 5.617188 -6.210938 5.304688 -6.476562 C 4.996094 -6.738281 4.621094 -6.871094 4.183594 -6.871094 C 3.519531 -6.871094 2.976562 -6.632812 2.5625 -6.15625 C 2.148438 -5.679688 1.941406 -4.925781 1.941406 -3.898438 C 1.941406 -2.851562 2.140625 -2.09375 2.542969 -1.617188 C 2.941406 -1.144531 3.464844 -0.90625 4.109375 -0.90625 C 4.625 -0.90625 5.058594 -1.066406 5.40625 -1.382812 C 5.75 -1.703125 5.972656 -2.191406 6.0625 -2.847656 Z M 6.0625 -2.847656 "/>
</g>
<g id="glyph-1-9">
<path d="M 6.0625 -0.960938 C 5.574219 -0.542969 5.105469 -0.25 4.65625 -0.0820312 C 4.203125 0.0898438 3.71875 0.175781 3.199219 0.175781 C 2.347656 0.175781 1.6875 -0.03125 1.230469 -0.449219 C 0.769531 -0.867188 0.542969 -1.402344 0.542969 -2.050781 C 0.542969 -2.429688 0.628906 -2.78125 0.800781 -3.09375 C 0.976562 -3.410156 1.203125 -3.664062 1.484375 -3.851562 C 1.765625 -4.042969 2.078125 -4.1875 2.429688 -4.285156 C 2.691406 -4.351562 3.082031 -4.417969 3.601562 -4.484375 C 4.667969 -4.609375 5.453125 -4.761719 5.953125 -4.9375 C 5.960938 -5.117188 5.960938 -5.230469 5.960938 -5.28125 C 5.960938 -5.816406 5.835938 -6.195312 5.589844 -6.414062 C 5.25 -6.714844 4.75 -6.863281 4.085938 -6.863281 C 3.464844 -6.863281 3.007812 -6.753906 2.714844 -6.535156 C 2.417969 -6.320312 2.199219 -5.933594 2.058594 -5.382812 L 0.769531 -5.558594 C 0.886719 -6.109375 1.078125 -6.554688 1.347656 -6.894531 C 1.617188 -7.234375 2.003906 -7.496094 2.511719 -7.679688 C 3.019531 -7.863281 3.609375 -7.953125 4.277344 -7.953125 C 4.941406 -7.953125 5.480469 -7.875 5.894531 -7.71875 C 6.3125 -7.5625 6.617188 -7.367188 6.8125 -7.128906 C 7.007812 -6.894531 7.144531 -6.59375 7.222656 -6.234375 C 7.265625 -6.007812 7.289062 -5.601562 7.289062 -5.015625 L 7.289062 -3.257812 C 7.289062 -2.035156 7.316406 -1.257812 7.371094 -0.933594 C 7.429688 -0.609375 7.539062 -0.296875 7.703125 0 L 6.328125 0 C 6.191406 -0.273438 6.101562 -0.59375 6.0625 -0.960938 M 5.953125 -3.902344 C 5.476562 -3.707031 4.757812 -3.542969 3.800781 -3.40625 C 3.257812 -3.328125 2.875 -3.238281 2.652344 -3.140625 C 2.425781 -3.042969 2.253906 -2.902344 2.132812 -2.714844 C 2.007812 -2.527344 1.949219 -2.316406 1.949219 -2.085938 C 1.949219 -1.734375 2.082031 -1.441406 2.347656 -1.207031 C 2.613281 -0.972656 3.003906 -0.855469 3.515625 -0.855469 C 4.023438 -0.855469 4.476562 -0.96875 4.871094 -1.191406 C 5.265625 -1.414062 5.554688 -1.714844 5.742188 -2.101562 C 5.882812 -2.398438 5.953125 -2.839844 5.953125 -3.421875 Z M 5.953125 -3.902344 "/>
</g>
<g id="glyph-1-10">
<path d="M 0.929688 2.996094 L 0.785156 1.757812 C 1.070312 1.835938 1.324219 1.875 1.539062 1.875 C 1.832031 1.875 2.066406 1.824219 2.242188 1.726562 C 2.417969 1.628906 2.5625 1.492188 2.671875 1.320312 C 2.757812 1.1875 2.890625 0.859375 3.078125 0.335938 C 3.101562 0.265625 3.140625 0.15625 3.195312 0.015625 L 0.242188 -7.777344 L 1.664062 -7.777344 L 3.28125 -3.273438 C 3.492188 -2.703125 3.679688 -2.101562 3.84375 -1.472656 C 3.996094 -2.078125 4.175781 -2.667969 4.386719 -3.246094 L 6.050781 -7.777344 L 7.367188 -7.777344 L 4.410156 0.132812 C 4.089844 0.984375 3.84375 1.574219 3.667969 1.898438 C 3.433594 2.332031 3.167969 2.648438 2.863281 2.851562 C 2.5625 3.054688 2.199219 3.15625 1.78125 3.15625 C 1.527344 3.15625 1.242188 3.101562 0.929688 2.996094 Z M 0.929688 2.996094 "/>
</g>
<g id="glyph-1-11">
<path d="M 3.507812 3.15625 C 2.78125 2.238281 2.164062 1.164062 1.664062 -0.0664062 C 1.160156 -1.296875 0.90625 -2.570312 0.90625 -3.890625 C 0.90625 -5.050781 1.097656 -6.164062 1.472656 -7.230469 C 1.910156 -8.464844 2.589844 -9.695312 3.507812 -10.921875 L 4.453125 -10.921875 C 3.863281 -9.90625 3.472656 -9.179688 3.28125 -8.746094 C 2.984375 -8.070312 2.75 -7.367188 2.578125 -6.636719 C 2.367188 -5.722656 2.261719 -4.804688 2.261719 -3.882812 C 2.261719 -1.535156 2.992188 0.8125 4.453125 3.15625 Z M 3.507812 3.15625 "/>
</g>
<g id="glyph-1-12">
<path d="M 0.960938 0 L 0.960938 -10.738281 L 2.277344 -10.738281 L 2.277344 0 Z M 0.960938 0 "/>
</g>
<g id="glyph-1-13">
<path d="M 0.5 -3.890625 C 0.5 -5.328125 0.898438 -6.394531 1.699219 -7.089844 C 2.367188 -7.664062 3.183594 -7.953125 4.144531 -7.953125 C 5.214844 -7.953125 6.089844 -7.605469 6.765625 -6.902344 C 7.445312 -6.203125 7.785156 -5.234375 7.785156 -4 C 7.785156 -2.996094 7.636719 -2.210938 7.335938 -1.636719 C 7.035156 -1.0625 6.597656 -0.617188 6.023438 -0.300781 C 5.449219 0.015625 4.824219 0.175781 4.144531 0.175781 C 3.054688 0.175781 2.175781 -0.171875 1.503906 -0.871094 C 0.832031 -1.570312 0.5 -2.574219 0.5 -3.890625 M 1.851562 -3.890625 C 1.851562 -2.894531 2.070312 -2.148438 2.503906 -1.652344 C 2.9375 -1.15625 3.484375 -0.90625 4.144531 -0.90625 C 4.800781 -0.90625 5.34375 -1.15625 5.777344 -1.65625 C 6.214844 -2.152344 6.429688 -2.914062 6.429688 -3.933594 C 6.429688 -4.894531 6.210938 -5.625 5.773438 -6.121094 C 5.339844 -6.613281 4.792969 -6.863281 4.144531 -6.863281 C 3.484375 -6.863281 2.9375 -6.617188 2.503906 -6.125 C 2.070312 -5.628906 1.851562 -4.886719 1.851562 -3.890625 Z M 1.851562 -3.890625 "/>
</g>
<g id="glyph-1-14">
<path d="M 0.460938 -2.320312 L 1.765625 -2.527344 C 1.839844 -2.003906 2.042969 -1.605469 2.375 -1.324219 C 2.710938 -1.046875 3.179688 -0.90625 3.78125 -0.90625 C 4.382812 -0.90625 4.835938 -1.03125 5.125 -1.277344 C 5.421875 -1.523438 5.566406 -1.8125 5.566406 -2.144531 C 5.566406 -2.445312 5.4375 -2.679688 5.179688 -2.847656 C 4.996094 -2.964844 4.546875 -3.113281 3.832031 -3.296875 C 2.863281 -3.539062 2.195312 -3.75 1.820312 -3.929688 C 1.445312 -4.109375 1.164062 -4.355469 0.96875 -4.667969 C 0.777344 -4.984375 0.679688 -5.332031 0.679688 -5.710938 C 0.679688 -6.058594 0.761719 -6.378906 0.917969 -6.675781 C 1.078125 -6.972656 1.292969 -7.214844 1.566406 -7.414062 C 1.773438 -7.5625 2.050781 -7.691406 2.40625 -7.796875 C 2.761719 -7.902344 3.140625 -7.953125 3.546875 -7.953125 C 4.15625 -7.953125 4.691406 -7.867188 5.152344 -7.691406 C 5.613281 -7.515625 5.953125 -7.277344 6.175781 -6.976562 C 6.394531 -6.675781 6.546875 -6.273438 6.628906 -5.773438 L 5.339844 -5.59375 C 5.28125 -5.996094 5.109375 -6.308594 4.832031 -6.53125 C 4.550781 -6.757812 4.152344 -6.871094 3.640625 -6.871094 C 3.035156 -6.871094 2.601562 -6.769531 2.34375 -6.570312 C 2.085938 -6.371094 1.957031 -6.136719 1.957031 -5.867188 C 1.957031 -5.695312 2.007812 -5.542969 2.117188 -5.40625 C 2.222656 -5.261719 2.390625 -5.144531 2.621094 -5.054688 C 2.753906 -5.003906 3.140625 -4.890625 3.785156 -4.71875 C 4.71875 -4.46875 5.371094 -4.265625 5.738281 -4.105469 C 6.105469 -3.945312 6.394531 -3.714844 6.605469 -3.414062 C 6.816406 -3.109375 6.921875 -2.734375 6.921875 -2.285156 C 6.921875 -1.84375 6.792969 -1.433594 6.535156 -1.042969 C 6.28125 -0.65625 5.910156 -0.355469 5.425781 -0.144531 C 4.945312 0.0703125 4.398438 0.175781 3.785156 0.175781 C 2.777344 0.175781 2.003906 -0.0351562 1.476562 -0.453125 C 0.945312 -0.875 0.609375 -1.496094 0.460938 -2.320312 Z M 0.460938 -2.320312 "/>
</g>
<g id="glyph-1-15">
<path d="M 1.851562 3.15625 L 0.90625 3.15625 C 2.367188 0.8125 3.097656 -1.535156 3.097656 -3.882812 C 3.097656 -4.800781 2.992188 -5.710938 2.78125 -6.613281 C 2.617188 -7.347656 2.386719 -8.050781 2.085938 -8.722656 C 1.898438 -9.164062 1.503906 -9.894531 0.90625 -10.921875 L 1.851562 -10.921875 C 2.769531 -9.695312 3.449219 -8.464844 3.890625 -7.230469 C 4.265625 -6.164062 4.453125 -5.050781 4.453125 -3.890625 C 4.453125 -2.570312 4.199219 -1.296875 3.695312 -0.0664062 C 3.191406 1.164062 2.574219 2.238281 1.851562 3.15625 Z M 1.851562 3.15625 "/>
</g>
<g id="glyph-1-16">
<path d="M 1.203125 0 L 1.203125 -10.738281 L 2.621094 -10.738281 L 2.621094 -6.328125 L 8.203125 -6.328125 L 8.203125 -10.738281 L 9.625 -10.738281 L 9.625 0 L 8.203125 0 L 8.203125 -5.0625 L 2.621094 -5.0625 L 2.621094 0 Z M 1.203125 0 "/>
</g>
<g id="glyph-1-17">
<path d="M 0.988281 0 L 0.988281 -7.777344 L 2.175781 -7.777344 L 2.175781 -6.671875 C 2.746094 -7.527344 3.570312 -7.953125 4.652344 -7.953125 C 5.121094 -7.953125 5.550781 -7.871094 5.945312 -7.703125 C 6.335938 -7.53125 6.628906 -7.3125 6.828125 -7.039062 C 7.019531 -6.765625 7.15625 -6.441406 7.234375 -6.0625 C 7.285156 -5.820312 7.308594 -5.394531 7.308594 -4.78125 L 7.308594 0 L 5.992188 0 L 5.992188 -4.730469 C 5.992188 -5.269531 5.941406 -5.671875 5.835938 -5.9375 C 5.734375 -6.203125 5.554688 -6.414062 5.292969 -6.574219 C 5.03125 -6.730469 4.722656 -6.8125 4.371094 -6.8125 C 3.8125 -6.8125 3.328125 -6.632812 2.917969 -6.277344 C 2.511719 -5.921875 2.308594 -5.242188 2.308594 -4.25 L 2.308594 0 Z M 0.988281 0 "/>
</g>
<g id="glyph-1-18">
<path d="M 6.085938 0 L 6.085938 -1.140625 C 5.480469 -0.265625 4.65625 0.175781 3.617188 0.175781 C 3.160156 0.175781 2.730469 0.0859375 2.332031 -0.0859375 C 1.933594 -0.265625 1.640625 -0.484375 1.445312 -0.75 C 1.253906 -1.015625 1.117188 -1.34375 1.039062 -1.726562 C 0.984375 -1.988281 0.960938 -2.398438 0.960938 -2.960938 L 0.960938 -7.777344 L 2.277344 -7.777344 L 2.277344 -3.464844 C 2.277344 -2.777344 2.304688 -2.3125 2.359375 -2.074219 C 2.441406 -1.726562 2.617188 -1.453125 2.886719 -1.257812 C 3.152344 -1.058594 3.484375 -0.960938 3.882812 -0.960938 C 4.277344 -0.960938 4.648438 -1.0625 4.996094 -1.261719 C 5.339844 -1.464844 5.585938 -1.742188 5.730469 -2.089844 C 5.875 -2.441406 5.945312 -2.945312 5.945312 -3.609375 L 5.945312 -7.777344 L 7.265625 -7.777344 L 7.265625 0 Z M 6.085938 0 "/>
</g>
<g id="glyph-2-0">
<path d="M -3.765625 -8.820312 L -3.40625 -10.238281 C -2.238281 -9.941406 -1.347656 -9.40625 -0.734375 -8.632812 C -0.125 -7.859375 0.183594 -6.910156 0.183594 -5.792969 C 0.183594 -4.636719 -0.0507812 -3.695312 -0.523438 -2.96875 C -0.996094 -2.246094 -1.675781 -1.691406 -2.570312 -1.316406 C -3.464844 -0.9375 -4.421875 -0.746094 -5.449219 -0.746094 C -6.566406 -0.746094 -7.542969 -0.960938 -8.375 -1.386719 C -9.207031 -1.816406 -9.839844 -2.421875 -10.273438 -3.210938 C -10.703125 -4 -10.921875 -4.867188 -10.921875 -5.816406 C -10.921875 -6.890625 -10.648438 -7.792969 -10.101562 -8.523438 C -9.554688 -9.257812 -8.785156 -9.769531 -7.792969 -10.054688 L -7.464844 -8.65625 C -8.246094 -8.40625 -8.8125 -8.046875 -9.171875 -7.574219 C -9.527344 -7.097656 -9.703125 -6.503906 -9.703125 -5.785156 C -9.703125 -4.960938 -9.507812 -4.269531 -9.109375 -3.71875 C -8.714844 -3.164062 -8.183594 -2.773438 -7.519531 -2.550781 C -6.851562 -2.324219 -6.164062 -2.210938 -5.457031 -2.210938 C -4.542969 -2.210938 -3.746094 -2.34375 -3.066406 -2.609375 C -2.382812 -2.878906 -1.875 -3.289062 -1.539062 -3.851562 C -1.199219 -4.414062 -1.03125 -5.023438 -1.03125 -5.675781 C -1.03125 -6.472656 -1.261719 -7.144531 -1.722656 -7.699219 C -2.179688 -8.25 -2.859375 -8.621094 -3.765625 -8.820312 Z M -3.765625 -8.820312 "/>
</g>
<g id="glyph-2-1">
<path d="M 0 -0.972656 L -7.777344 -0.972656 L -7.777344 -2.160156 L -6.597656 -2.160156 C -7.152344 -2.464844 -7.515625 -2.742188 -7.691406 -3 C -7.867188 -3.253906 -7.953125 -3.539062 -7.953125 -3.84375 C -7.953125 -4.289062 -7.8125 -4.742188 -7.53125 -5.199219 L -6.304688 -4.746094 C -6.496094 -4.421875 -6.589844 -4.101562 -6.59375 -3.78125 C -6.589844 -3.492188 -6.503906 -3.230469 -6.332031 -3.003906 C -6.160156 -2.773438 -5.917969 -2.609375 -5.609375 -2.511719 C -5.140625 -2.367188 -4.628906 -2.292969 -4.070312 -2.292969 L 0 -2.292969 Z M 0 -0.972656 "/>
</g>
<g id="glyph-2-2">
<path d="M -3.890625 -0.5 C -5.328125 -0.5 -6.394531 -0.898438 -7.089844 -1.699219 C -7.664062 -2.367188 -7.953125 -3.183594 -7.953125 -4.144531 C -7.953125 -5.214844 -7.605469 -6.089844 -6.902344 -6.765625 C -6.203125 -7.445312 -5.234375 -7.785156 -4 -7.785156 C -2.996094 -7.785156 -2.210938 -7.636719 -1.636719 -7.335938 C -1.0625 -7.035156 -0.617188 -6.597656 -0.300781 -6.023438 C 0.015625 -5.449219 0.175781 -4.824219 0.175781 -4.144531 C 0.175781 -3.054688 -0.171875 -2.175781 -0.871094 -1.503906 C -1.570312 -0.832031 -2.574219 -0.5 -3.890625 -0.5 M -3.890625 -1.851562 C -2.894531 -1.851562 -2.148438 -2.070312 -1.652344 -2.503906 C -1.15625 -2.9375 -0.90625 -3.484375 -0.90625 -4.144531 C -0.90625 -4.800781 -1.15625 -5.34375 -1.65625 -5.777344 C -2.152344 -6.214844 -2.914062 -6.429688 -3.933594 -6.429688 C -4.894531 -6.429688 -5.625 -6.210938 -6.121094 -5.773438 C -6.613281 -5.339844 -6.863281 -4.792969 -6.863281 -4.144531 C -6.863281 -3.488281 -6.617188 -2.9375 -6.125 -2.503906 C -5.628906 -2.070312 -4.886719 -1.851562 -3.890625 -1.851562 Z M -3.890625 -1.851562 "/>
</g>
<g id="glyph-2-3">
<path d="M -2.320312 -0.460938 L -2.527344 -1.765625 C -2.003906 -1.839844 -1.605469 -2.042969 -1.324219 -2.375 C -1.046875 -2.710938 -0.90625 -3.179688 -0.90625 -3.78125 C -0.90625 -4.382812 -1.03125 -4.835938 -1.277344 -5.125 C -1.523438 -5.421875 -1.8125 -5.566406 -2.144531 -5.566406 C -2.445312 -5.566406 -2.679688 -5.4375 -2.847656 -5.179688 C -2.964844 -4.996094 -3.113281 -4.546875 -3.296875 -3.832031 C -3.539062 -2.863281 -3.75 -2.195312 -3.929688 -1.820312 C -4.109375 -1.445312 -4.355469 -1.164062 -4.667969 -0.96875 C -4.984375 -0.777344 -5.332031 -0.679688 -5.710938 -0.679688 C -6.058594 -0.679688 -6.378906 -0.761719 -6.675781 -0.917969 C -6.972656 -1.078125 -7.214844 -1.292969 -7.414062 -1.566406 C -7.5625 -1.773438 -7.691406 -2.050781 -7.796875 -2.40625 C -7.902344 -2.761719 -7.953125 -3.140625 -7.953125 -3.546875 C -7.953125 -4.15625 -7.867188 -4.691406 -7.691406 -5.152344 C -7.515625 -5.613281 -7.277344 -5.953125 -6.976562 -6.175781 C -6.675781 -6.394531 -6.273438 -6.546875 -5.773438 -6.628906 L -5.59375 -5.339844 C -5.996094 -5.28125 -6.308594 -5.109375 -6.53125 -4.832031 C -6.757812 -4.550781 -6.871094 -4.152344 -6.871094 -3.640625 C -6.871094 -3.035156 -6.769531 -2.601562 -6.570312 -2.34375 C -6.371094 -2.085938 -6.136719 -1.957031 -5.867188 -1.957031 C -5.695312 -1.957031 -5.542969 -2.007812 -5.40625 -2.117188 C -5.261719 -2.222656 -5.144531 -2.390625 -5.054688 -2.621094 C -5.003906 -2.753906 -4.890625 -3.140625 -4.71875 -3.785156 C -4.46875 -4.71875 -4.265625 -5.371094 -4.105469 -5.738281 C -3.945312 -6.105469 -3.714844 -6.394531 -3.414062 -6.605469 C -3.109375 -6.816406 -2.734375 -6.921875 -2.285156 -6.921875 C -1.84375 -6.921875 -1.433594 -6.792969 -1.042969 -6.535156 C -0.65625 -6.28125 -0.355469 -5.910156 -0.144531 -5.425781 C 0.0703125 -4.945312 0.175781 -4.398438 0.175781 -3.785156 C 0.175781 -2.777344 -0.0351562 -2.003906 -0.453125 -1.476562 C -0.875 -0.945312 -1.496094 -0.609375 -2.320312 -0.460938 Z M -2.320312 -0.460938 "/>
</g>
<g id="glyph-2-4">
<path d="M -3.222656 -0.476562 L -4.546875 -0.476562 L -4.546875 -4.527344 L -3.222656 -4.527344 Z M -3.222656 -0.476562 "/>
</g>
<g id="glyph-2-5">
<path d="M 0 -3.148438 L -7.777344 -0.191406 L -7.777344 -1.582031 L -3.121094 -3.25 C -2.617188 -3.433594 -2.09375 -3.597656 -1.550781 -3.75 C -1.960938 -3.867188 -2.457031 -4.03125 -3.03125 -4.242188 L -7.777344 -5.96875 L -7.777344 -7.324219 L 0 -4.378906 Z M 0 -3.148438 "/>
</g>
<g id="glyph-2-6">
<path d="M -0.960938 -6.0625 C -0.542969 -5.574219 -0.25 -5.105469 -0.0820312 -4.65625 C 0.0898438 -4.203125 0.175781 -3.71875 0.175781 -3.199219 C 0.175781 -2.347656 -0.03125 -1.6875 -0.449219 -1.230469 C -0.867188 -0.769531 -1.402344 -0.542969 -2.050781 -0.542969 C -2.429688 -0.542969 -2.78125 -0.628906 -3.09375 -0.800781 C -3.410156 -0.976562 -3.664062 -1.203125 -3.851562 -1.484375 C -4.042969 -1.765625 -4.1875 -2.082031 -4.285156 -2.433594 C -4.351562 -2.691406 -4.417969 -3.082031 -4.484375 -3.605469 C -4.609375 -4.667969 -4.761719 -5.453125 -4.9375 -5.953125 C -5.117188 -5.960938 -5.230469 -5.960938 -5.28125 -5.960938 C -5.816406 -5.960938 -6.195312 -5.835938 -6.414062 -5.589844 C -6.714844 -5.25 -6.863281 -4.75 -6.863281 -4.085938 C -6.863281 -3.464844 -6.753906 -3.007812 -6.535156 -2.714844 C -6.320312 -2.417969 -5.933594 -2.199219 -5.382812 -2.058594 L -5.558594 -0.769531 C -6.109375 -0.886719 -6.554688 -1.078125 -6.894531 -1.347656 C -7.234375 -1.617188 -7.496094 -2.003906 -7.679688 -2.511719 C -7.863281 -3.019531 -7.953125 -3.609375 -7.953125 -4.277344 C -7.953125 -4.941406 -7.875 -5.480469 -7.71875 -5.894531 C -7.5625 -6.3125 -7.367188 -6.617188 -7.128906 -6.8125 C -6.894531 -7.007812 -6.59375 -7.144531 -6.234375 -7.222656 C -6.007812 -7.265625 -5.601562 -7.289062 -5.015625 -7.289062 L -3.257812 -7.289062 C -2.035156 -7.289062 -1.257812 -7.316406 -0.933594 -7.371094 C -0.609375 -7.429688 -0.296875 -7.539062 0 -7.703125 L 0 -6.328125 C -0.273438 -6.191406 -0.59375 -6.101562 -0.960938 -6.0625 M -3.902344 -5.953125 C -3.707031 -5.476562 -3.542969 -4.757812 -3.40625 -3.800781 C -3.328125 -3.257812 -3.238281 -2.875 -3.140625 -2.652344 C -3.042969 -2.425781 -2.902344 -2.253906 -2.714844 -2.132812 C -2.527344 -2.007812 -2.316406 -1.949219 -2.085938 -1.949219 C -1.734375 -1.949219 -1.441406 -2.082031 -1.207031 -2.347656 C -0.972656 -2.613281 -0.855469 -3.003906 -0.855469 -3.515625 C -0.855469 -4.023438 -0.96875 -4.476562 -1.191406 -4.871094 C -1.414062 -5.265625 -1.714844 -5.554688 -2.101562 -5.742188 C -2.398438 -5.882812 -2.839844 -5.953125 -3.421875 -5.953125 Z M -3.902344 -5.953125 "/>
</g>
<g id="glyph-2-7">
<path d="M 0 -0.960938 L -10.738281 -0.960938 L -10.738281 -2.277344 L 0 -2.277344 Z M 0 -0.960938 "/>
</g>
<g id="glyph-2-8">
<path d="M -9.222656 -0.996094 L -10.738281 -0.996094 L -10.738281 -2.316406 L -9.222656 -2.316406 L -9.222656 -0.996094 M 0 -0.996094 L -7.777344 -0.996094 L -7.777344 -2.316406 L 0 -2.3125 Z M 0 -0.996094 "/>
</g>
<g id="glyph-2-9">
<path d="M 0 -6.035156 L -0.980469 -6.035156 C -0.210938 -5.542969 0.175781 -4.816406 0.175781 -3.859375 C 0.175781 -3.238281 0.00390625 -2.667969 -0.335938 -2.148438 C -0.679688 -1.628906 -1.15625 -1.226562 -1.769531 -0.941406 C -2.382812 -0.65625 -3.085938 -0.511719 -3.882812 -0.511719 C -4.65625 -0.511719 -5.363281 -0.640625 -5.996094 -0.902344 C -6.628906 -1.160156 -7.113281 -1.546875 -7.449219 -2.066406 C -7.785156 -2.582031 -7.953125 -3.160156 -7.953125 -3.800781 C -7.953125 -4.269531 -7.855469 -4.6875 -7.65625 -5.054688 C -7.460938 -5.421875 -7.203125 -5.71875 -6.882812 -5.945312 L -10.738281 -5.949219 L -10.738281 -7.257812 L 0 -7.257812 L 0 -6.035156 M -3.882812 -1.867188 C -2.886719 -1.867188 -2.140625 -2.078125 -1.648438 -2.496094 C -1.15625 -2.917969 -0.90625 -3.414062 -0.90625 -3.984375 C -0.90625 -4.558594 -1.144531 -5.050781 -1.613281 -5.453125 C -2.085938 -5.855469 -2.804688 -6.058594 -3.773438 -6.058594 C -4.835938 -6.058594 -5.617188 -5.851562 -6.117188 -5.441406 C -6.613281 -5.03125 -6.863281 -4.527344 -6.863281 -3.925781 C -6.863281 -3.339844 -6.625 -2.851562 -6.144531 -2.457031 C -5.667969 -2.0625 -4.910156 -1.867188 -3.882812 -1.867188 Z M -3.882812 -1.867188 "/>
</g>
<g id="glyph-2-10">
<path d="M -1.179688 -3.867188 L -0.015625 -4.058594 C 0.0625 -3.6875 0.101562 -3.355469 0.101562 -3.0625 C 0.101562 -2.582031 0.0273438 -2.210938 -0.125 -1.949219 C -0.277344 -1.683594 -0.476562 -1.5 -0.722656 -1.390625 C -0.96875 -1.285156 -1.488281 -1.230469 -2.277344 -1.230469 L -6.753906 -1.230469 L -6.753906 -0.265625 L -7.777344 -0.265625 L -7.777344 -1.230469 L -9.703125 -1.230469 L -10.496094 -2.542969 L -7.777344 -2.542969 L -7.777344 -3.867188 L -6.753906 -3.867188 L -6.753906 -2.542969 L -2.203125 -2.542969 C -1.828125 -2.542969 -1.585938 -2.566406 -1.480469 -2.609375 C -1.371094 -2.65625 -1.285156 -2.734375 -1.222656 -2.839844 C -1.160156 -2.941406 -1.128906 -3.09375 -1.128906 -3.289062 C -1.128906 -3.433594 -1.144531 -3.628906 -1.179688 -3.867188 Z M -1.179688 -3.867188 "/>
</g>
<g id="glyph-2-11">
<path d="M -2.503906 -6.3125 L -2.335938 -7.675781 C -1.539062 -7.460938 -0.921875 -7.0625 -0.484375 -6.480469 C -0.0429688 -5.902344 0.175781 -5.160156 0.175781 -4.253906 C 0.175781 -3.117188 -0.175781 -2.214844 -0.875 -1.550781 C -1.574219 -0.882812 -2.558594 -0.550781 -3.824219 -0.550781 C -5.132812 -0.550781 -6.148438 -0.886719 -6.871094 -1.558594 C -7.59375 -2.234375 -7.953125 -3.109375 -7.953125 -4.183594 C -7.953125 -5.222656 -7.601562 -6.070312 -6.890625 -6.730469 C -6.183594 -7.390625 -5.1875 -7.71875 -3.902344 -7.71875 C -3.824219 -7.71875 -3.707031 -7.71875 -3.550781 -7.710938 L -3.550781 -1.910156 C -2.699219 -1.960938 -2.042969 -2.203125 -1.589844 -2.636719 C -1.136719 -3.070312 -0.90625 -3.613281 -0.90625 -4.261719 C -0.90625 -4.746094 -1.035156 -5.160156 -1.289062 -5.5 C -1.542969 -5.84375 -1.949219 -6.113281 -2.503906 -6.3125 M -4.636719 -1.984375 L -4.636719 -6.328125 C -5.289062 -6.269531 -5.78125 -6.101562 -6.109375 -5.828125 C -6.617188 -5.410156 -6.871094 -4.867188 -6.871094 -4.195312 C -6.871094 -3.589844 -6.667969 -3.082031 -6.261719 -2.667969 C -5.855469 -2.257812 -5.316406 -2.027344 -4.636719 -1.984375 Z M -4.636719 -1.984375 "/>
</g>
<g id="glyph-2-12">
</g>
<g id="glyph-2-13">
<path d="M 0 0.0234375 L -10.738281 -4.101562 L -10.738281 -5.632812 L 0 -10.027344 L 0 -8.40625 L -3.25 -7.15625 L -3.25 -2.664062 L 0 -1.488281 L 0 0.0234375 M -4.410156 -3.078125 L -4.410156 -6.714844 L -7.382812 -5.597656 C -8.285156 -5.253906 -9.027344 -5 -9.609375 -4.835938 C -8.921875 -4.695312 -8.238281 -4.503906 -7.558594 -4.253906 Z M -4.410156 -3.078125 "/>
</g>
<g id="glyph-2-14">
<path d="M -10.738281 -8.203125 L -10.738281 -9.625 L -4.535156 -9.625 C -3.453125 -9.625 -2.597656 -9.5 -1.960938 -9.257812 C -1.328125 -9.011719 -0.8125 -8.574219 -0.414062 -7.9375 C -0.015625 -7.296875 0.183594 -6.460938 0.183594 -5.425781 C 0.183594 -4.421875 0.0078125 -3.597656 -0.335938 -2.960938 C -0.683594 -2.320312 -1.183594 -1.863281 -1.84375 -1.589844 C -2.5 -1.316406 -3.394531 -1.179688 -4.535156 -1.179688 L -10.738281 -1.179688 L -10.738281 -2.601562 L -4.539062 -2.601562 C -3.609375 -2.601562 -2.921875 -2.6875 -2.480469 -2.859375 C -2.039062 -3.035156 -1.695312 -3.332031 -1.457031 -3.753906 C -1.21875 -4.175781 -1.097656 -4.691406 -1.097656 -5.304688 C -1.097656 -6.347656 -1.335938 -7.09375 -1.808594 -7.535156 C -2.28125 -7.980469 -3.191406 -8.203125 -4.539062 -8.203125 Z M -10.738281 -8.203125 "/>
</g>
</g>
<clipPath id="clip-0">
<path clip-rule="nonzero" d="M 63.855469 206 L 527.253906 206 L 527.253906 208 L 63.855469 208 Z M 63.855469 206 "/>
</clipPath>
<clipPath id="clip-1">
<path clip-rule="nonzero" d="M 63.855469 160 L 527.253906 160 L 527.253906 163 L 63.855469 163 Z M 63.855469 160 "/>
</clipPath>
<clipPath id="clip-2">
<path clip-rule="nonzero" d="M 63.855469 114 L 527.253906 114 L 527.253906 117 L 63.855469 117 Z M 63.855469 114 "/>
</clipPath>
<clipPath id="clip-3">
<path clip-rule="nonzero" d="M 63.855469 69 L 527.253906 69 L 527.253906 71 L 63.855469 71 Z M 63.855469 69 "/>
</clipPath>
<clipPath id="clip-4">
<path clip-rule="nonzero" d="M 63.855469 23 L 527.253906 23 L 527.253906 26 L 63.855469 26 Z M 63.855469 23 "/>
</clipPath>
<clipPath id="clip-5">
<path clip-rule="nonzero" d="M 84 7.472656 L 86 7.472656 L 86 212.058594 L 84 212.058594 Z M 84 7.472656 "/>
</clipPath>
<clipPath id="clip-6">
<path clip-rule="nonzero" d="M 204 7.472656 L 207 7.472656 L 207 212.058594 L 204 212.058594 Z M 204 7.472656 "/>
</clipPath>
<clipPath id="clip-7">
<path clip-rule="nonzero" d="M 324 7.472656 L 327 7.472656 L 327 212.058594 L 324 212.058594 Z M 324 7.472656 "/>
</clipPath>
<clipPath id="clip-8">
<path clip-rule="nonzero" d="M 445 7.472656 L 447 7.472656 L 447 212.058594 L 445 212.058594 Z M 445 7.472656 "/>
</clipPath>
</defs>
<g clip-path="url(#clip-0)">
<path fill="none" stroke-width="1.45497" stroke-linecap="butt" stroke-linejoin="round" stroke="rgb(92.156863%, 92.156863%, 92.156863%)" stroke-opacity="1" stroke-miterlimit="10" d="M 63.855469 206.949219 L 527.253906 206.949219 "/>
</g>
<g clip-path="url(#clip-1)">
<path fill="none" stroke-width="1.45497" stroke-linecap="butt" stroke-linejoin="round" stroke="rgb(92.156863%, 92.156863%, 92.156863%)" stroke-opacity="1" stroke-miterlimit="10" d="M 63.855469 161.285156 L 527.253906 161.285156 "/>
</g>
<g clip-path="url(#clip-2)">
<path fill="none" stroke-width="1.45497" stroke-linecap="butt" stroke-linejoin="round" stroke="rgb(92.156863%, 92.156863%, 92.156863%)" stroke-opacity="1" stroke-miterlimit="10" d="M 63.855469 115.621094 L 527.253906 115.621094 "/>
</g>
<g clip-path="url(#clip-3)">
<path fill="none" stroke-width="1.45497" stroke-linecap="butt" stroke-linejoin="round" stroke="rgb(92.156863%, 92.156863%, 92.156863%)" stroke-opacity="1" stroke-miterlimit="10" d="M 63.855469 69.953125 L 527.253906 69.953125 "/>
</g>
<g clip-path="url(#clip-4)">
<path fill="none" stroke-width="1.45497" stroke-linecap="butt" stroke-linejoin="round" stroke="rgb(92.156863%, 92.156863%, 92.156863%)" stroke-opacity="1" stroke-miterlimit="10" d="M 63.855469 24.289062 L 527.253906 24.289062 "/>
</g>
<g clip-path="url(#clip-5)">
<path fill="none" stroke-width="1.45497" stroke-linecap="butt" stroke-linejoin="round" stroke="rgb(92.156863%, 92.156863%, 92.156863%)" stroke-opacity="1" stroke-miterlimit="10" d="M 84.917969 212.058594 L 84.917969 7.472656 "/>
</g>
<g clip-path="url(#clip-6)">
<path fill="none" stroke-width="1.45497" stroke-linecap="butt" stroke-linejoin="round" stroke="rgb(92.156863%, 92.156863%, 92.156863%)" stroke-opacity="1" stroke-miterlimit="10" d="M 205.28125 212.058594 L 205.28125 7.472656 "/>
</g>
<g clip-path="url(#clip-7)">
<path fill="none" stroke-width="1.45497" stroke-linecap="butt" stroke-linejoin="round" stroke="rgb(92.156863%, 92.156863%, 92.156863%)" stroke-opacity="1" stroke-miterlimit="10" d="M 325.644531 212.058594 L 325.644531 7.472656 "/>
</g>
<g clip-path="url(#clip-8)">
<path fill="none" stroke-width="1.45497" stroke-linecap="butt" stroke-linejoin="round" stroke="rgb(92.156863%, 92.156863%, 92.156863%)" stroke-opacity="1" stroke-miterlimit="10" d="M 446.007812 212.058594 L 446.007812 7.472656 "/>
</g>
<path fill="none" stroke-width="2.133957" stroke-linecap="butt" stroke-linejoin="round" stroke="rgb(72.54902%, 78.039216%, 83.921569%)" stroke-opacity="1" stroke-miterlimit="10" d="M 84.917969 96.308594 L 145.101562 81.085938 L 205.28125 58.148438 L 265.464844 49.414062 L 325.644531 48.5 L 385.828125 38.703125 L 446.007812 27.132812 L 506.191406 28.25 "/>
<path fill="none" stroke-width="2.133957" stroke-linecap="butt" stroke-linejoin="round" stroke="rgb(49.019608%, 59.215686%, 70.196078%)" stroke-opacity="1" stroke-miterlimit="10" d="M 84.917969 59.820312 L 145.101562 105.8125 L 205.28125 145.957031 L 265.464844 85.871094 L 325.644531 38.902344 L 385.828125 23.417969 L 446.007812 25.796875 L 506.191406 26.078125 "/>
<path fill="none" stroke-width="2.133957" stroke-linecap="butt" stroke-linejoin="round" stroke="rgb(11.372549%, 34.509804%, 54.901961%)" stroke-opacity="1" stroke-miterlimit="10" d="M 84.917969 82.007812 L 145.101562 180.363281 L 205.28125 130.011719 L 265.464844 151.203125 L 325.644531 27.175781 L 385.828125 21.164062 L 446.007812 22.167969 L 506.191406 26.078125 "/>
<path fill="none" stroke-width="2.133957" stroke-linecap="butt" stroke-linejoin="round" stroke="rgb(85.098039%, 65.098039%, 41.960784%)" stroke-opacity="1" stroke-miterlimit="10" d="M 84.917969 199.6875 L 145.101562 110.902344 L 205.28125 202.757812 L 265.464844 109 L 325.644531 17.863281 L 385.828125 16.769531 L 446.007812 21.269531 L 506.191406 27.714844 "/>
<path fill="none" stroke-width="2.133957" stroke-linecap="butt" stroke-linejoin="round" stroke="rgb(70.588235%, 46.27451%, 18.039216%)" stroke-opacity="1" stroke-miterlimit="10" d="M 84.917969 95.546875 L 145.101562 102.996094 L 205.28125 119.808594 L 265.464844 67.09375 L 325.644531 21.007812 L 385.828125 18.390625 L 446.007812 23.789062 L 506.191406 29.449219 "/>
<path fill-rule="nonzero" fill="rgb(72.54902%, 78.039216%, 83.921569%)" fill-opacity="1" stroke-width="0.966356" stroke-linecap="round" stroke-linejoin="round" stroke="rgb(72.54902%, 78.039216%, 83.921569%)" stroke-opacity="1" stroke-miterlimit="10" d="M 87.109375 96.308594 C 87.109375 99.230469 82.730469 99.230469 82.730469 96.308594 C 82.730469 93.386719 87.109375 93.386719 87.109375 96.308594 "/>
<path fill-rule="nonzero" fill="rgb(72.54902%, 78.039216%, 83.921569%)" fill-opacity="1" stroke-width="0.966356" stroke-linecap="round" stroke-linejoin="round" stroke="rgb(72.54902%, 78.039216%, 83.921569%)" stroke-opacity="1" stroke-miterlimit="10" d="M 147.292969 81.085938 C 147.292969 84.007812 142.910156 84.007812 142.910156 81.085938 C 142.910156 78.167969 147.292969 78.167969 147.292969 81.085938 "/>
<path fill-rule="nonzero" fill="rgb(72.54902%, 78.039216%, 83.921569%)" fill-opacity="1" stroke-width="0.966356" stroke-linecap="round" stroke-linejoin="round" stroke="rgb(72.54902%, 78.039216%, 83.921569%)" stroke-opacity="1" stroke-miterlimit="10" d="M 207.472656 58.148438 C 207.472656 61.070312 203.09375 61.070312 203.09375 58.148438 C 203.09375 55.226562 207.472656 55.226562 207.472656 58.148438 "/>
<path fill-rule="nonzero" fill="rgb(72.54902%, 78.039216%, 83.921569%)" fill-opacity="1" stroke-width="0.966356" stroke-linecap="round" stroke-linejoin="round" stroke="rgb(72.54902%, 78.039216%, 83.921569%)" stroke-opacity="1" stroke-miterlimit="10" d="M 267.65625 49.414062 C 267.65625 52.335938 263.273438 52.335938 263.273438 49.414062 C 263.273438 46.496094 267.65625 46.496094 267.65625 49.414062 "/>
<path fill-rule="nonzero" fill="rgb(72.54902%, 78.039216%, 83.921569%)" fill-opacity="1" stroke-width="0.966356" stroke-linecap="round" stroke-linejoin="round" stroke="rgb(72.54902%, 78.039216%, 83.921569%)" stroke-opacity="1" stroke-miterlimit="10" d="M 327.835938 48.5 C 327.835938 51.421875 323.457031 51.421875 323.457031 48.5 C 323.457031 45.578125 327.835938 45.578125 327.835938 48.5 "/>
<path fill-rule="nonzero" fill="rgb(72.54902%, 78.039216%, 83.921569%)" fill-opacity="1" stroke-width="0.966356" stroke-linecap="round" stroke-linejoin="round" stroke="rgb(72.54902%, 78.039216%, 83.921569%)" stroke-opacity="1" stroke-miterlimit="10" d="M 388.019531 38.703125 C 388.019531 41.621094 383.636719 41.621094 383.636719 38.703125 C 383.636719 35.78125 388.019531 35.78125 388.019531 38.703125 "/>
<path fill-rule="nonzero" fill="rgb(72.54902%, 78.039216%, 83.921569%)" fill-opacity="1" stroke-width="0.966356" stroke-linecap="round" stroke-linejoin="round" stroke="rgb(72.54902%, 78.039216%, 83.921569%)" stroke-opacity="1" stroke-miterlimit="10" d="M 448.199219 27.132812 C 448.199219 30.054688 443.820312 30.054688 443.820312 27.132812 C 443.820312 24.210938 448.199219 24.210938 448.199219 27.132812 "/>
<path fill-rule="nonzero" fill="rgb(72.54902%, 78.039216%, 83.921569%)" fill-opacity="1" stroke-width="0.966356" stroke-linecap="round" stroke-linejoin="round" stroke="rgb(72.54902%, 78.039216%, 83.921569%)" stroke-opacity="1" stroke-miterlimit="10" d="M 508.378906 28.25 C 508.378906 31.171875 504 31.171875 504 28.25 C 504 25.332031 508.378906 25.332031 508.378906 28.25 "/>
<path fill-rule="nonzero" fill="rgb(49.019608%, 59.215686%, 70.196078%)" fill-opacity="1" stroke-width="0.966356" stroke-linecap="round" stroke-linejoin="round" stroke="rgb(49.019608%, 59.215686%, 70.196078%)" stroke-opacity="1" stroke-miterlimit="10" d="M 87.109375 59.820312 C 87.109375 62.742188 82.730469 62.742188 82.730469 59.820312 C 82.730469 56.902344 87.109375 56.902344 87.109375 59.820312 "/>
<path fill-rule="nonzero" fill="rgb(49.019608%, 59.215686%, 70.196078%)" fill-opacity="1" stroke-width="0.966356" stroke-linecap="round" stroke-linejoin="round" stroke="rgb(49.019608%, 59.215686%, 70.196078%)" stroke-opacity="1" stroke-miterlimit="10" d="M 147.292969 105.8125 C 147.292969 108.734375 142.910156 108.734375 142.910156 105.8125 C 142.910156 102.890625 147.292969 102.890625 147.292969 105.8125 "/>
<path fill-rule="nonzero" fill="rgb(49.019608%, 59.215686%, 70.196078%)" fill-opacity="1" stroke-width="0.966356" stroke-linecap="round" stroke-linejoin="round" stroke="rgb(49.019608%, 59.215686%, 70.196078%)" stroke-opacity="1" stroke-miterlimit="10" d="M 207.472656 145.957031 C 207.472656 148.878906 203.09375 148.878906 203.09375 145.957031 C 203.09375 143.035156 207.472656 143.035156 207.472656 145.957031 "/>
<path fill-rule="nonzero" fill="rgb(49.019608%, 59.215686%, 70.196078%)" fill-opacity="1" stroke-width="0.966356" stroke-linecap="round" stroke-linejoin="round" stroke="rgb(49.019608%, 59.215686%, 70.196078%)" stroke-opacity="1" stroke-miterlimit="10" d="M 267.65625 85.871094 C 267.65625 88.792969 263.273438 88.792969 263.273438 85.871094 C 263.273438 82.953125 267.65625 82.953125 267.65625 85.871094 "/>
<path fill-rule="nonzero" fill="rgb(49.019608%, 59.215686%, 70.196078%)" fill-opacity="1" stroke-width="0.966356" stroke-linecap="round" stroke-linejoin="round" stroke="rgb(49.019608%, 59.215686%, 70.196078%)" stroke-opacity="1" stroke-miterlimit="10" d="M 327.835938 38.902344 C 327.835938 41.824219 323.457031 41.824219 323.457031 38.902344 C 323.457031 35.984375 327.835938 35.984375 327.835938 38.902344 "/>
<path fill-rule="nonzero" fill="rgb(49.019608%, 59.215686%, 70.196078%)" fill-opacity="1" stroke-width="0.966356" stroke-linecap="round" stroke-linejoin="round" stroke="rgb(49.019608%, 59.215686%, 70.196078%)" stroke-opacity="1" stroke-miterlimit="10" d="M 388.019531 23.417969 C 388.019531 26.339844 383.636719 26.339844 383.636719 23.417969 C 383.636719 20.496094 388.019531 20.496094 388.019531 23.417969 "/>
<path fill-rule="nonzero" fill="rgb(49.019608%, 59.215686%, 70.196078%)" fill-opacity="1" stroke-width="0.966356" stroke-linecap="round" stroke-linejoin="round" stroke="rgb(49.019608%, 59.215686%, 70.196078%)" stroke-opacity="1" stroke-miterlimit="10" d="M 448.199219 25.796875 C 448.199219 28.714844 443.820312 28.714844 443.820312 25.796875 C 443.820312 22.875 448.199219 22.875 448.199219 25.796875 "/>
<path fill-rule="nonzero" fill="rgb(49.019608%, 59.215686%, 70.196078%)" fill-opacity="1" stroke-width="0.966356" stroke-linecap="round" stroke-linejoin="round" stroke="rgb(49.019608%, 59.215686%, 70.196078%)" stroke-opacity="1" stroke-miterlimit="10" d="M 508.378906 26.078125 C 508.378906 28.996094 504 28.996094 504 26.078125 C 504 23.15625 508.378906 23.15625 508.378906 26.078125 "/>
<path fill-rule="nonzero" fill="rgb(11.372549%, 34.509804%, 54.901961%)" fill-opacity="1" stroke-width="0.966356" stroke-linecap="round" stroke-linejoin="round" stroke="rgb(11.372549%, 34.509804%, 54.901961%)" stroke-opacity="1" stroke-miterlimit="10" d="M 87.109375 82.007812 C 87.109375 84.925781 82.730469 84.925781 82.730469 82.007812 C 82.730469 79.085938 87.109375 79.085938 87.109375 82.007812 "/>
<path fill-rule="nonzero" fill="rgb(11.372549%, 34.509804%, 54.901961%)" fill-opacity="1" stroke-width="0.966356" stroke-linecap="round" stroke-linejoin="round" stroke="rgb(11.372549%, 34.509804%, 54.901961%)" stroke-opacity="1" stroke-miterlimit="10" d="M 147.292969 180.363281 C 147.292969 183.28125 142.910156 183.28125 142.910156 180.363281 C 142.910156 177.441406 147.292969 177.441406 147.292969 180.363281 "/>
<path fill-rule="nonzero" fill="rgb(11.372549%, 34.509804%, 54.901961%)" fill-opacity="1" stroke-width="0.966356" stroke-linecap="round" stroke-linejoin="round" stroke="rgb(11.372549%, 34.509804%, 54.901961%)" stroke-opacity="1" stroke-miterlimit="10" d="M 207.472656 130.011719 C 207.472656 132.933594 203.09375 132.933594 203.09375 130.011719 C 203.09375 127.09375 207.472656 127.09375 207.472656 130.011719 "/>
<path fill-rule="nonzero" fill="rgb(11.372549%, 34.509804%, 54.901961%)" fill-opacity="1" stroke-width="0.966356" stroke-linecap="round" stroke-linejoin="round" stroke="rgb(11.372549%, 34.509804%, 54.901961%)" stroke-opacity="1" stroke-miterlimit="10" d="M 267.65625 151.203125 C 267.65625 154.125 263.273438 154.125 263.273438 151.203125 C 263.273438 148.285156 267.65625 148.285156 267.65625 151.203125 "/>
<path fill-rule="nonzero" fill="rgb(11.372549%, 34.509804%, 54.901961%)" fill-opacity="1" stroke-width="0.966356" stroke-linecap="round" stroke-linejoin="round" stroke="rgb(11.372549%, 34.509804%, 54.901961%)" stroke-opacity="1" stroke-miterlimit="10" d="M 327.835938 27.175781 C 327.835938 30.097656 323.457031 30.097656 323.457031 27.175781 C 323.457031 24.257812 327.835938 24.257812 327.835938 27.175781 "/>
<path fill-rule="nonzero" fill="rgb(11.372549%, 34.509804%, 54.901961%)" fill-opacity="1" stroke-width="0.966356" stroke-linecap="round" stroke-linejoin="round" stroke="rgb(11.372549%, 34.509804%, 54.901961%)" stroke-opacity="1" stroke-miterlimit="10" d="M 388.019531 21.164062 C 388.019531 24.085938 383.636719 24.085938 383.636719 21.164062 C 383.636719 18.242188 388.019531 18.242188 388.019531 21.164062 "/>
<path fill-rule="nonzero" fill="rgb(11.372549%, 34.509804%, 54.901961%)" fill-opacity="1" stroke-width="0.966356" stroke-linecap="round" stroke-linejoin="round" stroke="rgb(11.372549%, 34.509804%, 54.901961%)" stroke-opacity="1" stroke-miterlimit="10" d="M 448.199219 22.167969 C 448.199219 25.089844 443.820312 25.089844 443.820312 22.167969 C 443.820312 19.246094 448.199219 19.246094 448.199219 22.167969 "/>
<path fill-rule="nonzero" fill="rgb(11.372549%, 34.509804%, 54.901961%)" fill-opacity="1" stroke-width="0.966356" stroke-linecap="round" stroke-linejoin="round" stroke="rgb(11.372549%, 34.509804%, 54.901961%)" stroke-opacity="1" stroke-miterlimit="10" d="M 508.378906 26.078125 C 508.378906 28.996094 504 28.996094 504 26.078125 C 504 23.15625 508.378906 23.15625 508.378906 26.078125 "/>
<path fill-rule="nonzero" fill="rgb(85.098039%, 65.098039%, 41.960784%)" fill-opacity="1" stroke-width="0.966356" stroke-linecap="round" stroke-linejoin="round" stroke="rgb(85.098039%, 65.098039%, 41.960784%)" stroke-opacity="1" stroke-miterlimit="10" d="M 87.109375 199.6875 C 87.109375 202.605469 82.730469 202.605469 82.730469 199.6875 C 82.730469 196.765625 87.109375 196.765625 87.109375 199.6875 "/>
<path fill-rule="nonzero" fill="rgb(85.098039%, 65.098039%, 41.960784%)" fill-opacity="1" stroke-width="0.966356" stroke-linecap="round" stroke-linejoin="round" stroke="rgb(85.098039%, 65.098039%, 41.960784%)" stroke-opacity="1" stroke-miterlimit="10" d="M 147.292969 110.902344 C 147.292969 113.820312 142.910156 113.820312 142.910156 110.902344 C 142.910156 107.980469 147.292969 107.980469 147.292969 110.902344 "/>
<path fill-rule="nonzero" fill="rgb(85.098039%, 65.098039%, 41.960784%)" fill-opacity="1" stroke-width="0.966356" stroke-linecap="round" stroke-linejoin="round" stroke="rgb(85.098039%, 65.098039%, 41.960784%)" stroke-opacity="1" stroke-miterlimit="10" d="M 207.472656 202.757812 C 207.472656 205.679688 203.09375 205.679688 203.09375 202.757812 C 203.09375 199.839844 207.472656 199.839844 207.472656 202.757812 "/>
<path fill-rule="nonzero" fill="rgb(85.098039%, 65.098039%, 41.960784%)" fill-opacity="1" stroke-width="0.966356" stroke-linecap="round" stroke-linejoin="round" stroke="rgb(85.098039%, 65.098039%, 41.960784%)" stroke-opacity="1" stroke-miterlimit="10" d="M 267.65625 109 C 267.65625 111.917969 263.273438 111.917969 263.273438 109 C 263.273438 106.078125 267.65625 106.078125 267.65625 109 "/>
<path fill-rule="nonzero" fill="rgb(85.098039%, 65.098039%, 41.960784%)" fill-opacity="1" stroke-width="0.966356" stroke-linecap="round" stroke-linejoin="round" stroke="rgb(85.098039%, 65.098039%, 41.960784%)" stroke-opacity="1" stroke-miterlimit="10" d="M 327.835938 17.863281 C 327.835938 20.785156 323.457031 20.785156 323.457031 17.863281 C 323.457031 14.941406 327.835938 14.941406 327.835938 17.863281 "/>
<path fill-rule="nonzero" fill="rgb(85.098039%, 65.098039%, 41.960784%)" fill-opacity="1" stroke-width="0.966356" stroke-linecap="round" stroke-linejoin="round" stroke="rgb(85.098039%, 65.098039%, 41.960784%)" stroke-opacity="1" stroke-miterlimit="10" d="M 388.019531 16.769531 C 388.019531 19.691406 383.636719 19.691406 383.636719 16.769531 C 383.636719 13.851562 388.019531 13.851562 388.019531 16.769531 "/>
<path fill-rule="nonzero" fill="rgb(85.098039%, 65.098039%, 41.960784%)" fill-opacity="1" stroke-width="0.966356" stroke-linecap="round" stroke-linejoin="round" stroke="rgb(85.098039%, 65.098039%, 41.960784%)" stroke-opacity="1" stroke-miterlimit="10" d="M 448.199219 21.269531 C 448.199219 24.191406 443.820312 24.191406 443.820312 21.269531 C 443.820312 18.347656 448.199219 18.347656 448.199219 21.269531 "/>
<path fill-rule="nonzero" fill="rgb(85.098039%, 65.098039%, 41.960784%)" fill-opacity="1" stroke-width="0.966356" stroke-linecap="round" stroke-linejoin="round" stroke="rgb(85.098039%, 65.098039%, 41.960784%)" stroke-opacity="1" stroke-miterlimit="10" d="M 508.378906 27.714844 C 508.378906 30.636719 504 30.636719 504 27.714844 C 504 24.792969 508.378906 24.792969 508.378906 27.714844 "/>
<path fill-rule="nonzero" fill="rgb(70.588235%, 46.27451%, 18.039216%)" fill-opacity="1" stroke-width="0.966356" stroke-linecap="round" stroke-linejoin="round" stroke="rgb(70.588235%, 46.27451%, 18.039216%)" stroke-opacity="1" stroke-miterlimit="10" d="M 87.109375 95.546875 C 87.109375 98.46875 82.730469 98.46875 82.730469 95.546875 C 82.730469 92.625 87.109375 92.625 87.109375 95.546875 "/>
<path fill-rule="nonzero" fill="rgb(70.588235%, 46.27451%, 18.039216%)" fill-opacity="1" stroke-width="0.966356" stroke-linecap="round" stroke-linejoin="round" stroke="rgb(70.588235%, 46.27451%, 18.039216%)" stroke-opacity="1" stroke-miterlimit="10" d="M 147.292969 102.996094 C 147.292969 105.914062 142.910156 105.914062 142.910156 102.996094 C 142.910156 100.074219 147.292969 100.074219 147.292969 102.996094 "/>
<path fill-rule="nonzero" fill="rgb(70.588235%, 46.27451%, 18.039216%)" fill-opacity="1" stroke-width="0.966356" stroke-linecap="round" stroke-linejoin="round" stroke="rgb(70.588235%, 46.27451%, 18.039216%)" stroke-opacity="1" stroke-miterlimit="10" d="M 207.472656 119.808594 C 207.472656 122.730469 203.09375 122.730469 203.09375 119.808594 C 203.09375 116.890625 207.472656 116.890625 207.472656 119.808594 "/>
<path fill-rule="nonzero" fill="rgb(70.588235%, 46.27451%, 18.039216%)" fill-opacity="1" stroke-width="0.966356" stroke-linecap="round" stroke-linejoin="round" stroke="rgb(70.588235%, 46.27451%, 18.039216%)" stroke-opacity="1" stroke-miterlimit="10" d="M 267.65625 67.09375 C 267.65625 70.015625 263.273438 70.015625 263.273438 67.09375 C 263.273438 64.171875 267.65625 64.171875 267.65625 67.09375 "/>
<path fill-rule="nonzero" fill="rgb(70.588235%, 46.27451%, 18.039216%)" fill-opacity="1" stroke-width="0.966356" stroke-linecap="round" stroke-linejoin="round" stroke="rgb(70.588235%, 46.27451%, 18.039216%)" stroke-opacity="1" stroke-miterlimit="10" d="M 327.835938 21.007812 C 327.835938 23.925781 323.457031 23.925781 323.457031 21.007812 C 323.457031 18.085938 327.835938 18.085938 327.835938 21.007812 "/>
<path fill-rule="nonzero" fill="rgb(70.588235%, 46.27451%, 18.039216%)" fill-opacity="1" stroke-width="0.966356" stroke-linecap="round" stroke-linejoin="round" stroke="rgb(70.588235%, 46.27451%, 18.039216%)" stroke-opacity="1" stroke-miterlimit="10" d="M 388.019531 18.390625 C 388.019531 21.3125 383.636719 21.3125 383.636719 18.390625 C 383.636719 15.472656 388.019531 15.472656 388.019531 18.390625 "/>
<path fill-rule="nonzero" fill="rgb(70.588235%, 46.27451%, 18.039216%)" fill-opacity="1" stroke-width="0.966356" stroke-linecap="round" stroke-linejoin="round" stroke="rgb(70.588235%, 46.27451%, 18.039216%)" stroke-opacity="1" stroke-miterlimit="10" d="M 448.199219 23.789062 C 448.199219 26.707031 443.820312 26.707031 443.820312 23.789062 C 443.820312 20.867188 448.199219 20.867188 448.199219 23.789062 "/>
<path fill-rule="nonzero" fill="rgb(70.588235%, 46.27451%, 18.039216%)" fill-opacity="1" stroke-width="0.966356" stroke-linecap="round" stroke-linejoin="round" stroke="rgb(70.588235%, 46.27451%, 18.039216%)" stroke-opacity="1" stroke-miterlimit="10" d="M 508.378906 29.449219 C 508.378906 32.371094 504 32.371094 504 29.449219 C 504 26.527344 508.378906 26.527344 508.378906 29.449219 "/>
<g fill="rgb(30.196078%, 30.196078%, 30.196078%)" fill-opacity="1">
<use xlink:href="#glyph-0-0" x="27.101562" y="211.742188"/>
<use xlink:href="#glyph-0-1" x="33.775391" y="211.742188"/>
<use xlink:href="#glyph-0-2" x="37.109375" y="211.742188"/>
<use xlink:href="#glyph-0-0" x="43.783203" y="211.742188"/>
<use xlink:href="#glyph-0-0" x="50.457031" y="211.742188"/>
</g>
<g fill="rgb(30.196078%, 30.196078%, 30.196078%)" fill-opacity="1">
<use xlink:href="#glyph-0-0" x="27.101562" y="166.078125"/>
<use xlink:href="#glyph-0-1" x="33.775391" y="166.078125"/>
<use xlink:href="#glyph-0-2" x="37.109375" y="166.078125"/>
<use xlink:href="#glyph-0-3" x="43.783203" y="166.078125"/>
<use xlink:href="#glyph-0-4" x="50.457031" y="166.078125"/>
</g>
<g fill="rgb(30.196078%, 30.196078%, 30.196078%)" fill-opacity="1">
<use xlink:href="#glyph-0-0" x="27.101562" y="120.414062"/>
<use xlink:href="#glyph-0-1" x="33.775391" y="120.414062"/>
<use xlink:href="#glyph-0-2" x="37.109375" y="120.414062"/>
<use xlink:href="#glyph-0-4" x="43.783203" y="120.414062"/>
<use xlink:href="#glyph-0-0" x="50.457031" y="120.414062"/>
</g>
<g fill="rgb(30.196078%, 30.196078%, 30.196078%)" fill-opacity="1">
<use xlink:href="#glyph-0-0" x="27.101562" y="74.75"/>
<use xlink:href="#glyph-0-1" x="33.775391" y="74.75"/>
<use xlink:href="#glyph-0-2" x="37.109375" y="74.75"/>
<use xlink:href="#glyph-0-2" x="43.783203" y="74.75"/>
<use xlink:href="#glyph-0-4" x="50.457031" y="74.75"/>
</g>
<g fill="rgb(30.196078%, 30.196078%, 30.196078%)" fill-opacity="1">
<use xlink:href="#glyph-0-0" x="27.101562" y="29.085938"/>
<use xlink:href="#glyph-0-1" x="33.775391" y="29.085938"/>
<use xlink:href="#glyph-0-5" x="37.109375" y="29.085938"/>
<use xlink:href="#glyph-0-0" x="43.783203" y="29.085938"/>
<use xlink:href="#glyph-0-0" x="50.457031" y="29.085938"/>
</g>
<g fill="rgb(30.196078%, 30.196078%, 30.196078%)" fill-opacity="1">
<use xlink:href="#glyph-0-0" x="73.238281" y="228.371094"/>
<use xlink:href="#glyph-0-1" x="79.912109" y="228.371094"/>
<use xlink:href="#glyph-0-0" x="83.246094" y="228.371094"/>
<use xlink:href="#glyph-0-6" x="89.919922" y="228.371094"/>
</g>
<g fill="rgb(30.196078%, 30.196078%, 30.196078%)" fill-opacity="1">
<use xlink:href="#glyph-0-0" x="193.601562" y="228.371094"/>
<use xlink:href="#glyph-0-1" x="200.275391" y="228.371094"/>
<use xlink:href="#glyph-0-6" x="203.609375" y="228.371094"/>
<use xlink:href="#glyph-0-0" x="210.283203" y="228.371094"/>
</g>
<g fill="rgb(30.196078%, 30.196078%, 30.196078%)" fill-opacity="1">
<use xlink:href="#glyph-0-6" x="313.964844" y="228.371094"/>
<use xlink:href="#glyph-0-1" x="320.638672" y="228.371094"/>
<use xlink:href="#glyph-0-0" x="323.972656" y="228.371094"/>
<use xlink:href="#glyph-0-0" x="330.646484" y="228.371094"/>
</g>
<g fill="rgb(30.196078%, 30.196078%, 30.196078%)" fill-opacity="1">
<use xlink:href="#glyph-0-6" x="430.992188" y="228.371094"/>
<use xlink:href="#glyph-0-0" x="437.666016" y="228.371094"/>
<use xlink:href="#glyph-0-1" x="444.339844" y="228.371094"/>
<use xlink:href="#glyph-0-0" x="447.673828" y="228.371094"/>
<use xlink:href="#glyph-0-0" x="454.347656" y="228.371094"/>
</g>
<g fill="rgb(27.45098%, 34.509804%, 42.745098%)" fill-opacity="1">
<use xlink:href="#glyph-1-0" x="213.4375" y="247.371094"/>
<use xlink:href="#glyph-1-1" x="227.595215" y="247.371094"/>
<use xlink:href="#glyph-1-2" x="235.9375" y="247.371094"/>
<use xlink:href="#glyph-1-3" x="239.27002" y="247.371094"/>
<use xlink:href="#glyph-1-4" x="247.612305" y="247.371094"/>
<use xlink:href="#glyph-1-5" x="255.95459" y="247.371094"/>
<use xlink:href="#glyph-1-6" x="260.12207" y="247.371094"/>
<use xlink:href="#glyph-1-7" x="264.289551" y="247.371094"/>
<use xlink:href="#glyph-1-1" x="272.631836" y="247.371094"/>
<use xlink:href="#glyph-1-8" x="280.974121" y="247.371094"/>
<use xlink:href="#glyph-1-9" x="288.474121" y="247.371094"/>
<use xlink:href="#glyph-1-10" x="296.816406" y="247.371094"/>
<use xlink:href="#glyph-1-6" x="304.316406" y="247.371094"/>
<use xlink:href="#glyph-1-11" x="308.483887" y="247.371094"/>
<use xlink:href="#glyph-1-12" x="313.479004" y="247.371094"/>
<use xlink:href="#glyph-1-13" x="316.811523" y="247.371094"/>
<use xlink:href="#glyph-1-3" x="325.153809" y="247.371094"/>
<use xlink:href="#glyph-1-6" x="333.496094" y="247.371094"/>
<use xlink:href="#glyph-1-14" x="337.663574" y="247.371094"/>
<use xlink:href="#glyph-1-8" x="345.163574" y="247.371094"/>
<use xlink:href="#glyph-1-9" x="352.663574" y="247.371094"/>
<use xlink:href="#glyph-1-12" x="361.005859" y="247.371094"/>
<use xlink:href="#glyph-1-1" x="364.338379" y="247.371094"/>
<use xlink:href="#glyph-1-15" x="372.680664" y="247.371094"/>
</g>
<g fill="rgb(27.45098%, 34.509804%, 42.745098%)" fill-opacity="1">
<use xlink:href="#glyph-2-0" x="19.210938" y="179.789062"/>
<use xlink:href="#glyph-2-1" x="19.210938" y="168.956543"/>
<use xlink:href="#glyph-2-2" x="19.210938" y="163.961426"/>
<use xlink:href="#glyph-2-3" x="19.210938" y="155.619141"/>
<use xlink:href="#glyph-2-3" x="19.210938" y="148.119141"/>
<use xlink:href="#glyph-2-4" x="19.210938" y="140.619141"/>
<use xlink:href="#glyph-2-5" x="19.210938" y="135.624023"/>
<use xlink:href="#glyph-2-6" x="19.210938" y="128.124023"/>
<use xlink:href="#glyph-2-7" x="19.210938" y="119.781738"/>
<use xlink:href="#glyph-2-8" x="19.210938" y="116.449219"/>
<use xlink:href="#glyph-2-9" x="19.210938" y="113.116699"/>
<use xlink:href="#glyph-2-6" x="19.210938" y="104.774414"/>
<use xlink:href="#glyph-2-10" x="19.210938" y="96.432129"/>
<use xlink:href="#glyph-2-11" x="19.210938" y="92.264648"/>
<use xlink:href="#glyph-2-9" x="19.210938" y="83.922363"/>
<use xlink:href="#glyph-2-12" x="19.210938" y="75.580078"/>
<use xlink:href="#glyph-2-13" x="19.210938" y="71.412598"/>
<use xlink:href="#glyph-2-14" x="19.210938" y="61.407715"/>
<use xlink:href="#glyph-2-0" x="19.210938" y="50.575195"/>
</g>
<g fill="rgb(0%, 0%, 0%)" fill-opacity="1">
<use xlink:href="#glyph-1-16" x="549.667969" y="68.699219"/>
<use xlink:href="#glyph-1-2" x="560.500488" y="68.699219"/>
<use xlink:href="#glyph-1-7" x="563.833008" y="68.699219"/>
<use xlink:href="#glyph-1-7" x="572.175293" y="68.699219"/>
<use xlink:href="#glyph-1-1" x="580.517578" y="68.699219"/>
<use xlink:href="#glyph-1-17" x="588.859863" y="68.699219"/>
<use xlink:href="#glyph-1-6" x="597.202148" y="68.699219"/>
<use xlink:href="#glyph-1-18" x="601.369629" y="68.699219"/>
<use xlink:href="#glyph-1-17" x="609.711914" y="68.699219"/>
<use xlink:href="#glyph-1-2" x="618.054199" y="68.699219"/>
<use xlink:href="#glyph-1-5" x="621.386719" y="68.699219"/>
<use xlink:href="#glyph-1-14" x="625.554199" y="68.699219"/>
</g>
<path fill="none" stroke-width="2.133957" stroke-linecap="butt" stroke-linejoin="round" stroke="rgb(72.54902%, 78.039216%, 83.921569%)" stroke-opacity="1" stroke-miterlimit="10" d="M 551.398438 86.886719 L 565.222656 86.886719 "/>
<path fill-rule="nonzero" fill="rgb(72.54902%, 78.039216%, 83.921569%)" fill-opacity="1" stroke-width="0.966356" stroke-linecap="round" stroke-linejoin="round" stroke="rgb(72.54902%, 78.039216%, 83.921569%)" stroke-opacity="1" stroke-miterlimit="10" d="M 560.5 86.886719 C 560.5 89.808594 556.121094 89.808594 556.121094 86.886719 C 556.121094 83.96875 560.5 83.96875 560.5 86.886719 "/>
<path fill="none" stroke-width="2.133957" stroke-linecap="butt" stroke-linejoin="round" stroke="rgb(49.019608%, 59.215686%, 70.196078%)" stroke-opacity="1" stroke-miterlimit="10" d="M 551.398438 104.167969 L 565.222656 104.167969 "/>
<path fill-rule="nonzero" fill="rgb(49.019608%, 59.215686%, 70.196078%)" fill-opacity="1" stroke-width="0.966356" stroke-linecap="round" stroke-linejoin="round" stroke="rgb(49.019608%, 59.215686%, 70.196078%)" stroke-opacity="1" stroke-miterlimit="10" d="M 560.5 104.167969 C 560.5 107.089844 556.121094 107.089844 556.121094 104.167969 C 556.121094 101.246094 560.5 101.246094 560.5 104.167969 "/>
<path fill="none" stroke-width="2.133957" stroke-linecap="butt" stroke-linejoin="round" stroke="rgb(11.372549%, 34.509804%, 54.901961%)" stroke-opacity="1" stroke-miterlimit="10" d="M 551.398438 121.449219 L 565.222656 121.449219 "/>
<path fill-rule="nonzero" fill="rgb(11.372549%, 34.509804%, 54.901961%)" fill-opacity="1" stroke-width="0.966356" stroke-linecap="round" stroke-linejoin="round" stroke="rgb(11.372549%, 34.509804%, 54.901961%)" stroke-opacity="1" stroke-miterlimit="10" d="M 560.5 121.449219 C 560.5 124.367188 556.121094 124.367188 556.121094 121.449219 C 556.121094 118.527344 560.5 118.527344 560.5 121.449219 "/>
<path fill="none" stroke-width="2.133957" stroke-linecap="butt" stroke-linejoin="round" stroke="rgb(85.098039%, 65.098039%, 41.960784%)" stroke-opacity="1" stroke-miterlimit="10" d="M 551.398438 138.726562 L 565.222656 138.726562 "/>
<path fill-rule="nonzero" fill="rgb(85.098039%, 65.098039%, 41.960784%)" fill-opacity="1" stroke-width="0.966356" stroke-linecap="round" stroke-linejoin="round" stroke="rgb(85.098039%, 65.098039%, 41.960784%)" stroke-opacity="1" stroke-miterlimit="10" d="M 560.5 138.726562 C 560.5 141.648438 556.121094 141.648438 556.121094 138.726562 C 556.121094 135.808594 560.5 135.808594 560.5 138.726562 "/>
<path fill="none" stroke-width="2.133957" stroke-linecap="butt" stroke-linejoin="round" stroke="rgb(70.588235%, 46.27451%, 18.039216%)" stroke-opacity="1" stroke-miterlimit="10" d="M 551.398438 156.007812 L 565.222656 156.007812 "/>
<path fill-rule="nonzero" fill="rgb(70.588235%, 46.27451%, 18.039216%)" fill-opacity="1" stroke-width="0.966356" stroke-linecap="round" stroke-linejoin="round" stroke="rgb(70.588235%, 46.27451%, 18.039216%)" stroke-opacity="1" stroke-miterlimit="10" d="M 560.5 156.007812 C 560.5 158.929688 556.121094 158.929688 556.121094 156.007812 C 556.121094 153.085938 560.5 153.085938 560.5 156.007812 "/>
<g fill="rgb(0%, 0%, 0%)" fill-opacity="1">
<use xlink:href="#glyph-0-6" x="574.421875" y="91.683594"/>
</g>
<g fill="rgb(0%, 0%, 0%)" fill-opacity="1">
<use xlink:href="#glyph-0-7" x="574.421875" y="108.964844"/>
</g>
<g fill="rgb(0%, 0%, 0%)" fill-opacity="1">
<use xlink:href="#glyph-0-4" x="574.421875" y="126.242188"/>
</g>
<g fill="rgb(0%, 0%, 0%)" fill-opacity="1">
<use xlink:href="#glyph-0-6" x="574.421875" y="143.523438"/>
<use xlink:href="#glyph-0-0" x="581.095703" y="143.523438"/>
</g>
<g fill="rgb(0%, 0%, 0%)" fill-opacity="1">
<use xlink:href="#glyph-0-3" x="574.421875" y="160.804688"/>
<use xlink:href="#glyph-0-0" x="581.095703" y="160.804688"/>
</g>
</svg>
