<?xml version="1.0" encoding="UTF-8"?>
<svg xmlns="http://www.w3.org/2000/svg" xmlns:xlink="http://www.w3.org/1999/xlink" width="576" height="259" viewBox="0 0 576 259">
<defs>
<g>
<g id="glyph-0-0">
<path d="M 0.382812 -2.578125 L 0.382812 -3.640625 L 3.621094 -3.640625 L 3.621094 -2.578125 Z M 0.382812 -2.578125 "/>
</g>
<g id="glyph-0-1">
<path d="M 0.5 -4.234375 C 0.5 -5.25 0.601562 -6.070312 0.8125 -6.6875 C 1.019531 -7.308594 1.332031 -7.785156 1.742188 -8.121094 C 2.15625 -8.457031 2.671875 -8.625 3.296875 -8.625 C 3.757812 -8.625 4.164062 -8.53125 4.511719 -8.347656 C 4.859375 -8.160156 5.144531 -7.894531 5.375 -7.542969 C 5.597656 -7.195312 5.777344 -6.769531 5.90625 -6.265625 C 6.035156 -5.765625 6.101562 -5.085938 6.101562 -4.234375 C 6.101562 -3.226562 5.996094 -2.414062 5.789062 -1.796875 C 5.582031 -1.175781 5.273438 -0.699219 4.859375 -0.359375 C 4.449219 -0.0234375 3.925781 0.148438 3.296875 0.148438 C 2.46875 0.148438 1.820312 -0.152344 1.347656 -0.742188 C 0.78125 -1.460938 0.5 -2.621094 0.5 -4.234375 M 1.582031 -4.234375 C 1.582031 -2.824219 1.746094 -1.886719 2.078125 -1.421875 C 2.40625 -0.953125 2.8125 -0.71875 3.296875 -0.71875 C 3.78125 -0.71875 4.191406 -0.953125 4.519531 -1.421875 C 4.851562 -1.890625 5.015625 -2.828125 5.015625 -4.234375 C 5.015625 -5.648438 4.851562 -6.589844 4.519531 -7.054688 C 4.191406 -7.519531 3.78125 -7.75 3.289062 -7.75 C 2.800781 -7.75 2.414062 -7.546875 2.125 -7.136719 C 1.765625 -6.613281 1.582031 -5.644531 1.582031 -4.234375 Z M 1.582031 -4.234375 "/>
</g>
<g id="glyph-0-2">
<path d="M 1.089844 0 L 1.089844 -1.203125 L 2.289062 -1.203125 L 2.289062 0 Z M 1.089844 0 "/>
</g>
<g id="glyph-0-3">
<path d="M 0.5 -2.25 L 1.605469 -2.34375 C 1.6875 -1.804688 1.878906 -1.398438 2.175781 -1.128906 C 2.476562 -0.855469 2.835938 -0.71875 3.257812 -0.71875 C 3.765625 -0.71875 4.195312 -0.910156 4.546875 -1.296875 C 4.898438 -1.675781 5.074219 -2.1875 5.074219 -2.820312 C 5.074219 -3.417969 4.90625 -3.894531 4.566406 -4.242188 C 4.230469 -4.589844 3.785156 -4.761719 3.242188 -4.765625 C 2.898438 -4.761719 2.59375 -4.6875 2.320312 -4.53125 C 2.046875 -4.378906 1.832031 -4.179688 1.675781 -3.929688 L 0.6875 -4.0625 L 1.515625 -8.472656 L 5.789062 -8.472656 L 5.789062 -7.464844 L 2.359375 -7.464844 L 1.898438 -5.15625 C 2.414062 -5.515625 2.953125 -5.695312 3.523438 -5.695312 C 4.273438 -5.695312 4.90625 -5.433594 5.421875 -4.914062 C 5.9375 -4.394531 6.195312 -3.726562 6.195312 -2.914062 C 6.195312 -2.132812 5.964844 -1.460938 5.515625 -0.898438 C 4.960938 -0.203125 4.210938 0.148438 3.257812 0.148438 C 2.476562 0.148438 1.839844 -0.0742188 1.34375 -0.507812 C 0.851562 -0.945312 0.570312 -1.527344 0.5 -2.25 Z M 0.5 -2.25 "/>
</g>
<g id="glyph-0-4">
<path d="M 4.46875 0 L 3.414062 0 L 3.414062 -6.71875 C 3.160156 -6.476562 2.828125 -6.234375 2.417969 -5.992188 C 2.003906 -5.75 1.632812 -5.570312 1.304688 -5.449219 L 1.304688 -6.46875 C 1.894531 -6.746094 2.410156 -7.082031 2.851562 -7.476562 C 3.292969 -7.871094 3.605469 -8.253906 3.789062 -8.625 L 4.46875 -8.625 Z M 4.46875 0 "/>
</g>
<g id="glyph-0-5">
<path d="M 0.597656 0.515625 L 1.625 0.667969 C 1.664062 0.984375 1.785156 1.214844 1.980469 1.359375 C 2.242188 1.554688 2.597656 1.652344 3.054688 1.652344 C 3.539062 1.652344 3.917969 1.554688 4.183594 1.359375 C 4.449219 1.164062 4.628906 0.890625 4.722656 0.539062 C 4.777344 0.324219 4.800781 -0.128906 4.796875 -0.8125 C 4.335938 -0.273438 3.761719 0 3.078125 0 C 2.21875 0 1.558594 -0.308594 1.089844 -0.925781 C 0.621094 -1.542969 0.386719 -2.28125 0.386719 -3.148438 C 0.386719 -3.738281 0.492188 -4.289062 0.710938 -4.789062 C 0.921875 -5.292969 1.234375 -5.679688 1.644531 -5.953125 C 2.050781 -6.226562 2.53125 -6.363281 3.082031 -6.363281 C 3.816406 -6.363281 4.421875 -6.066406 4.898438 -5.472656 L 4.898438 -6.222656 L 5.871094 -6.222656 L 5.871094 -0.84375 C 5.871094 0.125 5.773438 0.8125 5.574219 1.214844 C 5.378906 1.621094 5.066406 1.9375 4.636719 2.171875 C 4.210938 2.40625 3.683594 2.523438 3.058594 2.523438 C 2.316406 2.523438 1.71875 2.359375 1.257812 2.023438 C 0.804688 1.691406 0.582031 1.1875 0.597656 0.515625 M 1.46875 -3.222656 C 1.46875 -2.40625 1.632812 -1.8125 1.957031 -1.4375 C 2.28125 -1.0625 2.6875 -0.875 3.175781 -0.875 C 3.660156 -0.875 4.066406 -1.058594 4.394531 -1.433594 C 4.722656 -1.804688 4.886719 -2.390625 4.886719 -3.1875 C 4.886719 -3.949219 4.71875 -4.523438 4.378906 -4.910156 C 4.042969 -5.296875 3.632812 -5.492188 3.15625 -5.492188 C 2.6875 -5.492188 2.289062 -5.300781 1.960938 -4.917969 C 1.632812 -4.539062 1.46875 -3.972656 1.46875 -3.222656 Z M 1.46875 -3.222656 "/>
</g>
<g id="glyph-0-6">
<path d="M 0.789062 2.382812 L 0.789062 -6.222656 L 1.75 -6.222656 L 1.75 -5.414062 C 1.976562 -5.730469 2.234375 -5.96875 2.519531 -6.125 C 2.804688 -6.285156 3.148438 -6.363281 3.554688 -6.363281 C 4.085938 -6.363281 4.554688 -6.226562 4.960938 -5.953125 C 5.367188 -5.679688 5.675781 -5.292969 5.882812 -4.796875 C 6.089844 -4.296875 6.195312 -3.75 6.195312 -3.15625 C 6.195312 -2.519531 6.078125 -1.949219 5.851562 -1.4375 C 5.621094 -0.929688 5.289062 -0.539062 4.855469 -0.265625 C 4.417969 0.00390625 3.960938 0.140625 3.480469 0.140625 C 3.128906 0.140625 2.8125 0.0664062 2.535156 -0.0820312 C 2.253906 -0.230469 2.023438 -0.417969 1.84375 -0.644531 L 1.84375 2.382812 L 0.789062 2.382812 M 1.746094 -3.078125 C 1.746094 -2.273438 1.90625 -1.683594 2.234375 -1.300781 C 2.554688 -0.917969 2.949219 -0.726562 3.410156 -0.726562 C 3.878906 -0.726562 4.28125 -0.925781 4.613281 -1.320312 C 4.949219 -1.71875 5.113281 -2.332031 5.117188 -3.164062 C 5.113281 -3.957031 4.953125 -4.550781 4.625 -4.945312 C 4.300781 -5.339844 3.910156 -5.535156 3.457031 -5.539062 C 3.007812 -5.535156 2.609375 -5.328125 2.265625 -4.90625 C 1.917969 -4.488281 1.746094 -3.875 1.746094 -3.078125 Z M 1.746094 -3.078125 "/>
</g>
<g id="glyph-0-7">
<path d="M 4.851562 -0.765625 C 4.460938 -0.433594 4.085938 -0.199219 3.722656 -0.0625 C 3.363281 0.0703125 2.972656 0.140625 2.5625 0.140625 C 1.875 0.140625 1.351562 -0.0273438 0.984375 -0.359375 C 0.617188 -0.695312 0.433594 -1.121094 0.433594 -1.640625 C 0.433594 -1.945312 0.503906 -2.222656 0.640625 -2.476562 C 0.78125 -2.726562 0.960938 -2.929688 1.1875 -3.082031 C 1.410156 -3.234375 1.664062 -3.347656 1.945312 -3.429688 C 2.152344 -3.480469 2.464844 -3.535156 2.882812 -3.585938 C 3.734375 -3.6875 4.359375 -3.808594 4.765625 -3.949219 C 4.765625 -4.09375 4.769531 -4.183594 4.769531 -4.226562 C 4.769531 -4.652344 4.671875 -4.957031 4.46875 -5.132812 C 4.203125 -5.371094 3.800781 -5.492188 3.269531 -5.492188 C 2.773438 -5.492188 2.40625 -5.402344 2.171875 -5.230469 C 1.933594 -5.054688 1.757812 -4.746094 1.648438 -4.304688 L 0.617188 -4.445312 C 0.707031 -4.886719 0.863281 -5.246094 1.078125 -5.515625 C 1.292969 -5.789062 1.601562 -5.996094 2.007812 -6.144531 C 2.414062 -6.289062 2.886719 -6.363281 3.421875 -6.363281 C 3.953125 -6.363281 4.382812 -6.300781 4.71875 -6.175781 C 5.046875 -6.050781 5.292969 -5.894531 5.449219 -5.703125 C 5.605469 -5.515625 5.714844 -5.273438 5.777344 -4.984375 C 5.8125 -4.804688 5.828125 -4.484375 5.828125 -4.015625 L 5.828125 -2.609375 C 5.828125 -1.628906 5.851562 -1.007812 5.898438 -0.746094 C 5.941406 -0.488281 6.03125 -0.238281 6.164062 0 L 5.0625 0 C 4.953125 -0.21875 4.882812 -0.476562 4.851562 -0.765625 M 4.765625 -3.125 C 4.378906 -2.964844 3.804688 -2.832031 3.039062 -2.726562 C 2.605469 -2.660156 2.300781 -2.589844 2.121094 -2.515625 C 1.941406 -2.433594 1.800781 -2.320312 1.703125 -2.171875 C 1.605469 -2.019531 1.558594 -1.851562 1.558594 -1.671875 C 1.558594 -1.386719 1.664062 -1.152344 1.878906 -0.96875 C 2.089844 -0.78125 2.402344 -0.683594 2.8125 -0.6875 C 3.21875 -0.683594 3.578125 -0.773438 3.898438 -0.953125 C 4.210938 -1.128906 4.445312 -1.371094 4.59375 -1.679688 C 4.707031 -1.917969 4.761719 -2.269531 4.765625 -2.734375 Z M 4.765625 -3.125 "/>
</g>
<g id="glyph-0-8">
<path d="M -0.179688 2.382812 L -0.179688 1.625 L 6.808594 1.625 L 6.808594 2.382812 Z M -0.179688 2.382812 "/>
</g>
<g id="glyph-0-9">
<path d="M 0.367188 -1.859375 L 1.414062 -2.023438 C 1.46875 -1.601562 1.632812 -1.28125 1.902344 -1.0625 C 2.167969 -0.835938 2.542969 -0.726562 3.023438 -0.726562 C 3.507812 -0.726562 3.867188 -0.824219 4.101562 -1.023438 C 4.335938 -1.21875 4.453125 -1.449219 4.453125 -1.71875 C 4.453125 -1.953125 4.347656 -2.140625 4.140625 -2.28125 C 3.996094 -2.375 3.640625 -2.492188 3.0625 -2.636719 C 2.289062 -2.832031 1.753906 -3 1.457031 -3.144531 C 1.15625 -3.285156 0.929688 -3.484375 0.777344 -3.734375 C 0.621094 -3.988281 0.546875 -4.265625 0.546875 -4.570312 C 0.546875 -4.847656 0.609375 -5.105469 0.734375 -5.339844 C 0.863281 -5.578125 1.035156 -5.773438 1.253906 -5.929688 C 1.417969 -6.050781 1.640625 -6.152344 1.925781 -6.238281 C 2.207031 -6.320312 2.511719 -6.363281 2.835938 -6.363281 C 3.324219 -6.363281 3.753906 -6.292969 4.121094 -6.152344 C 4.492188 -6.011719 4.761719 -5.820312 4.9375 -5.582031 C 5.113281 -5.339844 5.234375 -5.019531 5.304688 -4.617188 L 4.273438 -4.476562 C 4.226562 -4.796875 4.089844 -5.046875 3.863281 -5.226562 C 3.640625 -5.40625 3.320312 -5.496094 2.914062 -5.496094 C 2.425781 -5.496094 2.082031 -5.414062 1.875 -5.257812 C 1.667969 -5.09375 1.5625 -4.90625 1.5625 -4.695312 C 1.5625 -4.554688 1.605469 -4.433594 1.695312 -4.324219 C 1.777344 -4.210938 1.914062 -4.117188 2.097656 -4.042969 C 2.203125 -4.003906 2.515625 -3.914062 3.03125 -3.773438 C 3.773438 -3.574219 4.296875 -3.410156 4.589844 -3.285156 C 4.886719 -3.15625 5.117188 -2.972656 5.285156 -2.730469 C 5.453125 -2.488281 5.535156 -2.1875 5.539062 -1.828125 C 5.535156 -1.476562 5.433594 -1.144531 5.230469 -0.835938 C 5.023438 -0.523438 4.726562 -0.285156 4.34375 -0.113281 C 3.953125 0.0546875 3.515625 0.140625 3.03125 0.140625 C 2.21875 0.140625 1.605469 -0.0273438 1.179688 -0.363281 C 0.757812 -0.699219 0.484375 -1.199219 0.367188 -1.859375 Z M 0.367188 -1.859375 "/>
</g>
<g id="glyph-0-10">
<path d="M 6.039062 -1.015625 L 6.039062 0 L 0.363281 0 C 0.355469 -0.253906 0.394531 -0.5 0.484375 -0.734375 C 0.628906 -1.117188 0.863281 -1.5 1.179688 -1.875 C 1.5 -2.25 1.957031 -2.683594 2.5625 -3.175781 C 3.492188 -3.941406 4.125 -4.546875 4.453125 -4.996094 C 4.78125 -5.441406 4.945312 -5.867188 4.945312 -6.265625 C 4.945312 -6.679688 4.796875 -7.035156 4.496094 -7.320312 C 4.199219 -7.609375 3.808594 -7.75 3.328125 -7.75 C 2.820312 -7.75 2.414062 -7.601562 2.109375 -7.296875 C 1.804688 -6.992188 1.648438 -6.570312 1.648438 -6.03125 L 0.5625 -6.140625 C 0.636719 -6.949219 0.917969 -7.566406 1.398438 -7.988281 C 1.882812 -8.414062 2.535156 -8.625 3.351562 -8.625 C 4.175781 -8.625 4.828125 -8.398438 5.308594 -7.9375 C 5.789062 -7.484375 6.03125 -6.914062 6.03125 -6.242188 C 6.03125 -5.894531 5.957031 -5.558594 5.820312 -5.226562 C 5.675781 -4.894531 5.445312 -4.542969 5.117188 -4.179688 C 4.792969 -3.808594 4.25 -3.304688 3.492188 -2.664062 C 2.859375 -2.132812 2.453125 -1.773438 2.273438 -1.585938 C 2.09375 -1.394531 1.945312 -1.203125 1.828125 -1.015625 Z M 6.039062 -1.015625 "/>
</g>
<g id="glyph-1-0">
<path d="M 1.15625 0 L 1.15625 -10.738281 L 5.207031 -10.738281 C 5.921875 -10.738281 6.464844 -10.703125 6.839844 -10.632812 C 7.367188 -10.546875 7.808594 -10.378906 8.167969 -10.132812 C 8.523438 -9.886719 8.808594 -9.539062 9.027344 -9.097656 C 9.246094 -8.652344 9.351562 -8.164062 9.351562 -7.632812 C 9.351562 -6.71875 9.0625 -5.945312 8.480469 -5.3125 C 7.898438 -4.679688 6.851562 -4.367188 5.332031 -4.367188 L 2.578125 -4.367188 L 2.578125 0 L 1.15625 0 M 2.578125 -5.632812 L 5.355469 -5.632812 C 6.273438 -5.632812 6.921875 -5.804688 7.308594 -6.144531 C 7.695312 -6.488281 7.886719 -6.96875 7.886719 -7.585938 C 7.886719 -8.035156 7.773438 -8.421875 7.546875 -8.742188 C 7.320312 -9.0625 7.019531 -9.273438 6.648438 -9.375 C 6.410156 -9.4375 5.96875 -9.46875 5.324219 -9.46875 L 2.578125 -9.46875 Z M 2.578125 -5.632812 "/>
</g>
<g id="glyph-1-1">
<path d="M 6.3125 -2.503906 L 7.675781 -2.335938 C 7.460938 -1.539062 7.0625 -0.921875 6.480469 -0.484375 C 5.902344 -0.0429688 5.160156 0.175781 4.253906 0.175781 C 3.117188 0.175781 2.214844 -0.175781 1.550781 -0.875 C 0.882812 -1.574219 0.550781 -2.558594 0.550781 -3.824219 C 0.550781 -5.132812 0.886719 -6.148438 1.558594 -6.871094 C 2.234375 -7.59375 3.109375 -7.953125 4.183594 -7.953125 C 5.222656 -7.953125 6.070312 -7.601562 6.730469 -6.890625 C 7.390625 -6.183594 7.71875 -5.1875 7.71875 -3.902344 C 7.71875 -3.824219 7.71875 -3.707031 7.710938 -3.550781 L 1.910156 -3.550781 C 1.960938 -2.699219 2.203125 -2.042969 2.636719 -1.589844 C 3.070312 -1.136719 3.613281 -0.90625 4.261719 -0.90625 C 4.746094 -0.90625 5.160156 -1.035156 5.5 -1.289062 C 5.84375 -1.542969 6.113281 -1.949219 6.3125 -2.503906 M 1.984375 -4.636719 L 6.328125 -4.636719 C 6.269531 -5.289062 6.101562 -5.78125 5.828125 -6.109375 C 5.410156 -6.617188 4.867188 -6.871094 4.195312 -6.871094 C 3.589844 -6.871094 3.082031 -6.667969 2.667969 -6.261719 C 2.257812 -5.855469 2.027344 -5.316406 1.984375 -4.636719 Z M 1.984375 -4.636719 "/>
</g>
<g id="glyph-1-2">
<path d="M 0.988281 0 L 0.988281 -7.777344 L 2.175781 -7.777344 L 2.175781 -6.671875 C 2.746094 -7.527344 3.570312 -7.953125 4.652344 -7.953125 C 5.121094 -7.953125 5.550781 -7.871094 5.945312 -7.703125 C 6.335938 -7.53125 6.628906 -7.3125 6.828125 -7.039062 C 7.019531 -6.765625 7.15625 -6.441406 7.234375 -6.0625 C 7.285156 -5.820312 7.308594 -5.394531 7.308594 -4.78125 L 7.308594 0 L 5.992188 0 L 5.992188 -4.730469 C 5.992188 -5.269531 5.941406 -5.671875 5.835938 -5.9375 C 5.734375 -6.203125 5.554688 -6.414062 5.292969 -6.574219 C 5.03125 -6.730469 4.722656 -6.8125 4.371094 -6.8125 C 3.8125 -6.8125 3.328125 -6.632812 2.917969 -6.277344 C 2.511719 -5.921875 2.308594 -5.242188 2.308594 -4.25 L 2.308594 0 Z M 0.988281 0 "/>
</g>
<g id="glyph-1-3">
<path d="M 6.0625 -0.960938 C 5.574219 -0.542969 5.105469 -0.25 4.65625 -0.0820312 C 4.203125 0.0898438 3.71875 0.175781 3.199219 0.175781 C 2.347656 0.175781 1.6875 -0.03125 1.230469 -0.449219 C 0.769531 -0.867188 0.542969 -1.402344 0.542969 -2.050781 C 0.542969 -2.429688 0.628906 -2.78125 0.800781 -3.09375 C 0.976562 -3.410156 1.203125 -3.664062 1.484375 -3.851562 C 1.765625 -4.042969 2.078125 -4.1875 2.429688 -4.285156 C 2.691406 -4.351562 3.082031 -4.417969 3.601562 -4.484375 C 4.667969 -4.609375 5.453125 -4.761719 5.953125 -4.9375 C 5.960938 -5.117188 5.960938 -5.230469 5.960938 -5.28125 C 5.960938 -5.816406 5.835938 -6.195312 5.589844 -6.414062 C 5.25 -6.714844 4.75 -6.863281 4.085938 -6.863281 C 3.464844 -6.863281 3.007812 -6.753906 2.714844 -6.535156 C 2.417969 -6.320312 2.199219 -5.933594 2.058594 -5.382812 L 0.769531 -5.558594 C 0.886719 -6.109375 1.078125 -6.554688 1.347656 -6.894531 C 1.617188 -7.234375 2.003906 -7.496094 2.511719 -7.679688 C 3.019531 -7.863281 3.609375 -7.953125 4.277344 -7.953125 C 4.941406 -7.953125 5.480469 -7.875 5.894531 -7.71875 C 6.3125 -7.5625 6.617188 -7.367188 6.8125 -7.128906 C 7.007812 -6.894531 7.144531 -6.59375 7.222656 -6.234375 C 7.265625 -6.007812 7.289062 -5.601562 7.289062 -5.015625 L 7.289062 -3.257812 C 7.289062 -2.035156 7.316406 -1.257812 7.371094 -0.933594 C 7.429688 -0.609375 7.539062 -0.296875 7.703125 0 L 6.328125 0 C 6.191406 -0.273438 6.101562 -0.59375 6.0625 -0.960938 M 5.953125 -3.902344 C 5.476562 -3.707031 4.757812 -3.542969 3.800781 -3.40625 C 3.257812 -3.328125 2.875 -3.238281 2.652344 -3.140625 C 2.425781 -3.042969 2.253906 -2.902344 2.132812 -2.714844 C 2.007812 -2.527344 1.949219 -2.316406 1.949219 -2.085938 C 1.949219 -1.734375 2.082031 -1.441406 2.347656 -1.207031 C 2.613281 -0.972656 3.003906 -0.855469 3.515625 -0.855469 C 4.023438 -0.855469 4.476562 -0.96875 4.871094 -1.191406 C 5.265625 -1.414062 5.554688 -1.714844 5.742188 -2.101562 C 5.882812 -2.398438 5.953125 -2.839844 5.953125 -3.421875 Z M 5.953125 -3.902344 "/>
</g>
<g id="glyph-1-4">
<path d="M 0.960938 0 L 0.960938 -10.738281 L 2.277344 -10.738281 L 2.277344 0 Z M 0.960938 0 "/>
</g>
<g id="glyph-1-5">
<path d="M 3.867188 -1.179688 L 4.058594 -0.015625 C 3.6875 0.0625 3.355469 0.101562 3.0625 0.101562 C 2.582031 0.101562 2.210938 0.0273438 1.949219 -0.125 C 1.683594 -0.277344 1.5 -0.476562 1.390625 -0.722656 C 1.285156 -0.96875 1.230469 -1.488281 1.230469 -2.277344 L 1.230469 -6.753906 L 0.265625 -6.753906 L 0.265625 -7.777344 L 1.230469 -7.777344 L 1.230469 -9.703125 L 2.542969 -10.496094 L 2.542969 -7.777344 L 3.867188 -7.777344 L 3.867188 -6.753906 L 2.542969 -6.753906 L 2.542969 -2.203125 C 2.542969 -1.828125 2.566406 -1.585938 2.609375 -1.480469 C 2.65625 -1.371094 2.734375 -1.285156 2.839844 -1.222656 C 2.941406 -1.160156 3.09375 -1.128906 3.289062 -1.128906 C 3.433594 -1.128906 3.628906 -1.144531 3.867188 -1.179688 Z M 3.867188 -1.179688 "/>
</g>
<g id="glyph-1-6">
<path d="M 0.929688 2.996094 L 0.785156 1.757812 C 1.070312 1.835938 1.324219 1.875 1.539062 1.875 C 1.832031 1.875 2.066406 1.824219 2.242188 1.726562 C 2.417969 1.628906 2.5625 1.492188 2.671875 1.320312 C 2.757812 1.1875 2.890625 0.859375 3.078125 0.335938 C 3.101562 0.265625 3.140625 0.15625 3.195312 0.015625 L 0.242188 -7.777344 L 1.664062 -7.777344 L 3.28125 -3.273438 C 3.492188 -2.703125 3.679688 -2.101562 3.84375 -1.472656 C 3.996094 -2.078125 4.175781 -2.667969 4.386719 -3.246094 L 6.050781 -7.777344 L 7.367188 -7.777344 L 4.410156 0.132812 C 4.089844 0.984375 3.84375 1.574219 3.667969 1.898438 C 3.433594 2.332031 3.167969 2.648438 2.863281 2.851562 C 2.5625 3.054688 2.199219 3.15625 1.78125 3.15625 C 1.527344 3.15625 1.242188 3.101562 0.929688 2.996094 Z M 0.929688 2.996094 "/>
</g>
<g id="glyph-1-7">
</g>
<g id="glyph-1-8">
<path d="M 3.507812 3.15625 C 2.78125 2.238281 2.164062 1.164062 1.664062 -0.0664062 C 1.160156 -1.296875 0.90625 -2.570312 0.90625 -3.890625 C 0.90625 -5.050781 1.097656 -6.164062 1.472656 -7.230469 C 1.910156 -8.464844 2.589844 -9.695312 3.507812 -10.921875 L 4.453125 -10.921875 C 3.863281 -9.90625 3.472656 -9.179688 3.28125 -8.746094 C 2.984375 -8.070312 2.75 -7.367188 2.578125 -6.636719 C 2.367188 -5.722656 2.261719 -4.804688 2.261719 -3.882812 C 2.261719 -1.535156 2.992188 0.8125 4.453125 3.15625 Z M 3.507812 3.15625 "/>
</g>
<g id="glyph-1-9">
<path d="M 6.035156 0 L 6.035156 -0.980469 C 5.542969 -0.210938 4.816406 0.175781 3.859375 0.175781 C 3.238281 0.175781 2.667969 0.00390625 2.148438 -0.335938 C 1.628906 -0.679688 1.226562 -1.15625 0.941406 -1.769531 C 0.65625 -2.382812 0.511719 -3.085938 0.511719 -3.882812 C 0.511719 -4.65625 0.640625 -5.363281 0.902344 -5.996094 C 1.160156 -6.628906 1.546875 -7.113281 2.066406 -7.449219 C 2.582031 -7.785156 3.160156 -7.953125 3.800781 -7.953125 C 4.269531 -7.953125 4.6875 -7.855469 5.054688 -7.65625 C 5.421875 -7.460938 5.71875 -7.203125 5.945312 -6.882812 L 5.945312 -10.738281 L 7.257812 -10.738281 L 7.257812 0 L 6.035156 0 M 1.867188 -3.882812 C 1.867188 -2.886719 2.078125 -2.140625 2.496094 -1.648438 C 2.917969 -1.15625 3.414062 -0.90625 3.984375 -0.90625 C 4.558594 -0.90625 5.050781 -1.144531 5.453125 -1.613281 C 5.855469 -2.085938 6.058594 -2.804688 6.058594 -3.773438 C 6.058594 -4.835938 5.851562 -5.617188 5.441406 -6.117188 C 5.03125 -6.613281 4.527344 -6.863281 3.925781 -6.863281 C 3.339844 -6.863281 2.851562 -6.625 2.457031 -6.144531 C 2.0625 -5.667969 1.867188 -4.910156 1.867188 -3.882812 Z M 1.867188 -3.882812 "/>
</g>
<g id="glyph-1-10">
<path d="M 6.0625 -2.847656 L 7.359375 -2.679688 C 7.21875 -1.789062 6.855469 -1.085938 6.273438 -0.582031 C 5.691406 -0.078125 4.972656 0.175781 4.125 0.175781 C 3.058594 0.175781 2.203125 -0.171875 1.554688 -0.867188 C 0.910156 -1.5625 0.585938 -2.5625 0.585938 -3.859375 C 0.585938 -4.699219 0.726562 -5.433594 1.003906 -6.0625 C 1.28125 -6.695312 1.707031 -7.167969 2.273438 -7.480469 C 2.84375 -7.796875 3.460938 -7.953125 4.132812 -7.953125 C 4.976562 -7.953125 5.667969 -7.742188 6.203125 -7.3125 C 6.742188 -6.886719 7.085938 -6.277344 7.234375 -5.492188 L 5.953125 -5.296875 C 5.832031 -5.816406 5.617188 -6.210938 5.304688 -6.476562 C 4.996094 -6.738281 4.621094 -6.871094 4.183594 -6.871094 C 3.519531 -6.871094 2.976562 -6.632812 2.5625 -6.15625 C 2.148438 -5.679688 1.941406 -4.925781 1.941406 -3.898438 C 1.941406 -2.851562 2.140625 -2.09375 2.542969 -1.617188 C 2.941406 -1.144531 3.464844 -0.90625 4.109375 -0.90625 C 4.625 -0.90625 5.058594 -1.066406 5.40625 -1.382812 C 5.75 -1.703125 5.972656 -2.191406 6.0625 -2.847656 Z M 6.0625 -2.847656 "/>
</g>
<g id="glyph-1-11">
<path d="M 0.972656 0 L 0.972656 -7.777344 L 2.160156 -7.777344 L 2.160156 -6.597656 C 2.464844 -7.152344 2.742188 -7.515625 3 -7.691406 C 3.253906 -7.867188 3.539062 -7.953125 3.84375 -7.953125 C 4.289062 -7.953125 4.742188 -7.8125 5.199219 -7.53125 L 4.746094 -6.304688 C 4.421875 -6.496094 4.101562 -6.589844 3.78125 -6.59375 C 3.492188 -6.589844 3.230469 -6.503906 3.003906 -6.332031 C 2.773438 -6.160156 2.609375 -5.917969 2.511719 -5.609375 C 2.367188 -5.140625 2.292969 -4.628906 2.292969 -4.070312 L 2.292969 0 Z M 0.972656 0 "/>
</g>
<g id="glyph-1-12">
<path d="M 0.460938 -2.320312 L 1.765625 -2.527344 C 1.839844 -2.003906 2.042969 -1.605469 2.375 -1.324219 C 2.710938 -1.046875 3.179688 -0.90625 3.78125 -0.90625 C 4.382812 -0.90625 4.835938 -1.03125 5.125 -1.277344 C 5.421875 -1.523438 5.566406 -1.8125 5.566406 -2.144531 C 5.566406 -2.445312 5.4375 -2.679688 5.179688 -2.847656 C 4.996094 -2.964844 4.546875 -3.113281 3.832031 -3.296875 C 2.863281 -3.539062 2.195312 -3.75 1.820312 -3.929688 C 1.445312 -4.109375 1.164062 -4.355469 0.96875 -4.667969 C 0.777344 -4.984375 0.679688 -5.332031 0.679688 -5.710938 C 0.679688 -6.058594 0.761719 -6.378906 0.917969 -6.675781 C 1.078125 -6.972656 1.292969 -7.214844 1.566406 -7.414062 C 1.773438 -7.5625 2.050781 -7.691406 2.40625 -7.796875 C 2.761719 -7.902344 3.140625 -7.953125 3.546875 -7.953125 C 4.15625 -7.953125 4.691406 -7.867188 5.152344 -7.691406 C 5.613281 -7.515625 5.953125 -7.277344 6.175781 -6.976562 C 6.394531 -6.675781 6.546875 -6.273438 6.628906 -5.773438 L 5.339844 -5.59375 C 5.28125 -5.996094 5.109375 -6.308594 4.832031 -6.53125 C 4.550781 -6.757812 4.152344 -6.871094 3.640625 -6.871094 C 3.035156 -6.871094 2.601562 -6.769531 2.34375 -6.570312 C 2.085938 -6.371094 1.957031 -6.136719 1.957031 -5.867188 C 1.957031 -5.695312 2.007812 -5.542969 2.117188 -5.40625 C 2.222656 -5.261719 2.390625 -5.144531 2.621094 -5.054688 C 2.753906 -5.003906 3.140625 -4.890625 3.785156 -4.71875 C 4.71875 -4.46875 5.371094 -4.265625 5.738281 -4.105469 C 6.105469 -3.945312 6.394531 -3.714844 6.605469 -3.414062 C 6.816406 -3.109375 6.921875 -2.734375 6.921875 -2.285156 C 6.921875 -1.84375 6.792969 -1.433594 6.535156 -1.042969 C 6.28125 -0.65625 5.910156 -0.355469 5.425781 -0.144531 C 4.945312 0.0703125 4.398438 0.175781 3.785156 0.175781 C 2.777344 0.175781 2.003906 -0.0351562 1.476562 -0.453125 C 0.945312 -0.875 0.609375 -1.496094 0.460938 -2.320312 Z M 0.460938 -2.320312 "/>
</g>
<g id="glyph-1-13">
<path d="M 0.996094 -9.222656 L 0.996094 -10.738281 L 2.3125 -10.738281 L 2.3125 -9.222656 L 0.996094 -9.222656 M 0.996094 0 L 0.996094 -7.777344 L 2.3125 -7.777344 L 2.3125 0 Z M 0.996094 0 "/>
</g>
<g id="glyph-1-14">
<path d="M 0.746094 0.644531 L 2.027344 0.835938 C 2.082031 1.230469 2.230469 1.519531 2.476562 1.699219 C 2.800781 1.941406 3.25 2.066406 3.816406 2.066406 C 4.425781 2.066406 4.898438 1.941406 5.230469 1.699219 C 5.5625 1.453125 5.785156 1.113281 5.902344 0.671875 C 5.972656 0.40625 6.003906 -0.160156 6 -1.019531 C 5.421875 -0.339844 4.703125 0 3.84375 0 C 2.777344 0 1.949219 -0.386719 1.363281 -1.15625 C 0.777344 -1.929688 0.484375 -2.855469 0.484375 -3.933594 C 0.484375 -4.675781 0.617188 -5.359375 0.886719 -5.988281 C 1.15625 -6.613281 1.542969 -7.097656 2.054688 -7.441406 C 2.566406 -7.78125 3.164062 -7.953125 3.851562 -7.953125 C 4.769531 -7.953125 5.527344 -7.582031 6.125 -6.839844 L 6.125 -7.777344 L 7.339844 -7.777344 L 7.339844 -1.054688 C 7.339844 0.15625 7.214844 1.015625 6.96875 1.519531 C 6.722656 2.023438 6.332031 2.425781 5.796875 2.71875 C 5.261719 3.011719 4.605469 3.15625 3.824219 3.15625 C 2.894531 3.15625 2.144531 2.949219 1.574219 2.53125 C 1.003906 2.113281 0.726562 1.484375 0.746094 0.644531 M 1.839844 -4.027344 C 1.839844 -3.007812 2.039062 -2.261719 2.445312 -1.792969 C 2.851562 -1.324219 3.359375 -1.089844 3.96875 -1.089844 C 4.574219 -1.089844 5.082031 -1.324219 5.492188 -1.789062 C 5.902344 -2.257812 6.109375 -2.988281 6.109375 -3.984375 C 6.109375 -4.9375 5.898438 -5.65625 5.476562 -6.136719 C 5.050781 -6.621094 4.542969 -6.863281 3.949219 -6.863281 C 3.363281 -6.863281 2.863281 -6.625 2.453125 -6.148438 C 2.042969 -5.671875 1.839844 -4.964844 1.839844 -4.027344 Z M 1.839844 -4.027344 "/>
</g>
<g id="glyph-1-15">
<path d="M 1.851562 3.15625 L 0.90625 3.15625 C 2.367188 0.8125 3.097656 -1.535156 3.097656 -3.882812 C 3.097656 -4.800781 2.992188 -5.710938 2.78125 -6.613281 C 2.617188 -7.347656 2.386719 -8.050781 2.085938 -8.722656 C 1.898438 -9.164062 1.503906 -9.894531 0.90625 -10.921875 L 1.851562 -10.921875 C 2.769531 -9.695312 3.449219 -8.464844 3.890625 -7.230469 C 4.265625 -6.164062 4.453125 -5.050781 4.453125 -3.890625 C 4.453125 -2.570312 4.199219 -1.296875 3.695312 -0.0664062 C 3.191406 1.164062 2.574219 2.238281 1.851562 3.15625 Z M 1.851562 3.15625 "/>
</g>
<g id="glyph-2-0">
<path d="M -3.765625 -8.820312 L -3.40625 -10.238281 C -2.238281 -9.941406 -1.347656 -9.40625 -0.734375 -8.632812 C -0.125 -7.859375 0.183594 -6.910156 0.183594 -5.792969 C 0.183594 -4.636719 -0.0507812 -3.695312 -0.523438 -2.96875 C -0.996094 -2.246094 -1.675781 -1.691406 -2.570312 -1.316406 C -3.464844 -0.9375 -4.421875 -0.746094 -5.449219 -0.746094 C -6.566406 -0.746094 -7.542969 -0.960938 -8.375 -1.386719 C -9.207031 -1.816406 -9.839844 -2.421875 -10.273438 -3.210938 C -10.703125 -4 -10.921875 -4.867188 -10.921875 -5.816406 C -10.921875 -6.890625 -10.648438 -7.792969 -10.101562 -8.523438 C -9.554688 -9.257812 -8.785156 -9.769531 -7.792969 -10.054688 L -7.464844 -8.65625 C -8.246094 -8.40625 -8.8125 -8.046875 -9.171875 -7.574219 C -9.527344 -7.097656 -9.703125 -6.503906 -9.703125 -5.785156 C -9.703125 -4.960938 -9.507812 -4.269531 -9.109375 -3.71875 C -8.714844 -3.164062 -8.183594 -2.773438 -7.519531 -2.550781 C -6.851562 -2.324219 -6.164062 -2.210938 -5.457031 -2.210938 C -4.542969 -2.210938 -3.746094 -2.34375 -3.066406 -2.609375 C -2.382812 -2.878906 -1.875 -3.289062 -1.539062 -3.851562 C -1.199219 -4.414062 -1.03125 -5.023438 -1.03125 -5.675781 C -1.03125 -6.472656 -1.261719 -7.144531 -1.722656 -7.699219 C -2.179688 -8.25 -2.859375 -8.621094 -3.765625 -8.820312 Z M -3.765625 -8.820312 "/>
</g>
<g id="glyph-2-1">
<path d="M -3.890625 -0.5 C -5.328125 -0.5 -6.394531 -0.898438 -7.089844 -1.699219 C -7.664062 -2.367188 -7.953125 -3.183594 -7.953125 -4.144531 C -7.953125 -5.214844 -7.605469 -6.089844 -6.902344 -6.765625 C -6.203125 -7.445312 -5.234375 -7.785156 -4 -7.785156 C -2.996094 -7.785156 -2.210938 -7.636719 -1.636719 -7.335938 C -1.0625 -7.035156 -0.617188 -6.597656 -0.300781 -6.023438 C 0.015625 -5.449219 0.175781 -4.824219 0.175781 -4.144531 C 0.175781 -3.054688 -0.171875 -2.175781 -0.871094 -1.503906 C -1.570312 -0.832031 -2.574219 -0.5 -3.890625 -0.5 M -3.890625 -1.851562 C -2.894531 -1.851562 -2.148438 -2.070312 -1.652344 -2.503906 C -1.15625 -2.9375 -0.90625 -3.484375 -0.90625 -4.144531 C -0.90625 -4.800781 -1.15625 -5.34375 -1.65625 -5.777344 C -2.152344 -6.214844 -2.914062 -6.429688 -3.933594 -6.429688 C -4.894531 -6.429688 -5.625 -6.210938 -6.121094 -5.773438 C -6.613281 -5.339844 -6.863281 -4.792969 -6.863281 -4.144531 C -6.863281 -3.488281 -6.617188 -2.9375 -6.125 -2.503906 C -5.628906 -2.070312 -4.886719 -1.851562 -3.890625 -1.851562 Z M -3.890625 -1.851562 "/>
</g>
<g id="glyph-2-2">
<path d="M -2.503906 -6.3125 L -2.335938 -7.675781 C -1.539062 -7.460938 -0.921875 -7.0625 -0.484375 -6.480469 C -0.0429688 -5.902344 0.175781 -5.160156 0.175781 -4.253906 C 0.175781 -3.117188 -0.175781 -2.214844 -0.875 -1.550781 C -1.574219 -0.882812 -2.558594 -0.550781 -3.824219 -0.550781 C -5.132812 -0.550781 -6.148438 -0.886719 -6.871094 -1.558594 C -7.59375 -2.234375 -7.953125 -3.109375 -7.953125 -4.183594 C -7.953125 -5.222656 -7.601562 -6.070312 -6.890625 -6.730469 C -6.183594 -7.390625 -5.1875 -7.71875 -3.902344 -7.71875 C -3.824219 -7.71875 -3.707031 -7.71875 -3.550781 -7.710938 L -3.550781 -1.910156 C -2.699219 -1.960938 -2.042969 -2.203125 -1.589844 -2.636719 C -1.136719 -3.070312 -0.90625 -3.613281 -0.90625 -4.261719 C -0.90625 -4.746094 -1.035156 -5.160156 -1.289062 -5.5 C -1.542969 -5.84375 -1.949219 -6.113281 -2.503906 -6.3125 M -4.636719 -1.984375 L -4.636719 -6.328125 C -5.289062 -6.269531 -5.78125 -6.101562 -6.109375 -5.828125 C -6.617188 -5.410156 -6.871094 -4.867188 -6.871094 -4.195312 C -6.871094 -3.589844 -6.667969 -3.082031 -6.261719 -2.667969 C -5.855469 -2.257812 -5.316406 -2.027344 -4.636719 -1.984375 Z M -4.636719 -1.984375 "/>
</g>
<g id="glyph-2-3">
<path d="M 0 -1.304688 L -6.753906 -1.304688 L -6.753906 -0.140625 L -7.777344 -0.140625 L -7.777344 -1.304688 L -8.605469 -1.304688 C -9.128906 -1.304688 -9.515625 -1.351562 -9.769531 -1.441406 C -10.113281 -1.570312 -10.390625 -1.792969 -10.601562 -2.113281 C -10.8125 -2.433594 -10.921875 -2.878906 -10.921875 -3.457031 C -10.921875 -3.828125 -10.875 -4.238281 -10.789062 -4.6875 L -9.640625 -4.488281 C -9.6875 -4.214844 -9.710938 -3.957031 -9.710938 -3.714844 C -9.710938 -3.3125 -9.625 -3.03125 -9.457031 -2.863281 C -9.285156 -2.699219 -8.964844 -2.613281 -8.496094 -2.613281 L -7.777344 -2.613281 L -7.777344 -4.132812 L -6.753906 -4.132812 L -6.753906 -2.613281 L 0 -2.613281 Z M 0 -1.304688 "/>
</g>
<g id="glyph-2-4">
<path d="M -9.222656 -0.996094 L -10.738281 -0.996094 L -10.738281 -2.316406 L -9.222656 -2.316406 L -9.222656 -0.996094 M 0 -0.996094 L -7.777344 -0.996094 L -7.777344 -2.316406 L 0 -2.3125 Z M 0 -0.996094 "/>
</g>
<g id="glyph-2-5">
<path d="M -2.847656 -6.0625 L -2.679688 -7.359375 C -1.785156 -7.21875 -1.085938 -6.855469 -0.582031 -6.273438 C -0.078125 -5.691406 0.175781 -4.972656 0.175781 -4.125 C 0.175781 -3.058594 -0.171875 -2.203125 -0.867188 -1.554688 C -1.5625 -0.910156 -2.5625 -0.585938 -3.859375 -0.585938 C -4.699219 -0.585938 -5.433594 -0.726562 -6.0625 -1.003906 C -6.695312 -1.28125 -7.167969 -1.707031 -7.480469 -2.273438 C -7.796875 -2.84375 -7.953125 -3.460938 -7.953125 -4.132812 C -7.953125 -4.976562 -7.742188 -5.667969 -7.3125 -6.203125 C -6.886719 -6.742188 -6.277344 -7.085938 -5.492188 -7.234375 L -5.296875 -5.953125 C -5.816406 -5.832031 -6.210938 -5.617188 -6.476562 -5.304688 C -6.738281 -4.996094 -6.871094 -4.621094 -6.871094 -4.183594 C -6.871094 -3.519531 -6.632812 -2.976562 -6.15625 -2.5625 C -5.679688 -2.148438 -4.925781 -1.941406 -3.898438 -1.941406 C -2.851562 -1.941406 -2.09375 -2.140625 -1.617188 -2.542969 C -1.144531 -2.941406 -0.90625 -3.464844 -0.90625 -4.109375 C -0.90625 -4.625 -1.066406 -5.058594 -1.382812 -5.40625 C -1.703125 -5.75 -2.191406 -5.972656 -2.847656 -6.0625 Z M -2.847656 -6.0625 "/>
</g>
<g id="glyph-2-6">
<path d="M 0 -0.988281 L -7.777344 -0.988281 L -7.777344 -2.175781 L -6.671875 -2.175781 C -7.527344 -2.746094 -7.953125 -3.570312 -7.953125 -4.652344 C -7.953125 -5.121094 -7.871094 -5.550781 -7.703125 -5.945312 C -7.53125 -6.335938 -7.3125 -6.628906 -7.039062 -6.828125 C -6.765625 -7.019531 -6.441406 -7.15625 -6.0625 -7.234375 C -5.820312 -7.285156 -5.394531 -7.308594 -4.78125 -7.308594 L 0 -7.308594 L 0 -5.992188 L -4.730469 -5.992188 C -5.269531 -5.992188 -5.671875 -5.941406 -5.9375 -5.835938 C -6.203125 -5.734375 -6.414062 -5.554688 -6.574219 -5.292969 C -6.730469 -5.03125 -6.8125 -4.722656 -6.8125 -4.371094 C -6.8125 -3.8125 -6.632812 -3.328125 -6.277344 -2.917969 C -5.921875 -2.511719 -5.242188 -2.308594 -4.25 -2.308594 L 0 -2.308594 Z M 0 -0.988281 "/>
</g>
<g id="glyph-2-7">
<path d="M -1.179688 -3.867188 L -0.015625 -4.058594 C 0.0625 -3.6875 0.101562 -3.355469 0.101562 -3.0625 C 0.101562 -2.582031 0.0273438 -2.210938 -0.125 -1.949219 C -0.277344 -1.683594 -0.476562 -1.5 -0.722656 -1.390625 C -0.96875 -1.285156 -1.488281 -1.230469 -2.277344 -1.230469 L -6.753906 -1.230469 L -6.753906 -0.265625 L -7.777344 -0.265625 L -7.777344 -1.230469 L -9.703125 -1.230469 L -10.496094 -2.542969 L -7.777344 -2.542969 L -7.777344 -3.867188 L -6.753906 -3.867188 L -6.753906 -2.542969 L -2.203125 -2.542969 C -1.828125 -2.542969 -1.585938 -2.566406 -1.480469 -2.609375 C -1.371094 -2.65625 -1.285156 -2.734375 -1.222656 -2.839844 C -1.160156 -2.941406 -1.128906 -3.09375 -1.128906 -3.289062 C -1.128906 -3.433594 -1.144531 -3.628906 -1.179688 -3.867188 Z M -1.179688 -3.867188 "/>
</g>
</g>
<clipPath id="clip-0">
<path clip-rule="nonzero" d="M 61.179688 203 L 474.519531 203 L 474.519531 206 L 61.179688 206 Z M 61.179688 203 "/>
</clipPath>
<clipPath id="clip-1">
<path clip-rule="nonzero" d="M 61.179688 155 L 474.519531 155 L 474.519531 158 L 61.179688 158 Z M 61.179688 155 "/>
</clipPath>
<clipPath id="clip-2">
<path clip-rule="nonzero" d="M 61.179688 107 L 474.519531 107 L 474.519531 110 L 61.179688 110 Z M 61.179688 107 "/>
</clipPath>
<clipPath id="clip-3">
<path clip-rule="nonzero" d="M 61.179688 59 L 474.519531 59 L 474.519531 62 L 61.179688 62 Z M 61.179688 59 "/>
</clipPath>
<clipPath id="clip-4">
<path clip-rule="nonzero" d="M 61.179688 11 L 474.519531 11 L 474.519531 14 L 61.179688 14 Z M 61.179688 11 "/>
</clipPath>
<clipPath id="clip-5">
<path clip-rule="nonzero" d="M 358 7.472656 L 360 7.472656 L 360 212.058594 L 358 212.058594 Z M 358 7.472656 "/>
</clipPath>
<clipPath id="clip-6">
<path clip-rule="nonzero" d="M 239 7.472656 L 241 7.472656 L 241 212.058594 L 239 212.058594 Z M 239 7.472656 "/>
</clipPath>
<clipPath id="clip-7">
<path clip-rule="nonzero" d="M 119 7.472656 L 122 7.472656 L 122 212.058594 L 119 212.058594 Z M 119 7.472656 "/>
</clipPath>
<clipPath id="clip-8">
<path clip-rule="nonzero" d="M 226 7.472656 L 229 7.472656 L 229 212.058594 L 226 212.058594 Z M 226 7.472656 "/>
</clipPath>
</defs>
<g clip-path="url(#clip-0)">
<path fill="none" stroke-width="1.45497" stroke-linecap="butt" stroke-linejoin="round" stroke="rgb(92.156863%, 92.156863%, 92.156863%)" stroke-opacity="1" stroke-miterlimit="10" d="M 61.179688 204.289062 L 474.519531 204.289062 "/>
</g>
<g clip-path="url(#clip-1)">
<path fill="none" stroke-width="1.45497" stroke-linecap="butt" stroke-linejoin="round" stroke="rgb(92.156863%, 92.156863%, 92.156863%)" stroke-opacity="1" stroke-miterlimit="10" d="M 61.179688 156.382812 L 474.519531 156.382812 "/>
</g>
<g clip-path="url(#clip-2)">
<path fill="none" stroke-width="1.45497" stroke-linecap="butt" stroke-linejoin="round" stroke="rgb(92.156863%, 92.156863%, 92.156863%)" stroke-opacity="1" stroke-miterlimit="10" d="M 61.179688 108.480469 L 474.519531 108.480469 "/>
</g>
<g clip-path="url(#clip-3)">
<path fill="none" stroke-width="1.45497" stroke-linecap="butt" stroke-linejoin="round" stroke="rgb(92.156863%, 92.156863%, 92.156863%)" stroke-opacity="1" stroke-miterlimit="10" d="M 61.179688 60.574219 L 474.519531 60.574219 "/>
</g>
<g clip-path="url(#clip-4)">
<path fill="none" stroke-width="1.45497" stroke-linecap="butt" stroke-linejoin="round" stroke="rgb(92.156863%, 92.156863%, 92.156863%)" stroke-opacity="1" stroke-miterlimit="10" d="M 61.179688 12.671875 L 474.519531 12.671875 "/>
</g>
<g clip-path="url(#clip-5)">
<path fill="none" stroke-width="1.45497" stroke-linecap="butt" stroke-linejoin="round" stroke="rgb(92.156863%, 92.156863%, 92.156863%)" stroke-opacity="1" stroke-miterlimit="10" d="M 359.085938 212.058594 L 359.085938 7.472656 "/>
</g>
<g clip-path="url(#clip-6)">
<path fill="none" stroke-width="1.45497" stroke-linecap="butt" stroke-linejoin="round" stroke="rgb(92.156863%, 92.156863%, 92.156863%)" stroke-opacity="1" stroke-miterlimit="10" d="M 239.855469 212.058594 L 239.855469 7.472656 "/>
</g>
<g clip-path="url(#clip-7)">
<path fill="none" stroke-width="1.45497" stroke-linecap="butt" stroke-linejoin="round" stroke="rgb(92.156863%, 92.156863%, 92.156863%)" stroke-opacity="1" stroke-miterlimit="10" d="M 120.621094 212.058594 L 120.621094 7.472656 "/>
</g>
<path fill="none" stroke-width="1.45497" stroke-linecap="butt" stroke-linejoin="round" stroke="rgb(74.901961%, 74.901961%, 74.901961%)" stroke-opacity="1" stroke-miterlimit="10" d="M 383.46875 156.410156 L 388.285156 156.570312 L 393.101562 156.695312 L 397.921875 156.816406 L 402.738281 156.925781 L 407.554688 157.027344 L 412.375 157.113281 L 417.191406 157.195312 L 422.007812 157.269531 L 426.824219 157.339844 L 431.644531 157.394531 L 441.277344 157.503906 L 446.097656 157.554688 L 450.914062 157.601562 L 455.730469 157.628906 "/>
<path fill="none" stroke-width="1.45497" stroke-linecap="butt" stroke-linejoin="round" stroke="rgb(74.901961%, 74.901961%, 74.901961%)" stroke-opacity="1" stroke-miterlimit="10" d="M 181.132812 156.609375 L 185.953125 158.003906 L 190.769531 158.949219 L 195.585938 159.664062 L 200.402344 160.3125 L 205.222656 160.941406 L 210.039062 161.589844 L 214.855469 162.214844 L 219.671875 162.53125 L 224.492188 162.804688 L 229.308594 163.085938 L 234.125 163.46875 L 238.945312 163.683594 L 243.761719 163.878906 L 248.578125 164.085938 L 253.394531 164.242188 L 258.214844 164.769531 L 263.03125 165.417969 L 267.847656 166.160156 L 272.667969 166.800781 L 277.484375 167.320312 L 282.300781 167.792969 L 287.117188 168.15625 L 291.9375 168.507812 L 296.753906 168.757812 L 301.570312 169.023438 L 306.386719 169.269531 L 311.207031 169.492188 L 316.023438 169.707031 L 320.839844 169.890625 L 325.660156 170.066406 L 330.476562 170.226562 L 335.292969 170.347656 L 340.109375 170.507812 L 344.929688 170.671875 L 349.746094 170.75 L 354.5625 170.847656 L 359.382812 170.929688 L 364.199219 171.011719 L 373.832031 171.128906 L 378.652344 171.199219 L 388.285156 171.308594 L 393.101562 171.359375 L 397.921875 171.402344 L 402.738281 171.4375 L 407.554688 171.46875 L 412.375 171.503906 L 417.191406 171.535156 L 426.824219 171.582031 L 431.644531 171.601562 L 436.460938 171.621094 L 441.277344 171.636719 L 446.097656 171.648438 L 455.730469 171.664062 "/>
<path fill="none" stroke-width="1.45497" stroke-linecap="butt" stroke-linejoin="round" stroke="rgb(74.901961%, 74.901961%, 74.901961%)" stroke-opacity="1" stroke-miterlimit="10" d="M 248.578125 156.578125 L 253.394531 157.140625 L 258.214844 157.640625 L 263.03125 158.152344 L 267.847656 158.667969 L 272.667969 159.269531 L 277.484375 159.828125 L 282.300781 160.3125 L 287.117188 160.742188 L 291.9375 161.1875 L 296.753906 161.554688 L 301.570312 161.878906 L 306.386719 162.1875 L 311.207031 162.464844 L 316.023438 162.710938 L 320.839844 162.945312 L 325.660156 163.160156 L 330.476562 163.355469 L 335.292969 163.519531 L 340.109375 163.675781 L 344.929688 163.789062 L 349.746094 163.96875 L 354.5625 164.15625 L 359.382812 164.28125 L 364.199219 164.414062 L 373.832031 164.617188 L 378.652344 164.722656 L 383.46875 164.816406 L 388.285156 164.902344 L 393.101562 164.96875 L 397.921875 165.03125 L 402.738281 165.09375 L 407.554688 165.148438 L 412.375 165.199219 L 422.007812 165.285156 L 426.824219 165.324219 L 431.644531 165.355469 L 436.460938 165.386719 L 441.277344 165.414062 L 446.097656 165.4375 L 450.914062 165.460938 L 455.730469 165.480469 "/>
<path fill="none" stroke-width="1.45497" stroke-linecap="butt" stroke-linejoin="round" stroke="rgb(74.901961%, 74.901961%, 74.901961%)" stroke-opacity="1" stroke-miterlimit="10" d="M 296.753906 156.863281 L 301.570312 157.34375 L 306.386719 157.773438 L 311.207031 158.167969 L 316.023438 158.527344 L 320.839844 158.847656 L 325.660156 159.152344 L 330.476562 159.429688 L 335.292969 159.71875 L 340.109375 160 L 344.929688 160.265625 L 349.746094 160.488281 L 354.5625 160.738281 L 359.382812 160.921875 L 364.199219 161.109375 L 369.015625 161.28125 L 373.832031 161.445312 L 378.652344 161.59375 L 383.46875 161.726562 L 388.285156 161.867188 L 393.101562 161.996094 L 397.921875 162.113281 L 402.738281 162.222656 L 407.554688 162.320312 L 412.375 162.410156 L 417.191406 162.492188 L 422.007812 162.566406 L 426.824219 162.632812 L 431.644531 162.691406 L 436.460938 162.746094 L 441.277344 162.796875 L 446.097656 162.84375 L 450.914062 162.886719 L 455.730469 162.917969 "/>
<path fill="none" stroke-width="1.45497" stroke-linecap="butt" stroke-linejoin="round" stroke="rgb(74.901961%, 74.901961%, 74.901961%)" stroke-opacity="1" stroke-miterlimit="10" d="M 190.769531 157.007812 L 195.585938 158.019531 L 200.402344 158.941406 L 205.222656 159.742188 L 210.039062 160.441406 L 214.855469 161.179688 L 219.671875 161.679688 L 224.492188 162.109375 L 229.308594 162.507812 L 234.125 162.875 L 238.945312 163.097656 L 243.761719 163.316406 L 248.578125 163.570312 L 253.394531 163.71875 L 258.214844 164.039062 L 263.03125 164.242188 L 267.847656 164.566406 L 272.667969 164.8125 L 277.484375 165.082031 L 282.300781 165.363281 L 287.117188 165.632812 L 291.9375 165.84375 L 296.753906 165.980469 L 301.570312 166.128906 L 306.386719 166.261719 L 311.207031 166.386719 L 316.023438 166.5 L 320.839844 166.59375 L 325.660156 166.675781 L 330.476562 166.746094 L 340.109375 166.855469 L 344.929688 166.929688 L 354.5625 166.984375 L 359.382812 167.042969 L 364.199219 167.078125 L 369.015625 167.121094 L 373.832031 167.148438 L 378.652344 167.1875 L 383.46875 167.214844 L 388.285156 167.246094 L 393.101562 167.273438 L 397.921875 167.296875 L 402.738281 167.320312 L 407.554688 167.335938 L 412.375 167.355469 L 426.824219 167.402344 L 431.644531 167.414062 L 441.277344 167.4375 L 446.097656 167.445312 L 450.914062 167.457031 L 455.730469 167.460938 "/>
<path fill="none" stroke-width="1.45497" stroke-linecap="butt" stroke-linejoin="round" stroke="rgb(74.901961%, 74.901961%, 74.901961%)" stroke-opacity="1" stroke-miterlimit="10" d="M 263.03125 155.925781 L 267.847656 154.449219 L 272.667969 153.148438 L 277.484375 151.941406 L 282.300781 150.792969 L 287.117188 149.707031 L 291.9375 148.746094 L 296.753906 147.808594 L 301.570312 146.917969 L 306.386719 146.117188 L 311.207031 145.386719 L 316.023438 144.722656 L 320.839844 144.160156 L 325.660156 143.644531 L 330.476562 143.171875 L 335.292969 142.757812 L 340.109375 142.375 L 344.929688 142.015625 L 349.746094 141.753906 L 354.5625 141.535156 L 359.382812 141.3125 L 364.199219 141.117188 L 369.015625 140.917969 L 373.832031 140.746094 L 378.652344 140.59375 L 383.46875 140.457031 L 388.285156 140.332031 L 393.101562 140.226562 L 397.921875 140.128906 L 402.738281 140.039062 L 407.554688 139.960938 L 412.375 139.886719 L 417.191406 139.820312 L 422.007812 139.757812 L 426.824219 139.707031 L 431.644531 139.660156 L 441.277344 139.574219 L 446.097656 139.539062 L 450.914062 139.507812 L 455.730469 139.484375 "/>
<path fill="none" stroke-width="1.45497" stroke-linecap="butt" stroke-linejoin="round" stroke="rgb(74.901961%, 74.901961%, 74.901961%)" stroke-opacity="1" stroke-miterlimit="10" d="M 219.671875 157.1875 L 224.492188 157.976562 L 229.308594 158.679688 L 234.125 159.25 L 238.945312 159.703125 L 243.761719 160.085938 L 248.578125 160.410156 L 253.394531 160.582031 L 258.214844 160.742188 L 263.03125 160.960938 L 267.847656 161.390625 L 272.667969 161.71875 L 277.484375 162.035156 L 282.300781 162.34375 L 287.117188 162.722656 L 291.9375 163.03125 L 296.753906 163.363281 L 301.570312 163.710938 L 306.386719 164.019531 L 311.207031 164.296875 L 316.023438 164.550781 L 320.839844 164.796875 L 325.660156 165.035156 L 330.476562 165.242188 L 335.292969 165.425781 L 340.109375 165.578125 L 344.929688 165.714844 L 349.746094 165.878906 L 354.5625 165.996094 L 359.382812 166.140625 L 364.199219 166.25 L 369.015625 166.371094 L 373.832031 166.472656 L 378.652344 166.550781 L 383.46875 166.628906 L 388.285156 166.691406 L 393.101562 166.75 L 397.921875 166.804688 L 402.738281 166.859375 L 407.554688 166.90625 L 412.375 166.941406 L 417.191406 166.976562 L 422.007812 167.015625 L 426.824219 167.046875 L 431.644531 167.074219 L 436.460938 167.101562 L 441.277344 167.125 L 446.097656 167.152344 L 450.914062 167.175781 L 455.730469 167.1875 "/>
<path fill="none" stroke-width="1.45497" stroke-linecap="butt" stroke-linejoin="round" stroke="rgb(74.901961%, 74.901961%, 74.901961%)" stroke-opacity="1" stroke-miterlimit="10" d="M 422.007812 156.367188 L 426.824219 156.316406 L 431.644531 156.25 L 436.460938 156.167969 L 441.277344 156.078125 L 446.097656 155.984375 L 450.914062 155.886719 L 455.730469 155.824219 "/>
<path fill="none" stroke-width="1.45497" stroke-linecap="butt" stroke-linejoin="round" stroke="rgb(74.901961%, 74.901961%, 74.901961%)" stroke-opacity="1" stroke-miterlimit="10" d="M 267.847656 156.710938 L 272.667969 157.730469 L 277.484375 158.625 L 282.300781 159.371094 L 287.117188 159.988281 L 291.9375 160.59375 L 296.753906 161.234375 L 301.570312 161.84375 L 306.386719 162.402344 L 311.207031 162.914062 L 316.023438 163.375 L 320.839844 163.820312 L 325.660156 164.234375 L 330.476562 164.597656 L 335.292969 164.792969 L 340.109375 164.996094 L 344.929688 165.214844 L 349.746094 165.542969 L 354.5625 165.859375 L 359.382812 166.160156 L 364.199219 166.425781 L 369.015625 166.671875 L 373.832031 166.898438 L 378.652344 167.113281 L 383.46875 167.308594 L 388.285156 167.5 L 393.101562 167.667969 L 397.921875 167.824219 L 402.738281 167.964844 L 407.554688 168.097656 L 412.375 168.207031 L 417.191406 168.3125 L 422.007812 168.425781 L 426.824219 168.550781 L 431.644531 168.671875 L 441.277344 168.945312 L 446.097656 169.085938 L 450.914062 169.21875 L 455.730469 169.316406 "/>
<path fill="none" stroke-width="1.45497" stroke-linecap="butt" stroke-linejoin="round" stroke="rgb(74.901961%, 74.901961%, 74.901961%)" stroke-opacity="1" stroke-miterlimit="10" d="M 243.761719 156.550781 L 248.578125 156.898438 L 253.394531 157.199219 L 258.214844 157.390625 L 263.03125 157.628906 L 267.847656 157.816406 L 272.667969 158.035156 L 277.484375 158.195312 L 282.300781 158.484375 L 287.117188 158.882812 L 291.9375 159.214844 L 296.753906 159.453125 L 301.570312 159.683594 L 306.386719 159.878906 L 311.207031 160.058594 L 316.023438 160.222656 L 320.839844 160.382812 L 325.660156 160.515625 L 330.476562 160.636719 L 335.292969 160.753906 L 340.109375 160.855469 L 344.929688 160.964844 L 349.746094 161.089844 L 354.5625 161.207031 L 359.382812 161.320312 L 364.199219 161.417969 L 369.015625 161.335938 L 373.832031 161.304688 L 378.652344 161.261719 L 383.46875 161.226562 L 388.285156 161.179688 L 393.101562 161.144531 L 397.921875 161.109375 L 402.738281 161.078125 L 407.554688 161.050781 L 412.375 161.023438 L 422.007812 160.976562 L 426.824219 160.957031 L 431.644531 160.9375 L 436.460938 160.921875 L 441.277344 160.902344 L 446.097656 160.886719 L 455.730469 160.863281 "/>
<path fill="none" stroke-width="1.45497" stroke-linecap="butt" stroke-linejoin="round" stroke="rgb(74.901961%, 74.901961%, 74.901961%)" stroke-opacity="1" stroke-miterlimit="10" d="M 364.199219 156.347656 L 369.015625 156.183594 L 373.832031 156.066406 L 378.652344 155.960938 L 383.46875 155.859375 L 388.285156 155.773438 L 393.101562 155.695312 L 397.921875 155.621094 L 402.738281 155.550781 L 407.554688 155.488281 L 412.375 155.433594 L 417.191406 155.382812 L 422.007812 155.335938 L 426.824219 155.292969 L 431.644531 155.257812 L 436.460938 155.21875 L 441.277344 155.1875 L 446.097656 155.152344 L 450.914062 155.125 L 455.730469 155.105469 "/>
<path fill="none" stroke-width="1.45497" stroke-linecap="butt" stroke-linejoin="round" stroke="rgb(74.901961%, 74.901961%, 74.901961%)" stroke-opacity="1" stroke-miterlimit="10" d="M 243.761719 156.570312 L 248.578125 157.667969 L 253.394531 158.710938 L 258.214844 159.664062 L 263.03125 160.53125 L 267.847656 161.25 L 272.667969 162.03125 L 277.484375 162.726562 L 282.300781 163.332031 L 287.117188 163.851562 L 291.9375 164.347656 L 296.753906 165.027344 L 301.570312 165.59375 L 306.386719 166.105469 L 311.207031 166.574219 L 316.023438 167.003906 L 320.839844 167.371094 L 325.660156 167.710938 L 330.476562 168.035156 L 335.292969 168.394531 L 340.109375 168.738281 L 344.929688 169.070312 L 349.746094 169.292969 L 354.5625 169.519531 L 359.382812 169.726562 L 364.199219 169.921875 L 369.015625 170.109375 L 373.832031 170.277344 L 378.652344 170.425781 L 388.285156 170.707031 L 393.101562 170.839844 L 397.921875 170.957031 L 402.738281 171.0625 L 407.554688 171.164062 L 412.375 171.253906 L 417.191406 171.335938 L 422.007812 171.410156 L 426.824219 171.476562 L 431.644531 171.535156 L 436.460938 171.59375 L 441.277344 171.640625 L 446.097656 171.6875 L 455.730469 171.765625 "/>
<path fill="none" stroke-width="1.45497" stroke-linecap="butt" stroke-linejoin="round" stroke="rgb(74.901961%, 74.901961%, 74.901961%)" stroke-opacity="1" stroke-miterlimit="10" d="M 291.9375 156.324219 L 296.753906 155.644531 L 301.570312 155.019531 L 306.386719 154.449219 L 311.207031 153.925781 L 316.023438 153.449219 L 320.839844 153.011719 L 325.660156 152.613281 L 330.476562 152.25 L 335.292969 151.914062 L 340.109375 151.609375 L 344.929688 151.320312 L 349.746094 151.0625 L 354.5625 150.796875 L 359.382812 150.554688 L 364.199219 150.339844 L 369.015625 150.152344 L 373.832031 149.980469 L 378.652344 149.832031 L 383.46875 149.691406 L 388.285156 149.554688 L 393.101562 149.433594 L 397.921875 149.320312 L 402.738281 149.21875 L 407.554688 149.125 L 412.375 149.042969 L 417.191406 148.964844 L 422.007812 148.894531 L 426.824219 148.828125 L 431.644531 148.773438 L 441.277344 148.671875 L 446.097656 148.628906 L 450.914062 148.585938 L 455.730469 148.554688 "/>
<path fill="none" stroke-width="1.45497" stroke-linecap="butt" stroke-linejoin="round" stroke="rgb(74.901961%, 74.901961%, 74.901961%)" stroke-opacity="1" stroke-miterlimit="10" d="M 272.667969 156.441406 L 277.484375 156.972656 L 287.117188 157.863281 L 291.9375 158.273438 L 296.753906 158.632812 L 301.570312 158.964844 L 306.386719 159.265625 L 311.207031 159.539062 L 316.023438 159.789062 L 320.839844 160.027344 L 325.660156 160.242188 L 330.476562 160.445312 L 335.292969 160.613281 L 340.109375 160.757812 L 344.929688 160.898438 L 349.746094 161.023438 L 354.5625 161.109375 L 359.382812 161.195312 L 364.199219 161.277344 L 369.015625 161.363281 L 373.832031 161.4375 L 378.652344 161.601562 L 383.46875 161.726562 L 388.285156 161.84375 L 393.101562 161.953125 L 397.921875 162.050781 L 402.738281 162.144531 L 407.554688 162.230469 L 412.375 162.300781 L 417.191406 162.371094 L 422.007812 162.433594 L 426.824219 162.488281 L 431.644531 162.535156 L 436.460938 162.578125 L 441.277344 162.617188 L 446.097656 162.652344 L 450.914062 162.683594 L 455.730469 162.710938 "/>
<path fill="none" stroke-width="1.45497" stroke-linecap="butt" stroke-linejoin="round" stroke="rgb(74.901961%, 74.901961%, 74.901961%)" stroke-opacity="1" stroke-miterlimit="10" d="M 373.832031 156.445312 L 378.652344 156.609375 L 383.46875 156.738281 L 388.285156 156.878906 L 393.101562 157.003906 L 397.921875 157.121094 L 402.738281 157.226562 L 407.554688 157.324219 L 412.375 157.410156 L 417.191406 157.488281 L 422.007812 157.5625 L 426.824219 157.628906 L 431.644531 157.683594 L 436.460938 157.738281 L 441.277344 157.785156 L 446.097656 157.828125 L 450.914062 157.867188 L 455.730469 157.902344 "/>
<path fill="none" stroke-width="1.45497" stroke-linecap="butt" stroke-linejoin="round" stroke="rgb(74.901961%, 74.901961%, 74.901961%)" stroke-opacity="1" stroke-miterlimit="10" d="M 267.847656 156.128906 L 272.667969 155.574219 L 277.484375 155.222656 L 282.300781 154.851562 L 287.117188 154.511719 L 291.9375 154.210938 L 301.570312 153.742188 L 306.386719 153.53125 L 311.207031 153.339844 L 316.023438 153.167969 L 320.839844 152.96875 L 325.660156 152.78125 L 330.476562 152.613281 L 335.292969 152.421875 L 340.109375 152.265625 L 344.929688 152.15625 L 349.746094 152.007812 L 354.5625 151.851562 L 359.382812 151.730469 L 364.199219 151.613281 L 369.015625 151.488281 L 373.832031 151.386719 L 378.652344 151.351562 L 383.46875 151.304688 L 393.101562 151.21875 L 397.921875 151.179688 L 407.554688 151.109375 L 412.375 151.078125 L 417.191406 151.050781 L 426.824219 151.003906 L 431.644531 150.980469 L 436.460938 150.957031 L 441.277344 150.9375 L 446.097656 150.917969 L 455.730469 150.886719 "/>
<path fill="none" stroke-width="1.45497" stroke-linecap="butt" stroke-linejoin="round" stroke="rgb(74.901961%, 74.901961%, 74.901961%)" stroke-opacity="1" stroke-miterlimit="10" d="M 258.214844 156.574219 L 263.03125 157.066406 L 267.847656 157.378906 L 272.667969 157.59375 L 277.484375 157.953125 L 282.300781 158.292969 L 287.117188 158.648438 L 291.9375 158.949219 L 296.753906 159.125 L 301.570312 159.273438 L 306.386719 159.40625 L 311.207031 159.527344 L 316.023438 159.640625 L 320.839844 159.71875 L 325.660156 159.796875 L 330.476562 159.867188 L 335.292969 159.910156 L 340.109375 159.949219 L 344.929688 159.984375 L 349.746094 160.027344 L 354.5625 160.039062 L 359.382812 160.050781 L 364.199219 160.058594 L 369.015625 160.074219 L 373.832031 160.097656 L 378.652344 160.179688 L 383.46875 160.242188 L 388.285156 160.300781 L 393.101562 160.351562 L 397.921875 160.398438 L 402.738281 160.445312 L 407.554688 160.484375 L 412.375 160.519531 L 422.007812 160.582031 L 426.824219 160.605469 L 431.644531 160.625 L 436.460938 160.644531 L 441.277344 160.660156 L 446.097656 160.671875 L 455.730469 160.695312 "/>
<path fill="none" stroke-width="1.45497" stroke-linecap="butt" stroke-linejoin="round" stroke="rgb(74.901961%, 74.901961%, 74.901961%)" stroke-opacity="1" stroke-miterlimit="10" d="M 282.300781 155.863281 L 287.117188 155.34375 L 291.9375 154.902344 L 296.753906 154.511719 L 301.570312 154.164062 L 306.386719 153.855469 L 311.207031 153.574219 L 316.023438 153.3125 L 320.839844 153.015625 L 325.660156 152.746094 L 330.476562 152.496094 L 335.292969 152.289062 L 340.109375 152.109375 L 344.929688 151.949219 L 349.746094 151.761719 L 354.5625 151.589844 L 359.382812 151.4375 L 364.199219 151.296875 L 369.015625 151.171875 L 373.832031 151.054688 L 378.652344 150.949219 L 383.46875 150.851562 L 388.285156 150.769531 L 393.101562 150.695312 L 397.921875 150.628906 L 402.738281 150.570312 L 407.554688 150.515625 L 412.375 150.464844 L 417.191406 150.417969 L 422.007812 150.375 L 426.824219 150.335938 L 431.644531 150.300781 L 441.277344 150.238281 L 446.097656 150.210938 L 450.914062 150.183594 L 455.730469 150.160156 "/>
<path fill="none" stroke-width="1.45497" stroke-linecap="butt" stroke-linejoin="round" stroke="rgb(74.901961%, 74.901961%, 74.901961%)" stroke-opacity="1" stroke-miterlimit="10" d="M 267.847656 155.867188 L 272.667969 155.273438 L 277.484375 154.726562 L 282.300781 154.238281 L 287.117188 153.792969 L 291.9375 153.386719 L 296.753906 153.0625 L 301.570312 152.777344 L 306.386719 152.515625 L 311.207031 152.28125 L 316.023438 152.066406 L 320.839844 151.84375 L 325.660156 151.621094 L 330.476562 151.425781 L 335.292969 151.246094 L 340.109375 151.078125 L 344.929688 150.914062 L 349.746094 150.746094 L 354.5625 150.609375 L 359.382812 150.484375 L 364.199219 150.371094 L 369.015625 150.265625 L 373.832031 150.167969 L 378.652344 150.066406 L 383.46875 149.976562 L 388.285156 149.890625 L 393.101562 149.808594 L 397.921875 149.730469 L 402.738281 149.664062 L 407.554688 149.601562 L 412.375 149.546875 L 422.007812 149.445312 L 426.824219 149.402344 L 431.644531 149.363281 L 436.460938 149.324219 L 441.277344 149.289062 L 446.097656 149.257812 L 450.914062 149.226562 L 455.730469 149.203125 "/>
<path fill="none" stroke-width="1.45497" stroke-linecap="butt" stroke-linejoin="round" stroke="rgb(74.901961%, 74.901961%, 74.901961%)" stroke-opacity="1" stroke-miterlimit="10" d="M 89.601562 148.621094 L 94.417969 139.4375 L 99.238281 131.085938 L 104.054688 123.476562 L 108.871094 116.542969 L 113.6875 110.222656 L 118.507812 104.46875 L 123.324219 99.222656 L 128.140625 94.421875 L 132.957031 90.070312 L 137.777344 86.101562 L 142.59375 82.488281 L 147.410156 79.195312 L 152.230469 76.195312 L 157.046875 73.460938 L 161.863281 70.972656 L 166.679688 68.679688 L 171.5 66.613281 L 176.316406 64.730469 L 181.132812 63.15625 L 185.953125 61.875 L 190.769531 60.722656 L 195.585938 59.753906 L 200.402344 58.871094 L 205.222656 58.039062 L 210.039062 57.128906 L 214.855469 56.347656 L 219.671875 55.65625 L 224.492188 55.070312 L 229.308594 54.503906 L 234.125 53.972656 L 238.945312 53.671875 L 243.761719 53.390625 L 248.578125 52.953125 L 253.394531 52.5 L 258.214844 51.933594 L 263.03125 51.519531 L 267.847656 51.03125 L 272.667969 50.589844 L 277.484375 50.152344 L 282.300781 49.753906 L 287.117188 49.382812 L 291.9375 49.039062 L 296.753906 48.769531 L 301.570312 48.460938 L 306.386719 48.191406 L 311.207031 47.941406 L 316.023438 47.722656 L 320.839844 47.519531 L 325.660156 47.359375 L 330.476562 47.21875 L 335.292969 47.082031 L 340.109375 46.9375 L 344.929688 46.871094 L 349.746094 46.6875 L 354.5625 46.488281 L 359.382812 46.332031 L 364.199219 46.179688 L 369.015625 46.019531 L 373.832031 45.875 L 378.652344 45.75 L 383.46875 45.628906 L 388.285156 45.523438 L 393.101562 45.4375 L 397.921875 45.351562 L 402.738281 45.269531 L 407.554688 45.191406 L 412.375 45.132812 L 417.191406 45.070312 L 426.824219 44.960938 L 431.644531 44.917969 L 436.460938 44.875 L 441.277344 44.835938 L 446.097656 44.796875 L 450.914062 44.761719 L 455.730469 44.746094 "/>
<path fill="none" stroke-width="1.45497" stroke-linecap="butt" stroke-linejoin="round" stroke="rgb(74.901961%, 74.901961%, 74.901961%)" stroke-opacity="1" stroke-miterlimit="10" d="M 79.964844 135.875 L 84.785156 117.191406 L 89.601562 105.535156 L 94.417969 96.375 L 99.238281 88.019531 L 104.054688 80.402344 L 108.871094 73.464844 L 113.6875 67.144531 L 118.507812 61.382812 L 123.324219 56.132812 L 128.140625 51.367188 L 132.957031 47.007812 L 137.777344 43.035156 L 142.59375 39.417969 L 147.410156 36.117188 L 152.230469 33.113281 L 157.046875 30.378906 L 161.863281 27.882812 L 166.679688 25.625 L 171.5 23.550781 L 176.316406 21.664062 L 181.132812 20.140625 L 185.953125 19.433594 L 190.769531 18.890625 L 195.585938 18.359375 L 200.402344 17.867188 L 205.222656 17.476562 L 210.039062 17.308594 L 214.855469 17.316406 L 219.671875 17.335938 L 224.492188 17.328125 L 229.308594 17.300781 L 234.125 17.019531 L 238.945312 16.847656 L 243.761719 16.769531 L 248.578125 16.789062 L 253.394531 16.78125 L 258.214844 16.804688 L 263.03125 16.992188 L 267.847656 17.195312 L 272.667969 17.515625 L 277.484375 17.777344 L 282.300781 17.921875 L 287.117188 18.054688 L 291.9375 18.1875 L 296.753906 18.425781 L 301.570312 18.691406 L 306.386719 18.929688 L 311.207031 19.148438 L 316.023438 19.335938 L 320.839844 19.515625 L 325.660156 19.65625 L 330.476562 19.769531 L 335.292969 20.035156 L 340.109375 20.246094 L 344.929688 20.394531 L 349.746094 20.546875 L 354.5625 20.757812 L 359.382812 20.910156 L 364.199219 21.058594 L 369.015625 21.199219 L 373.832031 21.335938 L 378.652344 21.449219 L 383.46875 21.558594 L 388.285156 21.664062 L 393.101562 21.75 L 397.921875 21.835938 L 402.738281 21.921875 L 407.554688 22.003906 L 412.375 22.0625 L 426.824219 22.238281 L 431.644531 22.277344 L 436.460938 22.320312 L 441.277344 22.359375 L 446.097656 22.398438 L 450.914062 22.433594 L 455.730469 22.460938 "/>
<path fill="none" stroke-width="1.45497" stroke-linecap="butt" stroke-linejoin="round" stroke="rgb(74.901961%, 74.901961%, 74.901961%)" stroke-opacity="1" stroke-miterlimit="10" d="M 316.023438 156.414062 L 320.839844 156.734375 L 325.660156 157.011719 L 330.476562 157.261719 L 335.292969 157.46875 L 340.109375 157.664062 L 344.929688 157.84375 L 349.746094 158.019531 L 354.5625 158.183594 L 359.382812 158.332031 L 364.199219 158.464844 L 369.015625 158.582031 L 373.832031 158.683594 L 378.652344 158.777344 L 383.46875 158.859375 L 388.285156 158.898438 L 393.101562 158.933594 L 397.921875 158.96875 L 402.738281 159 L 407.554688 159.027344 L 412.375 159.054688 L 422.007812 159.101562 L 426.824219 159.117188 L 431.644531 159.140625 L 441.277344 159.171875 L 446.097656 159.1875 L 450.914062 159.199219 L 455.730469 159.214844 "/>
<path fill="none" stroke-width="1.45497" stroke-linecap="butt" stroke-linejoin="round" stroke="rgb(74.901961%, 74.901961%, 74.901961%)" stroke-opacity="1" stroke-miterlimit="10" d="M 253.394531 156.835938 L 258.214844 157.597656 L 263.03125 158.222656 L 267.847656 158.722656 L 272.667969 159.160156 L 277.484375 159.574219 L 282.300781 160.066406 L 287.117188 160.550781 L 291.9375 160.960938 L 301.570312 161.53125 L 306.386719 161.785156 L 311.207031 162.015625 L 316.023438 162.230469 L 320.839844 162.433594 L 325.660156 162.621094 L 330.476562 162.796875 L 335.292969 162.933594 L 340.109375 163.074219 L 344.929688 163.207031 L 349.746094 163.320312 L 354.5625 163.40625 L 359.382812 163.480469 L 364.199219 163.554688 L 369.015625 163.621094 L 373.832031 163.675781 L 378.652344 163.726562 L 383.46875 163.773438 L 393.101562 163.859375 L 397.921875 163.894531 L 402.738281 163.925781 L 407.554688 163.953125 L 412.375 163.984375 L 422.007812 164.03125 L 426.824219 164.050781 L 431.644531 164.066406 L 441.277344 164.097656 L 446.097656 164.105469 L 450.914062 164.117188 L 455.730469 164.125 "/>
<path fill="none" stroke-width="1.45497" stroke-linecap="butt" stroke-linejoin="round" stroke="rgb(74.901961%, 74.901961%, 74.901961%)" stroke-opacity="1" stroke-miterlimit="10" d="M 248.578125 156.710938 L 253.394531 157.433594 L 258.214844 158.214844 L 263.03125 158.839844 L 267.847656 159.257812 L 272.667969 159.691406 L 277.484375 160.089844 L 282.300781 160.445312 L 287.117188 160.746094 L 291.9375 161.039062 L 301.570312 161.507812 L 306.386719 161.726562 L 311.207031 161.925781 L 316.023438 162.109375 L 320.839844 162.210938 L 325.660156 162.300781 L 330.476562 162.386719 L 335.292969 162.46875 L 340.109375 162.554688 L 344.929688 162.625 L 349.746094 162.664062 L 354.5625 162.726562 L 359.382812 162.769531 L 364.199219 162.816406 L 369.015625 162.84375 L 373.832031 162.875 L 378.652344 162.902344 L 383.46875 162.910156 L 388.285156 162.855469 L 393.101562 162.820312 L 397.921875 162.78125 L 402.738281 162.746094 L 407.554688 162.714844 L 412.375 162.695312 L 417.191406 162.667969 L 426.824219 162.621094 L 431.644531 162.609375 L 436.460938 162.59375 L 441.277344 162.574219 L 446.097656 162.554688 L 450.914062 162.535156 L 455.730469 162.535156 "/>
<path fill="none" stroke-width="1.45497" stroke-linecap="butt" stroke-linejoin="round" stroke="rgb(74.901961%, 74.901961%, 74.901961%)" stroke-opacity="1" stroke-miterlimit="10" d="M 258.214844 156.359375 L 263.03125 155.863281 L 267.847656 155.425781 L 272.667969 155 L 277.484375 154.640625 L 282.300781 154.242188 L 287.117188 153.761719 L 291.9375 153.34375 L 296.753906 152.90625 L 301.570312 152.414062 L 306.386719 151.980469 L 311.207031 151.585938 L 316.023438 151.226562 L 320.839844 150.902344 L 325.660156 150.621094 L 335.292969 150.105469 L 340.109375 149.894531 L 344.929688 149.6875 L 349.746094 149.507812 L 354.5625 149.375 L 359.382812 149.234375 L 364.199219 149.113281 L 369.015625 148.996094 L 373.832031 148.894531 L 378.652344 148.8125 L 383.46875 148.734375 L 388.285156 148.671875 L 393.101562 148.613281 L 397.921875 148.558594 L 402.738281 148.507812 L 407.554688 148.460938 L 412.375 148.421875 L 417.191406 148.382812 L 422.007812 148.347656 L 426.824219 148.316406 L 431.644531 148.292969 L 441.277344 148.246094 L 446.097656 148.226562 L 450.914062 148.207031 L 455.730469 148.195312 "/>
<path fill="none" stroke-width="1.45497" stroke-linecap="butt" stroke-linejoin="round" stroke="rgb(74.901961%, 74.901961%, 74.901961%)" stroke-opacity="1" stroke-miterlimit="10" d="M 181.132812 155.550781 L 185.953125 154.074219 L 190.769531 152.816406 L 195.585938 151.691406 L 200.402344 150.675781 L 205.222656 149.777344 L 210.039062 148.980469 L 214.855469 148.355469 L 219.671875 147.777344 L 224.492188 147.25 L 229.308594 146.726562 L 234.125 146.003906 L 238.945312 145.449219 L 248.578125 144.574219 L 253.394531 144.144531 L 258.214844 143.46875 L 263.03125 143.1875 L 267.847656 143.066406 L 272.667969 142.992188 L 277.484375 142.898438 L 282.300781 142.75 L 287.117188 142.628906 L 291.9375 142.535156 L 296.753906 142.386719 L 301.570312 142.144531 L 306.386719 141.921875 L 311.207031 141.714844 L 316.023438 141.53125 L 320.839844 141.363281 L 325.660156 141.210938 L 330.476562 141.070312 L 335.292969 140.949219 L 340.109375 140.863281 L 344.929688 140.804688 L 349.746094 140.761719 L 354.5625 140.757812 L 359.382812 140.71875 L 364.199219 140.699219 L 373.832031 140.691406 L 378.652344 140.695312 L 383.46875 140.695312 L 393.101562 140.6875 L 397.921875 140.683594 L 407.554688 140.675781 L 412.375 140.679688 L 422.007812 140.671875 L 426.824219 140.671875 L 431.644531 140.675781 L 441.277344 140.675781 L 446.097656 140.671875 L 450.914062 140.671875 L 455.730469 140.675781 "/>
<path fill="none" stroke-width="1.45497" stroke-linecap="butt" stroke-linejoin="round" stroke="rgb(74.901961%, 74.901961%, 74.901961%)" stroke-opacity="1" stroke-miterlimit="10" d="M 296.753906 156.621094 L 301.570312 157.296875 L 306.386719 157.914062 L 311.207031 158.472656 L 316.023438 158.980469 L 320.839844 159.453125 L 325.660156 159.886719 L 330.476562 160.273438 L 335.292969 160.648438 L 340.109375 160.996094 L 344.929688 161.3125 L 349.746094 161.574219 L 354.5625 161.839844 L 359.382812 162.078125 L 364.199219 162.296875 L 369.015625 162.476562 L 373.832031 162.644531 L 378.652344 162.796875 L 383.46875 162.929688 L 388.285156 163.046875 L 393.101562 163.160156 L 397.921875 163.257812 L 402.738281 163.347656 L 407.554688 163.429688 L 412.375 163.507812 L 417.191406 163.574219 L 422.007812 163.636719 L 426.824219 163.691406 L 431.644531 163.742188 L 441.277344 163.828125 L 446.097656 163.863281 L 455.730469 163.925781 "/>
<path fill="none" stroke-width="1.45497" stroke-linecap="butt" stroke-linejoin="round" stroke="rgb(74.901961%, 74.901961%, 74.901961%)" stroke-opacity="1" stroke-miterlimit="10" d="M 340.109375 156.25 L 344.929688 156.074219 L 349.746094 155.953125 L 354.5625 155.816406 L 359.382812 155.730469 L 364.199219 155.632812 L 369.015625 155.5625 L 373.832031 155.488281 L 378.652344 155.425781 L 388.285156 155.308594 L 393.101562 155.257812 L 397.921875 155.214844 L 407.554688 155.136719 L 412.375 155.097656 L 417.191406 155.066406 L 422.007812 155.039062 L 426.824219 155.015625 L 431.644531 154.988281 L 441.277344 154.949219 L 446.097656 154.933594 L 455.730469 154.902344 "/>
<path fill="none" stroke-width="1.45497" stroke-linecap="butt" stroke-linejoin="round" stroke="rgb(74.901961%, 74.901961%, 74.901961%)" stroke-opacity="1" stroke-miterlimit="10" d="M 344.929688 156.394531 L 349.746094 157.394531 L 354.5625 158.558594 L 359.382812 159.523438 L 364.199219 160.386719 L 369.015625 161.242188 L 373.832031 162.046875 L 378.652344 162.699219 L 383.46875 163.351562 L 388.285156 163.96875 L 393.101562 164.472656 L 397.921875 164.972656 L 402.738281 165.449219 L 407.554688 165.898438 L 412.375 166.230469 L 417.191406 166.566406 L 422.007812 166.894531 L 426.824219 167.195312 L 431.644531 167.390625 L 441.277344 167.789062 L 446.097656 167.976562 L 450.914062 168.15625 L 455.730469 168.25 "/>
<path fill="none" stroke-width="1.45497" stroke-linecap="butt" stroke-linejoin="round" stroke="rgb(74.901961%, 74.901961%, 74.901961%)" stroke-opacity="1" stroke-miterlimit="10" d="M 330.476562 156.328125 L 335.292969 155.8125 L 340.109375 155.375 L 344.929688 155.011719 L 349.746094 154.101562 L 354.5625 152.953125 L 359.382812 152.082031 L 369.015625 150.441406 L 373.832031 149.671875 L 378.652344 149.042969 L 383.46875 148.425781 L 388.285156 147.839844 L 393.101562 147.34375 L 397.921875 146.855469 L 402.738281 146.394531 L 407.554688 145.960938 L 412.375 145.621094 L 417.191406 145.292969 L 422.007812 144.972656 L 426.824219 144.675781 L 431.644531 144.453125 L 436.460938 144.242188 L 441.277344 144.039062 L 446.097656 143.84375 L 450.914062 143.667969 L 455.730469 143.535156 "/>
<path fill="none" stroke-width="1.45497" stroke-linecap="butt" stroke-linejoin="round" stroke="rgb(74.901961%, 74.901961%, 74.901961%)" stroke-opacity="1" stroke-miterlimit="10" d="M 282.300781 155.925781 L 287.117188 154.714844 L 291.9375 153.765625 L 296.753906 152.859375 L 301.570312 151.96875 L 306.386719 151.1875 L 311.207031 150.476562 L 316.023438 149.828125 L 320.839844 149.21875 L 325.660156 148.675781 L 330.476562 148.175781 L 335.292969 147.699219 L 340.109375 147.300781 L 344.929688 146.960938 L 349.746094 146.632812 L 354.5625 146.34375 L 359.382812 146.089844 L 364.199219 145.855469 L 369.015625 145.617188 L 373.832031 145.410156 L 378.652344 145.234375 L 383.46875 145.0625 L 388.285156 144.90625 L 393.101562 144.769531 L 397.921875 144.640625 L 402.738281 144.519531 L 407.554688 144.410156 L 412.375 144.320312 L 417.191406 144.230469 L 422.007812 144.144531 L 426.824219 144.070312 L 431.644531 144.011719 L 436.460938 143.949219 L 441.277344 143.890625 L 446.097656 143.835938 L 450.914062 143.785156 L 455.730469 143.757812 "/>
<path fill="none" stroke-width="1.45497" stroke-linecap="butt" stroke-linejoin="round" stroke="rgb(74.901961%, 74.901961%, 74.901961%)" stroke-opacity="1" stroke-miterlimit="10" d="M 234.125 156.554688 L 238.945312 157.25 L 243.761719 157.785156 L 248.578125 158.171875 L 253.394531 158.546875 L 258.214844 158.945312 L 263.03125 159.359375 L 267.847656 159.863281 L 272.667969 160.304688 L 277.484375 160.699219 L 282.300781 161.152344 L 287.117188 161.613281 L 291.9375 162.0625 L 296.753906 162.515625 L 301.570312 162.9375 L 306.386719 163.328125 L 311.207031 163.679688 L 316.023438 164 L 320.839844 164.257812 L 325.660156 164.5 L 330.476562 164.71875 L 335.292969 164.953125 L 340.109375 165.183594 L 344.929688 165.453125 L 349.746094 165.695312 L 354.5625 165.910156 L 359.382812 166.125 L 364.199219 166.304688 L 369.015625 166.476562 L 373.832031 166.632812 L 378.652344 166.777344 L 383.46875 166.90625 L 388.285156 167.027344 L 393.101562 167.136719 L 397.921875 167.234375 L 402.738281 167.328125 L 407.554688 167.414062 L 412.375 167.484375 L 417.191406 167.554688 L 422.007812 167.621094 L 426.824219 167.675781 L 431.644531 167.726562 L 441.277344 167.8125 L 446.097656 167.847656 L 450.914062 167.882812 L 455.730469 167.914062 "/>
<path fill="none" stroke-width="1.45497" stroke-linecap="butt" stroke-linejoin="round" stroke="rgb(74.901961%, 74.901961%, 74.901961%)" stroke-opacity="1" stroke-miterlimit="10" d="M 185.953125 157.253906 L 190.769531 158.347656 L 195.585938 159.265625 L 200.402344 160.09375 L 205.222656 160.921875 L 210.039062 161.824219 L 214.855469 162.867188 L 219.671875 163.710938 L 224.492188 164.480469 L 229.308594 165.207031 L 234.125 165.953125 L 238.945312 166.488281 L 243.761719 167.035156 L 248.578125 167.605469 L 253.394531 168.152344 L 258.214844 169.128906 L 263.03125 169.914062 L 267.847656 170.605469 L 272.667969 171.242188 L 277.484375 171.785156 L 282.300781 172.335938 L 287.117188 172.871094 L 291.9375 173.363281 L 296.753906 173.859375 L 301.570312 174.230469 L 306.386719 174.578125 L 311.207031 174.902344 L 316.023438 175.195312 L 320.839844 175.4375 L 325.660156 175.695312 L 335.292969 176.125 L 340.109375 176.378906 L 344.929688 176.695312 L 349.746094 177.007812 L 354.5625 177.296875 L 359.382812 177.574219 L 364.199219 177.8125 L 369.015625 178.027344 L 373.832031 178.226562 L 378.652344 178.410156 L 383.46875 178.578125 L 388.285156 178.734375 L 393.101562 178.875 L 397.921875 179.011719 L 402.738281 179.132812 L 407.554688 179.246094 L 412.375 179.335938 L 417.191406 179.429688 L 422.007812 179.515625 L 426.824219 179.597656 L 431.644531 179.65625 L 441.277344 179.773438 L 446.097656 179.828125 L 450.914062 179.875 L 455.730469 179.910156 "/>
<path fill="none" stroke-width="1.45497" stroke-linecap="butt" stroke-linejoin="round" stroke="rgb(74.901961%, 74.901961%, 74.901961%)" stroke-opacity="1" stroke-miterlimit="10" d="M 243.761719 156.128906 L 248.578125 155.765625 L 253.394531 155.480469 L 258.214844 155.328125 L 263.03125 155.324219 L 267.847656 155.277344 L 272.667969 155.113281 L 277.484375 155.003906 L 282.300781 154.882812 L 287.117188 154.605469 L 291.9375 154.359375 L 301.570312 153.992188 L 306.386719 153.835938 L 311.207031 153.691406 L 316.023438 153.5625 L 320.839844 153.425781 L 325.660156 153.3125 L 330.476562 153.210938 L 340.109375 153.03125 L 344.929688 152.898438 L 349.746094 152.804688 L 354.5625 152.777344 L 359.382812 152.738281 L 364.199219 152.703125 L 369.015625 152.644531 L 373.832031 152.601562 L 378.652344 152.5625 L 383.46875 152.527344 L 388.285156 152.496094 L 393.101562 152.46875 L 397.921875 152.441406 L 407.554688 152.394531 L 412.375 152.378906 L 417.191406 152.359375 L 426.824219 152.328125 L 431.644531 152.320312 L 436.460938 152.304688 L 441.277344 152.292969 L 446.097656 152.28125 L 450.914062 152.269531 L 455.730469 152.261719 "/>
<path fill="none" stroke-width="1.45497" stroke-linecap="butt" stroke-linejoin="round" stroke="rgb(74.901961%, 74.901961%, 74.901961%)" stroke-opacity="1" stroke-miterlimit="10" d="M 340.109375 156.179688 L 344.929688 155.714844 L 349.746094 155.277344 L 354.5625 154.910156 L 359.382812 154.519531 L 364.199219 154.191406 L 369.015625 153.902344 L 373.832031 153.636719 L 378.652344 153.398438 L 383.46875 153.175781 L 388.285156 152.957031 L 393.101562 152.777344 L 397.921875 152.605469 L 402.738281 152.445312 L 407.554688 152.300781 L 412.375 152.179688 L 417.191406 152.0625 L 422.007812 151.949219 L 426.824219 151.851562 L 431.644531 151.773438 L 436.460938 151.695312 L 441.277344 151.621094 L 446.097656 151.550781 L 450.914062 151.484375 L 455.730469 151.441406 "/>
<path fill="none" stroke-width="1.45497" stroke-linecap="butt" stroke-linejoin="round" stroke="rgb(74.901961%, 74.901961%, 74.901961%)" stroke-opacity="1" stroke-miterlimit="10" d="M 234.125 156.5 L 238.945312 156.914062 L 243.761719 157.203125 L 248.578125 157.460938 L 253.394531 157.667969 L 258.214844 157.894531 L 263.03125 158.007812 L 267.847656 158.019531 L 272.667969 158.078125 L 277.484375 158.070312 L 282.300781 158.09375 L 287.117188 158.210938 L 291.9375 158.277344 L 296.753906 158.285156 L 301.570312 158.359375 L 306.386719 158.417969 L 311.207031 158.46875 L 320.839844 158.5625 L 325.660156 158.617188 L 330.476562 158.660156 L 335.292969 158.710938 L 340.109375 158.773438 L 344.929688 158.808594 L 349.746094 158.84375 L 354.5625 158.871094 L 359.382812 158.875 L 364.199219 158.890625 L 373.832031 158.898438 L 378.652344 158.902344 L 388.285156 158.917969 L 393.101562 158.921875 L 397.921875 158.929688 L 402.738281 158.9375 L 407.554688 158.941406 L 412.375 158.949219 L 426.824219 158.960938 L 431.644531 158.972656 L 441.277344 158.980469 L 446.097656 158.984375 L 450.914062 158.988281 L 455.730469 159 "/>
<path fill="none" stroke-width="1.45497" stroke-linecap="butt" stroke-linejoin="round" stroke="rgb(74.901961%, 74.901961%, 74.901961%)" stroke-opacity="1" stroke-miterlimit="10" d="M 320.839844 156.347656 L 325.660156 155.96875 L 330.476562 155.652344 L 335.292969 155.382812 L 340.109375 155.074219 L 344.929688 154.800781 L 349.746094 154.46875 L 354.5625 154.277344 L 359.382812 154.144531 L 364.199219 154.015625 L 369.015625 153.878906 L 373.832031 153.757812 L 378.652344 153.628906 L 383.46875 153.515625 L 388.285156 153.421875 L 393.101562 153.324219 L 397.921875 153.238281 L 402.738281 153.164062 L 407.554688 153.101562 L 412.375 153.039062 L 417.191406 152.980469 L 422.007812 152.925781 L 426.824219 152.882812 L 431.644531 152.835938 L 441.277344 152.757812 L 446.097656 152.726562 L 450.914062 152.699219 L 455.730469 152.679688 "/>
<path fill="none" stroke-width="1.45497" stroke-linecap="butt" stroke-linejoin="round" stroke="rgb(74.901961%, 74.901961%, 74.901961%)" stroke-opacity="1" stroke-miterlimit="10" d="M 210.039062 156.257812 L 214.855469 154.671875 L 219.671875 153.167969 L 224.492188 151.792969 L 229.308594 150.535156 L 234.125 149.339844 L 238.945312 148.132812 L 243.761719 147.042969 L 248.578125 146.214844 L 253.394531 145.511719 L 258.214844 145.230469 L 263.03125 144.839844 L 267.847656 144.40625 L 272.667969 143.644531 L 277.484375 142.96875 L 282.300781 142.460938 L 287.117188 142.015625 L 291.9375 141.570312 L 296.753906 140.960938 L 301.570312 140.355469 L 306.386719 139.796875 L 311.207031 139.289062 L 316.023438 138.835938 L 320.839844 138.410156 L 325.660156 138.324219 L 330.476562 138.203125 L 335.292969 137.898438 L 340.109375 137.722656 L 344.929688 137.570312 L 349.746094 137.613281 L 354.5625 137.558594 L 359.382812 137.5 L 364.199219 137.4375 L 369.015625 137.386719 L 373.832031 137.339844 L 378.652344 137.296875 L 383.46875 137.253906 L 388.285156 137.207031 L 393.101562 137.164062 L 397.921875 137.128906 L 402.738281 137.089844 L 407.554688 137.046875 L 412.375 137.015625 L 422.007812 136.960938 L 426.824219 136.9375 L 431.644531 136.917969 L 436.460938 136.898438 L 441.277344 136.882812 L 446.097656 136.871094 L 450.914062 136.851562 L 455.730469 136.816406 "/>
<path fill="none" stroke-width="1.45497" stroke-linecap="butt" stroke-linejoin="round" stroke="rgb(74.901961%, 74.901961%, 74.901961%)" stroke-opacity="1" stroke-miterlimit="10" d="M 205.222656 155.539062 L 210.039062 153.738281 L 214.855469 152.167969 L 219.671875 150.691406 L 224.492188 149.34375 L 229.308594 148.101562 L 234.125 146.890625 L 238.945312 145.753906 L 243.761719 144.757812 L 248.578125 143.816406 L 253.394531 142.867188 L 258.214844 142.191406 L 263.03125 141.5625 L 267.847656 141.027344 L 272.667969 140.605469 L 277.484375 140.214844 L 282.300781 139.910156 L 287.117188 139.652344 L 291.9375 139.398438 L 296.753906 139.121094 L 301.570312 138.890625 L 306.386719 138.671875 L 311.207031 138.472656 L 316.023438 138.292969 L 320.839844 138.101562 L 325.660156 137.9375 L 330.476562 137.789062 L 335.292969 137.660156 L 340.109375 137.535156 L 344.929688 137.402344 L 349.746094 137.269531 L 354.5625 137.144531 L 359.382812 137.027344 L 364.199219 136.921875 L 369.015625 136.777344 L 373.832031 136.644531 L 378.652344 136.515625 L 383.46875 136.394531 L 388.285156 136.257812 L 393.101562 136.144531 L 397.921875 136.039062 L 402.738281 135.941406 L 407.554688 135.855469 L 412.375 135.777344 L 417.191406 135.703125 L 422.007812 135.636719 L 426.824219 135.574219 L 431.644531 135.527344 L 436.460938 135.476562 L 441.277344 135.429688 L 446.097656 135.386719 L 450.914062 135.347656 L 455.730469 135.324219 "/>
<path fill="none" stroke-width="1.45497" stroke-linecap="butt" stroke-linejoin="round" stroke="rgb(74.901961%, 74.901961%, 74.901961%)" stroke-opacity="1" stroke-miterlimit="10" d="M 267.847656 157.046875 L 272.667969 157.660156 L 277.484375 158.257812 L 282.300781 158.640625 L 287.117188 158.945312 L 291.9375 159.21875 L 296.753906 159.492188 L 301.570312 159.710938 L 306.386719 159.910156 L 311.207031 160.09375 L 316.023438 160.257812 L 320.839844 160.390625 L 325.660156 160.507812 L 330.476562 160.605469 L 335.292969 160.667969 L 340.109375 160.722656 L 344.929688 160.753906 L 349.746094 160.800781 L 354.5625 160.902344 L 359.382812 161.050781 L 364.199219 161.164062 L 373.832031 161.34375 L 378.652344 161.417969 L 383.46875 161.488281 L 388.285156 161.5625 L 393.101562 161.625 L 397.921875 161.683594 L 407.554688 161.785156 L 412.375 161.828125 L 417.191406 161.867188 L 426.824219 161.9375 L 431.644531 161.960938 L 441.277344 162.007812 L 446.097656 162.027344 L 450.914062 162.046875 L 455.730469 162.054688 "/>
<path fill="none" stroke-width="1.45497" stroke-linecap="butt" stroke-linejoin="round" stroke="rgb(74.901961%, 74.901961%, 74.901961%)" stroke-opacity="1" stroke-miterlimit="10" d="M 354.5625 156.109375 L 359.382812 155.816406 L 364.199219 155.5625 L 369.015625 155.3125 L 373.832031 155.085938 L 378.652344 154.898438 L 383.46875 154.71875 L 388.285156 154.546875 L 393.101562 154.386719 L 397.921875 154.238281 L 402.738281 154.105469 L 407.554688 153.984375 L 412.375 153.875 L 417.191406 153.773438 L 422.007812 153.683594 L 426.824219 153.601562 L 431.644531 153.527344 L 441.277344 153.394531 L 446.097656 153.335938 L 450.914062 153.28125 L 455.730469 153.242188 "/>
<path fill="none" stroke-width="1.45497" stroke-linecap="butt" stroke-linejoin="round" stroke="rgb(74.901961%, 74.901961%, 74.901961%)" stroke-opacity="1" stroke-miterlimit="10" d="M 364.199219 156.421875 L 369.015625 156.675781 L 373.832031 156.871094 L 378.652344 157.046875 L 383.46875 157.210938 L 388.285156 157.367188 L 393.101562 157.480469 L 397.921875 157.59375 L 402.738281 157.695312 L 407.554688 157.789062 L 412.375 157.871094 L 417.191406 157.949219 L 422.007812 158.023438 L 426.824219 158.089844 L 431.644531 158.144531 L 441.277344 158.253906 L 446.097656 158.304688 L 450.914062 158.351562 L 455.730469 158.378906 "/>
<path fill="none" stroke-width="1.45497" stroke-linecap="butt" stroke-linejoin="round" stroke="rgb(74.901961%, 74.901961%, 74.901961%)" stroke-opacity="1" stroke-miterlimit="10" d="M 388.285156 156.421875 L 393.101562 156.515625 L 397.921875 156.582031 L 402.738281 156.644531 L 407.554688 156.699219 L 412.375 156.746094 L 417.191406 156.792969 L 422.007812 156.835938 L 426.824219 156.875 L 431.644531 156.90625 L 436.460938 156.9375 L 441.277344 156.964844 L 446.097656 156.992188 L 455.730469 157.039062 "/>
<path fill="none" stroke-width="1.45497" stroke-linecap="butt" stroke-linejoin="round" stroke="rgb(74.901961%, 74.901961%, 74.901961%)" stroke-opacity="1" stroke-miterlimit="10" d="M 229.308594 156.65625 L 234.125 158.574219 L 238.945312 160.683594 L 243.761719 162.773438 L 248.578125 164.644531 L 253.394531 166.347656 L 258.214844 167.949219 L 263.03125 169.597656 L 267.847656 171.09375 L 272.667969 172.539062 L 277.484375 173.785156 L 282.300781 174.761719 L 287.117188 175.589844 L 291.9375 176.382812 L 296.753906 177.214844 L 301.570312 177.960938 L 306.386719 178.640625 L 311.207031 179.257812 L 320.839844 180.382812 L 325.660156 180.90625 L 330.476562 181.375 L 335.292969 181.816406 L 340.109375 182.222656 L 344.929688 182.597656 L 349.746094 182.957031 L 354.5625 183.339844 L 359.382812 183.660156 L 364.199219 183.949219 L 369.015625 184.195312 L 373.832031 184.417969 L 378.652344 184.628906 L 383.46875 184.820312 L 388.285156 184.984375 L 393.101562 185.136719 L 397.921875 185.277344 L 402.738281 185.402344 L 407.554688 185.519531 L 412.375 185.621094 L 417.191406 185.71875 L 422.007812 185.804688 L 426.824219 185.886719 L 431.644531 185.953125 L 436.460938 186.019531 L 441.277344 186.082031 L 446.097656 186.140625 L 450.914062 186.191406 L 455.730469 186.230469 "/>
<path fill="none" stroke-width="1.45497" stroke-linecap="butt" stroke-linejoin="round" stroke="rgb(74.901961%, 74.901961%, 74.901961%)" stroke-opacity="1" stroke-miterlimit="10" d="M 238.945312 155.542969 L 243.761719 154.367188 L 248.578125 153.394531 L 253.394531 152.59375 L 258.214844 151.757812 L 263.03125 151.207031 L 267.847656 150.507812 L 272.667969 149.9375 L 277.484375 149.386719 L 282.300781 148.597656 L 287.117188 147.902344 L 291.9375 147.3125 L 296.753906 146.664062 L 301.570312 146.058594 L 306.386719 145.507812 L 311.207031 145.003906 L 316.023438 144.542969 L 320.839844 144.078125 L 325.660156 143.65625 L 330.476562 143.273438 L 335.292969 142.914062 L 340.109375 142.59375 L 344.929688 142.316406 L 349.746094 142.082031 L 354.5625 141.910156 L 359.382812 141.730469 L 364.199219 141.566406 L 369.015625 141.390625 L 373.832031 141.234375 L 378.652344 141.082031 L 383.46875 140.949219 L 388.285156 140.824219 L 393.101562 140.71875 L 397.921875 140.617188 L 402.738281 140.527344 L 407.554688 140.445312 L 412.375 140.367188 L 417.191406 140.300781 L 426.824219 140.175781 L 431.644531 140.125 L 436.460938 140.074219 L 441.277344 140.027344 L 446.097656 139.984375 L 450.914062 139.945312 L 455.730469 139.914062 "/>
<path fill="none" stroke-width="1.45497" stroke-linecap="butt" stroke-linejoin="round" stroke="rgb(74.901961%, 74.901961%, 74.901961%)" stroke-opacity="1" stroke-miterlimit="10" d="M 277.484375 156.410156 L 282.300781 157.253906 L 287.117188 158.050781 L 291.9375 158.738281 L 296.753906 159.433594 L 301.570312 160.0625 L 306.386719 160.625 L 311.207031 161.136719 L 316.023438 161.613281 L 320.839844 162.035156 L 325.660156 162.429688 L 330.476562 162.796875 L 335.292969 163.117188 L 340.109375 163.410156 L 344.929688 163.695312 L 349.746094 163.9375 L 354.5625 164.171875 L 359.382812 164.417969 L 364.199219 164.625 L 369.015625 164.773438 L 373.832031 164.910156 L 378.652344 165.046875 L 383.46875 165.160156 L 388.285156 165.25 L 393.101562 165.324219 L 397.921875 165.390625 L 402.738281 165.449219 L 407.554688 165.503906 L 412.375 165.558594 L 417.191406 165.605469 L 422.007812 165.648438 L 426.824219 165.683594 L 431.644531 165.714844 L 436.460938 165.75 L 441.277344 165.777344 L 446.097656 165.800781 L 450.914062 165.824219 L 455.730469 165.835938 "/>
<path fill="none" stroke-width="1.45497" stroke-linecap="butt" stroke-linejoin="round" stroke="rgb(74.901961%, 74.901961%, 74.901961%)" stroke-opacity="1" stroke-miterlimit="10" d="M 258.214844 155.957031 L 263.03125 155.28125 L 267.847656 154.382812 L 272.667969 153.453125 L 277.484375 152.609375 L 282.300781 151.683594 L 287.117188 150.789062 L 291.9375 149.996094 L 296.753906 149.179688 L 301.570312 148.421875 L 306.386719 147.746094 L 311.207031 147.125 L 316.023438 146.558594 L 320.839844 146.0625 L 325.660156 145.597656 L 330.476562 145.175781 L 335.292969 144.757812 L 340.109375 144.390625 L 344.929688 144.054688 L 349.746094 143.730469 L 354.5625 143.429688 L 359.382812 143.167969 L 364.199219 142.921875 L 369.015625 142.65625 L 373.832031 142.417969 L 378.652344 142.1875 L 383.46875 141.980469 L 388.285156 141.785156 L 393.101562 141.601562 L 397.921875 141.429688 L 402.738281 141.269531 L 407.554688 141.128906 L 412.375 141.007812 L 417.191406 140.890625 L 422.007812 140.78125 L 426.824219 140.679688 L 431.644531 140.601562 L 436.460938 140.523438 L 441.277344 140.449219 L 446.097656 140.382812 L 450.914062 140.320312 L 455.730469 140.273438 "/>
<path fill="none" stroke-width="1.45497" stroke-linecap="butt" stroke-linejoin="round" stroke="rgb(74.901961%, 74.901961%, 74.901961%)" stroke-opacity="1" stroke-miterlimit="10" d="M 258.214844 156.289062 L 263.03125 153.980469 L 267.847656 151.800781 L 272.667969 150.109375 L 277.484375 148.515625 L 282.300781 147 L 287.117188 145.699219 L 291.9375 144.34375 L 296.753906 142.699219 L 301.570312 141.347656 L 306.386719 140.046875 L 311.207031 138.863281 L 316.023438 137.828125 L 320.839844 136.84375 L 325.660156 135.960938 L 330.476562 135.21875 L 335.292969 134.480469 L 340.109375 133.847656 L 344.929688 133.265625 L 349.746094 132.496094 L 354.5625 131.785156 L 359.382812 131.132812 L 369.015625 130.023438 L 373.832031 129.503906 L 378.652344 129.082031 L 383.46875 128.667969 L 388.285156 128.277344 L 393.101562 127.976562 L 397.921875 127.675781 L 402.738281 127.390625 L 407.554688 127.125 L 412.375 126.925781 L 417.191406 126.722656 L 422.007812 126.523438 L 426.824219 126.34375 L 431.644531 126.222656 L 441.277344 125.964844 L 446.097656 125.839844 L 450.914062 125.722656 L 455.730469 125.664062 "/>
<path fill="none" stroke-width="1.45497" stroke-linecap="butt" stroke-linejoin="round" stroke="rgb(74.901961%, 74.901961%, 74.901961%)" stroke-opacity="1" stroke-miterlimit="10" d="M 253.394531 156.542969 L 258.214844 158.683594 L 263.03125 162.085938 L 267.847656 165.234375 L 272.667969 167.957031 L 277.484375 170.503906 L 282.300781 172.734375 L 287.117188 174.511719 L 291.9375 176.375 L 296.753906 178.730469 L 301.570312 180.722656 L 306.386719 182.613281 L 311.207031 184.34375 L 316.023438 185.875 L 320.839844 187.292969 L 325.660156 188.59375 L 330.476562 189.71875 L 335.292969 190.898438 L 340.109375 191.957031 L 344.929688 192.875 L 349.746094 193.839844 L 354.5625 194.8125 L 359.382812 195.660156 L 364.199219 196.414062 L 369.015625 197.097656 L 373.832031 197.742188 L 378.652344 198.289062 L 383.46875 198.804688 L 388.285156 199.292969 L 393.101562 199.699219 L 397.921875 200.09375 L 402.738281 200.460938 L 407.554688 200.796875 L 412.375 201.074219 L 417.191406 201.34375 L 422.007812 201.597656 L 426.824219 201.832031 L 431.644531 202.011719 L 436.460938 202.183594 L 441.277344 202.351562 L 446.097656 202.507812 L 450.914062 202.652344 L 455.730469 202.757812 "/>
<path fill="none" stroke-width="1.45497" stroke-linecap="butt" stroke-linejoin="round" stroke="rgb(74.901961%, 74.901961%, 74.901961%)" stroke-opacity="1" stroke-miterlimit="10" d="M 291.9375 156.175781 L 296.753906 155.195312 L 301.570312 154.382812 L 306.386719 153.613281 L 311.207031 152.914062 L 316.023438 152.296875 L 320.839844 151.71875 L 325.660156 151.195312 L 330.476562 150.738281 L 335.292969 150.253906 L 340.109375 149.828125 L 344.929688 149.460938 L 349.746094 149.042969 L 354.5625 148.613281 L 359.382812 148.234375 L 364.199219 147.902344 L 369.015625 147.585938 L 373.832031 147.289062 L 378.652344 147.042969 L 383.46875 146.804688 L 388.285156 146.589844 L 393.101562 146.410156 L 397.921875 146.234375 L 402.738281 146.070312 L 407.554688 145.917969 L 412.375 145.792969 L 417.191406 145.675781 L 422.007812 145.5625 L 426.824219 145.457031 L 431.644531 145.375 L 436.460938 145.296875 L 441.277344 145.222656 L 446.097656 145.152344 L 450.914062 145.085938 L 455.730469 145.035156 "/>
<path fill="none" stroke-width="2.560748" stroke-linecap="butt" stroke-linejoin="round" stroke="rgb(70.588235%, 46.27451%, 18.039216%)" stroke-opacity="1" stroke-miterlimit="10" d="M 89.601562 148.621094 L 94.417969 139.4375 L 99.238281 131.085938 L 104.054688 123.476562 L 108.871094 116.542969 L 113.6875 110.222656 L 118.507812 104.46875 L 123.324219 99.222656 L 128.140625 94.421875 L 132.957031 90.070312 L 137.777344 86.101562 L 142.59375 82.488281 L 147.410156 79.195312 L 152.230469 76.195312 L 157.046875 73.460938 L 161.863281 70.972656 L 166.679688 68.679688 L 171.5 66.613281 L 176.316406 64.730469 L 181.132812 63.15625 L 185.953125 61.875 L 190.769531 60.722656 L 195.585938 59.753906 L 200.402344 58.871094 L 205.222656 58.039062 L 210.039062 57.128906 L 214.855469 56.347656 L 219.671875 55.65625 L 224.492188 55.070312 L 229.308594 54.503906 L 234.125 53.972656 L 238.945312 53.671875 L 243.761719 53.390625 L 248.578125 52.953125 L 253.394531 52.5 L 258.214844 51.933594 L 263.03125 51.519531 L 267.847656 51.03125 L 272.667969 50.589844 L 277.484375 50.152344 L 282.300781 49.753906 L 287.117188 49.382812 L 291.9375 49.039062 L 296.753906 48.769531 L 301.570312 48.460938 L 306.386719 48.191406 L 311.207031 47.941406 L 316.023438 47.722656 L 320.839844 47.519531 L 325.660156 47.359375 L 330.476562 47.21875 L 335.292969 47.082031 L 340.109375 46.9375 L 344.929688 46.871094 L 349.746094 46.6875 L 354.5625 46.488281 L 359.382812 46.332031 L 364.199219 46.179688 L 369.015625 46.019531 L 373.832031 45.875 L 378.652344 45.75 L 383.46875 45.628906 L 388.285156 45.523438 L 393.101562 45.4375 L 397.921875 45.351562 L 402.738281 45.269531 L 407.554688 45.191406 L 412.375 45.132812 L 417.191406 45.070312 L 426.824219 44.960938 L 431.644531 44.917969 L 436.460938 44.875 L 441.277344 44.835938 L 446.097656 44.796875 L 450.914062 44.761719 L 455.730469 44.746094 "/>
<path fill="none" stroke-width="2.560748" stroke-linecap="butt" stroke-linejoin="round" stroke="rgb(11.372549%, 34.509804%, 54.901961%)" stroke-opacity="1" stroke-miterlimit="10" d="M 79.964844 135.875 L 84.785156 117.191406 L 89.601562 105.535156 L 94.417969 96.375 L 99.238281 88.019531 L 104.054688 80.402344 L 108.871094 73.464844 L 113.6875 67.144531 L 118.507812 61.382812 L 123.324219 56.132812 L 128.140625 51.367188 L 132.957031 47.007812 L 137.777344 43.035156 L 142.59375 39.417969 L 147.410156 36.117188 L 152.230469 33.113281 L 157.046875 30.378906 L 161.863281 27.882812 L 166.679688 25.625 L 171.5 23.550781 L 176.316406 21.664062 L 181.132812 20.140625 L 185.953125 19.433594 L 190.769531 18.890625 L 195.585938 18.359375 L 200.402344 17.867188 L 205.222656 17.476562 L 210.039062 17.308594 L 214.855469 17.316406 L 219.671875 17.335938 L 224.492188 17.328125 L 229.308594 17.300781 L 234.125 17.019531 L 238.945312 16.847656 L 243.761719 16.769531 L 248.578125 16.789062 L 253.394531 16.78125 L 258.214844 16.804688 L 263.03125 16.992188 L 267.847656 17.195312 L 272.667969 17.515625 L 277.484375 17.777344 L 282.300781 17.921875 L 287.117188 18.054688 L 291.9375 18.1875 L 296.753906 18.425781 L 301.570312 18.691406 L 306.386719 18.929688 L 311.207031 19.148438 L 316.023438 19.335938 L 320.839844 19.515625 L 325.660156 19.65625 L 330.476562 19.769531 L 335.292969 20.035156 L 340.109375 20.246094 L 344.929688 20.394531 L 349.746094 20.546875 L 354.5625 20.757812 L 359.382812 20.910156 L 364.199219 21.058594 L 369.015625 21.199219 L 373.832031 21.335938 L 378.652344 21.449219 L 383.46875 21.558594 L 388.285156 21.664062 L 393.101562 21.75 L 397.921875 21.835938 L 402.738281 21.921875 L 407.554688 22.003906 L 412.375 22.0625 L 426.824219 22.238281 L 431.644531 22.277344 L 436.460938 22.320312 L 441.277344 22.359375 L 446.097656 22.398438 L 450.914062 22.433594 L 455.730469 22.460938 "/>
<g clip-path="url(#clip-8)">
<path fill="none" stroke-width="1.45497" stroke-linecap="butt" stroke-linejoin="round" stroke="rgb(27.45098%, 34.509804%, 42.745098%)" stroke-opacity="1" stroke-dasharray="5.819882 5.819882" stroke-miterlimit="10" d="M 227.304688 212.058594 L 227.304688 7.472656 "/>
</g>
<g fill="rgb(30.196078%, 30.196078%, 30.196078%)" fill-opacity="1">
<use xlink:href="#glyph-0-0" x="27.101562" y="209.082031"/>
<use xlink:href="#glyph-0-1" x="31.097656" y="209.082031"/>
<use xlink:href="#glyph-0-2" x="37.771484" y="209.082031"/>
<use xlink:href="#glyph-0-1" x="41.105469" y="209.082031"/>
<use xlink:href="#glyph-0-3" x="47.779297" y="209.082031"/>
</g>
<g fill="rgb(30.196078%, 30.196078%, 30.196078%)" fill-opacity="1">
<use xlink:href="#glyph-0-1" x="31.097656" y="161.179688"/>
<use xlink:href="#glyph-0-2" x="37.771484" y="161.179688"/>
<use xlink:href="#glyph-0-1" x="41.105469" y="161.179688"/>
<use xlink:href="#glyph-0-1" x="47.779297" y="161.179688"/>
</g>
<g fill="rgb(30.196078%, 30.196078%, 30.196078%)" fill-opacity="1">
<use xlink:href="#glyph-0-1" x="31.097656" y="113.273438"/>
<use xlink:href="#glyph-0-2" x="37.771484" y="113.273438"/>
<use xlink:href="#glyph-0-1" x="41.105469" y="113.273438"/>
<use xlink:href="#glyph-0-3" x="47.779297" y="113.273438"/>
</g>
<g fill="rgb(30.196078%, 30.196078%, 30.196078%)" fill-opacity="1">
<use xlink:href="#glyph-0-1" x="31.097656" y="65.371094"/>
<use xlink:href="#glyph-0-2" x="37.771484" y="65.371094"/>
<use xlink:href="#glyph-0-4" x="41.105469" y="65.371094"/>
<use xlink:href="#glyph-0-1" x="47.779297" y="65.371094"/>
</g>
<g fill="rgb(30.196078%, 30.196078%, 30.196078%)" fill-opacity="1">
<use xlink:href="#glyph-0-1" x="31.097656" y="17.464844"/>
<use xlink:href="#glyph-0-2" x="37.771484" y="17.464844"/>
<use xlink:href="#glyph-0-4" x="41.105469" y="17.464844"/>
<use xlink:href="#glyph-0-3" x="47.779297" y="17.464844"/>
</g>
<g fill="rgb(30.196078%, 30.196078%, 30.196078%)" fill-opacity="1">
<use xlink:href="#glyph-0-1" x="344.070312" y="228.371094"/>
<use xlink:href="#glyph-0-2" x="350.744141" y="228.371094"/>
<use xlink:href="#glyph-0-1" x="354.078125" y="228.371094"/>
<use xlink:href="#glyph-0-1" x="360.751953" y="228.371094"/>
<use xlink:href="#glyph-0-4" x="367.425781" y="228.371094"/>
</g>
<g fill="rgb(30.196078%, 30.196078%, 30.196078%)" fill-opacity="1">
<use xlink:href="#glyph-0-1" x="224.839844" y="228.371094"/>
<use xlink:href="#glyph-0-2" x="231.513672" y="228.371094"/>
<use xlink:href="#glyph-0-1" x="234.847656" y="228.371094"/>
<use xlink:href="#glyph-0-4" x="241.521484" y="228.371094"/>
<use xlink:href="#glyph-0-1" x="248.195312" y="228.371094"/>
</g>
<g fill="rgb(30.196078%, 30.196078%, 30.196078%)" fill-opacity="1">
<use xlink:href="#glyph-0-1" x="105.605469" y="228.371094"/>
<use xlink:href="#glyph-0-2" x="112.279297" y="228.371094"/>
<use xlink:href="#glyph-0-4" x="115.613281" y="228.371094"/>
<use xlink:href="#glyph-0-1" x="122.287109" y="228.371094"/>
<use xlink:href="#glyph-0-1" x="128.960938" y="228.371094"/>
</g>
<g fill="rgb(27.45098%, 34.509804%, 42.745098%)" fill-opacity="1">
<use xlink:href="#glyph-1-0" x="199.0625" y="247.371094"/>
<use xlink:href="#glyph-1-1" x="209.067383" y="247.371094"/>
<use xlink:href="#glyph-1-2" x="217.409668" y="247.371094"/>
<use xlink:href="#glyph-1-3" x="225.751953" y="247.371094"/>
<use xlink:href="#glyph-1-4" x="234.094238" y="247.371094"/>
<use xlink:href="#glyph-1-5" x="237.426758" y="247.371094"/>
<use xlink:href="#glyph-1-6" x="241.594238" y="247.371094"/>
<use xlink:href="#glyph-1-7" x="249.094238" y="247.371094"/>
<use xlink:href="#glyph-1-8" x="253.261719" y="247.371094"/>
<use xlink:href="#glyph-1-9" x="258.256836" y="247.371094"/>
<use xlink:href="#glyph-1-1" x="266.599121" y="247.371094"/>
<use xlink:href="#glyph-1-10" x="274.941406" y="247.371094"/>
<use xlink:href="#glyph-1-11" x="282.441406" y="247.371094"/>
<use xlink:href="#glyph-1-1" x="287.436523" y="247.371094"/>
<use xlink:href="#glyph-1-3" x="295.778809" y="247.371094"/>
<use xlink:href="#glyph-1-12" x="304.121094" y="247.371094"/>
<use xlink:href="#glyph-1-13" x="311.621094" y="247.371094"/>
<use xlink:href="#glyph-1-2" x="314.953613" y="247.371094"/>
<use xlink:href="#glyph-1-14" x="323.295898" y="247.371094"/>
<use xlink:href="#glyph-1-15" x="331.638184" y="247.371094"/>
</g>
<g fill="rgb(27.45098%, 34.509804%, 42.745098%)" fill-opacity="1">
<use xlink:href="#glyph-2-0" x="19.210938" y="145.199219"/>
<use xlink:href="#glyph-2-1" x="19.210938" y="134.366699"/>
<use xlink:href="#glyph-2-2" x="19.210938" y="126.024414"/>
<use xlink:href="#glyph-2-3" x="19.210938" y="117.682129"/>
<use xlink:href="#glyph-2-3" x="19.210938" y="113.514648"/>
<use xlink:href="#glyph-2-4" x="19.210938" y="109.347168"/>
<use xlink:href="#glyph-2-5" x="19.210938" y="106.014648"/>
<use xlink:href="#glyph-2-4" x="19.210938" y="98.514648"/>
<use xlink:href="#glyph-2-2" x="19.210938" y="95.182129"/>
<use xlink:href="#glyph-2-6" x="19.210938" y="86.839844"/>
<use xlink:href="#glyph-2-7" x="19.210938" y="78.497559"/>
</g>
<path fill="none" stroke-width="2.560748" stroke-linecap="butt" stroke-linejoin="round" stroke="rgb(70.588235%, 46.27451%, 18.039216%)" stroke-opacity="1" stroke-miterlimit="10" d="M 498.664062 101.125 L 512.488281 101.125 "/>
<path fill="none" stroke-width="2.560748" stroke-linecap="butt" stroke-linejoin="round" stroke="rgb(11.372549%, 34.509804%, 54.901961%)" stroke-opacity="1" stroke-miterlimit="10" d="M 498.664062 118.40625 L 512.488281 118.40625 "/>
<g fill="rgb(0%, 0%, 0%)" fill-opacity="1">
<use xlink:href="#glyph-0-5" x="521.6875" y="105.917969"/>
<use xlink:href="#glyph-0-6" x="528.361328" y="105.917969"/>
<use xlink:href="#glyph-0-7" x="535.035156" y="105.917969"/>
<use xlink:href="#glyph-0-8" x="541.708984" y="105.917969"/>
<use xlink:href="#glyph-0-9" x="548.382812" y="105.917969"/>
<use xlink:href="#glyph-0-4" x="554.382812" y="105.917969"/>
</g>
<g fill="rgb(0%, 0%, 0%)" fill-opacity="1">
<use xlink:href="#glyph-0-5" x="521.6875" y="123.199219"/>
<use xlink:href="#glyph-0-6" x="528.361328" y="123.199219"/>
<use xlink:href="#glyph-0-7" x="535.035156" y="123.199219"/>
<use xlink:href="#glyph-0-8" x="541.708984" y="123.199219"/>
<use xlink:href="#glyph-0-9" x="548.382812" y="123.199219"/>
<use xlink:href="#glyph-0-10" x="554.382812" y="123.199219"/>
</g>
</svg>
